<?xml version="1.0" standalone="no"?>
<!DOCTYPE svg PUBLIC "-//W3C//DTD SVG 20010904//EN"
 "http://www.w3.org/TR/2001/REC-SVG-20010904/DTD/svg10.dtd">
<svg version="1.0" xmlns="http://www.w3.org/2000/svg"
 width="202.000000pt" height="112.000000pt" viewBox="0 0 202.000000 112.000000"
 preserveAspectRatio="xMidYMid meet">

<g transform="translate(0.000000,112.000000) scale(0.100000,-0.100000)"
fill="#000000" stroke="none">
<path d="M700 974 c-172 -26 -344 -61 -380 -78 -92 -43 -123 -155 -118 -419 3
-191 8 -207 61 -207 33 0 27 15 -8 22 -13 2 -22 14 -26 33 -11 49 -10 318 1
376 14 74 59 161 91 176 35 17 193 49 354 73 222 33 779 22 950 -19 78 -19
104 -19 75 -1 -23 14 -106 31 -205 40 -85 9 -741 12 -795 4z"/>
<path d="M1348 934 c-36 -11 -16 -19 46 -20 99 -1 96 6 96 -225 l-1 -199 -25
-17 c-14 -9 -41 -47 -60 -86 -31 -60 -38 -68 -57 -63 -12 3 -28 6 -36 6 -11 0
-13 48 -10 279 4 275 -2 366 -15 214 -7 -96 -11 -501 -5 -508 5 -4 70 -9 99
-6 9 0 28 29 44 66 16 36 38 71 50 77 11 6 24 16 28 22 4 6 8 106 8 223 0 198
-1 213 -19 222 -22 12 -118 22 -143 15z"/>
<path d="M1080 900 c-17 -17 -20 -33 -20 -125 0 -122 7 -131 88 -120 82 11 99
22 106 66 9 56 -4 168 -21 185 -23 23 -128 19 -153 -6z m146 -32 c7 -24 8
-167 1 -174 -2 -2 -35 -5 -73 -7 l-69 -2 -3 103 -3 102 70 0 c63 0 70 -2 77
-22z"/>
<path d="M883 903 c-24 -2 -43 -8 -43 -14 0 -12 147 -12 155 1 3 6 -2 10 -12
10 -10 0 -27 2 -38 4 -11 1 -39 1 -62 -1z"/>
<path d="M653 892 c-15 -2 -25 -13 -29 -28 -8 -31 -1 -211 9 -220 4 -4 26 -2
49 3 40 10 41 11 12 12 -48 2 -55 18 -52 118 l3 88 65 5 c36 3 58 9 50 12 -19
9 -79 14 -107 10z"/>
<path d="M1395 890 c-4 -6 5 -10 20 -10 l26 0 -3 -107 -3 -108 -42 -3 -43 -3
-1 113 c-1 138 -17 109 -18 -34 -1 -72 2 -98 12 -99 24 -2 82 2 100 7 15 5 17
20 17 124 0 98 -3 119 -16 124 -23 9 -42 7 -49 -4z"/>
<path d="M1570 893 c0 -5 24 -15 54 -22 103 -23 133 -73 120 -202 -5 -49 -3
-69 5 -69 7 0 11 32 11 100 0 121 -12 151 -69 174 -53 21 -121 31 -121 19z"/>
<path d="M1740 895 c0 -4 13 -29 29 -56 17 -26 35 -66 41 -89 12 -44 16 -253
5 -270 -3 -6 -19 -10 -36 -10 -16 0 -38 -9 -49 -20 -37 -37 -20 -80 32 -80 25
0 28 -3 28 -34 0 -46 -19 -59 -71 -49 -40 8 -42 10 -54 58 -17 65 -51 95 -109
95 -52 0 -88 -33 -114 -106 l-18 -49 -407 -3 c-260 -1 -407 -6 -407 -12 0 -6
12 -10 28 -11 113 -3 764 3 790 7 27 5 32 3 32 -14 0 -31 38 -52 92 -52 44 0
49 2 69 38 l22 37 72 -3 c64 -4 74 -2 83 15 20 37 37 190 37 333 0 137 -2 148
-27 195 -24 47 -68 98 -68 80z m59 -454 c21 -13 4 -51 -23 -51 -43 0 -54 38
-16 53 21 8 23 8 39 -2z m-187 -38 c25 -23 23 -37 -4 -19 -27 19 -78 21 -100
4 -9 -7 -21 -30 -28 -51 -14 -44 -25 -43 -15 2 14 64 103 104 147 64z m-46
-108 c-4 -15 -12 -25 -19 -22 -17 5 -21 35 -6 53 17 21 33 2 25 -31z"/>
<path d="M440 880 c-19 -12 -28 -196 -11 -213 8 -8 11 15 11 84 0 61 4 99 12
107 7 7 36 12 64 12 l53 0 7 -46 c3 -25 4 -70 0 -100 -4 -33 -2 -54 4 -54 27
0 27 193 0 210 -19 13 -121 12 -140 0z"/>
<path d="M323 855 c-27 -19 -65 -132 -61 -182 3 -33 7 -38 31 -41 15 -2 27 1
27 7 0 6 -7 11 -15 11 -24 0 -28 24 -15 82 10 50 46 118 63 118 4 0 7 -36 7
-79 0 -44 5 -83 10 -86 6 -4 10 28 10 89 0 85 -2 96 -18 96 -10 0 -27 -7 -39
-15z"/>
<path d="M780 870 c-1 -3 -2 -48 -3 -100 -2 -52 -6 -103 -11 -112 -5 -12 -4
-18 3 -18 6 0 16 12 21 26 13 33 13 174 0 194 -5 8 -10 13 -10 10z"/>
<path d="M1016 778 c-4 -57 -2 -96 4 -102 7 -7 10 6 10 40 0 27 3 73 6 102 4
32 3 52 -3 52 -6 0 -13 -41 -17 -92z"/>
<path d="M1557 843 c-3 -4 -6 -65 -6 -134 -2 -109 0 -127 14 -133 26 -10 123
-7 130 4 3 6 1 10 -5 10 -6 0 -10 15 -8 35 1 19 -2 38 -6 42 -9 9 -46 -33 -46
-53 0 -9 -11 -14 -31 -14 l-31 0 3 119 c4 109 -1 146 -14 124z"/>
<path d="M843 750 l2 -95 73 -3 c50 -2 72 1 67 8 -3 5 -35 10 -71 10 l-65 0 6
48 c4 26 2 65 -4 87 -8 34 -9 26 -8 -55z"/>
<path d="M455 650 c-4 -6 11 -10 37 -10 31 0 39 3 28 10 -20 13 -57 13 -65 0z"/>
<path d="M1333 598 c-14 -17 -27 -224 -15 -232 21 -13 52 9 77 55 15 28 35 55
46 62 19 12 27 75 13 111 -8 20 -106 23 -121 4z m105 -46 c2 -24 -4 -41 -23
-63 -14 -17 -32 -47 -40 -66 -23 -55 -40 -37 -37 38 1 35 5 79 8 97 5 32 7 33
47 30 39 -3 42 -5 45 -36z"/>
<path d="M785 580 c-60 -4 -127 -8 -147 -9 -21 0 -38 -6 -38 -12 0 -8 15 -10
48 -6 26 4 148 9 272 13 124 3 229 10 235 15 10 10 -201 9 -370 -1z"/>
<path d="M320 560 c-26 -5 -13 -8 49 -9 46 0 82 1 80 3 -10 8 -97 12 -129 6z"/>
<path d="M265 430 c15 -17 16 -22 4 -36 -12 -15 -12 -17 0 -13 8 3 19 12 25
21 12 19 -7 48 -32 48 -13 0 -12 -3 3 -20z"/>
<path d="M435 441 c-49 -12 -74 -33 -96 -81 -20 -43 -21 -47 -5 -96 12 -39 25
-58 54 -78 52 -36 86 -34 128 8 29 29 34 41 34 80 0 58 -17 94 -51 112 -37 19
-58 18 -97 -6 -41 -25 -45 -25 -32 1 14 26 76 52 105 45 39 -10 74 -46 86 -89
16 -53 29 -69 29 -34 0 15 -9 46 -20 67 -30 59 -78 84 -135 71z m33 -147 c2
-14 -3 -23 -15 -26 -38 -10 -57 14 -31 40 18 18 43 10 46 -14z"/>
<path d="M772 333 c-195 -5 -177 -23 22 -23 176 0 306 9 306 21 0 5 -42 8 -92
7 -51 -1 -157 -4 -236 -5z"/>
</g>
</svg>
