<?xml version="1.0" standalone="no"?>
<!DOCTYPE svg PUBLIC "-//W3C//DTD SVG 20010904//EN"
 "http://www.w3.org/TR/2001/REC-SVG-20010904/DTD/svg10.dtd">
<svg version="1.0" xmlns="http://www.w3.org/2000/svg"
 width="944.000000pt" height="1104.000000pt" viewBox="0 0 944.000000 1104.000000"
 preserveAspectRatio="xMidYMid meet">

<g transform="translate(0.000000,1104.000000) scale(0.100000,-0.100000)"
fill="#000000" stroke="none">
<path d="M6623 10250 c-32 -10 -73 -52 -73 -74 0 -22 57 -68 96 -77 22 -4 104
-9 184 -9 179 0 304 -14 371 -40 28 -11 82 -25 121 -30 119 -17 326 -99 425
-169 32 -22 65 -41 73 -41 8 0 25 -8 37 -18 32 -25 110 -197 123 -272 7 -35
22 -82 35 -105 24 -41 48 -155 59 -279 4 -42 16 -87 31 -116 17 -33 29 -84 40
-171 9 -68 27 -162 40 -209 30 -105 41 -170 55 -330 11 -130 34 -260 50 -290
21 -40 32 -219 40 -670 7 -421 26 -749 44 -779 32 -52 41 -563 40 -2201 -2
-1127 -11 -1720 -29 -1762 -6 -15 -104 -85 -163 -117 -15 -8 -61 -17 -103 -19
l-76 -4 -27 35 c-31 40 -70 57 -132 57 -38 0 -46 -4 -71 -37 -15 -20 -51 -62
-80 -92 -75 -81 -186 -136 -139 -69 10 15 16 44 16 84 0 85 -14 96 -117 94
-43 -1 -163 3 -268 8 -126 7 -301 8 -520 1 -357 -10 -406 -13 -475 -35 -65
-20 -386 -34 -920 -39 -256 -3 -525 -8 -598 -11 -122 -6 -132 -8 -127 -24 5
-16 -4 -19 -82 -26 -48 -4 -233 -8 -411 -8 -319 -1 -323 -1 -340 21 -25 31
-154 41 -575 47 -380 6 -547 19 -587 47 -21 16 -65 20 -305 29 -368 14 -461
23 -602 60 -106 28 -138 32 -316 37 -181 6 -199 5 -217 -12 -27 -24 -27 -86 0
-110 11 -10 45 -20 87 -25 130 -15 380 -84 410 -113 9 -9 16 -104 23 -327 12
-355 21 -437 51 -461 16 -11 24 -37 34 -107 8 -51 17 -98 21 -105 28 -52 97
-140 140 -178 46 -42 59 -48 115 -54 79 -9 109 -20 109 -40 0 -23 28 -26 270
-28 l225 -2 45 33 c35 25 60 34 111 40 104 13 129 39 129 138 0 35 18 84 31
84 19 0 29 88 29 265 0 268 14 405 44 453 13 20 31 69 41 109 9 40 23 77 31
84 10 8 83 10 261 6 209 -4 256 -8 298 -23 47 -18 88 -19 606 -19 403 0 560 3
570 11 8 7 48 17 89 23 87 13 788 41 1048 41 97 1 197 5 222 10 25 5 129 12
231 16 180 7 188 6 233 -15 75 -37 82 -52 90 -198 9 -162 21 -227 51 -259 17
-18 25 -42 30 -91 10 -92 17 -107 85 -180 33 -35 72 -87 86 -116 15 -29 35
-59 46 -67 11 -8 36 -31 55 -52 19 -20 45 -39 59 -42 13 -4 30 -19 38 -35 8
-15 28 -33 43 -39 48 -18 154 -23 258 -11 142 15 158 20 165 49 7 30 33 37
137 39 78 1 120 14 128 41 3 9 29 27 57 41 29 13 55 31 59 39 32 71 41 88 60
111 20 25 20 30 11 240 -8 172 -15 227 -32 279 -11 36 -24 97 -27 136 l-6 71
55 37 55 36 119 0 c65 0 136 5 157 11 43 12 111 68 133 110 12 24 14 300 14
1951 0 1159 -4 1987 -10 2083 -5 88 -15 241 -21 340 -6 99 -17 234 -26 300
-22 180 -31 304 -42 585 -13 311 -26 418 -57 487 -20 44 -25 79 -33 216 -15
241 -30 346 -52 357 -21 12 -35 74 -48 228 -7 75 -18 132 -35 175 -33 85 -34
88 -46 212 -9 93 -15 114 -35 135 -15 16 -29 52 -40 103 -9 42 -28 93 -41 113
-13 19 -32 50 -41 68 -10 18 -34 47 -53 63 -59 51 -242 163 -290 177 -25 8
-79 28 -120 44 -41 17 -110 37 -152 46 -42 9 -92 25 -110 35 -18 11 -67 25
-108 31 -101 15 -556 22 -597 10z m-3993 -8949 c0 -6 -5 -13 -10 -16 -15 -9
-43 3 -35 15 8 13 45 13 45 1z"/>
<path d="M3985 10218 c-170 -5 -400 -7 -510 -4 -242 6 -371 -4 -419 -33 -32
-20 -53 -21 -477 -29 l-444 -8 -65 -28 c-51 -22 -89 -30 -175 -37 -133 -10
-150 -14 -198 -45 -20 -13 -60 -33 -88 -44 -69 -28 -167 -99 -204 -149 -16
-22 -33 -41 -37 -41 -4 0 -19 -17 -32 -37 -13 -21 -36 -51 -51 -68 -58 -65
-132 -190 -139 -235 -5 -33 -17 -55 -46 -85 -34 -35 -40 -50 -54 -124 -10 -53
-25 -98 -40 -120 -36 -52 -46 -85 -46 -149 -1 -105 -16 -185 -42 -224 -52 -77
-53 -89 -53 -1563 0 -1172 3 -1394 17 -1608 14 -210 20 -253 37 -280 21 -34
33 -190 46 -577 7 -200 21 -369 35 -405 19 -51 59 -532 61 -740 1 -108 8 -146
26 -152 18 -6 22 20 38 285 17 278 20 751 5 951 -5 75 -14 267 -20 427 -10
285 -25 439 -56 559 -17 67 -34 299 -35 475 0 63 -4 394 -7 735 -8 676 1 1483
17 1637 7 72 16 108 34 140 17 30 30 78 42 158 13 89 26 133 55 195 21 45 42
109 48 146 6 38 23 89 40 120 16 30 38 77 48 104 16 45 94 172 126 206 55 59
152 177 161 197 6 13 36 37 66 53 31 16 79 44 106 61 38 23 71 34 140 43 50 7
104 18 120 25 17 6 86 22 153 36 116 23 145 24 469 24 356 0 417 6 494 46 17
9 76 16 156 20 106 5 146 2 230 -14 91 -18 116 -20 225 -11 68 6 283 12 478
14 195 2 402 8 460 14 58 6 317 11 575 11 581 2 981 12 996 27 24 24 -144 63
-281 63 -52 0 -158 7 -235 15 -77 8 -216 19 -310 25 -201 12 -1001 10 -1440
-2z"/>
<path d="M5203 9630 c-23 -5 -60 -21 -82 -35 -59 -40 -147 -44 -994 -53 -716
-7 -739 -8 -753 -26 -10 -15 -32 -22 -80 -27 -96 -10 -117 -34 -122 -136 -6
-113 9 -169 61 -219 72 -70 59 -68 427 -77 184 -5 371 -7 415 -6 44 2 271 4
505 4 l425 0 139 -33 c120 -27 159 -32 271 -32 117 0 134 2 149 19 20 22 55
37 107 46 53 8 85 38 108 101 26 67 26 85 3 132 -11 20 -24 70 -31 110 -6 40
-17 83 -25 95 -7 12 -19 44 -26 70 -20 76 -25 77 -255 76 -110 -1 -219 -5
-242 -9z m316 -187 c47 -46 49 -51 56 -115 13 -121 24 -114 -186 -121 -296
-11 -1839 -8 -1900 3 -101 19 -134 68 -82 122 15 17 38 34 50 38 11 5 158 14
325 20 319 12 434 6 482 -25 16 -11 61 -18 140 -22 98 -5 119 -4 134 10 35 32
79 37 374 47 305 10 362 17 410 52 25 17 84 34 131 37 9 1 39 -20 66 -46z"/>
<path d="M1444 8771 c-54 -5 -80 -12 -110 -32 -21 -15 -50 -30 -64 -34 -44
-13 -121 -55 -126 -69 -3 -8 4 -32 15 -55 17 -32 28 -41 55 -47 48 -8 244 14
284 33 25 12 45 14 90 7 31 -4 84 -7 117 -6 161 5 254 3 295 -8 108 -27 1154
-39 2045 -23 635 12 761 18 782 39 20 20 204 29 578 28 348 -1 472 -10 735
-54 30 -4 451 -9 936 -9 l881 -1 33 23 c49 33 58 52 40 85 -34 59 -1 57 -875
57 -741 0 -875 4 -875 25 0 36 -1135 66 -1443 39 -129 -11 -197 -24 -197 -38
0 -21 -121 -25 -845 -29 -1033 -5 -975 -5 -1366 5 -251 6 -350 11 -361 20 -27
23 -119 34 -220 27 -88 -6 -100 -9 -129 -35 -18 -16 -35 -29 -39 -29 -3 0 -21
16 -40 35 -29 30 -49 39 -110 49 -8 1 -47 0 -86 -3z"/>
<path d="M4630 8210 c-6 -11 -14 -44 -17 -73 -4 -35 -15 -63 -34 -87 -15 -19
-32 -55 -38 -80 -5 -25 -13 -191 -16 -370 -8 -386 -16 -508 -32 -518 -28 -17
-44 -128 -53 -372 -10 -253 -7 -321 17 -378 24 -58 107 -76 160 -34 11 9 46
67 77 127 l57 110 6 140 c3 77 0 373 -6 658 l-11 519 -30 76 c-21 56 -31 102
-35 167 -7 108 -12 135 -25 135 -5 0 -14 -9 -20 -20z"/>
<path d="M3187 7904 c-4 -4 0 -16 10 -26 15 -17 15 -19 -1 -37 -27 -30 -1 -35
46 -9 23 13 43 28 45 33 2 6 -14 17 -34 24 -21 8 -43 16 -49 18 -5 2 -13 0
-17 -3z"/>
<path d="M6705 7801 c-41 -11 -149 -68 -275 -145 -58 -36 -130 -79 -160 -97
-30 -18 -73 -47 -95 -65 -22 -17 -76 -51 -119 -74 -88 -48 -206 -143 -206
-166 0 -20 48 -37 88 -30 18 3 54 20 80 39 26 18 62 40 81 47 18 7 45 23 60
35 14 11 58 40 96 63 144 87 397 273 449 330 10 12 31 24 47 27 34 8 47 24 28
36 -16 10 -32 10 -74 0z"/>
<path d="M2985 7730 c-27 -16 -50 -35 -50 -42 0 -22 73 -34 103 -17 34 19 53
66 32 79 -22 14 -30 12 -85 -20z"/>
<path d="M3515 7656 c-82 -36 -308 -199 -435 -314 -41 -37 -127 -110 -190
-162 -154 -126 -258 -218 -294 -260 -17 -19 -46 -50 -65 -68 -18 -18 -31 -36
-28 -39 3 -3 25 -2 49 1 46 8 57 15 219 144 170 135 199 158 300 234 91 69
238 195 427 366 102 93 110 139 17 98z"/>
<path d="M2822 7635 c-17 -8 -47 -25 -65 -38 -84 -62 -468 -350 -518 -389 -85
-66 -219 -201 -219 -221 0 -9 11 -22 25 -29 37 -17 100 12 181 82 38 33 114
94 169 136 217 167 409 331 473 406 52 59 29 85 -46 53z"/>
<path d="M6881 7491 c-14 -25 -14 -71 -1 -71 13 0 30 34 30 59 0 28 -17 35
-29 12z"/>
<path d="M6572 7288 c-7 -7 -12 -20 -12 -29 0 -26 -39 -49 -82 -49 -46 0 -58
-17 -28 -42 32 -26 54 -23 123 19 34 20 72 43 85 50 31 19 28 29 -18 47 -48
19 -53 19 -68 4z"/>
<path d="M7533 6220 c-23 -5 -52 -14 -65 -21 -18 -10 -229 -15 -913 -21 -491
-4 -939 -12 -1000 -18 -162 -16 -811 -28 -863 -16 -30 7 -69 6 -126 -2 -45 -7
-102 -12 -127 -12 -25 0 -70 -9 -102 -20 -47 -17 -82 -20 -204 -20 -145 0
-197 5 -189 19 14 22 -21 31 -159 41 -190 12 -1121 13 -1715 0 -530 -11 -615
-16 -635 -37 -10 -9 -53 -19 -116 -26 -113 -12 -126 -22 -114 -83 11 -64 25
-66 287 -59 128 4 346 7 483 7 138 0 309 0 380 0 457 2 1079 -1 1505 -7 488
-7 496 -7 548 14 40 16 75 21 145 21 51 0 106 4 124 9 17 5 476 12 1019 16
680 5 1009 10 1054 18 36 7 121 11 190 10 69 -1 378 -5 687 -8 515 -6 565 -5
597 10 20 10 36 21 36 25 0 5 11 21 24 37 15 18 21 34 17 42 -5 7 -57 18 -122
27 -76 10 -127 22 -154 37 -37 20 -55 22 -245 24 -113 1 -224 -2 -247 -7z"/>
<path d="M2212 4751 c-67 -5 -87 -10 -98 -25 -8 -11 -14 -23 -14 -28 0 -4 -22
-19 -50 -33 -27 -14 -50 -30 -50 -35 0 -6 -15 -27 -34 -48 -65 -71 -116 -133
-116 -143 0 -5 -15 -26 -33 -46 -62 -70 -69 -105 -62 -298 4 -93 11 -182 16
-196 6 -14 23 -36 40 -48 16 -12 29 -29 29 -39 1 -60 92 -170 165 -198 23 -8
45 -25 50 -37 15 -31 64 -39 217 -35 l137 3 33 32 c21 19 53 36 86 44 40 10
61 22 83 49 15 19 42 49 58 65 47 48 133 174 174 255 68 137 68 227 -4 322
-28 37 -39 62 -39 87 0 28 -10 44 -57 91 -32 31 -83 83 -113 116 -48 51 -90
83 -175 131 -28 16 -138 23 -243 14z m113 -211 c4 -6 25 -20 48 -31 64 -32 84
-56 103 -121 10 -33 26 -64 36 -69 44 -24 66 -256 33 -365 -12 -42 -21 -53
-57 -72 -24 -12 -59 -34 -78 -48 -45 -33 -97 -29 -230 16 -136 46 -140 48
-140 66 0 9 -8 28 -18 42 -55 80 -80 211 -50 265 6 12 23 53 38 92 30 81 49
95 127 95 41 0 57 -5 73 -22 11 -12 20 -25 20 -30 0 -15 28 -8 34 8 3 9 6 37
6 62 0 88 31 151 55 112z"/>
<path d="M4615 4720 c-145 -5 -233 -12 -285 -24 -59 -14 -161 -20 -475 -29
l-400 -12 -3 -45 c-4 -59 4 -100 27 -129 20 -27 0 -24 536 -55 670 -39 1377
-25 1430 28 16 16 62 22 215 31 132 8 174 19 199 52 47 58 19 105 -90 150 -56
23 -84 27 -219 34 -179 9 -631 8 -935 -1z"/>
<path d="M7250 4675 c-47 -7 -90 -14 -97 -14 -6 -1 -25 -13 -42 -27 -17 -14
-56 -34 -88 -46 -62 -21 -93 -43 -93 -65 0 -8 -15 -20 -32 -28 -39 -16 -73
-50 -83 -85 -4 -13 -20 -36 -35 -50 -37 -35 -53 -113 -54 -265 0 -132 10 -166
64 -212 21 -17 30 -36 35 -74 6 -43 12 -53 41 -72 19 -12 36 -30 39 -39 11
-33 84 -96 141 -122 48 -23 67 -26 104 -21 25 4 81 8 125 9 101 2 199 15 246
31 20 7 63 16 95 20 101 12 133 33 188 127 44 75 50 92 58 173 13 120 5 186
-33 281 -37 93 -75 170 -87 178 -5 3 -27 36 -48 73 -50 86 -144 187 -192 206
-21 8 -60 18 -87 22 -28 4 -57 8 -65 10 -8 1 -53 -3 -100 -10z m162 -193 c18
-15 52 -40 75 -55 27 -17 45 -37 49 -55 4 -15 20 -42 38 -60 30 -32 46 -82 62
-193 8 -55 -20 -128 -60 -154 -14 -9 -34 -32 -45 -50 -17 -29 -26 -34 -73 -40
-60 -8 -94 -23 -122 -54 -25 -28 -34 -27 -71 9 -24 23 -47 33 -105 44 -70 13
-77 17 -128 70 -54 57 -54 57 -50 111 4 43 15 72 56 138 28 46 54 96 58 111 6
24 97 116 169 171 55 42 103 44 147 7z"/>
<path d="M4170 3868 c-19 -5 -46 -20 -60 -33 -42 -41 -220 -67 -467 -69 -93
-1 -104 -3 -118 -22 -10 -15 -34 -25 -82 -34 -81 -16 -119 -46 -109 -88 4 -15
17 -35 29 -45 20 -18 41 -19 312 -15 264 3 294 5 320 22 30 20 15 18 580 46
121 5 392 10 603 10 415 0 431 2 466 54 10 17 16 41 14 63 -3 31 -11 42 -53
72 -49 35 -51 36 -180 42 -206 11 -1215 9 -1255 -3z"/>
</g>
</svg>
