<?xml version="1.0" standalone="no"?>
<!DOCTYPE svg PUBLIC "-//W3C//DTD SVG 20010904//EN"
 "http://www.w3.org/TR/2001/REC-SVG-20010904/DTD/svg10.dtd">
<svg version="1.0" xmlns="http://www.w3.org/2000/svg"
 width="250.000000pt" height="198.000000pt" viewBox="0 0 250.000000 198.000000"
 preserveAspectRatio="xMidYMid meet">

<g transform="translate(0.000000,198.000000) scale(0.100000,-0.100000)"
fill="#000000" stroke="none">
<path d="M1295 1823 c-94 -21 -184 -47 -201 -58 -32 -21 -139 -188 -158 -247
-3 -12 -16 -18 -35 -18 -29 0 -30 2 -33 53 l-3 52 -40 3 c-46 4 -137 -14 -177
-34 -30 -16 -35 -38 -16 -79 9 -19 9 -28 0 -37 -16 -16 -24 -5 -31 39 -6 37
-7 38 -51 38 -62 -1 -148 -13 -188 -28 -29 -10 -33 -15 -28 -37 20 -94 22 -86
-26 -102 -28 -10 -51 -26 -66 -49 -25 -36 -25 -28 -6 -181 7 -49 6 -51 -15
-45 -31 8 -54 -18 -40 -45 8 -15 17 -19 39 -15 28 6 28 6 35 -56 3 -34 12 -87
20 -117 7 -30 16 -75 19 -100 19 -131 49 -297 56 -310 4 -8 11 -42 15 -75 9
-72 67 -197 98 -213 12 -7 33 -13 47 -16 52 -8 295 40 425 85 17 5 96 14 177
19 81 4 151 11 155 13 5 3 78 15 163 26 165 23 195 28 360 60 58 12 168 33
245 47 172 32 246 51 259 64 15 15 9 187 -10 275 -8 39 -17 102 -20 140 -3 39
-11 113 -19 165 -8 52 -19 142 -25 199 -6 56 -15 114 -20 127 -9 22 -7 24 21
22 35 -3 56 19 46 46 -7 17 -52 22 -62 6 -12 -20 -23 -9 -29 33 -4 23 -21 77
-38 121 -25 62 -40 84 -70 106 -23 17 -46 26 -58 23 -16 -4 -20 1 -26 35 -10
62 -11 63 -89 47 -39 -7 -92 -17 -120 -22 l-50 -8 -3 -53 c-2 -32 -8 -52 -15
-53 -7 0 -34 -4 -60 -8 l-48 -8 -117 88 c-115 88 -131 95 -187 82z m85 -40
c14 -9 27 -20 30 -23 3 -3 38 -28 79 -55 40 -27 80 -58 88 -70 38 -54 83 -131
83 -142 0 -8 11 -36 25 -63 26 -51 21 -61 -18 -36 -12 8 -58 26 -102 41 -188
65 -369 19 -527 -131 -36 -35 -70 -64 -75 -64 -5 0 -14 38 -20 83 -10 73 -9
93 6 149 10 36 27 79 39 96 12 16 22 34 22 39 0 4 21 35 45 67 25 33 45 63 45
67 0 7 45 23 100 36 12 3 107 17 145 22 6 0 22 -7 35 -16z m580 -3 c0 -5 -11
-10 -24 -10 -14 0 -27 -4 -30 -9 -3 -5 -33 -12 -67 -16 -42 -5 -66 -13 -80
-29 l-21 -21 4 29 c3 29 6 31 88 47 103 20 130 22 130 9z m3 -55 c1 -5 -34
-17 -78 -26 -44 -9 -92 -20 -107 -24 -18 -4 -28 -3 -28 3 0 17 12 21 96 33 44
6 83 15 89 20 11 11 26 8 28 -6z m82 -31 c22 -9 50 -68 64 -135 7 -31 21 -66
31 -77 27 -29 25 -32 -14 -32 -19 0 -69 -7 -112 -14 -67 -13 -162 -23 -262
-30 -21 -1 -29 11 -62 87 -21 49 -46 97 -56 108 -9 10 -15 21 -13 23 4 3 85
17 234 41 50 7 101 18 115 24 30 12 53 13 75 5z m-1200 -103 c3 -6 -11 -13
-32 -16 -21 -4 -61 -11 -89 -17 -28 -6 -58 -8 -65 -5 -21 7 37 27 106 37 33 4
63 8 67 9 4 0 9 -3 13 -8z m4 -63 c0 -33 0 -33 -11 -8 -11 25 -11 25 -15 3 -6
-31 -23 -29 -23 1 0 22 10 30 43 35 4 0 7 -14 6 -31z m-67 -8 c3 -20 0 -30 -9
-30 -8 0 -13 12 -13 30 0 17 4 30 9 30 5 0 11 -13 13 -30z m-40 -14 c1 -10 -3
-21 -9 -23 -9 -3 -13 6 -13 28 0 34 15 31 22 -5z m-75 -12 c8 -17 8 -24 1 -22
-13 5 -31 48 -20 48 4 0 12 -12 19 -26z m33 5 c0 -11 -4 -17 -10 -14 -5 3 -10
13 -10 21 0 8 5 14 10 14 6 0 10 -9 10 -21z m-133 5 c-7 -7 -209 -45 -214 -40
-10 9 35 31 76 37 62 9 146 10 138 3z m358 -131 l0 -107 -67 -17 c-37 -10
-102 -20 -145 -24 -86 -7 -203 -24 -213 -30 -12 -7 -212 -37 -217 -32 -2 3 -7
38 -10 79 l-6 74 43 1 c53 2 139 30 165 54 41 36 273 94 435 108 12 1 15 -17
15 -106z m-339 86 c7 -12 -15 -31 -31 -26 -5 2 -11 11 -13 20 -4 19 32 24 44
6z m-58 -20 c2 -10 -6 -19 -18 -22 -23 -6 -34 7 -26 29 8 20 40 14 44 -7z
m-68 -14 c0 -16 -6 -25 -15 -25 -15 0 -21 31 -8 43 13 14 23 6 23 -18z m-50
-10 c0 -25 -23 -35 -35 -15 -10 16 2 40 20 40 9 0 15 -9 15 -25z m1134 -2
c176 -39 309 -178 352 -370 25 -113 15 -207 -32 -301 -40 -79 -56 -93 -24 -20
54 122 49 290 -12 415 -52 105 -176 203 -312 244 -49 15 -71 16 -145 8 -207
-23 -365 -160 -401 -347 -15 -75 -7 -181 16 -225 9 -18 27 -52 40 -77 41 -80
97 -144 153 -174 76 -41 213 -59 309 -41 117 23 234 91 297 174 22 28 41 49
43 47 5 -6 -55 -115 -75 -138 -40 -45 -249 -127 -325 -128 -5 0 -8 -5 -8 -11
0 -7 11 -8 30 -4 17 4 45 8 63 9 51 4 200 79 252 127 47 44 48 44 31 12 -14
-29 -81 -89 -142 -129 -74 -50 -288 -64 -380 -26 -127 52 -250 166 -309 287
-38 78 -39 83 -40 190 0 177 41 268 170 375 70 58 169 112 225 123 36 7 145
-3 224 -20z m696 7 c0 -5 -4 -10 -10 -10 -5 0 -10 5 -10 10 0 6 5 10 10 10 6
0 10 -4 10 -10z m-68 -40 c7 -34 21 -149 33 -280 4 -36 11 -82 16 -102 5 -21
14 -93 19 -160 5 -68 14 -147 20 -176 7 -29 10 -55 8 -57 -1 -2 -34 -8 -73
-14 -38 -6 -95 -18 -125 -27 -95 -28 -214 -54 -252 -54 -20 0 -49 -5 -64 -10
-43 -17 -40 -3 9 41 73 63 155 221 175 335 21 122 -52 346 -142 433 -20 19
-36 40 -36 47 0 8 45 16 133 24 72 7 150 19 172 26 22 7 53 12 70 11 25 -2 30
-7 37 -37z m-1757 -21 c-36 -16 -117 -27 -103 -14 8 8 99 32 123 33 12 0 5 -7
-20 -19z m1176 -54 c90 -42 114 -59 157 -108 63 -73 79 -107 98 -208 15 -77
15 -84 -5 -149 -12 -38 -26 -72 -32 -75 -6 -5 -7 3 -2 22 4 15 8 72 7 125 -1
91 -3 102 -38 172 -41 83 -109 151 -187 185 -72 32 -178 46 -245 32 -105 -21
-238 -112 -280 -192 -8 -16 -17 -29 -20 -29 -12 0 10 48 43 93 19 26 30 47 24
47 -12 0 -52 -52 -74 -95 -8 -16 -19 -66 -25 -110 -6 -44 -15 -92 -21 -105 -8
-21 -10 -14 -10 38 -1 104 30 186 106 279 25 30 141 98 199 116 30 10 78 15
124 14 67 -2 87 -8 181 -52z m-52 -34 c59 -22 152 -89 185 -136 64 -86 85
-237 46 -323 -25 -55 -94 -137 -145 -172 -44 -30 -190 -66 -230 -56 -14 3 -27
1 -31 -6 -5 -8 18 -10 89 -5 115 6 178 33 257 109 31 29 46 39 39 26 -37 -72
-124 -126 -255 -159 -60 -15 -83 -16 -131 -8 -74 14 -147 49 -199 97 -23 20
-50 42 -60 48 -10 5 -30 32 -44 60 -20 40 -25 67 -28 150 -4 93 -2 105 24 160
30 65 102 140 172 181 90 53 220 67 311 34z m-616 -101 c-2 -30 -10 -85 -19
-122 -11 -46 -15 -94 -12 -155 4 -79 9 -96 47 -171 23 -46 60 -104 83 -128 43
-47 151 -122 206 -144 43 -17 30 -28 -38 -35 -98 -9 -144 -18 -199 -36 -29
-10 -57 -16 -61 -14 -5 3 -48 -2 -97 -11 -48 -9 -108 -20 -133 -24 -25 -5 -76
-15 -113 -24 -38 -9 -92 -16 -122 -16 l-53 0 -11 48 c-6 26 -15 74 -20 107 -6
33 -16 90 -24 126 -8 36 -22 126 -32 200 -9 74 -26 178 -37 233 -13 65 -16
102 -10 108 6 6 52 17 104 24 51 8 114 21 140 29 26 8 59 15 73 15 40 0 247
31 270 41 11 4 29 7 40 6 18 -2 20 -8 18 -57z m-708 -99 c3 -5 1 -12 -5 -16
-5 -3 -10 1 -10 9 0 18 6 21 15 7z m2040 -531 c1 -19 4 -40 8 -47 12 -20 -70
-42 -213 -58 -177 -20 -257 -33 -280 -45 -29 -15 -191 -52 -230 -51 -38 0
-109 -12 -205 -34 -33 -8 -115 -19 -183 -25 -112 -9 -261 -36 -337 -60 -40
-13 -253 -50 -288 -50 -27 0 -107 63 -107 85 0 6 26 11 58 12 32 2 94 12 138
23 43 11 124 25 179 31 55 5 146 21 201 34 56 14 115 25 130 25 16 0 52 7 79
16 31 9 102 16 185 18 134 4 195 16 276 53 17 8 71 16 125 18 92 3 288 43 333
67 22 13 91 27 116 24 10 -1 15 -13 15 -36z"/>
<path d="M1410 1649 c-19 -4 -96 -19 -170 -32 -191 -35 -200 -40 -200 -108 0
-37 9 -37 195 -3 77 14 170 31 207 37 37 7 72 17 77 22 13 13 -39 94 -59 93
-8 0 -31 -4 -50 -9z m58 -40 c8 -12 10 -25 5 -29 -12 -10 -401 -85 -408 -78
-11 10 6 56 23 63 9 3 66 15 127 26 60 11 126 24 145 29 64 14 94 12 108 -11z"/>
<path d="M1815 1539 c-4 -5 -4 -21 -1 -35 5 -20 12 -25 33 -22 34 4 51 31 34
52 -15 18 -56 21 -66 5z m53 -17 c2 -7 -4 -15 -13 -18 -20 -8 -27 -1 -19 20 7
18 25 17 32 -2z"/>
<path d="M738 1369 c-22 -13 -24 -67 -3 -75 8 -4 26 -3 40 0 20 5 25 12 25 40
0 43 -25 57 -62 35z m42 -28 c0 -11 -5 -23 -11 -27 -15 -9 -33 12 -26 30 9 23
37 20 37 -3z"/>
<path d="M1380 1195 c0 -28 4 -44 10 -40 6 3 10 21 10 40 0 19 -4 37 -10 40
-6 4 -10 -12 -10 -40z"/>
<path d="M1210 1154 c0 -5 7 -19 15 -30 13 -19 12 -23 -11 -45 -39 -36 -66
-96 -71 -161 -8 -82 11 -73 24 11 8 49 20 82 42 115 18 25 36 46 41 46 18 0
10 26 -15 50 -14 13 -25 19 -25 14z"/>
<path d="M1613 1099 c-32 -12 -30 -39 2 -39 26 0 44 25 29 40 -5 4 -19 4 -31
-1z"/>
<path d="M1420 1005 c0 -13 4 -14 20 -5 41 22 79 -25 67 -86 -3 -15 0 -23 7
-21 6 2 12 21 14 41 4 50 -27 86 -75 86 -23 0 -33 -5 -33 -15z"/>
<path d="M1220 900 c-11 -7 -5 -10 23 -10 23 0 36 4 32 10 -8 13 -35 13 -55 0z"/>
<path d="M1640 870 c0 -5 7 -10 15 -10 8 0 15 -4 15 -10 0 -5 -4 -10 -10 -10
-5 0 -10 -4 -10 -10 0 -16 40 -12 46 5 4 8 1 22 -6 30 -14 17 -50 20 -50 5z"/>
<path d="M1536 740 c16 -23 30 -37 32 -30 5 14 -28 62 -47 68 -7 2 0 -15 15
-38z"/>
<path d="M1292 742 c-21 -7 -34 -52 -21 -68 15 -18 24 -18 43 2 31 31 15 79
-22 66z m14 -48 c-3 -8 -10 -12 -16 -9 -7 4 -6 14 2 28 12 24 24 8 14 -19z"/>
</g>
</svg>
