<?xml version="1.0" encoding="UTF-8"?><svg id="Layer_1" xmlns="http://www.w3.org/2000/svg" viewBox="0 0 118.97 492.36"><path d="M83.23,195.87c.43,2.18,2.14,3.48,3.49,5.02,4.18,4.75,7.22,10.11,8.73,16.32,.6,2.49,.06,4.76-1.02,6.95-.99,2.02-2.61,2.65-4.26,1.25-2.04-1.74-4.44-2.39-6.88-3.26-.71,1.14,.26,1.73,.79,2.38,1.81,2.24,3.82,4.32,5.49,6.66,1.66,2.33,3.01,4.88,4.46,7.36,.57,.96,.9,2.09,1.58,2.95,3.66,4.61,5.17,10.22,7.33,15.53,.92,2.26,1.15,4.65,.7,7.07-.26,1.4-1.1,2.32-2.5,2.56-1.58,.27-3.32,.63-4.62-.53-2.28-2.04-5.04-2.59-7.88-3.11-.9-.16-1.77-.54-2.61-.81-.88,1.02-.04,1.62,.24,2.22,1,2.18,2.08,4.32,3.15,6.46,2.45,4.91,3.46,10.2,4.04,15.58,.29,2.7,.24,5.41-1.86,7.99,1.19,.37,2.3,.8,3.46,1.05,5.63,1.21,11.25,2.47,16.39,5.19,1.54,.81,3.11,1.72,4.37,2.9,4.2,3.93,4.2,9.58-.01,13.49-2.84,2.64-6.13,4.6-9.91,5.64-1.54,.42-3.09,.8-4.9,1.27-.12,1-.35,2.06-.37,3.13-.1,4.8-.15,9.59-.2,14.39,0,.8-.22,1.82,.18,2.35,1.56,2.05,1.26,4.48,1.81,6.75,.76,3.13,.45,6.02-.83,8.87-1.4,3.12-1.96,6.39-1.93,9.79,0,.48-.08,.97,.02,1.44,1.74,8.89,.7,17.81,.35,26.73-.29,7.18-.22,14.38-.1,21.57,.09,5.43,.63,10.85,.74,16.28,.3,14.07,.52,28.13,.66,42.2,.04,3.83-.3,7.66-.52,11.49-.05,.91-.32,1.8-.61,3.35-.76-.95-1.33-1.34-1.39-1.79-.16-1.42-.12-2.87-.16-4.31-.31-12.79-.65-25.57-.92-38.36-.14-6.4-.13-12.79-.24-19.19-.02-.98,.46-2.19-1.19-2.71-.45-.14-.66-1.68-.66-2.57-.01-4.8,.04-9.6,.14-14.39,.25-12.31,.54-24.61,.81-36.92,.01-.63,0-1.26,0-1.88-1.18-.31-1.43,.59-1.85,1.18-3.02,4.24-6.95,7.46-11.32,10.22-2.7,1.71-5.37,3.47-7.97,5.32-5,3.54-10.53,6.05-16.15,8.35-3.14,1.29-6.49,1.57-9.89,.61-2.28-.65-4.61-1.07-7.2-1.66-.29,1.32-.66,2.36-.73,3.42-.63,9.91-2.41,19.66-3.88,29.46-.92,6.16-1.42,12.39-2.2,18.57-1.43,11.42-2.91,22.83-4.38,34.24-.43,3.33-.86,6.66-1.37,9.98-.1,.68-.56,1.31-.84,1.91-1.43-.27-1.36-1.18-1.31-1.91,.26-3.19,.55-6.37,.92-9.54,1.1-9.53,2.25-19.05,3.36-28.58,.69-5.87,1.28-11.76,2.05-17.62,1.09-8.24,2.44-16.44,3.4-24.7,.56-4.75,.62-9.56,.79-14.35,.03-.88-.42-1.81-.8-2.65-.46-1.01-1.18-1.91-1.63-2.92-.73-1.63-.5-2.37,.94-3.74q1.89-1.8,.98-3.96c-.31-.73-.73-1.42-1-2.17-.47-1.27-.57-2.53,.66-3.47,1.27-.98,1.6-2.32,1.62-3.82,.07-6.87,.23-13.74,.19-20.61-.02-3.05-.52-6.04-2.61-8.54-.59-.71-.88-1.7-1.25-2.58-6.29-15.23-13.4-30.07-20.85-44.76-4.49-8.85-7.9-18.18-10.98-27.6-.83-2.53-.96-5.32-1.2-8.01-.27-3.09,.94-5.71,3.44-7.51,3.36-2.42,6.81-4.76,10.36-6.89,.98-.59,1.76-1.1,2.45-2.03,4.89-6.65,10.86-12.08,18.45-16.13-.1-.8-.22-1.71-.32-2.63-.1-.95-.2-1.91-.24-2.86-.34-7.02,1.65-12.93,8.02-16.76,1.09-.66,2.08-1.47,3.34-2.37,0-2.58-.11-5.29,.03-7.98,.17-3.51,.47-7.01,.86-10.5,.16-1.41,.62-2.81,1.09-4.16,.81-2.31,2.49-3.73,4.93-3.99,1.73-.18,3.54-.41,5.22-.1,4.78,.9,9.21,2.64,12.5,6.49,.62,.72,1.33,1.36,2.02,2.01,.09,.08,.29,.04,.82,.1,.51-6.17-.89-12.27-.36-18.49-8.6-4.54-12.83-12.4-16.33-20.74-4.55-10.83-7.06-22.22-8.83-33.78-2.72-17.76-3.49-35.64-2.71-53.57,.66-15.03,2.39-29.95,5.73-44.65,.25-1.09,.5-2.19,.86-3.25,.4-1.19,.91-2.33,1.46-3.72,.97,.12,1.9,.15,2.8,.35,13.4,3,26.88,3.77,40.48,1.52,3.2-.53,3.68-.74,5.76-3.08-1.25-1.07-2.75-1.31-4.28-1.6-5.88-1.12-11.79-.79-17.69-.4-7.17,.47-14.36,.85-21.44,2.28-.96,.2-2.02-.05-3.22-.1,.74-1.51,1.9-1.61,2.94-1.92C68.41,1.37,76.8,.37,85.3,.14c5.11-.14,10.25-.45,15.29,.75,1.55,.37,3.13,.73,4.59,1.32,2.52,1.03,2.85,2.48,1.46,4.95-1.36,2.42-3.45,3.88-6.06,4.28-7.42,1.16-14.83,2.31-22.41,1.66-6.22-.53-12.42-1.01-18.55-2.26-.9-.18-1.86-.11-2.95-.17-.4,1.07-.83,1.92-1.03,2.82-2.42,10.78-4.06,21.67-5.05,32.67-1.19,13.25-1.38,26.51-.71,39.78,.82,16.32,2.84,32.5,7.63,48.19,1.53,5.03,3.6,9.91,5.67,14.75,1.51,3.53,3.79,6.63,6.23,9.63,2.37,2.93,5.54,4.23,8.99,4.77,1.6,.25,3.59-.2,5.02-1.01,2.19-1.24,4.38-2.78,5.95-4.71,2.41-2.95,4.57-6.18,6.36-9.54,5.24-9.82,8.12-20.47,10.39-31.29,3.92-18.71,5.31-37.64,5.07-56.73-.13-10.57-.64-21.1-2.18-31.55-.72-4.9-1.68-9.76-2.5-14.65-.2-1.21-.25-2.46-.36-3.66,1.63-.87,2.48-.17,2.75,1.01,.81,3.58,1.57,7.18,2.17,10.81,3.14,19.18,3.77,38.5,2.73,57.87-.94,17.43-3.29,34.68-8.33,51.47-2.07,6.91-4.6,13.63-8.08,19.96-2.8,5.1-6.29,9.63-11.12,13.22v9.24c.45-.14,1.03-.13,1.23-.4,2.3-3.09,4.78-5.92,8.07-8.09,1.82-1.2,3.17-3.12,4.77-4.67,2.37-2.3,3.94-2.06,6.49,.22,3.32,2.97,3.87,6.87,2.86,10.54-1.37,4.99-1.58,10.07-2.37,15.09-1.77,11.23-2.44,22.59-1.79,33.94,.28,4.89,1.49,9.83,3,14.51,2.63,8.11,3.15,16.2,1.97,24.6-.72,5.09-1.78,10.04-3.34,14.93-.87,2.72-1.3,5.59-1.86,8.41-.64,3.25-.8,6.63-2.68,10.29-.52-1.15-1.03-1.75-1.03-2.35,.09-6.27,.98-12.45,3.07-18.36,2.11-5.95,2.92-12.11,3.47-18.31,.51-5.79-.11-11.49-2.05-17.02-3.78-10.77-4.43-21.85-3.37-33.13,.72-7.63,.9-15.31,2.37-22.87,.48-2.47,.3-5.11,.18-7.65-.07-1.39-.48-2.84-1.05-4.12-.85-1.91-2.32-2.54-4.35-1.95-2.65,.76-5.15,1.95-6.85,4.19-2.51,3.31-4.9,6.71-7.17,10.18-.55,.85-.52,2.12-.62,3.21-.22,2.55-.37,5.1-.52,7.65-.08,1.34-.52,2.49-1.57,3.37-.07-4.92-.16-9.84-.19-14.76-.03-4.87,0-9.75,0-14.9-1.81,.37-3.33,.69-4.73,.98-.2,.53-.4,.82-.41,1.12-.16,6.19-.31,12.38-.4,18.57-.01,.74,.18,1.63,.61,2.22,1.67,2.28,3.47,4.47,5.22,6.7Zm11.53,169.98c-.95,1.04-1.89,2.08-2.85,3.11-.97,1.05-1.94,2.1-2.95,3.1-1.02,1-2.07,1.97-3.17,2.88-1.1,.91-2.31,1.68-3.41,2.59-.98,.81-2.33,1.32-2.98,3.06,4.1-1.86,7.27-4.23,10.08-7.04,2.24-2.23,4.4-4.57,5.18-7.81,.52-.56,1.04-1.12,1.57-1.67-.17-.11-.35-.23-.52-.34-.32,.7-.64,1.4-.95,2.1Zm-30.09,11.19c-6.75,1.99-13.54,3.58-20.66,2.23-.37-.07-.81,.19-2.01,.49,.89,.5,1.27,.82,1.7,.95,6.96,2.1,13.51,.42,19.92-2.28,.44-.18,.64-.93,.97-1.41,.26-.02,.52-.05,.77-.07-.23,.03-.47,.06-.7,.09Zm22.15-13.11c-.39,.28-1.1,.55-1.11,.84-.05,3.12-2.37,4.64-4.42,6.26-2,1.58-4.1,3.06-6.3,4.35-3.43,2.03-6.88,4.07-10.5,5.73-5.74,2.64-11.79,3.9-18.16,3.02-1.25-.17-2.5-.33-3.85-.51-.94,1.93-.71,3.76-.27,5.98,1.77,.55,3.59,1.65,5.35,1.57,4.59-.22,9.22-.44,13.49-2.68,6.07-3.2,12.25-6.19,17.23-11.1,1.47-1.44,3.39-2.42,4.91-3.81,2.69-2.48,5.38-4.99,7.79-7.73,1.22-1.38,1.84-3.28,2.73-4.95,.67-1.03,1.34-2.06,2.02-3.1-.83-.98-1.5-1.76-2.11-2.48q4.33-6.71,3.28-12.18c-1.35,0-2.76,.04-4.17,0-5.29-.18-10.54-.6-15.34-3.13-.54-.28-.84-1-1.73-2.12,7.8,.23,14.32,3.64,21.38,3.36,.88-5.45,.87-12.68-.07-16.13-11.12,1.66-22.28,.84-33.43,.17-4.13-.25-8.24-.99-12.34-1.67-3.66-.61-7.12-1.86-10.16-4.03-4.07-2.9-4.38-6.62-.66-9.99,1.5-1.36,3.38-2.44,5.27-3.21,5.3-2.19,10.47-4.7,16.12-6.06,3.24-.78,6.12-2.47,8.15-5.65-.75-.64-1.25-1.31-1.92-1.59-1.02-.43-2.14-.64-3.23-.85-3.74-.73-6.83-2.56-9.43-5.33-3.61-3.84-7.26-7.64-10.92-11.42-1.11-1.15-2.25-2.27-3.48-3.28-3.25-2.67-6.98-3.12-10.78-1.64-2.2,.86-3.86,.86-5.68-.74-.91-.81-2.29-1.08-3.38-1.72-.45-.26-.71-.85-1.43-1.76h5.37c.82-6.14,2.82-12.04-.88-17.84h-6.98c-2.94,2.06-6.1,4.24-9.21,6.47-2.77,1.98-3.71,4.7-3.01,8,.37,1.72,.68,3.46,1.26,5.11,3.4,9.64,6.88,19.25,11.54,28.38,7.12,13.95,13.87,28.06,19.78,42.57,.3,.74,.61,1.48,.97,2.19,.77,1.54,2.01,2.5,3.76,2.56,2.39,.09,4.78,.16,7.17,.1,2.71-.06,5.42-.29,8.13-.39,.5-.02,1.01,.27,1.7,.46-.48,.53-.64,.89-.87,.93-4.97,1.05-9.95,2.06-15.17,3.13-.21,8.96-.42,18.01-.62,27.05,0,.14,.1,.3,.18,.43,.08,.14,.2,.25,.32,.41,2.54,1.01,5.24,1.39,7.95,1.09,6.37-.71,12.59-1.98,18.37-5,5.83-3.04,11.4-6.44,16.46-10.66,1.46-1.22,3.07-2.27,4.72-3.22,.64-.37,1.14,.25,1.21,1-1.67,1.62-3.33,3.24-5,4.87Zm-15.96-64.61c-3.09,1.51-5.79,3.33-8.76,4.16-5.43,1.51-10.48,3.88-15.65,5.96-1.46,.59-2.89,1.4-4.12,2.38-1.96,1.55-1.87,3.22,.04,4.74,2.83,2.26,6.18,3.35,9.67,3.93,3.78,.63,7.59,1.13,11.4,1.47,9.56,.84,19.14,1.09,28.72,.47,1.73-.11,3.44-.64,5.16-1.01,1.39-.3,2.75-.71,4.15-.94,4.52-.73,8.62-2.38,12.12-5.36,3.18-2.71,3.26-6.23,.17-9.08-1.04-.96-2.31-1.71-3.57-2.39-3.54-1.91-7.37-3.04-11.26-3.98-5.58-1.34-11.15-2.76-16.73-4.11-.4-.1-.87,.07-1.2,.1-1.22,1.92,.29,4.63-2.38,6.41-.13-1.67-.19-2.89-.33-4.11-.31-2.7-.59-5.4-1.01-8.08-.18-1.13-.9-1.92-2.53-1.82,.18,1.39,.42,2.62,.49,3.86,.05,.93,.26,2.35-.24,2.74-2.02,1.6-1.23,3.81-1.66,5.75-.16,.72-.5,1.39-1.01,2.75-.67-1.77-1.09-2.86-1.47-3.85Zm22.38-55.06c-2.45-6.61-4.42-9.84-9.28-15.34-1.27-1.43-2.58-2.86-3.63-4.44-1.71-2.58-3.85-4.68-6.33-6.47-4.92-3.55-9.86-7.08-14.75-10.66-1.92-1.4-3.95-2.02-6.3-1.5-1.09,.24-2.22,.34-3.29,.65-4.03,1.16-6.95,3.9-9.19,7.23-1.63,2.42-1.74,9.05-.74,12.62,.77-.04,1.59,.03,2.36-.12,5.92-1.16,11.15,.81,15.79,4.09,3.89,2.75,7.67,5.86,10.83,9.4,4.46,4.99,8.59,10.34,12.33,15.88,2.18,3.24,5.11,3.54,8.62,4.43-.9-1.79-1.6-3.04-2.19-4.35-1-2.2-1.63-4.51-1.5-6.96,.15-2.82,2.65-4.81,5.53-4.42,.59,.08,1.17,.65,1.74-.02Zm-7.06,29.85c.19-.2,.39-.4,.58-.6-.59-1.28-1.29-2.52-1.75-3.84-2.65-7.48-6.92-13.96-12.03-19.94-.73-.85-1.56-1.63-2.16-2.57-3.05-4.79-7.34-8.38-11.53-12.08-3.07-2.71-6.58-4.68-10.52-5.45-4.22-.83-8.42-.68-12.35,1.86-5.16,3.33-9.63,7.36-13.7,11.89-.26,.29-.27,.8-.38,1.18,1.35,.83,2.2,0,3.1-.65,1.7-1.22,3.46-1.66,5.29-.27,1.13,.86,2.34,.82,3.63,.52,5.39-1.24,9.84,.76,13.41,4.53,4.71,4.96,10.11,9.34,13.51,15.46,.69,1.24,1.67,2.35,2.66,3.38,3.8,3.94,7.13,8.18,9.03,13.4,.27,.73,.71,1.45,1.23,2.03,.64,.7,1.44,1.25,2.19,1.86,.62,.5,1.22,1.04,1.9,1.46,.67,.42,1.03,1.71,2.39,.9-1.01-1.89-2.16-3.63-2.92-5.52-.87-2.2-1.62-4.51-2.01-6.83-.45-2.73,1.07-4.27,3.87-4.12,1.21,.07,2.46,.56,3.55,1.14,1.1,.59,2.01,1.52,3,2.3Zm-.95-69.98c-1.5-1.92-2.97-3.44-4-5.2-2.92-5.01-7.03-9.05-10.7-13.45-2.47-2.95-5.68-4.41-9.39-5.51-.81,1.92-1.52,3.59-2.22,5.26-.42-1.36-.25-2.57-.12-3.79,.07-.63,.1-1.31-1.06-1.29-.84,1.38-.51,3.42-2.32,5.35,.29-2.43,.48-4.05,.68-5.66-1.86-.33-2.91,.32-3.53,1.55-.49,.98-.78,2.08-1.06,3.14-1.33,5.02-.73,10.15-.8,15.24-.01,.88,.34,1.77,.49,2.53,2.95,.28,5.61,.53,8.44,.79,1.93-1.96,2.2-2.09,4.09-.86,2.68,1.73,5.31,3.53,7.23,6.18,.65,.9,1.34,1.84,2.22,2.48,3.41,2.49,6.9,4.87,10.88,7.65-.79-2.34-1.52-4.07-1.95-5.87-.8-3.32-.29-6.3,3.14-8.56Zm-19.57,85.64c-1.72-3.27-3.19-5.57-4.18-8.06-1.74-4.35-.74-6.26,3.8-7.83-.33-.56-.54-1.19-.96-1.6-2.87-2.8-4.92-6.26-7.45-9.3-3.96-4.76-8.5-9.03-12.82-13.48-.44-.45-1.01-.78-1.55-1.11-2.8-1.66-5.66-1.74-8.95-.27,.16,2.06,.38,4.1,.48,6.14,.1,2.07,.23,4.15,.1,6.2-.13,1.99-.57,3.96-.96,6.47,5.64-.98,9.12,2.05,12.45,5.38,.45,.45,.86,.94,1.3,1.4,3.75,3.9,7.47,7.84,11.28,11.68,1.88,1.89,4.04,3.43,7.46,4.38Zm-38.13-41.32c2.33,6.15,.65,12.12,.5,18.38,.89-.29,1.74-.31,1.91-.66,.56-1.11,1.2-2.35,1.22-3.54,.08-4.42,.05-8.85-.22-13.26-.1-1.62-1.53-1.67-3.41-.91Zm54.14,42.64c-.13,.25-.26,.5-.39,.75l2.98,.82c.06-.19,.12-.39,.18-.58-.93-.33-1.85-.66-2.78-.99Zm-18.26-85.19c-.13-.05-.25-.1-.38-.15,.08,.15,.17,.3,.25,.44,.04-.1,.09-.2,.13-.3Z"/><path d="M54.1,68.3c1.69-.72,3.77-1.33,6.01-.88,.68,2.28-2.13,1.7-2.36,3.48,5.35,1.1,10.74,2.21,17.03,3.51-1.33,.76-1.9,1.38-2.42,1.34-4.45-.36-8.89-.82-13.33-1.31-1.55-.17-3.09-.51-5.08-.84,.35,2.34,.59,4.35,.95,6.33,.74,4.1,1.07,8.2,.82,12.39-.15,2.52,.2,5.09,.55,7.61,1.43,10.28,3.15,20.52,5.79,30.57,1.21,4.61,2.87,9.14,4.69,13.55,1.6,3.9,4.39,7.05,7.91,9.43,4.06,2.74,6.74,2.68,10.41-.48,1.9-1.65,3.67-3.6,5-5.73,4.49-7.22,7.92-14.9,9.83-23.27,1.74-7.63,3.85-15.2,4.66-22.99,.83-7.94,1.2-15.92,1.73-23.89,.06-.91-.21-1.84-.32-2.73-2.16-.4-4.13,1.49-6.27-.15,.69-2.37,3.98-1.77,4.95-4.14-1.53-1.08-3.21-1.52-4.91-1.76-5.05-.72-10.13-1.33-15.19-2.02-1.35-.19-2.93,.25-4.07-1.46,.6-.26,1.09-.6,1.61-.68,7.58-1.13,14.96-.03,22.24,2.09,.61,.18,1.19,.47,1.75,.77,2.15,1.12,3.4,2.76,3.29,5.34-.14,3.03,0,6.08-.22,9.1-.5,6.85-.94,13.71-1.79,20.51-1.34,10.8-4.05,21.33-7.28,31.7-1.96,6.3-5.5,11.89-9.08,17.34-1.61,2.45-4.26,4.27-6.61,6.14-2.15,1.71-4.81,1.94-7.28,.91-2.18-.9-4.34-2.07-6.15-3.55-3.64-2.98-6.21-6.81-7.92-11.24-2.2-5.67-3.75-11.49-5.15-17.42-1.84-7.79-2.85-15.7-4.26-23.55-.56-3.12-.53-6.35-.74-9.54-.28-4.14-.3-8.31-.88-12.4-.57-4.04-1.07-7.93,2.11-12.11Z"/><path d="M76.52,74.92c3.71-1.24,12.5-1.46,21.25-.71-.62,.68-.97,1.4-1.5,1.58-4.16,1.42-8.46,1.4-12.74,.86-2.14-.27-4.44-.14-7.02-1.73Z"/><path d="M78.79,65.5c-5.53,2.42-12.01,3.3-16.66,2.48,.24-.42,.37-1.01,.68-1.13,1.76-.65,3.55-1.61,5.36-1.65,3.21-.08,6.49-1.16,10.62,.3Z"/><path d="M69.14,85.79c.77-.28,.91-.35,1.06-.38,1.09-.2,1.87,.24,2.13,1.3,.42,1.7-.46,3.65-1.96,4.38-.9,.44-1.79,.33-2.58-.4-.78-.72-.76-1.93,.29-2.18,1.77-.42,2-1.23,1.06-2.73Z"/><path d="M60.32,84.74c.93-.09,1.53-.11,2.1-.22,.61-.13,1.2-.35,1.89-.56,.26,.4,.66,.75,.73,1.17,.11,.61,.18,1.37-.09,1.87-.34,.63-1,1.38-1.61,1.48-.62,.1-1.59-.36-2-.9-.52-.68-.63-1.67-1.02-2.83Z"/><path d="M79.66,90.66c-.04,.55-.03,.71-.06,.86-.17,1.03-.64,1.9-1.8,1.69-.46-.08-1.08-.81-1.14-1.31-.14-1.11,.66-1.76,1.7-1.83,.46-.03,.95,.42,1.29,.59Z"/><path d="M65.53,98.09c.83,1.37,.38,2.29-.75,2.78-1.19,.51-2.07,.03-2.4-1.5,.47-.27,.97-.61,1.51-.83,.53-.22,1.12-.31,1.64-.44Z"/><path d="M85.36,99.28c-.78,.42-1.38,.96-2.01,1.01-.36,.03-1.04-.68-1.13-1.15-.14-.77,1.2-1.44,2.13-1.07,.34,.14,.54,.62,1.01,1.2Z"/><path d="M90.69,89.42c-1.01,.38-1.76,.79-2.55,.87-.25,.03-.93-.95-.83-1.29,.35-1.09,1.38-1.11,2.3-.87,.33,.09,.54,.62,1.08,1.28Z"/><path d="M95.51,113.34c-.98-1.11-1.66-1.56-1.84-2.16-.26-.87,.33-1.5,1.26-1.52,.81-.02,.95,.65,.94,1.3,0,.44-.12,.88-.36,2.39Z"/><path d="M73.46,96.71c.61,.77,1.13,1.15,1.25,1.62,.2,.86-.29,1.57-1.19,1.49-.46-.04-1.24-.71-1.22-1.05,.05-.59,.6-1.14,1.16-2.06Z"/><path d="M0,428.95c.54-.65,1.06-1.33,1.65-1.93,.11-.12,.64-.02,.79,.15,.15,.17,.21,.69,.08,.8-.64,.55-1.34,1.02-2.03,1.52-.16-.18-.32-.35-.49-.53Z"/><path d="M68.45,98.2c-.41-.52-.88-.87-.84-1.14,.05-.32,.51-.63,.86-.83,.09-.05,.64,.38,.62,.53-.07,.41-.33,.8-.63,1.44Z"/><path d="M21.93,29.02c-.26,.22-.52,.45-.78,.67,.13-.34,.25-.69,.38-1.03,.13,.12,.27,.24,.4,.36Z"/><path d="M93.81,360.99c-1.79,1.3-3.53,2.68-5.38,3.88-.84,.55-1.49,.09-1.61-.94,1.67-1.62,3.33-3.24,5-4.87q1.92,.05,1.98,1.92Z"/><path d="M20.75,279.3c6.44-1.61,12.81-2.66,19.27-6.42-.7,2.75-2.05,3.49-3.3,4.22-3.88,2.28-7.99,3.92-12.57,3.97-1.19,.01-2.45-.19-3.4-1.77Z"/><path d="M67.14,338.62c-.61,.42-1.2,.82-2.15,1.47-.23-.94-.7-1.9-.47-2.13,.96-.93,1.89-.57,2.62,.65Z"/><path d="M51.84,217.99c-.77-2.64-.31-5.13,1.29-8.27,.63,3.43-.46,5.81-1.29,8.27Z"/><path d="M47.74,215.82c.16-1.13,.31-2.27,.53-3.79,1.42,1.75,.32,2.75-.53,3.79Z"/><path d="M78.54,233.42c.13,1.02,.25,2.05,.37,3-.77,.62-1.28,.35-1.41-.35-.19-1.04-.3-2.14,.74-2.91,0,0,.3,.26,.3,.26Z"/><path d="M78.24,233.16c.2-.39,.4-.79,.6-1.18,.11,.11,.33,.28,.3,.33-.17,.38-.39,.73-.6,1.1,0,0-.3-.25-.3-.25Z"/><path d="M46.11,240.22c.7-2.35,1.98-4.23,3.88-5.86-.51,3.18-.76,3.59-3.88,5.86Z"/><path d="M42.87,237.52c-.19-1.55,.57-2.42,1.61-3.21q.02,1.47-1.61,3.21Z"/><path d="M65.97,256.71c-.13,.26-.2,.61-.41,.74-.14,.08-.47-.16-.72-.26,.12-.26,.18-.64,.38-.75,.15-.08,.49,.17,.75,.28Z"/><path d="M67.33,260.05c-.08-.25-.29-.62-.2-.72,.18-.21,.53-.27,.81-.39,.08,.26,.3,.64,.21,.74-.18,.2-.54,.25-.82,.37Z"/><path d="M76.46,203.31c-.29-.48-.58-.74-.55-.95,.12-.86,1.09-1.59,1.54-1.2,.17,.15,.28,.62,.17,.79-.3,.48-.73,.87-1.16,1.36Z"/><path d="M40.03,252.65c.87,1.85,.04,3.46-.14,5.5-1.01-2.9-1.06-2.9,.14-5.5Z"/><path d="M43.91,253.71c-.1,.94-.2,1.87-.3,2.81-.17-.01-.33-.02-.5-.04v-2.68c.27-.03,.54-.06,.8-.1Z"/></svg>