<?xml version="1.0" encoding="UTF-8"?><svg id="Layer_1" xmlns="http://www.w3.org/2000/svg" viewBox="0 0 293.17 395.21"><path d="M63.98,394.85c.81-1.72,1.47-3.53,2.44-5.15,10.08-16.7,20.21-33.37,30.32-50.05,.91-1.5,1.79-3.01,2.78-4.67-2.47-5.09-3.65-10.53-4.32-16.09-.27-2.26-1.22-4.26-2.15-6.31-1.58-3.48-2.97-7.05-4.35-10.62-1.04-2.68-1.83-5.46-2.93-8.11-1.91-4.6-3.28-9.33-4.04-14.26-.63-4.1-1.65-8.15-2.19-12.26-.65-4.91-.97-9.86-1.45-14.79-.09-.88-.3-1.74-.46-2.64-.6,.18-.99,.17-1.16,.36-2.94,3.37-5.96,6.69-8.74,10.18-10.17,12.75-20.12,25.68-30.42,38.33-10.41,12.79-21.89,24.61-33.86,35.94-.87,.82-1.61,2.02-3.17,1.73-.72-.95,.13-1.47,.6-1.98,4.97-5.42,9.93-10.86,14.98-16.2,13.3-14.08,25.69-28.93,37.48-44.29,8.37-10.91,16.81-21.76,25.31-32.57,3.66-4.65,7.56-9.1,11.32-13.67,4.88-5.94,9.27-12.23,13.24-18.82,11.8-19.64,21.84-40.14,30.22-61.46,3.04-7.73,5.99-15.51,10.03-22.8,.82-1.48,.96-2.95,.91-4.59-.37-13.58-.67-27.17-1-40.75-.03-1.4,.2-2.88-.63-4.04-3.02-.14-5.88-.09-8.68-.45-9.3-1.18-15.91-6.24-20.09-14.52-3.74-7.41-4.61-15.25-2.86-23.34,3.4-15.71,12.17-27.26,26.88-33.98,5.61-2.57,11.57-3.53,17.78-2.62,10.05,1.47,16.93,6.98,20.96,16.19,.7,1.6,1.21,3.29,1.89,5.15,1.07,.1,2.15,.34,3.21,.28,13.63-.81,27.16,.35,40.63,2.29,5.68,.82,11.33,1.93,16.95,3.13,2.48,.53,4.86,1.56,7.23,2.49,1.64,.65,3.14,1.56,3.84,3.63-2.74,4.04-2.09,8.84-2.27,13.35-.47,11.65-.42,23.32-.56,34.99,0,.62,.11,1.25,.21,2.31,1.01-.53,1.87-.84,2.55-1.37,3.17-2.43,6.28-4.95,9.45-7.38,5.6-4.29,11.4-8.25,17.92-11.04,2.07-.89,4.1-1.54,6.49-.95,1.29,.32,2.81-.18,4.21-.42,1.47-.25,2.87-.45,3.96,1.25-.09,4.82-3.24,8.3-6,11.95-.67,.88-1.52,1.65-2.36,2.39-6.35,5.61-12.65,11.27-19.11,16.76-4.63,3.93-9.2,7.9-13.71,12.36,.47,.58,.74,1.14,1.19,1.45,2.73,1.87,3.41,4.5,2.93,7.57-.29,1.89-.69,3.76-1.02,5.55,.21,.36,.3,.76,.53,.88,4.47,2.32,4.79,2.91,4.45,7.8-.27,3.87-1.12,7.56-2.82,11.07-2.79,5.75-5.35,11.62-8.25,17.31-1.8,3.55-4.02,6.89-6.09,10.3-.9,1.49-2.01,2.8-2.43,4.62-.26,1.13-1.27,2.14-2.09,3.07-1.03,1.17-2.2,2.2-3.33,3.3,1.04,1.1,1.72,.36,2.3,.02,1.1-.64,2.13-1.41,3.13-2.21,3.5-2.78,7-5.56,10.45-8.41,2.71-2.23,5.31-4.61,8.03-6.83,2.1-1.7,4.3-3.29,6.53-4.83,.56-.39,1.39-.4,2.83-.77-.64,1.16-.81,1.76-1.19,2.11-6.16,5.57-11.98,11.55-19,16.11-.54,.35-1.11,.69-1.54,1.14-4.89,5.24-11.29,8.3-17.27,11.96q-1.47,.9-4.15,.17c3.1-4.11,7.08-7.49,8.83-12.32-.59-1.38-1.44-2.26-2.9-2.3-2.61-.06-3.74-1.67-3.88-3.99-.11-1.9-1.21-2.83-2.93-3.78-1.62,1.25-3.34,2.58-4.99,3.86-.95-.61-.74-1.17-.28-1.67,4.48-4.84,7.95-10.39,11.53-15.89,2.61-4.01,5.73-7.68,8.57-11.55,3.4-4.64,6.9-9.22,10.05-14.02,2.29-3.48,3.88-7.36,4.04-11.65,.09-2.41-.71-3.78-2.84-4.37-.8-.22-1.79,.19-2.67,.4-.27,.06-.47,.42-.69,.65-7.7,8.15-16.25,15.39-24.73,22.69-3.41,2.94-6.39,6.23-9.08,9.85-2.86,3.84-5.98,7.49-9.08,11.14-.88,1.04-2.1,1.79-4.06,3.42,.48-1.63,.5-2.25,.8-2.66,3.27-4.53,6.65-8.99,9.87-13.57,2.78-3.95,5.97-7.49,9.61-10.65,4.71-4.09,9.47-8.12,14.02-12.38,6.54-6.11,12.85-12.47,19.4-18.58,3.97-3.71,8.2-7.13,12.28-10.72,2.75-2.41,5.44-4.88,8.17-7.34-4.12-4.02-4.36-6.11-1.52-11.02,.22-.38,.38-.81,.57-1.24-.99-.68-1.59,.16-2.11,.53-5.19,3.73-10.3,7.57-15.48,11.32-12.04,8.72-24.06,17.47-36.18,26.1-5.99,4.27-12.22,8.19-18.23,12.44-6.7,4.74-13.98,8.33-21.51,11.53-7.64,3.25-15.29,6.5-22.42,10.83-1.32,.8-2.93,1.19-4.46,1.57-.38,.09-1.25-.51-1.37-.94-.12-.45,.26-1.2,.66-1.59,.43-.42,1.14-.54,1.69-.85,2.94-1.62,5.86-3.26,8.8-4.88,1.04-.57,1.51-1.46,1.95-2.57,1.16-2.97,2.35-5.95,3.88-8.74,4.23-7.73,7.62-15.85,10.94-23.98,1.13-2.77,1.69-5.78,1.95-9.05-.55,.57-1.11,1.12-1.65,1.71-1.4,1.52-2.61,3.28-4.22,4.52-3.07,2.37-4.17,2.25-7.88-.11-.52,.74-1.09,1.47-1.57,2.25-3.21,5.2-7.06,9.9-11.33,14.23-4.78,4.85-8.51,10.36-11.14,16.63-2.11,5.01-4.34,9.97-6.3,15.03-7.93,20.47-17.43,40.17-28.56,59.08-1.36,2.32-2.02,4.42-1.44,7.18,.66,3.1,.8,6.34,.87,9.53,.11,5.62,.81,11.16,1.98,16.64,3.12,14.72,7.36,29.12,12.57,43.23,.83,2.24,1.94,4.38,2.96,6.54,.11,.24,.48,.35,.84,.6,.32-.25,.79-.44,1-.8,4.93-8.09,11.36-15.05,17.12-22.51,3.03-3.92,6.3-7.65,9.42-11.51,2.65-3.27,5.78-5.95,9.48-7.97,8.84-4.82,17.7-9.59,26.48-14.52,6.55-3.67,13.13-7.32,19.43-11.4,5.62-3.65,10.93-7.8,16.27-11.86,4.08-3.09,8.19-6.08,12.63-8.67,5.37-3.14,10.74-6.41,15.56-10.3,8.44-6.81,17.11-13.46,23.52-22.42,.28-.38,.49-.81,.88-1.48-.85-1.47-2.76-2.62-2.43-4.75,.25-1.56,.46-3.15,.9-4.66,.61-2.06,2.06-3.57,3.67-4.93,.93-.78,1.78-1.65,3.02-2.81-2.91-.17-4.84,.88-6.64,2.25-1.53,1.16-2.98,2.42-4.53,3.55-.86,.63-1.85,1.11-2.67,1.59-1.02-.7-.62-1.39-.25-1.77,2.24-2.27,4.4-4.65,6.86-6.65,2.74-2.22,6.08-2.72,9.54-2.17,1.72,.27,3.45,.59,5.15,.96,2.63,.57,3.68,2.34,2.33,4.54-2.42,3.93-5.06,7.75-7.81,11.46-1.89,2.56-4.23,4.79-6.18,7.32-4.02,5.23-8.56,9.92-13.72,14.01-.25,.2-.52,.38-.74,.61-5.46,5.47-11.96,9.49-18.33,13.79-7.13,4.81-14.52,9.26-21.3,14.66-11.26,8.98-23.43,16.64-36.25,23.29-8.08,4.19-15.94,8.82-23.97,13.12-4.04,2.17-7.25,5.16-10.03,8.75-3.03,3.92-6.19,7.73-9.32,11.57-2.12,2.59-4.26,5.15-5.96,8.19,3.33,7.27,3.15,15.03,3.77,22.65,.18,2.18-.27,4.48-.79,6.64-1.44,5.95-6.5,8.18-11.76,5.1-2.04-1.19-3.79-2.9-5.59-4.48-1.06-.94-1.94-2.08-3.11-3.36-.86,.9-1.73,1.57-2.28,2.45-1.1,1.76-1.97,3.65-3.01,5.45-1.4,2.42-1.37,4.72-.06,7.24,1.09,2.11,1.72,4.45,2.48,6.72,.25,.75,.34,1.56,.43,2.35,.61,5.37-1.04,7.94-5.91,9.6-.97,2.03-1.66,3.99-2.77,5.67-1.05,1.61-2.61,1.76-4.17,.56-1.12-.86-2.07-1.97-2.95-3.08-.77-.96-1.35-2.08-2.24-3.49-1.07,1.6-1.98,2.88-2.82,4.2-10.28,16.2-20.53,32.42-30.83,48.61-.84,1.32-1.98,2.44-2.98,3.66-.13-.12-.27-.24-.4-.36Zm35.67-67.81c0-.16,.03-.33-.03-.46-.04-.1-.2-.15-.3-.22,.14,.2,.27,.41,.41,.61-.1,1.63,.4,3,1.94,4.79,.43-2.66-.39-3.87-2.02-4.72ZM230.01,167.15c1.45,.54,2.9,1.09,4.66,1.75,.11-1.03,.19-1.87,.28-2.71q-2.84-.31-4.92,1.05c.18,1.31-1.79,2.78,.49,4.34-.2-1.74-.35-3.08-.51-4.43ZM136.18,46.7c-1.68,.17-3.35,.37-5.03,.49-2.13,.16-4.27,.25-6.41,.37,1.02-.51,2.04-1.02,4.09-2.05-3.87,.43-7.05-2.54-9.33,1.45,.73,1.4,1.82,1.79,3.18,1.39,.74-.22,1.44-.59,2.15-.89-.02,.46-.04,.93-.08,1.66,4.05,.1,7.8-.66,11.33-2.52,.23-.17,.47-.35,.7-.52-.21,.2-.41,.41-.62,.61Zm30.07-13.69c.82,2.68,2.93,1.78,4.64,1.89,1.12-1.36,1.38-2.76,.87-4.18-.23-.64-.94-1.11-1.54-1.78-1.1,1.04-1.98,1.89-2.87,2.73-.04-.39-.08-.77-.16-1.62-1.63,1.34-3.08,2.21-3.59,4.25,.88-.43,1.77-.86,2.65-1.29ZM95.78,309.94c-.02-.2-.05-.41-.07-.61,.08,.07,.24,.18,.23,.21-.05,.12-.16,.21-.25,.32,2.02,7.32,4.81,13.05,8.25,16.88,1.29-.76,.98-1.7,.38-2.73-2.46-4.23-4.89-8.48-7.36-12.7-.3-.51-.79-.91-1.18-1.37Zm-12.27-38.8c.07,1.03,.14,2.07,.21,3.1,.23-.03,.46-.07,.69-.1-.33-.98-.65-1.96-.98-2.93,.15-8.41-1.37-16.65-2.35-24.95-.94,8.04,.07,15.93,1.63,23.77,.08,.41,.52,.74,.8,1.11ZM138.97,51.48c-1.11,.88-2.22,1.77-3.33,2.65-1.05-.11-2.09-.22-3.53-.37-.71,.81-1.66,1.84-2.55,2.92-.97,1.18-1.02,2.59-.96,4.04,.07,1.71,1.24,2.49,2.56,3.06,1.23,.53,2.21-.21,2.87-1.09,2.18-2.89,4.36-5.79,6.32-8.83,.81-1.26,1.07-2.89,1.57-4.35,.2-.16,.4-.32,.6-.48-.17-.08-.34-.16-.52-.25,0,.27,0,.54,.01,.8-1.71-.48-2.33,.8-3.06,1.9Zm21.94-27.12c.15,.12,.3,.25,.44,.38-1.29,2.81-2.57,5.62-3.98,8.69,1.1,.21,1.98,.38,2.42,.46,1.52-2.94,2.75-5.64,4.27-8.16,1.7-2.81,2.55-5.81,2.56-9.04,0-1.23-.33-2.51-.78-3.67-.38-.98-1.44-1.42-2.37-.91-1.23,.66-2.56,1.43-3.37,2.51-1.42,1.88-2.47,4.03-3.67,6.07-.48,.66-.91,1.33,0,1.99-.27,3.69-1.46,7-4.54,9.88,1.02,.25,1.58,.47,2.16,.52,.6,.05,1.22-.06,1.68-.09,.34-3.89,1.04-7.38,3.57-10.26l-.09-.08c-.04,.9-.08,1.81-.11,2.72-.02,.28-.03,.55-.05,.83-.01-.31-.03-.62-.05-.92,.63-.3,1.27-.6,1.9-.91Zm-23.82,9.78c.67-.12,1.35-.24,2.02-.36,.87,.25,1.75,.66,2.52-.22-.28-.59-.54-1.14-.8-1.69,.87-.29,1.71-.61,2.56-.84,.76-.2,1.55-.3,2.7-.52-2.07-1.67-3.79-3.07-5.52-4.45-.62-.49-1.31-.91-1.94-1.39-1.69-1.28-3.63-1.91-5.69-2.35-4.35-.94-6.46,2.65-5.46,5.96,.23,.75,.51,1.53,.95,2.17,3.35,4.85,7.82,8.15,13.59,9.9-.1-2.3-.1-2.35-1.05-2.98-1.41-.95-3.29-1.32-3.9-3.24Zm-17.97,16.13c.67,3.81,3.41,6.15,5.92,8.79,1.46-2.47,2.79-4.72,4.3-7.27-1.94,0-3.66,.18-5.32-.05-1.7-.24-3.34-.89-5-1.36-3.34-1.8-4.13-3.04-3.68-6.31,.98-7.19,3.33-13.95,6.53-20.43,.49-.98,1.26-1.84,1.99-2.68,1.25-1.44,2.58-2.8,3.87-4.22,4.85-5.35,10.79-9.02,17.72-10.84,4.22-1.11,8.57-.84,12.65,1,.62,.28,1.07,.96,1.75,1.59-2.61,1.77-4.93-1.05-7.31,.34,.5,1.11,.93,2.29,1.54,3.36,.57,1,.09,2.57,1.61,3.2,1.11-1.3,2.05-2.61,3.19-3.7,1.26-1.2,2.71-2.2,4-3.22q4.97,1.24,12.22,13.13c.09-.1,.23-.19,.25-.29,.04-.31,.11-.65,.03-.93-2.26-7.47-6.84-12.9-14.16-15.82-6.03-2.41-12.12-2.24-18.3-.42-16.84,4.95-32.54,24.08-29.6,45.63,.89,6.53,3.57,12.25,8.6,16.67,5.33,4.68,11.62,6.48,18.64,5.83,1.13-.11,2.29-.31,2.11-2.18-1.84-.73-3.91-.83-5.91-1.27-4.16-.92-8.53-1.42-11.16-5.58-.74-1.17-2.14-1.9-3.13-2.93-1.89-1.97-3.5-4.14-4.46-6.74-.53-1.45-.06-2.47,1.13-3.27Zm31.72,64.19c-.24-3.67-.53-6.81-.64-9.96-.19-5.42-.25-10.84-.4-16.26-.07-2.39-.38-4.79-.3-7.17,.13-3.87,2.35-6.2,6.09-6.7,2.22-.3,4.43-.62,6.66-.8,17.72-1.43,35.43-1.03,53.12,.38,4.93,.4,9.86,.86,14.79,1.35,3.22,.32,6.22,1.3,8.94,3.13,2.17,1.46,3.36,3.32,3.13,6.01-.1,1.23-.02,2.47-.02,3.73,2.24-.24,2.65-1.59,2.54-3.41-.47-8.15-.36-16.28,.59-24.4,.11-.95,.04-1.92,.05-2.87,.08-5.59,.16-11.18,.21-16.77,0-.77-.17-1.54-.29-2.51-3.29,.61-6.39,1.37-9.54,1.73-10.98,1.24-21.98,1.39-33,.52-7.64-.61-15.31-.76-22.95-1.39-8.11-.67-16.2-1.62-24.29-2.52-3.13-.35-6.24-.92-9.34-1.39-1.19,2.22-.76,4.32-.75,6.36,0,1.11,.27,2.21,.29,3.32,.39,21.24,.75,42.47,1.13,63.71,.03,1.44,.09,2.87,.15,4.31,.06,1.53,.12,3.06,.19,4.96,2.14-.96,2.86-2.6,3.63-3.35Zm-31.58,187.02c-.77-1.57-1.27-2.74-1.9-3.85-3.49-6.14-6.01-12.67-8.25-19.36-2.39-7.14-4.02-14.45-5.7-21.76-2.09-9.09-3-18.26-2.63-27.57,.09-2.23,.04-4.47-.01-6.71-.02-.73,.24-1.63-.97-2.15-.56,.65-1.18,1.32-1.74,2.04-2.65,3.4-5.11,6.98-7.98,10.18-2.52,2.82-3.77,5.85-3.33,9.59,.15,1.27,.21,2.54,.34,3.81,.5,4.92,1.05,9.85,1.51,14.77,.74,7.93,.62,15.96,2.73,23.75,.58,2.14,.64,4.42,1.02,6.62,.33,1.88,.59,3.81,1.24,5.59,2.9,7.97,6.47,15.64,10.95,22.86,.66,1.06,1.46,2.02,2.34,3.23,5.19-6.55,8.02-14.09,12.38-21.04Zm48.04-166.63c5.31-2.29,9.99-4.32,14.66-6.34,6.03-2.61,11.71-5.82,17.1-9.58,6.15-4.3,12.44-8.41,18.63-12.66,5.53-3.8,10.99-7.7,16.51-11.51,2.37-1.64,3.01-3.78,2.5-6.63-8.84,1.26-17.3,2.87-25.85,3.57-8.7,.72-17.48,.55-26.45,.77-.29,1.12-.58,2.34-.94,3.55-.9,3.05-1.6,6.19-2.79,9.13-3.31,8.13-6.75,16.21-11.09,23.87-.92,1.62-1.94,3.24-2.28,5.83Zm17.22-45.95c5.68,0,11.09-.11,16.48,.02,11.75,.28,23.17-2.11,34.64-4.08,1.2-.21,2.49-.5,3.3-2.13-.96-.8-1.77-1.89-2.85-2.31-2.21-.85-4.51-1.65-6.85-1.93-5.22-.61-10.48-1.01-15.74-1.28-9.87-.52-19.75-1.1-29.64-1.27-6.69-.12-13.4,.36-20.09,.7-2.86,.15-5.71,.6-8.56,.97-1.43,.19-2.19,1.2-2.56,2.52-.37,1.33,.03,2.43,1.4,3.22,1.09,.63,2.27,1.32,3.48,1.5,4.08,.59,8.17,1.52,12.6,.59,.49-.54,1.16-1.21,1.75-1.95,1.62-2.07,3.9-3.23,6.06-4.58,1.46-.91,2.69-.62,3.98,.27,1.12,.78,1.71,1.8,1.83,3.19,.18,2.06,.48,4.1,.77,6.55Zm-5.51-53.11c8.59,.51,16.57,.78,24.51,1.49,10.24,.91,20.45,.57,30.64-.42,3.48-.34,6.9-1.29,10.33-2.04,.54-.12,.98-.67,1.77-1.24-.92-.57-1.51-1.12-2.21-1.34-3.04-.97-6.05-2.15-9.17-2.69-7.39-1.26-14.83-2.3-22.27-3.25-8.89-1.13-17.83-1.58-26.79-1.3-2.04,.06-4.06,.4-6.31,.63-.17,3.45-.32,6.58-.49,10.15Zm58.84,134.12c.62-.59,1.14-.93,1.44-1.41,2.04-3.23,4.25-6.38,5.98-9.77,3.11-6.1,5.87-12.38,8.87-18.54,1.57-3.23,2.12-6.67,2.36-10.18,.18-2.66-.49-3.18-3.81-3.34-.28,.32-.65,.64-.88,1.04-3.4,5.99-7.67,11.34-11.88,16.76-3.91,5.03-7.51,10.3-11.22,15.48-.15,.22-.07,.6-.12,1.09,.55,.6,1.19,1.28,1.75,1.89,6.66-.27,7.44,.43,7.5,6.98Zm-113.86,124.02c-3.75-7.29-6.38-14.64-8.7-22.1-3.17-10.21-6.05-20.48-8.32-30.93-1.53-7.07-1.79-14.22-2.37-21.37-.12-1.44,.26-3.02-.86-4.72-.23,.85-.45,1.29-.45,1.73,.05,6.7,.21,13.4,.18,20.1-.02,4.65,.38,9.24,1.33,13.78,.91,4.37,1.74,8.76,2.83,13.09,2.77,11,6,21.84,11.56,31.83,.51,.91,1.25,1.69,2.07,2.79,.99-1.52,1.76-2.7,2.74-4.2Zm29.96-183.62c5.4-3.6,12.47-14.98,13.2-21.21-1.59-.08-3.18-.09-4.75-.25-1.58-.16-3.14-.61-4.72-.66-1.51-.05-2.88-1.32-4.39-.79,0,4.1-.23,7.91,.06,11.68,.28,3.71-1.23,7.55,.6,11.23Zm-25.41,185.2c1.5,2.58,3.53,4.33,5.86,5.76,1.29,.79,2.52,.52,3.32-.68,.43-.65,.9-1.39,1.01-2.14,.81-5.51,.77-10.95-1.27-16.41-2.58,2.42-5.94,7.51-8.92,13.47Zm-5.13,6.9c2.14,3.88,4.92,6.46,8.26,8.37,3.35,1.91,6.32,.71,7.61-2.86,.53-1.47,.93-2.96,.34-4.55-4.44,1.65-5.68,1.46-9.14-1.48-1.3-1.1-2.51-2.31-3.97-3.65-1.09,1.47-2.01,2.71-3.09,4.18Zm9.02-263.6c-1.38-1.44-2.51-2.51-3.5-3.69-1.12-1.34-2.26-2.69-3.14-4.19-.75-1.27-1.13-2.75-1.74-4.28-3.42,5.72-4.59,9.21-5.37,16.19,4.16-2.6,8.76-2.96,13.75-4.04Zm10.28-14.46c-.31-2.85-.86-5.21-.72-7.53,.14-2.36,.97-4.68,1.53-7.14-6.37,2.09-9.69,4.42-13.72,9.7,5.01-.29,8.94,1.92,12.91,4.96Zm7.46,3.74c1.96-3.87,2.54-7.79,2.09-11.81-.19-1.68-.85-3.38-1.62-4.91-.73-1.44-2.48-1.45-3.64-.25-1.52,1.57-2.2,3.48-2.29,5.63-.12,2.91,.39,5.72,1.43,8.43,.22,.56,.73,1.01,1.68,2.25v-7.74c.68,1.25,1.01,1.85,1.35,2.48,.41-.38,.74-.7,1.2-1.13,.54,2.54-1.18,4.63-.19,7.04Zm-41.23,297.58c1.05,2.41,2.51,4.44,4.64,5.93,.82,.57,2.12,.06,2.25-.93,.15-1.08,.28-2.23,.08-3.29-.49-2.63-1.54-5.08-2.8-7.83-1.97,1.95-3.11,3.96-4.18,6.13ZM142.37,66.8c.83-4.06,.78-5.81-.31-9.66-2.17,2.85-4.22,5.54-6.64,8.72,2.72,.37,4.85,.65,6.95,.94Zm-34.14,276.38c1.75-2.56,1.73-2.57,1.71-5.23-1.7-1.43-3.47-2.93-5.54-4.68-.54,1.06-1.43,1.99-1.23,2.54,1,2.77,1.91,5.68,5.06,7.37ZM169.57,17.39c-.72,3.37-1.27,5.95-1.86,8.71,1.04,.08,1.98,.09,2.89,.23,.85,.13,1.68,.38,3.14,.72-1.07-3.53-1.91-6.47-4.17-9.67ZM84.73,278.75c.05,5.97,2.23,11.3,4.99,16.45-1.02-5.68-3.46-10.93-4.99-16.45ZM126.18,44.1c3.67-.18,7.34-.35,11.54-.56-4.34-2.02-6.48-2.01-11.54,.56Zm-12.83,291.23c-2.65-1.38-3.81-4.6-6.73-5.76,.89,3.36,3.3,5.09,6.73,5.76Zm113.75-168.93c.5-.61,1.08-1.08,1-1.28-.26-.66-.76-1.22-1.17-1.83-.4,.39-1.18,.88-1.11,1.14,.18,.66,.75,1.21,1.28,1.97Zm-141.16,92.24h-.24v3.99h.24v-3.99Zm-.95-8.74c-.1,0-.19,0-.29,0-.05,.59-.14,1.18-.13,1.77,.01,.59,.12,1.18,.19,1.77,.33-.59,.42-1.18,.4-1.76-.01-.59-.12-1.18-.18-1.77ZM176.49,34.06c-.19-.64-.19-1.08-.39-1.2-.5-.31-1.91,1.15-1.72,1.82,.06,.22,.55,.54,.64,.48,.56-.34,1.05-.77,1.47-1.1ZM83.74,243.47c.1,0,.19,0,.29,0-.02-.46-.05-.92-.07-1.37-.07,.46-.14,.91-.22,1.37Zm151.42-69.61c.12-.06,.29-.09,.35-.19,.05-.08-.04-.24-.08-.36-.12,.07-.27,.12-.34,.22-.04,.07,.04,.22,.07,.33ZM149.56,31.06c-.08-.12-.16-.24-.24-.36-.09,.1-.26,.21-.26,.31,0,.12,.14,.25,.22,.38,.09-.11,.19-.22,.28-.33Zm-8.31,4.61c-.28-.08-.44-.12-.61-.17,.04,.1,.06,.28,.11,.29,.12,.01,.25-.05,.5-.12Zm-.02,8.43l-.4,.16,.4,.16v-.32Z"/><path d="M185.55,159.86c2.58,.44,5.17,.85,7.73,1.36,.34,.07,.83,.71,.79,1.03-.07,.54-.42,1.12-.82,1.5-.3,.28-.88,.33-1.34,.35-2.9,.13-5.03-1.19-6.76-3.23,.13-.33,.27-.67,.4-1Z"/><path d="M214.51,195.02q3.53-1.53,6.89-.23c-1.31,1.98-3.36,2.07-5.29,2.09-.51,0-1.03-1.15-1.61-1.86Z"/><path d="M155.07,238.83c-.05,2.39-1.31,3.2-2.13,4.3-.81,1.09-1.5,2.28-2.66,4.05-.13-1.19-.34-1.73-.23-2.2,.63-2.61,2.48-4.25,5.01-6.15Z"/><path d="M208.37,175.6c-2.15,1.83-3.9,1.64-5.56,.39-.83-.62-.97-1.57-.05-2.53,1.9-.02,3.55,.72,5.61,2.14Z"/><path d="M237.45,109.49c-1.83,3.62-3.38,3.68-6.03,.96,1.85-.77,3.62-.2,6.03-.96Z"/><path d="M237.65,110.15c.23-1.9,.24-2.99,.56-3.98,.12-.37,1.07-.77,1.49-.64,.44,.14,.99,.89,.98,1.36-.04,1.38-.91,2.25-3.03,3.27Z"/><path d="M154.38,122.9c0-.74-.11-1.5,.03-2.21,.18-.95,.73-1.7,1.84-1.67,.93,.03,1.13,1.24,.35,2.66-.34,.61-.91,1.09-1.37,1.62l-.85-.4Z"/><path d="M200.32,134.71c1.2,.87,2.27,1.65,3.22,2.33-.28,1.65-1.11,1.87-2.11,1.34-1.54-.82-1.66-1.28-1.11-3.68Z"/><path d="M260.7,183.06c-1.94-.93-2.13-2.19-2.05-3.62q2.65-.38,2.05,3.62Z"/><path d="M218.72,153.16c-.64-.17-1.11-.18-1.17-.34-.26-.69-.52-1.42-.54-2.15,0-.28,.6-.79,.94-.81,.33-.01,.95,.46,.97,.75,.07,.82-.11,1.65-.2,2.54Z"/><path d="M219.57,154.74v3.33q-1.69-1.32,0-3.33Z"/><path d="M138.97,51.48c-.2,2.1-1.72,3.26-3.47,4.85,.06-1.02,.1-1.61,.13-2.2,1.11-.88,2.22-1.77,3.33-2.65Z"/><path d="M199.91,103.47c-.48-1.23-.73-2.1-1.16-2.87-.34-.6-.9-1.06-1.38-1.59,.49-.42,.7-.74,.96-.81,2.11-.5,3.64-.15,4.19,.99,.19,.4,.25,.92,.2,1.36-.09,.91-.37,1.16-2.82,2.91Z"/><path d="M191.49,97.8c.35,.35,1.09,.78,1.31,1.4,.34,.97-.7,2.09-1.92,2.22-.81,.09-1.63-.05-1.95-.97-.32-.94,.95-2.42,2.55-2.65Z"/><path d="M200.33,109.59c-.71-.6-1.35-.89-1.54-1.36-.35-.83,.86-2.1,2.02-2.04,.43,.02,1.23,.93,1.15,1.11-.34,.75-.95,1.39-1.62,2.28Z"/><path d="M210.06,101.34c-.47-.65-.85-.97-.92-1.34-.14-.82,.77-1.73,1.39-1.41,.33,.16,.7,.79,.62,1.09-.13,.52-.61,.96-1.1,1.66Z"/><path d="M218.03,98.29c-.51,.28-.91,.68-1.24,.63-.34-.05-.61-.54-.92-.84,.43-.3,.82-.69,1.3-.84,.14-.04,.5,.59,.86,1.05Z"/><path d="M186.83,93.25c.28,.83,.58,1.26,.48,1.54-.18,.53-.61,.97-.93,1.45-.29-.46-.84-.94-.8-1.38,.03-.45,.63-.86,1.25-1.62Z"/><path d="M188.87,106.17c-.87,.31-1.37,.64-1.85,.61-.25-.01-.68-.67-.65-1,.07-.73,.68-.96,1.33-.7,.33,.14,.56,.51,1.16,1.09Z"/><path d="M202.15,87.77c-1.86,0-3.1-2.19-2.31-3.48,.53-.87,1.25-.5,2.02-.21,.91,.35,1.94,.62,1.61,1.8-.22,.77-.95,1.39-1.32,1.89Z"/><path d="M139.16,33.43c-.6-.04-1.21-.08-1.81-.12-1.01-.97-2.01-1.93-3.02-2.9,.26-.76,.89-.91,1.37-.47,1.21,1.09,2.31,2.32,3.45,3.49Z"/><path d="M134.33,30.41c1.01,.97,2.01,1.93,3.02,2.9-.05,.31-.09,.61-.14,.92-2-.21-3.07-1.71-4.62-3.31,.77-.22,1.26-.36,1.74-.51Z"/><path d="M163,20.62c.15-.2,.31-.41,.46-.61-.19,.18-.37,.35-.56,.53,0,0,.09,.09,.09,.09Z"/><path d="M156.32,22.73c0-.69,.01-1.38,.02-2.07,.43,.69,1.22,1.39-.02,2.07Z"/><path d="M159.3,22.73c.06-.29,.11-.59,.17-.88,.15,.13,.31,.26,.46,.39-.24,.13-.48,.27-.72,.4,0,0,.09,.08,.09,.08Z"/><path d="M162.91,20.53c.12,.85,.34,1.74-.81,2.1,0,0,.05,.04,.05,.04,.29-.68,.57-1.37,.85-2.06,0,0-.09-.09-.09-.09Z"/><path d="M160.91,24.37c.41-.56,.82-1.13,1.23-1.69,0,0-.05-.04-.05-.04,.21,.86,.07,1.6-.74,2.11-.15-.13-.29-.25-.44-.37Z"/></svg>