<?xml version="1.0" encoding="UTF-8"?><svg id="Layer_1" xmlns="http://www.w3.org/2000/svg" viewBox="0 0 266.58 483.9"><path d="M202.92,169.71c-8.59-2.02-15.67-6.06-21.02-12.39-3.57-4.22-6.47-9.15-8.96-14.11-3.22-6.41-5.72-13.19-8.58-19.78-2.26-5.21-3.04-10.74-3.65-16.31-.89-8.1-2.07-16.19-2.49-24.32-.43-8.29-.39-16.63,.01-24.92,.4-8.29,1.53-16.54,2.28-24.82,.13-1.41-.1-2.86-.15-4.29-.1-2.98,1.07-4.82,3.85-5.94,.88-.35,1.83-.57,2.77-.74,7.86-1.42,15.71-2.88,23.59-4.2,5.94-1,11.8,.04,17.6,1.19,1.53,.3,3.04,1.02,4.36,1.87,.87,.56,1.66,1.59,1.98,2.58,.93,2.87,1.72,5.8,2.37,8.75,2.24,10.3,4.72,20.57,6.52,30.95,2.46,14.17,4.54,28.42,4.71,42.85,.1,8.47-.02,16.94-.08,25.41-.04,6.46-1.67,12.68-3.21,18.87-.76,3.05-2.39,5.92-3.91,8.72-1.47,2.72-3.88,4.62-6.9,6.07,.15,1.07,.29,2.06,.49,3.5,1.61-.96,2.82-1.65,4-2.38,5.96-3.71,11.87-7.52,17.91-11.1,1.88-1.11,4.08-1.94,6.23-2.29,4.5-.72,7.77,3.34,6.1,7.63-.78,2.02-2.12,3.97-3.65,5.53-2.56,2.62-5.29,5.16-8.27,7.28-4.99,3.55-9.38,7.71-13.61,12.08-2.22,2.29-4.4,4.63-6.59,6.94,0,3.18-.12,6.37,.04,9.55,.19,3.8,.62,7.6,.96,11.64,1.56-.24,2.81-.39,4.03-.64,2.68-.55,5.1,0,7.23,1.68,1.26,.98,2.52,1.99,3.6,3.16,6.07,6.54,11.04,13.7,12.49,22.78,.1,.62,.31,1.23,.53,2.07,2.45-.39,4.46-1.67,6.62-2.55,2.96-1.19,5.9-2.47,8.94-3.38,2.22-.67,4.56,.58,5.11,2.47,.64,2.2,.68,4.44-.78,6.42-3.34,4.52-7.24,8.55-11.77,11.84-5.94,4.32-12.1,8.34-18.57,12.77-.53,1.03,1.26,2.47,.13,4.08-1.06,1.52-2.37,2.64-3.91,3.43-2.52,1.3-5.18,2.34-8.14,3.65,.07,1.5,.05,3.24,.24,4.95,.42,3.65,1.15,7.28,1.38,10.94,.22,3.36,1.84,5.81,4.38,7.6,2.06,1.45,4.42,2.51,6.75,3.51,2.64,1.13,5.4,1.96,8.08,3,.68,.26,1.24,.83,2.16,1.47-5.04,.43-13.36-2.62-20.13-7.17-1.25,.55-.64,1.63-.62,2.47,.03,1.53,.5,3.1-.64,4.92-1.9-3.45-1.73-6.98-2.33-10.3-.62-3.46-.85-6.98-1.28-10.47-.43-3.47-.91-6.93-1.37-10.44h-3.46c-1.01,1.67-.59,3.28-.51,4.84,.45,8.62,.94,17.23,1.41,25.85,.08,1.42,.21,2.88-1.15,4.35-.55-.58-1.27-1-1.44-1.58-.39-1.34-.52-2.75-.8-4.43-.95,.31-1.69,.51-2.41,.78-4.46,1.72-8.88,3.57-13.4,5.14-3.1,1.08-5.81,2.65-8.03,5.04-.75,.81-1.39,1.76-1.91,2.74-.56,1.06-.53,2.28,.42,3.09,1.56,1.34,3.1,2.87,4.93,3.68,2.3,1.01,4.85,1.64,7.35,1.95,11.25,1.4,22.31-.06,33.3-2.45,4.39-.95,8.68-2.11,12.72-4.14,3.06-1.54,5.51-3.67,7.33-6.34-.72-3.49-4.39-3.9-5.81-6.53,4.65,.41,6.4,1.99,7.03,5.68,.28,1.61-.07,2.94-1.11,3.95-1.71,1.66-3.43,3.46-5.49,4.55-3.08,1.64-6.36,3.09-9.73,3.96-8.52,2.2-17.17,3.76-25.98,4.2-4.97,.25-9.91,.03-14.82-.82-4.03-.69-7.65-2.27-10.62-5.15-2.55-2.48-2.84-4.71-.84-7.7,2.78-4.17,6.8-6.61,11.49-8.19,3.93-1.32,7.8-2.82,11.65-4.36,1.3-.52,2.45-1.4,3.86-2.22-.42-6.62-.21-13.14-1.01-20.21-1.03,.78-1.64,1.16-2.16,1.65-.82,.76-1.44,1.83-2.38,2.35-3.05,1.69-5.01,4.44-7.09,7.04-8.16,10.23-18.23,18.36-28.56,26.2-10.99,8.34-22.71,15.55-35.45,20.88-10.42,4.36-17.54,11.96-23.23,21.59,.45,1.45,.89,2.97,1.41,4.45,1.6,4.58,2.26,9.32,2.12,14.14-.11,3.67-.46,7.34-.79,11-.1,1.1-.47,2.18-.79,3.25-1.83,6.05-5.1,6.95-9.63,2.44-1.55-1.54-2.65-3.57-3.82-5.46-.99-1.59-1.51-3.5-3.05-4.7-.37,.2-.74,.27-.86,.49-7.99,14.62-17.34,28.36-26.9,41.98-10.29,14.66-20.48,29.39-30.72,44.08-1.17,1.68-2.42,3.32-3.71,5.08-.97-1.05-.14-1.62,.09-2.22,.23-.59,.6-1.13,.94-1.67,4.23-6.59,8.38-13.24,12.74-19.75,8.09-12.1,16.4-24.04,24.42-36.18,7.4-11.2,14.53-22.58,21.78-33.89,.25-.4,.39-.87,.7-1.59-1.01-2.95-2.08-6.12-3.16-9.27-2.46-7.13-3.7-14.54-5.06-21.93-2.52-13.7-4.03-27.51-5.04-41.39-.17-2.39-.09-4.79-.2-7.19-.04-.88-.28-1.74-.54-3.24-1.13,1.03-1.86,1.57-2.44,2.24-6.48,7.5-13.01,14.96-19.36,22.57-5.12,6.14-9.91,12.55-15.05,18.68-2.56,3.05-5.66,5.64-8.33,8.6-11.15,12.34-22.21,24.75-33.34,37.1-1.57,1.74-2.89,3.76-5.03,5.03-.66-1.31,.32-1.91,.84-2.57,11.12-14.05,22.4-27.98,34.77-40.94,8.08-8.46,15.56-17.39,22.78-26.56,9.02-11.45,18.72-22.26,28.9-32.69,20.32-20.84,40.69-41.63,60.74-62.73,9.36-9.84,18.1-20.28,26.97-30.58,2.05-2.38,3.81-4.89,6.25-7.03,7.44-6.53,14.53-13.48,22.21-20.7-.2-1.63-.46-3.82-.76-6.29Zm-24.46,35.68c-.29,.14-.65,.21-.84,.43-28.12,32.8-58.57,63.41-88.7,94.17-1.13,6.26-.29,12.31,.38,18.32,.95,8.58,2.28,17.11,3.29,25.68,1.41,11.96,4.14,23.6,8.35,34.88,.26,.69,.62,1.34,.99,2.12,1.79-1.06,2.15-2.71,2.93-4.03,3.18-5.36,6.13-10.87,9.53-16.08,5.28-8.07,12.3-14.17,21.32-17.94,12.45-5.21,23.92-12.2,34.65-20.35,8.28-6.28,16.49-12.66,23.55-20.37,4.42-4.83,8.94-9.57,13.42-14.35,1.39-1.49,2.81-2.95,3.76-5.24-3.05-.43-5.7,.04-8.35,.18-3.67,.2-7.34,.41-11.01,.53-2.87,.09-5.76-.06-8.63,.1-6.51,.36-12.1,2.79-16.41,7.79-1.88,2.18-3.66,4.45-5.39,6.74-4.87,6.43-10.65,11.91-17.06,16.75-3.34,2.53-7.02,4.48-10.96,5.84-8.49,2.94-17.3,4.49-26.11,6.04-.6,.11-1.27-.16-1.91-.26,1.32-1.07,2.63-1.57,3.98-1.93,4.47-1.2,8.93-2.51,13.45-3.49,12.51-2.72,22.62-9.38,31.14-18.7,1.94-2.12,3.71-4.4,5.52-6.63,1.51-1.86,2.93-3.81,4.48-5.63,5.27-6.2,12.03-9.36,20.13-9.63,4.47-.15,8.96-.03,13.43-.27,7.66-.4,15.3-.99,22.95-1.51,.34-.02,.67-.23,1.34-.47-1.46-.48-2.48-.89-3.54-1.15-2.18-.53-3.2-2.08-3.53-4.08-.34-2.05,1.05-3.4,2.61-4.2,1.94-1,4.1-1.57,6.25-2.36-1.61-.38-3.25-.97-4.94-1.14-9.54-.95-19.07-2.07-28.7-1.86-3.02,.07-6.05-.35-9.07-.68-9.53-1.04-19.06-2.1-28.58-3.24-2.05-.25-4.07-.77-6.06-1.34-.88-.26-1.68-.9-2.4-1.5-.27-.23-.36-.92-.22-1.29,.14-.35,.68-.8,1.02-.77,.93,.06,1.88,.25,2.76,.57,4.88,1.75,9.98,1.37,15.1,2.06,.75-3.62-.62-6.64-1-9.75-.36-3.05-1.72-5.97-1.44-9.53,.69,.6,1.18,.83,1.35,1.21,2.58,5.76,3.18,11.97,3.83,18.35,1.37,.29,2.58,.65,3.82,.8,2.85,.36,5.72,.64,8.58,.92,4.29,.42,8.58,.95,12.89,1.18,5.27,.28,10.55,.29,15.82,.41,2.78,.06,4.44-1.64,4.16-4.49-.28-2.86-.72-5.71-1.18-8.55-.14-.84-.6-1.62-.94-2.48-3.01,1.17-5.68,2.21-8.36,3.24-1.19,.46-2.51,.7-3.57,1.35-.95,.58-1.63,1.59-2.26,2.24-.77-.52-1.23-1.06-1.72-1.1-.83-.07-2.02,1.01-2.36-.4-.17-.71,.47-1.79,1.03-2.46,.59-.71,1.49-1.19,2.32-1.67,2.62-1.52,5.29-2.97,7.91-4.5,2.32-1.35,4.81-2.47,6.59-4.29,.17-9.98-.33-15.59-1.57-18.45-5.21,2.36-10.42,4.73-15.63,7.07-1.44,.65-2.27,1.74-2.54,3.25-.22,1.26-.27,2.55-.52,3.8-.26,1.24-.29,2.98-1.1,3.57-2.34,1.72-2.77,4.56-4.47,6.6-.49,.58-1.02,1.13-1.54,1.69-.37-1.11-.23-1.97,.06-2.78,.92-2.55,2.2-5.01,2.79-7.63,1.35-5.99,3.53-11.6,6.76-16.82,.15-.24,.07-.61,.09-.92-3.74-6.31-6.06-8.6-11.68-11.57Zm-14.19-172.57c-.19,.66-.4,1.11-.42,1.56-.7,11.48-1.62,22.95-2.03,34.44-.71,20.12,1.74,39.88,8.05,59.05,1.79,5.44,3.97,10.82,6.59,15.9,2.03,3.93,5.07,7.34,7.61,11.02,1.95,2.82,4.52,4.86,7.42,6.66,2.8,1.74,5.9,2.3,8.97,3.17,6.38,1.81,11.06-1.59,15.82-4.87,2.14-3.72,5.07-7.06,5.97-11.39,1.49-7.2,2.79-14.45,2.76-21.83-.03-7.35-.3-14.7-.54-22.05-.05-1.52-.39-3.04-.71-5.34-.98,1.15-1.67,1.63-1.84,2.24-.2,.72,.04,1.57,.1,2.36,1.01,12.69-.1,25.22-2.82,37.62-1.35,6.16-3.96,11.8-7.79,16.84-3.18,4.19-6.23,5.15-11.33,3.54-5.81-1.84-10.62-5.17-14.16-10.14-2.69-3.77-5.27-7.62-7.74-11.54-1.35-2.15-2.69-4.41-3.48-6.81-3.04-9.25-5.92-18.55-8.7-27.88-.48-1.61-.45-3.49-.21-5.18,.58-4.03,1.64-4.93,5.79-5.68,.47-.09,.95-.16,1.42-.22,15.53-2.03,30.93-.67,46.29,1.71,1.47,.23,2.9,.73,4.45,1.13,.07-.84,.19-1.32,.15-1.78-.76-8.43-1.27-16.88-2.36-25.27-1.76-13.48-5-26.67-8.48-39.79-.15-.58-.61-1.07-.75-1.29-5.56,1.19-10.81,2.56-16.15,3.38-5.19,.79-10.47,1.33-15.72,1.38-5.37,.06-10.74-.6-16.15-.95Zm55.63,70.17c-4.86,2.4-9.55,3.25-14.3,3.75-11.31,1.2-22.61,1.12-33.87-.68-.83-.13-1.73,.13-2.81,.23,.37,1.58,.57,2.84,.95,4.04,1.91,6.09,3.89,12.15,5.8,18.24,1.25,3.99,3.02,7.72,5.35,11.19,2.22,3.31,4.44,6.63,6.73,9.9,2.93,4.17,6.85,7.09,11.59,8.91,5.25,2.01,7.45,1.35,10.7-3.08,3.65-4.98,6.05-10.54,7.04-16.6,1.13-6.92,2.13-13.88,2.74-20.87,.42-4.74,.08-9.55,.08-15.03Zm-.92,130.08c.69-.24,1.41-.48,2.13-.74,3.14-1.14,5.14-.63,6.95,2.04,.79,1.17,1.31,2.54,1.83,3.87,.94,2.37,1.69,4.82,2.69,7.17,.94,2.19,1.99,4.35,3.2,6.41,1.01,1.73,2.74,2.13,4.55,1.39,1.52-.62,2.01-1.93,1.48-4.01-.08-.31-.17-.62-.3-.91-1.82-3.94-2.16-7.95-.43-11.67-3.5-8.28-11.75-19.12-14.35-19.01-.45,.52-.89,1.03-1.48,1.72-.38-1.3-.63-2.16-.9-3.05-2.47-.24-4.61-.1-6.34,1.9,.15,4.6,.29,9.22,.46,13.83,0,.27,.25,.53,.51,1.05Zm-12.31-64.56c.34,7.27-.14,14.14,.91,20.97,.49,3.16,.96,6.33,1.18,9.52,.71,10.2,1.35,20.41,1.91,30.62,.46,8.47,1.24,16.89,2.55,25.27,.25,1.58,.34,3.18,.62,4.75,.29,1.61,1.3,2.02,3.04,1.3,.03-.68,.13-1.45,.09-2.21-.48-7.65-1.05-15.3-1.46-22.96-.31-5.91-.32-11.83-.65-17.73-.39-7.02-.85-14.04-1.5-21.04-.88-9.54-1.97-19.07-3-28.59-.03-.24-.4-.45-.81-.88-.75,.25-1.61,.54-2.89,.97Zm39.22-9.66c-.84-.26-1.75-.84-2.58-.73-2.19,.28-4.51,.49-6.48,1.38-7.86,3.56-15.09,8.22-22.13,13.14-.36,5.12-.21,9.97,1.3,15.21,1.31-1.16,2.4-2.02,3.37-2.99,5.3-5.32,10.54-10.66,16.77-14.96,2.48-1.71,4.61-3.94,6.83-6,1.4-1.3,2.74-2.7,2.91-5.05Zm-61.14,39.54c2.05,1.95,3.95,3.65,5.71,5.47,1.85,1.9,3.42,4.08,5.54,6,3.03-3.46,5.83-6.71,8.69-9.9,1.09-1.22,1.04-2.63,.84-4.06-.44-3.16-.89-6.32-1.43-9.46-.28-1.63,.23-3.41-.58-5.08-4.64,2.87-15.4,12.63-18.78,17.03ZM163.08,28.45c4.92,1.71,9.38,1.93,13.84,1.73,6.54-.28,13.1-.52,19.6-1.27,4.41-.51,8.72-1.83,13.07-2.85,.95-.22,1.77-.75,1.51-2.27-1.02-.39-2.15-1.01-3.35-1.25-6.16-1.26-12.39-1.5-18.6-.66-7.28,.99-14.52,2.23-21.76,3.43-1.08,.18-2.15,.6-3.12,1.12-.44,.24-.6,.99-1.18,2.03Zm53.67,71.76c-.87-.41-1.53-.83-2.25-1.03-6.82-1.94-13.85-2.4-20.88-2.49-5.43-.07-10.86,.36-16.29,.52-3.04,.09-6.03,.46-8.98,1.52v2.68c9.96,4.1,40.03,3.39,48.39-1.2Zm44.45,141.55c-.47-.12-1.11-.52-1.61-.39-4.45,1.15-8.82,2.55-12.92,4.93,.21,3,1.53,6-.42,9.01-1.65-.38-3.13-.89-4.89,.07-2.03,1.1-4.33,.48-6.26-1.03-.81-.63-1.76-1.08-2.65-1.61-.35,.59-.69,.91-.63,1.12,1.09,3.99,.76,7.83-.84,11.65-.22,.51,.64,1.48,1.13,2.51,5.47-3.69,10.55-7.26,15.77-10.61,4.06-2.61,7.49-5.91,11.04-9.11,1.91-1.72,3.05-3.65,2.28-6.55ZM112.48,399.54c1.58-4.37,1.53-8.67,1.58-12.92,.1-8.61-.43-12.46-2-16.17-3.54,4.9-5.99,10.18-8.86,14.85,2.98,10.53,4.4,12.79,9.28,14.24Zm106.53-159.44c-.36,3.07,.32,15.65,.78,17.68,.38,1.66,1.47,2.79,2.64,3.89,1.19,1.12,2.45,2,4.2,1.61,1.85-4.58,1.43-11.56-1.38-16.62-1.38-2.49-2.5-5.48-6.24-6.55Zm-12.28-24.29c-.19-4.09,.43-7.87-.85-11.69-.63,.3-1.14,.4-1.44,.71-4.84,5.03-8.62,10.87-12.73,16.88,5.7-.27,9.42-4.84,15.02-5.9Zm-27.05-13.6c4.78,4.59,9.76,7.2,11.9,12.46,1.76-.92,1.99-2.16,1.11-3.29-1.94-2.5-4-4.91-6.15-7.22-.84-.9-2.01-1.6-3.17-2.06-.72-.29-1.68,.02-3.69,.12Zm50.23,48.16c.35-.07,.7-.14,1.05-.21-.03-.56,.07-1.19-.13-1.68-1.36-3.36-2.76-6.71-4.2-10.04-.37-.86-.87-1.69-1.46-2.42-1.05-1.31-1.91-1.17-3.66,.44,3.83,3.99,6.96,8.41,8.4,13.91Z"/><path d="M206.15,329.16c1.07-.52,1.47-.88,1.88-.89,9.16-.26,18.25-1.91,28.21-1.96-4.54,2.11-7.89,2.71-18.73,3.39-3.57,.22-7.17,.42-11.37-.54Z"/><path d="M153.21,22.72c-4.7-1.01-11.15-3.84-14.22-6.08,5.74,1.12,10.28,3,14.22,6.08Z"/><path d="M161.89,15.46c-5.27-.88-8.63-4.22-12.02-8.58,2.41,.07,3.1,1.72,4.24,2.57,1.39,1.04,2.66,2.23,4.03,3.29,1.22,.95,2.5,1.82,3.75,2.72Z"/><path d="M226.44,.58c-1.56,3.05-3.11,6.1-5,9.78-.25-4.74,2.27-7.42,4.2-10.36,.27,.19,.53,.39,.8,.58Z"/><path d="M229.96,12.84c-1.99,4.19-2.51,4.82-6.06,7.39,1.61-3.14,3.28-5.17,6.06-7.39Z"/><path d="M176.24,272.01c-.27-.44-.56-.69-.56-.95-.01-.91,.07-1.82,.14-3.14,1.23,.48,2.15,.83,3.63,1.41-1.33,1.11-2.25,1.88-3.21,2.68Z"/><path d="M103.83,322.52h-1.99c-.02-.16-.03-.32-.05-.49,.69-.12,1.37-.24,2.06-.36,0,.28,0,.56-.01,.84Z"/><path d="M213.4,112.95c.94-.63,1.67-1.12,2.39-1.6,.31,.38,.62,.58,.66,.82,.24,1.38-.35,2.45-1.4,3.28-1.53,1.2-3.98,.32-4.45-1.66-.11-.46,.33-1.12,.65-1.6,.31-.46,.39-.4,2.14,.76Z"/><path d="M201.36,119.21c-.93-.74-1.8-1.18-2.28-1.88-.5-.72-.11-1.52,.69-1.99,.14-.08,.27-.18,.38-.29,.71-.69,1.49-1.4,2.49-.69,.88,.62,1.01,1.7,.58,2.59-.37,.77-1.1,1.38-1.85,2.26Z"/><path d="M185.56,112.16c.99,.6,1.85,.99,2.54,1.58,.66,.57,.35,2-.47,2.47-.83,.48-1.54,.16-2.01-.58-.59-.93-1.17-1.92-.06-3.48Z"/><path d="M179.25,113.18c2.4,1.48,2.67,1.93,2.04,3.22-.42,.85-.88,1.65-3.16,.47,.33-1.08,.67-2.2,1.12-3.69Z"/><path d="M190.79,124.57c1.33,1.79,1,2.97-.2,3.78-1.17,.79-2.09,.17-2.79-1.16,.89-.77,1.8-1.58,2.99-2.62Z"/><path d="M211.66,124.4c-.39,.82-.5,1.29-.78,1.6-.67,.77-1.51,1.1-2.37,.34-.29-.25-.56-1.04-.47-1.11,.55-.43,1.18-.82,1.84-1.04,.37-.13,.86,.09,1.79,.21Z"/><path d="M203.5,128.55c-.99,1.7-1.91,1.67-2.88,.8-.62-.56-.88-1.37-.17-1.97,.33-.28,1.12-.26,1.58-.08,.52,.21,.91,.75,1.47,1.25Z"/><path d="M209.87,137.14c-.74,.27-1.35,.62-1.46,.5-.37-.4-.56-.96-.83-1.46,.35-.18,.87-.61,1.03-.5,.44,.3,.73,.82,1.26,1.46Z"/><path d="M195.5,114.24c-.53,.14-.99,.42-1.26,.3-.3-.14-.42-.65-.62-1,.46-.2,.91-.4,1.37-.59,.15,.38,.3,.75,.51,1.29Z"/><path d="M188.74,122.86c-.63,.36-1.01,.75-1.32,.7-.29-.05-.51-.57-.75-.88,.33-.22,.65-.6,.99-.61,.28-.01,.58,.4,1.09,.78Z"/><path d="M193.13,139.59c-.33-.58-.6-.88-.65-1.22-.03-.2,.37-.68,.43-.65,.36,.14,.87,.33,.95,.62,.07,.25-.35,.64-.73,1.25Z"/><path d="M185.4,119.67c-.41,.11-.79,.25-1.19,.28-.07,0-.31-.67-.24-.72,.32-.23,.72-.35,1.08-.51,.1,.27,.2,.54,.35,.95Z"/><path d="M198.49,121.3c-.13-.22-.26-.44-.39-.67,.32-.12,.64-.24,.97-.36,.06,.24,.24,.57,.15,.7-.14,.19-.47,.23-.72,.33Z"/><path d="M223.01,219.81c-.89-1.26-.77-1.99,.37-2.36,.14-.04,.6,.39,.57,.46-.24,.6-.56,1.16-.95,1.91Z"/></svg>