<?xml version="1.0" encoding="UTF-8"?><svg id="Layer_1" xmlns="http://www.w3.org/2000/svg" viewBox="0 0 301.96 507.01"><path d="M300.99,469.99c-1.22-2.22-2.46-4.43-3.65-6.67-6.94-13.01-14.71-25.48-23.98-36.98-2.81-3.48-5.76-6.86-8.67-10.26-9.78-11.42-19.27-23.1-29.43-34.17-16.02-17.46-30.98-35.79-46.11-53.99-5-6.01-9.27-12.63-13.89-18.95-.71-.97-1.53-1.86-2.63-3.19-.37,1.11-.65,1.67-.74,2.25-2.66,17.88-5.98,35.61-11.08,52.99-.8,2.74-.95,5.66-1.46,8.49-.84,4.71-1.57,9.45-2.64,14.12-.51,2.24-.25,3.93,1.16,5.75,13.73,17.67,24.01,37.35,33.37,57.56,5.78,12.47,11.51,24.97,17.37,37.41,3.27,6.95,7.07,13.62,11.4,19.98,.53,.77,.98,1.59,1.49,2.43-1.22,.74-1.62-.19-2.01-.74-1.98-2.71-4-5.4-5.81-8.22-5.8-9.04-10.36-18.74-14.96-28.41-6.18-12.99-12.32-26-18.59-38.95-6.44-13.28-14.27-25.72-23.08-37.54-.56-.75-1.18-1.46-2.05-2.52-.61,1.05-1.08,1.79-1.5,2.56-1.6,2.95-3.11,5.94-4.81,8.83-1.24,2.12-3.11,3.62-5.4,4.57-4.63,1.91-8.53,.73-11.15-3.55-1.86-3.03-3.11-6.37-3.55-9.87-.79-6.34-1.73-12.72-.33-19.09,.86-3.89,2.03-7.71,3.09-11.55,.25-.91,.62-1.79,.9-2.56-2.62-5.33-10.48-16-14.69-19.61-1.41-1.21-3.15-2.22-4.92-2.82-5.43-1.83-10.7-4.08-16.44-5.06-5.3-.9-9.85-3.8-13.61-7.63-1.9-1.94-3.76-2.31-6.4-2.03-8.26,.86-16.56,1.79-24.85,1.82-7.47,.03-15.03-.3-22.34-2.38-3.41-.97-6.66-2.27-9.43-4.55-1.89-1.56-3.36-3.4-3.71-5.96-.27-1.96,.31-3.54,2.09-4.42,1.71-.84,3.49-1.59,5.31-2.14,4.9-1.46,9.84-2.76,14.75-4.2,1.96-.58,3.86-1.38,6.2-2.22-1.39-2.41-2.55-4.44-3.74-6.45-.65-1.1-1.26-2.24-2.02-3.26-3.76-5.05-4.93-10.72-3.78-16.81,.69-3.63,.4-7.04-1.34-10.23-2.17-3.98-2.53-7.85,.33-11.85-1.76-3.2-4.12-5.62-6.92-7.86-5.36-4.28-8.7-9.74-8.13-16.94,.43-5.4,2.99-9.35,8.04-11.54,.44-.19,.92-.29,1.35-.49,.42-.2,.81-.47,1.36-.79,0-1.39-.07-2.81,.02-4.21,.11-1.75,.24-3.51,.55-5.23,.48-2.73,2.09-4.6,4.71-5.59,1.48-.56,2.96-1.14,4.41-1.7,.09-2.03-1.12-3.42-1.88-4.97-1.39-2.88-2.9-5.7-4.24-8.6-.66-1.44-1.19-2.98-1.52-4.53-1.3-6.08-.2-8.8,5.15-12.04,3.13-1.9,6.53-3.36,9.73-5.16,2.88-1.61,5.64-2.28,8.47,.55-.33-2.34-1.63-5.91-2.58-6.61-.73-.54-1.7-.82-2.6-1.05-3.25-.82-6.58-1.36-9.76-2.37-6.95-2.21-13.1-5.8-18.36-10.95C8.92,127.56,2.14,112.64,.58,95.26c-1.29-14.41-.29-28.74,1.7-43.03,1.04-7.44,2.06-14.88,3.13-22.32,.18-1.26,.52-2.51,.9-3.72,2.09-6.54,4.2-13.08,6.33-19.61,.2-.6,.55-1.15,.81-1.67C18.49,1.91,24.03,1.45,29.62,1.28,43.37,.85,57.11,.39,70.85,.03c3.35-.09,6.72,.07,10.07,.19,2.67,.1,5.32,.38,7.61,1.74,.01,1.19-.7,1.2-1.29,1.2-3.52-.03-7.05,.11-10.55-.19-12.17-1.03-24.28,.31-36.41,.7-4.78,.15-9.56,.48-14.34,1.16,6.07,.18,12.15,.35,18.22,.55,6.05,.2,12.1,.44,18.18,.67-.09,2.02-1.47,1.77-2.44,1.79-7.03,.18-14.06,.41-21.09,.35-4.14-.04-8.27-.58-12.4-.93-.79-.07-1.72-.12-2.31-.55-2.59-1.87-5.37-1.63-8.11-.98-2.28,6.93-4.71,13.83-6.79,20.84-1.09,3.66-1.77,7.47-2.26,11.26-1.32,10.3-2.7,20.61-3.57,30.95-.99,11.81-1.15,23.64,1.36,35.34,1.45,6.78,3.65,13.25,7.51,19.07,.71,1.07,1.37,2.16,2.01,3.27,7.68,13.11,19.26,20.66,34.02,23.37,9.18,1.69,18.47,1.62,27.69,.13,3.14-.51,6.19-1.55,9.26-2.42,.75-.21,1.7-.52,2.06-1.1,.9-1.42,2.34-1.6,3.69-1.96,4.33-1.17,7.74-3.72,10.65-7.02,3.42-3.9,5.76-8.43,7.62-13.23,3.33-8.58,4.96-17.54,5.52-26.67,1.83-29.72-3.55-58.25-14.58-85.81-.47-1.17-1.11-2.27-1.79-3.64-9.95,1.35-19.82,.39-29.69-.28-.24-.02-.46-.37-.71-.57,.04-1.14,.93-1.13,1.68-1.15,4.8-.13,9.59-.21,14.39-.35,3.67-.11,7.35-.24,11.02-.43,4.01-.21,5.4,.57,6.98,4.32,5.49,13.01,9.41,26.5,12.08,40.35,2.43,12.59,3.84,25.3,3.62,38.13-.21,12.02-1.51,23.93-5.52,35.39-1.86,5.32-4.32,10.32-7.83,14.76-2.81,3.57-6.36,6.11-10.39,8.29-4.67,2.53-9.39,4.71-14.57,5.82-1.87,.4-3.75,.77-5.65,1.05-1.76,.27-2.93,1.21-3.58,2.81-1.13,2.78-2.42,5.53-1.99,8.95,3.34-1.99,6.9-2.9,9.75-5.41,2.04-1.8,3.99-.8,4.29,2.01,.29,2.7,.27,5.43,.34,8.14,.05,1.76-.01,3.52,.02,5.28,.07,3.74,.9,7.25,3.1,10.38,1.2,1.7,2.35,3.44,3.33,5.27,2.01,3.71,4.8,6.7,7.81,9.62,7,6.78,13.75,13.81,20.65,20.69,2.94,2.94,6.03,5.73,9,8.64,3.08,3.02,6.22,5.99,9.11,9.19,1.69,1.88,3.16,4.05,4.34,6.29,3.37,6.41,7.44,12.31,12.17,17.76,3.06,3.53,5.65,7.34,7.26,11.77,1.1,3.02,2.14,6.04,1.91,9.32-.11,1.54,.47,2.67,1.54,3.82,4.56,4.92,8.46,10.35,12.24,15.88,6.22,9.11,12.52,18.17,19.65,26.63,14.83,17.61,29.55,35.31,45.06,52.36,11.72,12.89,22.85,26.33,34,39.72,11.22,13.48,19.83,28.62,27.23,44.47,.38,.82,.61,1.71,.9,2.57-.32,.13-.64,.26-.97,.39ZM24.66,219.63c-.73,.56-1.77,.98-2.15,1.72-1.51,2.95-1.98,6.14-.69,9.25,1.54,3.69,3.39,7.23,6.99,9.45,2.07,1.28,3.71,2.99,4.87,5.17,.42,.79,1.02,1.48,1.61,2.32,3.51-2.65,7.14-2.37,10.71-1.22,3.48,1.12,6.85,2.6,10.28,3.91,.83,.32,1.62,.93,2.7,.45-1.82-2.48-4.35-3.74-7.17-4.48-1.7-.44-3.45-.66-5.14-1.13-5.52-1.53-11.2-2.65-16.19-5.67-.59-.35-.99-1.01-1.55-1.61,1.94-.98,3.42-.12,4.92,.29,6.15,1.68,12.29,3.39,18.44,5.07,2.82,.77,5.37,1.99,7.49,4.05,1.14,1.11,2.27,2.26,3.53,3.23,1.62,1.26,3.33,2.43,5.08,3.51,.53,.33,1.33,.23,2.34,.37-1.45-2.68-2.71-4.89-3.86-7.16-1.55-3.06-.99-5.87,1.19-8.43,.77-.91,1.54-1.83,2.5-2.97-3.35-2.24-6.22-4.6-9.46-6.23-7.54-3.8-15.25-7.29-22.92-10.83-2.02-.93-4.18-1.57-6.24-2.42-1.45-.6-2.83-.38-4.18,.18-1.49,.62-2.93,1.35-3.21,3.21,0,0,.11-.05,.11-.05Zm53.72,55.47c-2.53-3.17-2.65-7.34-4.77-10.89-2.31,1.01-2.73,2.79-2.79,4.72-.13,4.19,1.92,7.23,5.18,9.77,1.26-.74,2.38-1.41,3.79-2.24-1.23,5.81-3.84,6.88-11.07,4.95-.15,.42-.42,.84-.44,1.27-.17,4.65,1.72,8.37,5.32,11.23,3.56,2.83,7.57,4.69,12.02,5.7,4.05,.92,8.1,1.85,12.08,3.03,3.36,.99,6.64,2.26,9.91,3.54,2.31,.9,4.05,2.53,5.12,4.81,1.1,2.35,.77,4.47-1.34,5.95-1.39,.98-3.08,1.8-4.74,2.08-4.72,.79-9.48,1.36-14.24,1.82-2.65,.26-5.26,.5-7.98,1.27,4.95,5.05,11.69,8.26,17.82,8.67,.77,.05,1.56,.2,2.29,.45,2.87,.99,5.7,2.07,8.57,3.04,2.62,.89,4.88,2.27,6.86,4.24,4.46,4.42,8.05,9.51,11.66,14.59,3.42,4.82,6.82,9.66,10.26,14.47,.73,1.02,1.6,1.94,2.39,2.89,.44-.27,.83-.36,.95-.6,.66-1.27,1.35-2.54,1.84-3.88,4.66-12.76,8.87-25.67,12-38.89,2.06-8.7,3.39-17.58,5.63-26.22,1.36-5.24-.37-8.93-3.83-12.37-.33-.33-.69-.64-.98-.91-.98-9.3-3.55-15.22-9.76-22.49-.52-.61-1.09-1.18-1.55-1.83-3.18-4.59-6.65-9.02-9.41-13.86-2.32-4.06-4.78-7.91-8.1-11.2-1.93-1.91-3.87-3.81-5.83-5.69-3.23-3.1-6.53-6.12-9.7-9.28-7.02-6.98-13.89-14.11-21-21-2.9-2.81-5.41-5.82-7.47-9.29-2.36-3.98-4.75-7.98-7.53-11.66-2.5-3.31-4.18-6.74-4.36-10.91-.07-1.69,.1-3.46-.91-5.38-4.1,2.59-7.24,5.39-7.18,10.59,.04,3.19-.37,6.38-.44,9.57-.08,3.82-.02,7.64-.02,11.46,1.76,1.59,3.78,2.99,5.28,4.82,3.54,4.32,6.83,8.85,10.24,13.28,3.87,5.03,.37,11.44-3.95,13.11-4.24,1.65-8.21,1.04-12.02-.87-3.27-1.64-6.39-3.61-9.47-5.6-1.84-1.19-3.61-1.57-6.32-.73,1.63,.87,2.69,1.51,3.81,2.01,5.68,2.59,11.1,5.64,16.09,9.4,1.01,.76,2.11,1.53,2.85,2.53,2.75,3.72,5.44,7.49,8.02,11.32,2.46,3.66,2.2,7.14-.59,10.54-.59,.72-1.24,1.41-1.78,2.02-1.17,.16-2.21,.3-3.51,.47,1.64,5.48,3.47,10.59,3.1,16.17Zm32.38,38.19c-.7-2.47-2.54-3.94-4.84-4.85-2.67-1.05-5.37-2.07-8.13-2.85-4.76-1.35-9.56-2.57-14.38-3.72-4.29-1.03-8.07-3.01-11.48-5.74-3.82-3.06-6-7-6.11-11.96-.04-1.6,0-3.2,.06-4.8,.07-2.13-1.25-3.6-2.52-4.99-.53-.58-1.64-.64-2.76-1.04-.36,2.69-.61,5.05-.99,7.39-.52,3.16-1.07,6.35-2.82,9.09-4.48,7-10.56,11.86-18.77,13.91-4.96,1.23-9.87,2.65-14.76,4.13-1.77,.54-3.78,.86-4.99,2.87,.41,2.94,2.63,4.52,4.94,5.94,3.9,2.38,8.29,3.33,12.73,3.95,11.81,1.65,23.61,.75,35.4-.28,8.27-.72,16.53-1.61,24.77-2.53,3.49-.39,6.95-1.02,10.4-1.63,1.75-.31,3.42-.87,4.22-2.88Zm-37.78-51.79c-.91-2.23-2.71-2.62-4.3-3.25-6.08-2.42-12.16-4.81-18.25-7.21-3.42-1.35-6.91-2.41-10.57-2.86-2.06,1.18-3.39,2.95-4.58,4.86-1.01,1.61-1.2,3.28-.51,5.03,.47,1.19,1,2.35,1.51,3.52,1.11,2.53,1.52,5.12,1.33,7.92-.86,12.81-1.03,9.98,4.88,21.83,.35,.71,.8,1.39,1.26,2.03,.82,1.14,1.69,2.24,2.51,3.32,8.45-4.59,12.93-15.51,10.4-23.23-13.42-2.52-13.86-2.69-15.58-6,.13-.09,.28-.27,.39-.25,.62,.09,1.26,.17,1.85,.35,5.22,1.6,10.56,2.49,16.01,2.72,.8,.03,1.6,.06,2.39,.11,1.7,.11,3.06,.84,4.03,2.25,.82,1.18,1.58,2.41,2.47,3.53,.75,.94,1.49,2,3.35,2.12-3-5.94-5.4-11.72,1.39-16.77Zm-1.18-35.99c-1.46-1.32-2.72-2.31-3.8-3.47-2.61-2.77-4.21-6.01-4.06-9.91,.15-3.87,2.45-5.69,6.31-5.1,.65,.1,1.31,.09,2.33,.16-3.99-6.78-9.66-9.98-16.86-9.88-5.4,.08-10.8,.85-16.16,1.6-2.31,.32-4.62,1.13-6.42,3.12,.59,1.77,1.87,3.42,1,5.43-.62-.22-1.25-.44-2.04-.72-.56,2.19-.88,4.18-.12,6.25,4.91,1.99,9.77,3.95,14.47,5.86,.35-.07,.52-.06,.66-.13,4.78-2.52,8.94-1.87,13.24,1.56,3.17,2.52,6.86,4.59,11.46,5.23Zm59.89,171.86c.65,1.63,.99,2.83,1.58,3.88,2.21,3.95,5.62,4.95,9.74,3.08,2.63-1.2,4.25-3.33,5.6-5.72,3.49-6.15,6.16-12.65,7.54-19.59,.96-4.85,1.43-9.8,2.22-14.68,2.08-12.78,3.47-25.64,4.6-38.54,.22-2.54,.67-5.06,1.06-7.58,.03-.22,.4-.39,.78-.75,.36,2.98-.03,5.81-.29,8.65-.26,2.86-.45,5.74-.63,8.61-.17,2.68-1.16,5.33-.34,8.52,.69-2.94,1.38-5.4,1.83-7.9,1.77-9.9,3.46-19.82,5.21-29.73,.43-2.42,0-4.42-2.63-5.91-.39,2.36-.66,4.56-1.14,6.72-.37,1.69-.6,3.67-1.63,4.88-1.16,1.35-1.52,2.73-1.76,4.28-.25,1.58-.28,3.19-.59,4.75-1.67,8.62-3.26,17.26-5.12,25.85-2.39,11.08-4.95,22.13-7.54,33.17-.99,4.21-2.51,8.27-4.84,11.94-1.01,1.6-2.24,3.11-3.57,4.47-2.15,2.2-4.72,3.24-7.83,2.07-.55-.21-1.16-.25-2.27-.47Zm4.28-31.68c.03,6.19-1.04,11.45,1.54,16.41,2.93-2.53,3.37-3.2,5.49-8.42-3.04-3.72-5.73-8.02-9.1-11.87-.38,.41-.67,.6-.79,.87-3.83,8.76-4.64,17.85-2.96,27.22,.14,.79,.29,1.58,.57,2.33,1.54,4.13,5.88,5.39,9.31,2.64,1.11-.89,2.15-1.95,2.94-3.13,2.34-3.45,4.29-7.15,5.28-11.22,2.23-9.15,4.33-18.34,6.45-27.52,.22-.97,.24-1.98,.36-2.97-2.11,4.4-3.75,8.88-5.24,13.42-2.01,6.11-4.94,11.77-8.29,17.23-.74,1.2-1.78,2.25-2.8,3.24-.71,.69-2.07,.53-2.58-.18-.37-.51-.73-1.08-.9-1.67-1.34-4.69-1.45-9.45-.79-14.25,.05-.38,.49-.72,1.5-2.12ZM48.82,182.52c1.44-1.6,2.51-2.72,3.5-3.91,2.58-3.1,3.75-6.63,3.13-10.67-.39-2.55-1.06-3.42-3.71-4.88-.64,1.81-1.12,3.68-1.95,5.37-.83,1.69-1.9,3.31-3.1,4.76-1.16,1.41-2.84,1.99-4.71,1.93-2.11-.07-3.15-.77-3.95-2.8-.39-.99-.7-2.01-1.06-3.07-2.76,1.05-3.59,3.03-3.22,5.44,.32,2.02,.8,4.1,1.65,5.95,2.24,4.88,4.72,9.65,7.17,14.62,4.34-.47,8.39-.91,12.62-1.36,.08-3.68,.16-7,.22-10.32,.02-.95-.05-1.91-.09-2.86,0-.15-.06-.33-.16-.42-.11-.1-.3-.1-.45-.15-1.8,.5-2.69,2.8-5.89,2.39Zm7.24-28.38c.17,.73,.16,1.25,.39,1.61,1.88,2.97,2.17,6.29,2.16,9.67,0,1.44-.07,2.87-.14,4.31-.37,7.49,.22,15.01-.88,22.47-.09,.58,.16,1.21,.27,1.92,1.75,.4,3.33,1.15,5.34,.51,0-6.87-.25-13.57,.07-20.24,.33-6.86,2.42-13.43,4.39-20.22-3.98-.28-7.7-.3-11.61-.03Zm10.02,59.36c.21,.69,.47,2.11,1.06,3.38,1.78,3.85,4.86,6.09,8.95,7.2,1.55,.42,2.76,.02,3.73-1.24,1.68-2.19,1.76-3.77,.27-6.1-2.43-3.81-6.43-5.53-10.27-7.3-2.18-1-3.82,.64-3.73,4.06Zm14.04,40.78c.46-4.12,.56-4.2-.85-6.14-2.32-3.18-4.78-6.26-7.16-9.36-4.21,2.59-4.87,4.34-2.94,8.14,1,1.97,2.19,3.88,3.5,5.66,2.34,3.18,3.3,3.35,7.45,1.7Zm-30.57-90.98c-.26-.27-.52-.54-.78-.81-2.53,1.25-5.09,2.43-7.56,3.78-.6,.33-1.17,1.15-1.3,1.83-.29,1.56-.39,3.23,.98,4.42,.97,.85,3.16,.22,4.68-1.32,.66-.67,1.29-1.44,1.68-2.28,.85-1.83,1.54-3.74,2.3-5.61Zm30.66,13.73c.35-5.25,.67-10.11-.39-15.22-.72,.32-1.32,.39-1.47,.69-1.28,2.53-.61,5.23-.44,7.85,.2,3.27,.82,4.84,2.3,6.68Zm75.56,169.57l.16-.32-.21-.06,.05,.38Z"/><path d="M9.45,93.74c2.5-.5,4.49-1.05,6.52-1.27,9.2-1.01,18.4-2.11,27.62-2.84,18.01-1.44,36.06-1.4,54.11-.97,2.71,.06,5.42,.36,8.1,.71,1.03,.13,2.01,.71,3.1,1.12-.82,5.59-1.36,10.95-2.43,16.21-2.12,10.43-6.92,19.56-14.66,26.94-14.34,13.69-34.04,15.61-50.95,6.43-11.64-6.31-19.89-15.84-25.69-27.61-2.41-4.89-4.21-10-5.36-15.34-.19-.91-.21-1.85-.38-3.38Zm37.45,38.45c-.53-.49-.82-.96-1.2-1.04-.34-.08-.78,.26-1.17,.42,.29,.31,.52,.78,.88,.9,.34,.11,.8-.13,1.49-.28Zm44.07-5.75c.29-.61,.54-1.08,.74-1.58,.03-.07-.16-.22-.25-.34-.36,.36-.75,.71-1.07,1.11-.04,.05,.26,.37,.57,.81Zm-34.9-9.02c-.04-.13-.08-.25-.12-.38-.22,.13-.48,.22-.63,.41-.06,.08,.1,.34,.16,.52,.2-.18,.39-.36,.59-.55Z"/><path d="M24.55,219.69c.27,.07,.55,.11,.8,.23,.11,.05,.21,.28,.19,.41-.29,1.97-.59,3.94-1.06,6.97-1.09-3.34-.72-5.51,.18-7.65,0,0-.11,.05-.11,.05Z"/><path d="M92.88,264.93c2.62,3.57,5.07,7.28,7.9,10.68,2.97,3.57,6.5,6.65,10.62,8.86,3.89,2.09,7.92,3.9,12.45,6.1-2.76,1.14-4.59-.11-6.38-.68-6.64-2.13-12.61-5.46-17.28-10.76-3.59-4.07-6.5-8.56-7.31-14.21Z"/><path d="M29.68,311.43c1.87,.09,2.76-.02,3.58,.19,2.93,.77,5.8,1.82,8.75,2.45,6.47,1.38,13.02,1.18,19.56,.45,2.34-.26,4.67-.78,7.96,.01-1.79,.67-2.75,1.18-3.76,1.38-7.41,1.47-14.88,1.96-22.41,1.21-3.68-.37-7.21-1.39-10.53-3.03-.91-.45-1.6-1.32-3.15-2.66Z"/><path d="M39.48,253.52c1.23,2.29,.79,4.05,.39,5.81-.92-1.67-.97-3.4-.39-5.81Z"/><path d="M42.82,254.51c.06,.98,.13,1.96,.24,3.69-1.39-1.52-1.59-2.49-.24-3.69Z"/><path d="M62.56,262.72c.13,.22,.29,.4,.36,.62,.04,.11-.08,.27-.13,.41-.21-.1-.42-.2-.63-.3,.13-.23,.26-.46,.4-.73Z"/><path d="M26.53,227.44c-.31-2.67-.44-5.24,1.63-7.82,.55,1.13,1.01,1.94,1.31,2.8,.14,.39-.05,.89-.09,1.34-.49-.07-.89-.13-1.41-.21-.18,1.23-.35,2.47-.57,3.69-.02,.09-.45,.1-.87,.19Z"/><path d="M55.31,239.3c-.18-2.92,.64-4.38,2.39-6.55-.07,2.85-1.07,4.24-2.39,6.55Z"/><path d="M58.38,237.23c.13-.53,.18-1.1,.42-1.57,.16-.3,.6-.46,1.18-.86-.08,.72-.04,1.15-.19,1.52-.16,.4-.49,.73-.74,1.09-.22-.06-.45-.11-.67-.17Z"/><path d="M54.26,202.16c.49,2.98,.16,4.99-1.23,7.41-.48-2.77,.07-4.74,1.23-7.41Z"/><path d="M56.44,206.17c-.74-2.77-.7-2.92,1.47-6.22,.53,2.62-1.04,4.27-1.47,6.22Z"/></svg>