<?xml version="1.0" encoding="UTF-8"?><svg id="Layer_1" xmlns="http://www.w3.org/2000/svg" viewBox="0 0 239.88 421.29"><path d="M142.61,114.95c-1.16-1.29-2.27-2.61-3.48-3.85-1.53-1.56-1.46-4.01-3.68-5.4-1.74-1.1-2.68-3.49-3.92-5.34-.97-1.46-1.91-2.95-2.77-4.49-6.9-12.43-13.79-24.87-20.65-37.33-7.55-13.72-15.04-27.46-22.59-41.18-.92-1.67-2.52-3.11-2.95-4.87-.48-1.93-2.88-2.04-3.13-4.07,.57-.09,1.09-.34,1.45-.2,3.36,1.42,6.9,1.07,10.4,1.14,6.39,.14,12.78,.39,19.16,.55,.9,.02,1.8-.19,2.93-.33-.45-3.21-2.04-5.9-2.27-9.59,3.6,2.8,3.7,6.81,5.87,10,8.42,.52,17.01,.91,25.57,1.63,8.35,.71,16.78,.92,25.95,3.07-1.33,.66-1.82,1.11-2.31,1.11-1.91-.02-3.82-.21-5.73-.3-8.78-.41-17.56-.8-26.34-1.23-3.51-.17-7.01-.47-10.52-.65-1.57-.08-3.15-.01-4.78-.01-.36,1.9,.15,3.16,2.16,3.51,5.03,.88,10.07,1.76,15.1,2.66,3.62,.64,7.24,1.28,10.84,2,.68,.13,1.28,.63,2.61,1.32-2.97,1.03-5.09,.26-7.2,.08-2.39-.21-4.77-.44-7.16-.7-2.22-.24-4.45-.5-6.66-.79-2.19-.28-4.37-.61-6.28-.89-.43,.39-.58,.47-.64,.6-.06,.14-.09,.33-.04,.47,.4,1.21,.74,2.44,1.26,3.6,2.4,5.39,4.85,10.75,7.37,16.32,3.01-.4,5.89-.86,8.59,.46,2.7,1.31,4.36,3.66,5.77,6.02,4.86,0,9.48,0,14.09,0,9.43,.01,18.86-.11,28.28,.09,5.58,.12,11.16,.67,16.72,1.22,1.7,.17,3.44,.77,4.99,1.52,2.19,1.05,2.67,2.67,1.39,4.71-1.61,2.57-3.43,5-5.22,7.45-2.53,3.46-5.12,6.89-7.74,10.41,.92,1.07,1.61,1.88,2.47,2.89,3.63-5.06,7-9.88,10.5-14.61,3.52-4.76,7.1-9.47,10.76-14.11,3.64-4.62,7.06-9.44,11.31-13.67,1.23,1.51,.03,2.28-.5,3.07-7.23,10.75-15,21.11-23.09,31.22-2.49,3.11-4.94,6.25-7.59,9.61,3.47,4.02,6.79,7.86,10.1,11.73,1.87,2.19,3.85,4.3,5.49,6.65,1.07,1.54,1.82,3.37,2.39,5.18,2.65,8.4,4.45,16.99,5.35,25.76,.68,6.65-.26,13.11-2.72,19.28-2.13,5.37-3.75,10.84-4.92,16.49-.69,3.34-.85,6.6-.74,9.98,.13,4.14,.07,8.31-.22,12.44-.41,5.73-2.99,10.71-5.97,15.48-1.02,1.62-2.17,3.18-3.43,4.62-8.88,10.14-18.35,19.62-30.47,25.95-1.7,.89-3.39,1.86-5.19,2.46-7.62,2.57-13.67,7.51-19.48,12.79-1.52,1.38-2.72,3.12-3.97,4.78-.33,.44-.28,1.17-.38,1.68,10.08,1.98,19.53,5.27,28.67,9.4,2.3,1.04,4.35,2.67,6.4,4.18,1,.74,1.87,1.76,2.58,2.8,1.42,2.11,1.26,4.04-.78,5.47-1.8,1.25-3.87,2.29-5.97,2.9-7.08,2.07-14.33,3.34-21.73,3.23-7.02-.1-14.04-.42-21.46-.66-1.25,1.53-1.49,3.8-1.98,5.91-1.77,7.63-3.34,15.3-5.1,22.92-2.94,12.76-5.8,25.55-9,38.25-2.97,11.78-6.88,23.27-11.24,34.62-4.52,11.78-8.8,23.66-13.2,35.48-.36,.98-.9,1.89-1.66,3.44-1.23-3,.27-4.95,.7-6.97,.46-2.18,1.31-4.27,1.97-6.41-.01-.22-.01-.44-.01-.65h.05v.75h-2.16c.19-.81,.24-1.59,.55-2.26,5.08-10.87,9.12-22.13,13.1-33.45,2.85-8.13,6.32-16.06,8.33-24.47,4.2-17.56,8.27-35.15,12.42-52.71,1.14-4.81,2.37-9.6,3.6-14.58-2.46-1.05-5-1.13-7.5-1.4-6.08-.65-11.98-2.03-17.51-4.65-2.3-1.09-4.52-2.4-6.63-3.81-1.17-.78-2.24-1.86-3.02-3.02-1.86-2.75-1.18-5.58,1.61-7.4,.53-.35,1.1-.65,1.68-.93,9.92-4.75,20.27-7.76,31.36-7.85,1.4-.01,2.81-.19,4.27-.3,.26-1.05,.56-1.8,.62-2.57,1.29-18.47,3.1-36.91,4.26-55.85-1.33,.37-2.22,.5-3.02,.85-6.26,2.8-10.96,7.66-15.93,12.16-1.3,1.18-2.52,2.46-3.82,3.63-.43,.39-1.02,.61-2.03,1.19,.12-1.09,0-1.77,.27-2.19,.94-1.46,1.84-3.03,3.09-4.2,3.49-3.28,7.09-6.46,10.77-9.53,3.1-2.59,6.72-4.28,10.54-5.24,.93-3.51,2.6-23.21,2.37-27.95-3.08-2.24-6.26-4.58-9.98-6.4-3.58,3.42-7.25,6.52-9.99,10.46-7.74,11.15-13.24,23.28-16.03,36.63-1.67,7.97-3.62,15.88-5.55,23.79-.48,1.97-.39,3.76,.38,5.6,1.44,3.42,3.18,6.62,5.96,9.18,1.04,.96,1.94,2.06,3.47,3.7-1.45-.2-2.23-.1-2.77-.42-3.06-1.84-5.61-4.23-7.45-7.32-.55-.93-1.12-1.85-1.97-3.27-2.55,5.71-5.06,10.84-6.35,16.38-1.89,8.16-4.94,15.84-8.61,23.32-.91,1.86-1.73,3.76-2.61,5.64-.27,.57-.55,1.16-.92,1.67-9.91,13.93-19.8,27.88-29.76,41.78-13.78,19.24-26.94,38.9-39.63,58.87-2.48,3.91-5.21,7.67-7.88,11.46-.6,.85-1.43,1.53-2.24,2.39-.76-1.57,.33-2.34,.86-3.22,12.83-21.39,26.07-42.52,40.51-62.87,3.42-4.82,6.67-9.77,9.76-14.81,6.79-11.06,14.49-21.45,22.64-31.53,1.69-2.09,3.21-4.42,4.31-6.87,2.64-5.82,5.1-11.72,7.41-17.67,3-7.74,5.58-15.66,8.71-23.34,4.19-10.29,6.49-21.06,8.6-31.87,2.77-14.2,8.51-27.09,16.65-38.95,1.79-2.61,4.15-4.84,6.34-7.17,1.19-1.27,2.58-2.36,4.13-3.75-1.08-1.43-2.17-2.75-3.12-4.17-1.6-2.38-3.2-4.77-4.61-7.26-.61-1.07-.94-2.4-1.04-3.64-.32-3.61,1.85-5.99,5.43-5.6,2.67,.29,5.44,.85,7.85,1.97,5.2,2.41,10.2,5.26,15.28,7.93,.28,.02,.55,.05,.82,.07-.29-.03-.58-.06-.87-.09-.35-.64-.55-1.54-1.09-1.86-2.47-1.45-4.94-2.97-7.59-4.01-3.89-1.54-7.45-3.63-10.9-5.91-4.4-2.9-7.36-6.98-9.15-11.93-.9-2.47-.93-5.01-.63-7.56,.25-2.08,1.45-3.15,3.55-3.04,1.41,.08,2.88,.34,4.18,.88,3.23,1.34,6.38,2.88,9.56,4.35,1.57,.73,2.93,2,4.83,1.83,.25,.12,.49,.24,.74,.35l-.82-.27Zm17.79,100.63c-.77-1.57-1.2-2.06-1.23-2.58-.28-4.81,.03-9.57,1.21-14.27,.99-3.94,2.34-7.62,5.84-9.98-5.31-11.96-8.52-16.75-13.03-19.3-.22,.8-.54,1.53-.6,2.28-.4,5.1-.72,10.2-1.1,15.3-.86,11.64-1.74,23.27-2.59,34.91-.5,6.86-.96,13.71-1.4,20.57-.06,.87-.46,1.96,1.06,2.47,1.89-1.54,3.96-3.06,5.82-4.79,4.28-3.99,9.24-6.75,14.63-8.95,6.09-2.49,11.61-5.97,16.86-9.99,6.01-4.6,11.13-10.1,16.32-15.5,3.32-3.45,6.18-7.33,7.97-11.88,2.63-6.68,.66-13.3-5.3-17.63-2.91,1.95-5.77,3.97-8.76,5.81-1.48,.91-3.12,1.66-4.79,2.12-2.5,.7-3.69,.04-5.21-2.12-2.95-4.18-5.81-8.42-8.95-12.45-3.83-4.92-7.97-9.59-11.87-14.46-1.53-1.92-3.28-3.46-5.45-4.58-1.13-.58-2.2-1.3-3.33-1.9-4.76-2.57-9.63-4.87-14.59-6.75-.39,.44-.72,.64-.78,.9-1.13,4.98-3.05,4.19-6.71,3.81-1.35-.14-2.6-1.14-3.94-1.62-.82-.29-1.47-1.4-2.72-.55,2.69,3.76,5.25,7.49,9.47,9.89,4.72,2.68,9.22,5.76,13.76,8.74,3.9,2.56,7.68,5.43,9.94,9.56,5.92,10.83,12.32,21.31,20.36,30.73,.31,.37,.31,1,.74,2.56-6.16-4.57-9.78-10.08-14.14-14.73-1.9,.33-2.49,1.57-3.03,2.97-2.08,5.41-3.46,10.96-3.83,16.76-.08,1.18-.31,2.34-.63,4.66ZM202.22,61.38c-1.93,0-3.31-.05-4.68,0-3.83,.17-7.65,.57-11.47,.53-7.5-.09-15.01-.42-22.51-.66-6.7-.21-13.39-.43-20.33-.65-.7,.83-1.51,1.78-2.41,2.85,.96,1.54,1.16,3.39,2.69,4.27,2.06-.37,3.92-.81,5.8-1,1.62-.16,3.18,.25,4.48,1.33,3.41,2.84,5.34,6.26,4.52,10.91-.4,2.26-1.08,4.39-2.63,6.06-1.19,1.29-1.64,2.64-1.41,4.32,.03,.2-.32,.46-.56,.77-.69-.65-1.38-1.29-2.17-2.03-3.31,.16-6.58-.33-9.6-2.05-5.8-3.3-6.98-9.9-2.63-15,.5-.58,.97-1.18,1.5-1.85-.82-1.55-1.56-2.93-2.37-4.46-4.11,.43-7.65-.47-10.52-3.54-2.57-2.75-5.66-3.31-9.53-2.19,7.53,13.08,15.09,26.2,22.71,39.44,.87,.05,1.82,.18,2.77,.15,7.23-.18,13.9,1.53,19.96,5.58,1.54,1.03,3.11,2.22,5.04,2.25,5.81-7.64,11.5-15.14,17.41-22.9-.78-2.98-.23-6.08,1.03-9.09,.83-1.99,2.23-3.07,4.47-2.81,1.08,.13,2.16,.29,3.43,.46,2.28-3.48,4.51-6.9,7-10.71Zm-104.13,202.78c.32,2.28,2.11,3.42,3.8,4.56,4.98,3.37,10.52,5.41,16.41,6.36,12.16,1.95,24.41,3.06,36.74,3.06,7.25,0,14.32-1.11,21.29-2.97,1.23-.33,2.47-.71,3.62-1.24,.79-.37,1.43-1.06,2.11-1.58-.66-1.94-1.94-2.97-3.29-3.76-3.03-1.76-6.03-3.68-9.27-4.93-6.1-2.34-12.36-4.29-18.59-6.29-.95-.3-2.07-.04-3.22-.04,.08,3.6,3.11,5.67,3.83,8.73-.51,.11-.68,.2-.8,.16-3.64-1.37-4.52-5.19-6.68-7.84-.81-1-.49-3.08-.39-4.64,.63-9.41,1.32-18.81,2.03-28.21,1.43-18.96,2.9-37.92,4.33-56.87,.06-.77-.08-1.56-.12-2.26-1.32-1.12-2.43-2.24-4.53-2.21-.21,2.02-.45,3.89-.6,5.77-.46,5.89-.86,11.79-1.32,17.69-.85,10.83-1.74,21.66-2.6,32.49-.76,9.56-1.43,19.12-2.27,28.67-.57,6.5-.77,6.75-5.32,11.14-1.63,1.57-3.45,2.86-5.7,3.39-.38,.09-.84-.15-1.88-.36,1.74-1.32,3.13-2.27,4.39-3.38,1.27-1.12,2.58-2.29,2.75-4.2-9.58-1.58-27.59,3-34.74,8.79Zm101.03-97.73c-3.1-6.55-6.88-12.65-11.09-18.45-2.63-3.61-5.77-6.81-9.55-9.34-3.05-2.03-5.93-4.33-8.92-6.46-1.81-1.29-3.58-2.72-5.57-3.64-7.82-3.61-15.71-7.05-23.59-10.53-.25-.11-.61,.02-.92,.04-2.91,4.14-4.65,4.65-9.16,2.59-1.3-.6-2.5-1.41-3.74-2.13-.62-.35-1.23-.7-1.99-1.13-.05,.69-.19,1.04-.08,1.28,1.7,3.71,4.09,6.86,7.59,9.03,3.38,2.11,6.82,4.09,10.55,5.62,5.79,2.37,11.23,5.56,15.82,9.79,3.97,3.66,7.46,7.89,10.89,12.09,5.34,6.55,10.44,13.29,15.79,20.13,1.83,.43,3.48-.69,5.07-1.69,3.2-2.02,6.78-3.61,8.92-7.2Zm13.55,13.29c.79-4.07,.6-7.28-.67-10.43-.59-1.47-1.28-2.92-1.75-4.43-2.08-6.73-3.67-13.59-4.09-20.63-.28-4.69-1.96-8.75-4.9-12.24-6.87-8.16-14.68-15.11-25-18.67-5.6-1.94-11-4.31-15.97-7.59-2.4-1.59-5.07-2.5-8.5-3.03,.52,.91,.81,1.38,1.06,1.87,.37,.71,.82,1.39,1.04,2.14,.79,2.68-.53,5.19-3.21,6.03-.98,.31-2.04,.37-3.21,.58,1.03,1.72,2.62,2.17,4.01,2.86,3.28,1.64,6.58,3.26,9.89,4.85,2.93,1.4,5.52,3.28,7.52,5.82,1.81,2.31,4.03,4.04,6.46,5.63,6.6,4.32,12.56,9.4,16.89,16.08,2.86,4.42,5.47,9.01,8.09,13.58,3.43,5.97,7.12,11.74,12.34,17.58Zm-10.09-93.08c-3.21,1.39-6.17-.1-8.76-2.93-1.38-1.5-2.85-2.91-4.66-4.75-.11,1.13-.27,1.71-.21,2.26,.27,2.44,1.32,4.58,2.67,6.6,2.3,3.46,4.69,6.86,6.88,10.39,1.09,1.74,2,3.64,2.7,5.57,2.9,7.92,3.87,16.13,3.39,24.52-.09,1.64,0,3.13,.96,4.56,2.39,3.55,3.14,7.58,3.63,11.77,.71,6.02,1.78,12,2.73,18,.09,.57,.05,1.34,1.25,1.41,.29-.77,.77-1.59,.9-2.46,.87-5.73,2.87-11.1,4.95-16.47,2.35-6.06,2.9-12.39,2.15-18.87-.9-7.81-2.58-15.44-4.78-22.96-.53-1.81-1.45-3.55-2.46-5.16-.62-.98-1.87-1.54-2.63-2.47-.78-.95-1.11-2.31-1.97-3.15-1.94-1.9-4.08-3.58-6.74-5.87ZM109.16,54.03c2.55-1.26,4.68-2.67,7.03-3.4,2.56-.8,5.32-.97,8.1-1.43,1.14-1.96,2.33-4.01,3.57-6.15-3.36-7.54-6.73-15.11-10.16-22.8-1.03-.31-2.08-.75-3.16-.92-8.84-1.42-17.53-3.43-26.12-5.94-.48-.14-1.07,.11-1.63,.18,.12,.62,.08,1,.25,1.23,4.59,6.2,7.92,13.1,11.28,19.99,3.15,6.46,6.65,12.72,10.84,19.23Zm97.72,.16c-1.11-1.03-2.44-1.41-3.86-1.54-3.65-.33-7.3-.86-10.96-.93-10.69-.21-21.39-.28-32.08-.29-4.75,0-9.5,.28-14.46,.44-.24,1.83-.44,3.37-.69,5.32,4.39,.28,8.5,.64,12.62,.77,7.02,.22,14.04,.32,21.07,.44,5.11,.08,10.22,.29,15.32,.09,3.16-.12,6.32-.73,9.43-1.4,1.46-.31,3.07-.94,3.62-2.89Zm-15.57,39.31c-4.83,4.53-11.27,12.94-13.05,17.21,9.37,2.85,15.95,9.84,23.64,16.62-.07-12.99-1.99-24.44-10.58-33.84Zm-52.9,5.8c-1.77-2.74-3.6-5.36-5.2-8.11-6.26-10.77-12.46-21.57-18.63-32.38-.85-1.48-1.92-1.77-3.87-1.5,8.73,15.73,17.25,31.08,25.81,46.52,.68-1.63,1.29-3.08,1.89-4.52Zm47.69,78.87c.87,1.44,1.55,2.59,2.14,3.56,4.13-.24,7.52-1.26,10.21-4.04,.65-.67,1.56-1.08,2.33-1.63,2.92-2.08,3.01-2.57,.91-5.72-.32-.48-.81-.85-1.26-1.31-2.38,1.69-4.51,3.32-6.76,4.76-2.36,1.51-4.85,2.82-7.56,4.39Zm3.49-87.87c-.72-.92-1.45-1.84-2.2-2.79-5.51,5.71-15.4,19.08-15.06,20.68,.8,.29,1.76,.63,2.39,.86,5.01-6.31,9.74-12.28,14.87-18.75Zm-63.61,45.04c.23,3.15,2.17,4.57,4.15,5.83,2.22,1.42,4.43,3.17,7.58,2.11,.32-.94,.66-1.93,1.05-3.05-3.78-2.77-7.69-4.56-12.78-4.89Zm25.48-27.5c-.81-.95-1.27-1.87-2.02-2.3-2.04-1.18-4.18-2.19-6.31-3.19-1.11-.52-2.2-.29-2.96,.67-.68,.85-.41,2.69,.51,3.46,2.51,2.1,5.48,3.08,8.69,3.11,.64,0,1.29-1.05,2.09-1.75Zm-14.49,8.55c-3.67-2.44-7.41-4.1-11.39-5.23-.48-.14-1.07,.1-2.2,.23,2.91,3.62,6.08,5.84,9.94,7.02,1.47,.45,2.83,.11,3.64-2.02Zm63.56-32.68c.14-.32,.29-.64,.43-.97-2.88-2.35-4.57-5.91-8.11-7.56-.48-.23-1.1-.17-1.86-.28,1.43,3.09,4.75,7.08,7.01,8.31,.72,.39,1.68,.35,2.53,.5ZM103.95,13.28c4.9,2.04,8.17,2.56,11.45,2.23,.44-1.41-.32-2.16-1.57-2.2-3.29-.1-6.59-.03-9.88-.03Zm11.44,40.35c5.1,1.9,5.65,1.94,9.19,.92-.48-.65-.82-1.6-1.29-1.67-2.62-.4-5.23-.17-7.9,.76Z"/><path d="M231.86,30.04c1.33-1.25,2.07-1.95,2.81-2.65-.11-.24-.19-.66-.35-.69-4.18-.99-8.34-2.09-12.57-2.85-9.57-1.72-19.18-3.25-28.76-4.9-1.2-.21-2.36-.67-3.65-1.04,.48-1.53,1.59-1.2,2.35-1.13,7.3,.72,14.63,1.32,21.89,2.36,6.31,.9,12.56,2.23,18.79,3.58,2.14,.46,4.26,1.33,6.19,2.38,1.79,.97,1.64,2.46,.16,3.88-1.72,1.66-3.71,1.51-6.87,1.06Z"/><path d="M185.97,25.92c6.58-.8,12.96,.51,19.33,.99,2.53,.19,5.34,.12,8.07,1.94-1.29,.98-2.36,.8-3.35,.73-7.89-.54-15.81-.73-23.57-2.49-.16-.04-.23-.52-.49-1.17Z"/><path d="M153.35,23.28c5.72-.81,23.17,1.07,28.11,3.05-.9,.3-1.39,.62-1.88,.61-8.12-.07-16.19-.81-24.18-2.3-.63-.12-1.16-.75-2.06-1.37Z"/><path d="M184.35,16.6c-4.74,.85-6.8,.65-11.83-1.12,.74-.41,1.25-.96,1.68-.9,3.29,.48,6.88-.36,10.15,2.02Z"/><path d="M117.9,200.01c-.12-.06-.25-.12-.37-.18,.16-.22,.29-.47,.49-.65,.05-.04,.32,.18,.49,.27-.2,.19-.4,.37-.61,.56Z"/><path d="M153.76,156.15c.05,.1,.15,.2,.15,.3,0,.09-.12,.18-.19,.27-.05-.1-.16-.2-.15-.29,0-.09,.12-.18,.19-.27Z"/><path d="M158.26,154.76c-.12,.06-.24,.17-.36,.17-.11,0-.21-.14-.31-.21,.12-.06,.24-.17,.36-.17,.11,0,.21,.13,.31,.21Z"/><path d="M152.05,154.89l-.25,.35c-.07-.12-.2-.25-.2-.36,0-.11,.15-.22,.23-.33,.07,.12,.15,.23,.22,.35Z"/><path d="M187.29,200.69c.12-.04,.23-.07,.35-.11,.02,.15,.05,.31,.07,.46-.12-.02-.26,0-.36-.07-.06-.04-.04-.19-.06-.29Z"/><path d="M130.51,74.19c-.4-.17-.96-.24-1.17-.54-1.61-2.41-3.23-4.84-3.91-7.73l-.11,.08c.63,.64,1.43,1.17,1.86,1.92,1.18,2.06,2.2,4.22,3.27,6.35,0,.01,.05-.08,.05-.08Z"/><path d="M131.98,78.65c.19,.12,.38,.25,.57,.37-.1-.04-.22-.05-.28-.11-.09-.09-.14-.23-.21-.35,0,0-.08,.09-.08,.09Z"/><path d="M131.06,76.69c.31,.65,.62,1.3,.92,1.95,0,0,.08-.09,.08-.08-.31-.65-.61-1.3-.91-1.96l-.09,.09Z"/><path d="M131.15,76.6c-.22-.8-.44-1.59-.65-2.4,0,0-.05,.08-.04,.07,.21,.8,.4,1.61,.6,2.42,0,0,.09-.09,.09-.09Z"/><path d="M125.44,65.92c-.24-.25-.48-.51-.73-.76,.12-.07,.25-.14,.37-.21,.08,.35,.17,.71,.25,1.06,0,0,.11-.08,.11-.08Z"/><path d="M177.66,148.99c-.52,.57-1.05,1.14-1.57,1.71-.16-.13-.31-.27-.47-.4,.49-.64,.98-1.28,1.47-1.92,.19,.2,.38,.4,.57,.6Z"/><path d="M150.8,126.72c-.18,.22-.36,.45-.54,.67-.14-.13-.28-.27-.41-.4,.23-.17,.46-.36,.71-.51,.02-.01,.16,.16,.25,.24Z"/><path d="M179.59,151.76c-.06-.1-.18-.28-.16-.3,.11-.11,.26-.18,.4-.26,.01,.12,.06,.26,.02,.36-.03,.08-.17,.13-.26,.19Z"/><path d="M197.03,141.31c-.1,.07-.2,.13-.3,.2-.07-.15-.15-.3-.22-.44,.12-.02,.26-.09,.36-.05,.08,.03,.11,.19,.16,.3Z"/><path d="M170.08,117.53c.05,.11,.15,.23,.14,.34-.01,.11-.13,.2-.21,.31-.05-.11-.15-.23-.14-.34,.01-.11,.13-.2,.21-.3Z"/><path d="M102.64,29.16c-1.56,.01-1.65-1.49-2.38-2.32,0,0-.06,.09-.06,.09,1.41,.14,1.73,1.4,2.37,2.33l.08-.09Z"/><path d="M104.06,33.57c1.49,.18,1.85,1.35,2.21,2.53l.09-.08c-1.41-.25-1.65-1.54-2.22-2.53,0,0-.08,.08-.08,.08Z"/><path d="M108.78,40.17c-.09,.03-.18,.06-.27,.09-.03-.12-.09-.24-.09-.36,0-.03,.17-.06,.26-.09,.03,.12,.06,.24,.1,.36Z"/><path d="M106.27,36.1c.18,.19,.37,.36,.53,.57,.03,.04-.09,.19-.14,.28-.1-.31-.2-.62-.3-.93,0,0-.09,.08-.09,.08Z"/><path d="M103.23,31.53c1.12,.33,1,1.17,.83,2.03,0,0,.08-.08,.08-.08-.28-.67-.55-1.35-.83-2.03,0,0-.08,.07-.08,.07Z"/><path d="M102.56,29.25c.22,.76,.45,1.52,.67,2.28,0,0,.08-.07,.08-.07-.93-.55-.87-1.4-.68-2.3,0,0-.07,.08-.07,.08Z"/><path d="M99.36,24.9c.89,.41,.94,1.18,.84,2.02,0,0,.07-.09,.06-.08-.28-.67-.55-1.35-.82-2.03l-.08,.09Z"/><path d="M99.44,24.8c-.12-.22-.24-.45-.36-.67,.08,.09,.19,.18,.23,.29,.05,.14,.04,.31,.05,.47,0,0,.08-.09,.08-.09Z"/></svg>