<?xml version="1.0" encoding="UTF-8"?><svg id="Layer_1" xmlns="http://www.w3.org/2000/svg" viewBox="0 0 307.99 453.24"><path d="M139.77,348.45c.97,1.31,1.78,2.5,2.68,3.61,8.08,9.95,15.26,20.53,22.08,31.36,8.19,13,17.08,25.5,26.39,37.72,6.59,8.65,13.07,17.38,19.55,26.12,1.3,1.75,2.65,3.51,3.24,5.59-.91,.83-1.3,.11-1.74-.23-.25-.19-.43-.47-.62-.73-14.13-18.58-29.22-36.44-42.11-55.95-5.82-8.8-11.44-17.74-17.4-26.44-4.24-6.18-8.9-12.08-13.22-17.89-2.14,.14-3.91,.62-5.47,.24-1.45-.35-2.67-1.62-3.96-2.47-.36,.07-.74,.04-.96,.21-5.86,4.64-12.81,6.44-19.98,7.43-6.01,.83-12.07,1.41-18.12,1.71-11.65,.58-23.32,.94-34.98,1.27-6.77,.19-13.39-.89-19.79-3.1-1.8-.62-3.55-1.48-5.16-2.48-1.65-1.03-2.04-3.17-.74-4.57,1.28-1.37,2.81-2.72,4.5-3.47,3.34-1.5,6.82-2.71,10.32-3.81,4.57-1.43,9.22-2.62,13.82-3.94,4.43-1.28,8.13-3.67,10.96-7.35,1.27-1.65,2.5-3.32,3.79-4.95,2.17-2.73,2.9-5.85,3.33-9.3,1.47-11.64,.51-23.25,.17-34.88-.21-7.35-.15-14.71-.25-22.07-.04-3.03-.17-6.05-.26-9.06-1.96-1.06-3.79-2.04-5.84-3.15-3.66,2.87-6.48,7.35-12.34,7.71,.89-2.13,2.72-2.53,4.03-3.49,1.42-1.04,2.94-1.95,4.27-3.08,1.33-1.12,2.48-2.44,3.98-3.94,3.57,.93,6.85,2.97,10.38,4.34,3.35,1.31,6.55,3.02,9.89,4.58q-.06-7.44,2.13-12.61c-1.59-2.45-1.6-2.44-4.62-3.21-.36,.96-.74,1.96-1.12,2.98-.7,.08-1.41,.17-2.49,.3,.07-1.31,.14-2.66,.22-4.14-1.56-1.31-3.24-2.78-5.64-2.96-.43-.03-.97-.28-1.22-.61-1.33-1.81-3.45-2.24-5.29-3.13-2.74-1.32-5.48-1.63-8,.61-.22,.19-.6,.2-.97,.32-.16,.88-.33,1.79-.57,3.06-.71-.91-1.24-1.58-1.9-2.43-.55,.46-1.07,.8-1.48,1.24-3.78,4.13-7.56,8.25-11.29,12.42-3.4,3.8-3.76,6.96-1.37,11.37,1.46,2.7,3.27,5.1,5.72,7,5.18,4.01,10.38,8.01,15.47,12.13,2.1,1.7,4.01,3.67,5.88,5.62,.33,.35,.08,1.25,.11,2.18-.87-.31-1.37-.37-1.71-.64-7.06-5.51-14.1-11.04-21.15-16.56-2.81-2.2-4.98-4.91-6.7-8.05-2.16-3.95-2.6-7.83-.06-11.78,.26-.4,.42-.86,.77-1.59-1.43-2.98-1.12-6.19-.02-9.48,.49-1.46,.49-3.16,.36-4.73-.46-5.41-1.04-10.81-1.66-16.2-.29-2.54-.78-5.05-1.17-7.57-.59-3.79-.19-7.34,2.57-10.3,.31-.33,.44-.84,.73-1.42-1.03-1.31-2.2-2.59-3.15-4.02-3.04-4.59-2.85-8.91,.47-13.32,2.18-2.89,5.1-4.79,8.56-6.16-1.61-4.36-4.34-7.89-6.7-11.61-2.91-4.59-6.17-8.96-9.01-13.59-2.58-4.22-4.86-8.63-7.13-13.03-.56-1.08-.74-2.44-.78-3.69-.12-3.31,1.41-5.48,4.62-6.38,3.2-.89,6.41-.71,9.17,1.32,2.42,1.79,4.66,3.83,6.86,5.67-.12-4.84-2.6-9.19-6.44-11.94-7.26-5.21-14.51-10.46-21.03-16.64-2.78-2.64-5.73-5.11-8.7-7.53-5.28-4.3-8.32-10.01-10.48-16.29-.57-1.66-1.02-3.37-1.41-5.08-.88-3.93-.26-5.25,3.42-6.7,1.92-.76,3.96-1.22,5.97-1.71,3.4-.83,6.81-1.58,10.1-2.33,.69-1.75-.52-2.61-1.22-3.58-5.57-7.81-11.2-15.58-16.8-23.38-2.96-4.12-2.89-4.68,.96-7.77,1.09-.87,2.32-1.57,3.3-2.22,2.23,.79,2.91,2.54,3.9,3.94,6.55,9.27,13.06,18.57,19.6,27.86,.92,1.3,1.87,2.57,2.77,3.81,12.75-.21,25.35-.55,37.95-.58,12.61-.03,25.22,.24,38.05,.38,.75-2.25,1.4-4.38,2.16-6.45,.77-2.08,1.65-4.11,2.53-6.27-.77-1.87-2.59-2.11-4.28-2.39-1.91-.31-3.86-.43-5.35,1.75-.68-1.11-1.16-1.89-1.64-2.67-1.83-3.01-3.66-3.48-6.75-1.73-.27,.15-.47,.44-.74,.61-.26,.17-.57,.27-1.21,.57-.29-.83-.8-1.63-.8-2.42-.03-3.48-2.25-4.99-5.05-6.24-1.94-.87-3.33,.77-5.02,.74-1.46-4.66-2.04-5.33-6.73-7.01-1.32-.47-2.77-.62-4.17-.82-1.1-.15-2.23-.13-3.34-.24-.28-.03-.54-.31-1.1-.64,.44-.75,.72-1.68,1.35-2.19,.56-.45,1.5-.49,2.28-.61,7.49-1.09,14.57-3.57,21.6-6.23,12.25-4.63,24.48-9.34,36.76-13.9,1.89-.7,3.45-1.46,4.26-3.42,.19-.45,.85-.71,2.13-1.73-.48,1.72-.88,2.43-.84,3.12,.08,1.23,.04,2.72,.71,3.62,6.94,9.38,12.54,19.73,20.44,28.4,4.31,4.73,8.77,9.3,13.15,13.97,1.04,1.11,2.48,2.05,2.14,4.08-2.27,.38-3.08-2.15-5.03-2.26-2.06-.11-4.23-.91-6.11,.22-1.59,.96-2.88,2.42-4.3,3.66-1.86-.79-3.66-1.76-5.59-2.33-4.04-1.2-5.14-.7-7.56,2.79-.25,.36-.65,.63-1.26,1.2-.85-1.04-1.63-1.96-2.38-2.91-2.67-3.37-4.21-3.51-7.44-.7-.58,.5-1.22,.93-2.15,1.62-1.24-1.64-2.35-3.12-3.76-4.99-1.77,4.24-1.98,8.43-2.93,12.87,1.47,.28,2.65,.6,3.86,.71,7.8,.72,15.61,1.35,23.4,2.11,2.34,.23,4.81,.32,6.84,2.38-.4,2.74-.85,5.53-2.24,8.08-6.74,12.39-15.51,23.04-26.98,31.36-3.54,1.29-5.89,4.23-8.87,6.31-3.47,2.43-5.34,5.9-6.4,9.82-.91,3.37-1.51,6.81-2.25,10.23,.22,.1,.5,.36,.72,.32,4.51-.92,4.84-.78,6.65,3.12,1.91,4.11,2.8,8.44,3.18,12.96,.4,4.77,.89,9.56,1.81,14.24,.51,2.6,1.84,5.07,3.05,7.48,1.43,2.85,3.17,5.54,4.71,8.34,.71,1.29,1.33,2.43,3.04,2.72,1.59,.27,2.41,1.56,2.43,3.15,.01,1.65,.36,3.09,1.41,4.44,4.1,5.24,6.63,11.33,8.62,17.56,3.06,9.58,5.77,19.28,8.54,28.96,1.24,4.34,1.47,8.83,1.28,13.32-.23,5.49,.16,10.86,2.33,15.99,.28,.67,.26,1.47,.48,2.91-1.07-.61-1.72-.76-1.96-1.16-1.89-3.03-3.03-6.34-3.32-9.9-.16-1.91-.28-3.85-.13-5.75,.51-6.16-.47-12.14-2.15-18-2.29-7.99-4.59-15.98-7.24-23.85-1.57-4.68-3.72-9.17-5.79-13.66-.78-1.7-2.05-3.18-3.16-4.84-2.78,1.77-5.11,3.84-7.84,4.83-2.59,.94-5.6,.75-8.76,1.09-.07,.62-.24,1.69-.3,2.77-.06,1.11-.01,2.22-.01,3.21,2.56,3.67,6.03,5.78,10.92,6.96-1.25,.76-1.86,1.45-2.4,1.39-1.56-.14-3.14-.45-4.62-.96-1.15-.4-2.15-1.2-3.47-1.96,.26,1.83,.47,3.29,.81,5.69-1.23-1.02-1.97-1.35-2.23-1.91-1.21-2.6-2.3-5.25-3.4-7.85-4.17-2.39-8.3-4.76-12.81-7.35-2.17,.7-4.71,1.85-7.5,1.13-2.46-.63-4.92-1.27-7.54-1.95-1.49,2.15-.41,4.28-.31,6.59,6.35,2.94,10.56,8.13,14.41,13.7,1.99,2.89,4.08,5.71,6.08,8.6,.63,.91,.45,1.75-.81,2.61-3.1-3.07-5.18-6.91-8.18-9.85-1.75,.32-1.53,1.62-1.4,2.64,.51,4.06,4.11,7.7,8.13,8.34,.77,.12,1.57,.11,2.56,.18-.64,2.55-2.43,3.4-4.53,3.73-4.08,.65-7.96-.01-11.56-2.1-1.37-.79-2.71-1.62-4.35-2.61-.65,1.76-.46,3.23-.05,5.1,1.35,.5,2.78,1.14,4.28,1.58,2.43,.71,4.34,2.15,5.65,4.21,2.85,4.48,4.96,9.27,5.42,14.46-1.32,1.7-2.42,3.23-3.64,4.66-1.03,1.2-2.36,1.66-3.87,.9-1.28-.64-2.52-1.37-3.79-2.04-.94-.5-1.9-.96-2.95-1.5-.91,10.15-2.06,31.43-.4,37.15,3.02,.32,5.57,1.95,8.01,3.71,6.63,4.77,13,9.81,17.86,16.55,2.14,2.97,4.82,5.55,7.13,8.42,4.41,5.48,8.72,11.03,13.09,16.54,.66,.84,1.39,1.62,2.24,2.6,2.27-2.68,3.79-5.48,5.12-8.38,3.39-7.42,6.47-14.97,8.12-23.01,1.16-5.65,2.92-11.12,5.01-16.49,2.2-5.67,3.81-11.52,4.86-17.4-.28-2.34-3.02-3.54-2.46-6.41,1.65,.07,3.32,.1,4.99,.23,1.4,.11,2.28,1.03,2.94,2.2,.69,1.23-.07,2.11-.7,3.04-.16,.24-.14,.6-.23,1.06,.94,1.16,1.95,2.38,2.94,3.64,3.85,4.9,7.95,9.64,11.49,14.76,6.31,9.12,13.72,17.27,21.36,25.23,11.53,12.02,23.96,23.07,36.87,33.56,12.91,10.49,25.99,20.76,38.93,31.21,11.22,9.05,21.88,18.7,31.3,29.65,1.1,1.27,2.41,2.43,3.16,4.78-1.21-.42-2.02-.48-2.5-.91-1.42-1.29-2.71-2.71-4.03-4.1-12.44-13.19-26.39-24.66-40.62-35.82-16.23-12.73-32.37-25.58-47.7-39.41-9.75-8.79-18.96-18.12-27.69-27.91-3.08-3.45-5.82-7.22-8.66-10.88-4.51-5.81-8.96-11.66-13.48-17.47-.65-.83-1.49-1.52-2.21-2.24-.42,.4-.78,.58-.86,.84-2.97,10.12-6.03,20.21-8.81,30.38-1.56,5.7-2.53,11.55-3.96,17.28-2.12,8.5-3.66,12.31-7.71,20.02ZM110.44,15.09c-.13,.17-.25,.33-.38,.5,.1-.15,.2-.29,.31-.44,.22-.02,.43-.04,.65-.06-.08,.07-.17,.21-.24,.2-.12-.02-.22-.13-.33-.2Zm-22.69,11.84q-4.13,.08-7.49,1.89c3.1,.88,5.18-.84,7.4-1.99,.27-.18,.54-.35,.82-.53-.12-.02-.32-.1-.36-.05-.15,.21-.25,.45-.37,.68Zm56.89,302.63c-1.45,.14-1.49,1.49-1.99,2.4-1.61,2.93-3.16,5.9-4.75,8.84-.38,.7-.9,1.33-1.21,2.05-.54,1.27-.24,2.17,1.27,2.36,2.78-3.8,3.7-5.98,6.63-15.76,.06-.42,.12-.84,.03-.21-.04-.6,0-.14,.02,.32ZM137.56,15.36c-.05-.29-.1-.58-.15-.86-.15,.12-.31,.24-.46,.36,.24,.14,.47,.28,.71,.42,.44,1.17,.73,2.43,1.35,3.51,5.47,9.56,10.99,19.1,16.51,28.63,.31,.54,.74,1,1.23,1.64,1.1-.33,2.17-.6,3.19-.98,.93-.35,2.18,.19,3.03-.9-.51-.66-.85-1.2-1.29-1.64-8.47-8.55-15.72-18.06-22.19-28.17-.49-.76-1.27-1.33-1.92-2Zm-21.99,2.85c-.62,.1-1.31,.05-1.84,.32-9.21,4.74-18.72,8.78-28.5,12.2-.47,.16-.8,.72-1.48,1.37,3.23,1.11,6.02,2.07,9.02,3.11,7.06-5.05,14.18-10.14,21.27-15.27,.6-.44,.99-1.18,1.47-1.77,.27-.07,.54-.14,.81-.21-.14-.14-.28-.29-.42-.43-.12,.23-.23,.47-.35,.7ZM52.18,175.53c-.34,.87-.65,1.76-1.04,2.61-.08,.17-.45,.2-.68,.29-.61-.41,0-1.73-1.25-1.65-1.35,.69-.23,2.82-1.9,3.4-.24-.78-.44-1.44-.67-2.19-4.94,5.01-4.5,9.75,1.19,15.01,1.18-.51,2.32-1.41,3.48-1.43,2.52-.05,5.08,.01,7.36,1.59,1.36,.94,2.78,2.01,4.66,2.18-.05-2.54,1.65-3.06,3.45-3.39,6.08-1.15,12.06-.92,17.95,1.15,3.31,1.16,6.67,2.18,10.03,3.16,.62,.18,1.39-.16,2.73-.35-1.57-1.41-2.6-2.34-3.65-3.26-1.96-1.71-3.45-3.74-4.51-6.12-.73-1.65-.55-3.12,.79-4.36,.87-.81,1.79-1.55,2.71-2.35-2.17-2.57-4.7-3.67-7.58-4.4-4.87-1.24-9.85-.83-14.77-1.26-3.64-.32-7.34-.19-11-.02-2.5,.11-5.1,.04-7.36,1.49l.08-.09Zm-5.7-57.54c-2.76-3.99-6.68-6.81-10.16-10.08-1.85-1.74-3.67-3.56-5.27-5.54-1.55-1.92-.92-3.84,1.57-4.23,4.54-.71,9.18-1.28,13.26,1.86,.39,.3,1.12,.18,1.87,.28-1.71-3.58-14.08-20.89-17.35-24.38-.42-.07-.88-.2-1.35-.23-6.22-.34-12.43-.64-18.65-1.01-1.42-.08-2.87-.25-4.23-.65-.49-.14-.77-1.04-1.56-2.22,8.11-.23,15.5,.61,23.07,.86-1.71-3.95-2.06-4.43-5.08-7.22-6.78,.47-13.36,1.89-19.36,5.08-.5,2.3,0,4.05,1.17,5.7,.83,1.17,1.66,2.38,2.21,3.69,2.76,6.65,7.69,11.74,12.45,16.86,6.98,7.51,15.37,13.42,23.6,19.46,1.11,.81,2.58,1.14,3.88,1.69,.1,.46,.05,1.02,.31,1.36,2.11,2.88,3.34,6.16,4.59,9.45,2.28,5.99,5.09,11.73,8.42,17.21,3.12,5.14,7.08,9.44,12.43,12.38,4.46,2.46,9.12,2.8,13.92,1.42,3.93-1.13,7.23-3.27,9.88-6.46,5.42-6.51,8.84-14.04,11.28-22.05,1.8-5.92,2.52-12.24,6.71-17.22,1.02-1.21,1.99-2.51,3.23-3.45,2.51-1.89,5.75-2.77,7.58-5.61,.15-.23,.57-.26,.84-.42,1.22-.72,2.54-1.33,3.65-2.2,9.22-7.2,16.14-16.34,22.03-26.32,.62-1.05,.95-2.27,1.4-3.36-.38-.24-.52-.41-.65-.39-.62,.05-1.25,.08-1.85,.24-10.53,2.93-21.25,4.45-32.19,4.41-2.56,0-5.12,.04-7.68,.14-1.25,.05-2.5,.27-3.99,.44-2.74,8.23-5.41,16.37-7.79,24.88,1.21,.1,2,.29,2.76,.22,4.93-.45,9.85-1,14.78-1.41,.77-.06,1.6,.45,2.47,.71-.67,2.63-2.29,4.24-3.73,5.91-3.07,3.55-5.46,7.5-7.15,11.85-1.91,4.91-3.79,9.84-5.53,14.82-1.71,4.86-3.91,9.37-7.16,13.46-3.56,4.48-7.95,6.62-13.6,6.75-4.89,.11-9.05-1.67-12.92-4.39-5.55-3.92-9.04-9.35-11.49-15.6-1.22-3.11-2.56-6.22-4.21-9.11-1.65-2.88-3.37-5.83-6.42-7.58Zm66.7-12.78c-.36-.21-.62-.5-.86-.49-4.46,.28-8.91,.6-13.37,.93-.45,.03-.89,.24-1.51,.42-.97,2.99-1.85,6.06-2.96,9.04-1.07,2.88-1.19,6.18-3.34,8.6-1.37-.55-1.53-1.42-1.22-2.44,1.08-3.51,2.21-7,3.28-10.51,.45-1.49,.81-3.01,1.31-4.87-3.77-.33-7.1-.12-10.42-.19-3.51-.08-7.02-.18-10.54-.3-3.24-.11-6.47-1.18-10.22-.3,1.06,1.64,1.87,2.97,2.75,4.25,1.9,2.76,3.89,5.47,5.72,8.28,.46,.7,.47,1.7,.68,2.51-2.29,1.31-4.3,2.45-6.48,3.69-4.07-4.06-6.26-9.22-10.23-12.94-.7,.12-1.41,.25-2.53,.44,.49-1.16,.78-1.84,1.16-2.75-1.14-1.54-2.35-3.18-3.57-4.83-5.33-.66-10.5-1.31-16.32-2.03,.7,1.09,.94,1.69,1.36,2.08,1.88,1.73,3.87,3.35,5.7,5.12,3.22,3.1,6.54,6.12,9.49,9.46,3.74,4.22,6.39,9.13,8.23,14.48,2.3,6.69,6.15,12.19,12.22,16.07,5.09,3.25,10.42,3.6,16.07,1.92,2.39-.71,4.26-1.97,5.7-4.05,2.39-3.43,4.35-7.07,5.78-10.99,1.31-3.6,2.51-7.24,3.85-10.83,2.47-6.59,5.05-13.13,9.78-18.53,.27-.31,.32-.83,.46-1.22Zm14.18,241.98c-2.12-2.24-4.84-2.71-7.37-3.43-4.6-1.31-9.26-2.41-13.9-3.58-5.74-1.45-10.51-4.51-14.67-8.65-1.95-1.94-3.82-3.87-3.92-6.87-.02-.58-.35-1.28-.76-1.7-1.34-1.36-1.62-3.12-1.82-4.84-.71-6.35-1.66-12.69-1.86-19.06-.33-10.37-.19-20.76-.14-31.14,.02-4.6,.33-9.2,.5-13.66q-2.54-1.34-4.85-1.21c.13,3.16,.36,6.32,.39,9.49,.15,15.66,.54,31.32,.26,46.97-.24,13.27-.65,13.19-8.94,23.32-3.65,4.46-8.24,7.46-13.86,8.92-4.63,1.21-9.26,2.46-13.82,3.9-3.18,1.01-6.26,2.34-9.37,3.59-.88,.35-1.69,.9-1.59,2.22,1.86,2.08,4.6,2.6,7.14,3.39,7.1,2.22,14.44,2.61,21.81,2.41,7.82-.21,15.64-.58,23.46-.98,6.7-.35,13.42-.59,20.07-1.36,5.05-.59,10.06-1.75,14.99-3.01,3.04-.78,5.98-2.1,8.25-4.72ZM43.58,76.23c1.91,3.98,10.97,17.13,15.22,22.34,1.02,.07,2.04,.15,3.18,.23-.43,1.03-.73,1.76-1.08,2.58,21.21,1.96,28.63,2.12,35.03,.66,2.31-7.42,4.7-15.03,7.03-22.65,.16-.51-.08-1.15-.16-2.03-19.73,.87-39.17,.15-59.22-1.13Zm7.22,137.87c1.91-1.76,3.24-1.01,4.57-.58,5.17,1.65,10.26,3.7,15.54,4.82,6.28,1.33,11.74,3.91,16.7,7.89,1.84,1.48,4.04,2.56,6.16,3.64,.64,.33,1.59,.05,2.58,.05-4.95-7.56-5.06-8.31-2.07-14.32-1.94-3.26-4.59-5.86-7.89-7.85-.73,.79-1.25,1.36-1.69,1.83-.95-.39-1.82-.75-2.69-1.11,.04-.91,.08-1.81,.13-2.79-1.67-.55-3.15-1.2-4.7-1.52-6.49-1.33-12.4-4.11-18.23-7.09-.26-.13-.62-.08-.93-.12-.38,.44-.77,.87-1.31,1.48-.62-1.2-1.15-2.21-2.14-4.13-.51,2.34-.8,3.71-1.33,6.15-.46-2.63-.72-4.13-1.11-6.36-1.22,1.45-1.94,2.31-2.66,3.16-.3-.29-.5-.53-.75-.71-.1-.07-.29-.01-.42-.01-3.55,3.04-4.33,6.77-3.42,11.25,.79,3.9,1.06,7.9,1.51,11.86,.27,2.38,.3,4.8,.72,7.15,.7,3.99,1.04,7.9-.62,11.76-.3,.7-.28,1.57-.28,2.36,0,.75-.08,1.64,1.34,1.85,5.08-5.44,10.28-11,15.57-16.66-.28-1.48-.67-3.03-.85-4.61-.21-1.81-1.13-2.9-2.84-3.44-1.98-.63-3.97-1.24-5.89-2.02-.96-.39-1.77-1.13-3.01-1.94Zm35.4,81.23c-.25,.65-.37,.8-.36,.95,.44,8.86-.25,17.89,4.05,26.15,.54,5,4.26,7.64,7.79,10.38,3.07,2.39,6.61,3.86,10.34,4.83,5.25,1.37,10.51,2.69,15.77,4.01,.42,.11,.89,.01,1.55,.01-.1-1.97-.3-3.86-.27-5.74,.03-1.71-.54-3.08-1.65-4.33-1.38-1.55-2.76-3.11-4.01-4.76-4.03-5.32-9.37-9.6-12.46-15.68-.28-.54-.83-.97-1.31-1.38-6.04-5.2-12.27-10.13-19.45-14.45Zm21.44-230.77c-12.71-.77-24.65-.9-36.6-.87-26.6,.06-31.53,.21-35.81,1.58,1.02,1.5,2.15,2.85,2.93,4.38,1.5,2.93,3.92,3.77,7.03,3.95,17.36,.98,34.73,1.56,52.11,1.09,2.36-.06,4.77,.12,7.37-.64,.92-2.94,1.86-5.94,2.97-9.48Zm5.83,71.55c-2.62-.11-3.92,1.13-5,2.87-4.11,6.63-5.66,13.87-4.99,21.55,.27,3.16,.99,6.32,1.86,9.39,1.83,6.47,4.14,12.75,8.52,17.68,1.67,.37,3.12,.52,4.43,1.03,1.97,.78,3.77,.52,5.52-.42,1.79-.96,3.7-1.81,4.79-3.45-1.93-3.74-3.78-7.27-5.59-10.82-2.11-4.16-3.76-8.46-4.19-13.17-.42-4.61-.91-9.22-1.4-13.82-.41-3.88-1.77-7.41-3.96-10.86Zm-39.4,35.33c-1.49-1.73-2.27-2.71-3.13-3.63-4.93-5.25-9.04-11.19-12.8-17.24-3.8-6.11-7.99-11.9-12.38-17.56-1.62-2.09-3.87-3.76-6.05-5.33-2.21-1.59-4.84-1.4-7.37-.78-1.28,.31-2.07,1.55-1.91,2.94,.11,.93,.31,1.92,.74,2.74,2.24,4.22,4.41,8.49,6.9,12.56,2.75,4.48,5.88,8.72,8.73,13.13,2.76,4.26,5.38,8.62,8.21,13.16h19.06Zm11.8,.69q6.28,2.45,11.17,7.33c2.15,2.14,4.38,4.21,6.53,6.35,.9,.9,1.77,1.85,2.53,2.87,1.26,1.71,1.18,2.6,0,4.33-.67,.98-2.17,1.48-1.9,3.18,3.18,2.47,6.55,4.65,11.05,5.43-.09-1.35-.08-2.29-.23-3.2-.66-4.05-2.9-7.39-4.91-10.84-1.53-2.61-3.17-5.19-4.38-7.96-3.56-8.16-5.48-16.66-4.83-25.64,.05-.68,.57-1.57,.09-1.78-2.46,2.17-4.59,4.37-7.03,6.12-2.55,1.82-5.4,3.21-8.08,4.77v9.04Zm24.55-106.91c-1.05,2.63-2.3,5.31-2.3,8.49,.79,.16,1.4,.4,2.01,.39,6.68-.14,13.39,.01,20.04-.59,6.48-.59,12.95-1.6,19.2-3.58,.79-.25,1.49-.77,2.66-1.4-12.18-1.81-37.08-3.86-41.61-3.31Zm21.98-55.74c-.15,.03-.3,.06-.46,.1,.32,2.84,.55,5.69,.98,8.52,1.35,9,2.76,17.99,4.17,26.98,.41,2.6,1.34,4.92,3.87,6.27,1.92-.92,3.88-1.86,5.96-2.86-2.64-6.55-5.34-12.86-7.73-19.28-2.42-6.52-4.54-13.15-6.79-19.73Zm-19.23,34.41c.81-1.74,1.66-3.43,2.38-5.17,.73-1.77,1.23-3.63,2-5.38,.7-1.6,1.68-3.07,2.45-4.64,.84-1.72,1.61-3.47,2.35-5.24,.67-1.63,1.79-3.1,2.2-5.16-7.59,7.63-14.88,14.95-22.16,22.27,1.67,2.32,1.66,2.38,2.52,2.47,2.66,.3,5.33,.55,8.27,.85Zm17.89-23.14l-.68-.21c-.15,.6-.34,1.2-.45,1.8-1.05,5.81-1.86,11.68-3.22,17.42-.84,3.57-.64,6.56,1.94,9.26,.32,.33,.51,.78,.69,1.06,2.35-1.05,4.33-1.94,6.21-2.78-1.52-8.99-3.01-17.77-4.49-26.54Zm-7.78,26.18c-1.31-.32-2.13-.78-2.79-.62-2.39,.59-4.61,2.06-5.5,4.14-1.49,3.44-2.67,7.09-3.23,10.83,3.94,1.16,5.05,1.23,9.25,.55,1.13-4.7,1.73-9.54,2.27-14.9Zm-5.84-3.32h6.53c1.35-8.43,2.68-16.72,4.1-25.6-3.93,4.84-9.34,18.06-10.63,25.6Zm-1.34-21.02c-.71,.04-1.08-.05-1.26,.09-6.49,5.15-13.31,9.83-20.43,14.07-.22,.13-.27,.53-.48,.96,.29,.59,.62,1.28,.9,1.86,3.63,.4,6.27-.87,8.58-3.4,3.65-3.99,7.54-7.76,11.3-11.65,.48-.5,.82-1.14,1.38-1.93Zm-11.87,169.13c-2.12-3.66-5.14-5.97-8.45-7.92-1.24-.73-2.68-.8-4.2,.31,.38,.91,.64,1.81,1.1,2.6,1.56,2.71,4.01,4.54,6.48,6.3,1.97,1.4,2.33,1.27,5.07-1.3Zm-38.49,34.1c2.02,.52,3.67,1.06,5.37,1.35,1.78,.29,3.3,1.64,5.57,1.53-.27-2.18-.49-4-.71-5.77-3.6-1.43-7.1-2.01-10.96-2.86,.27,2.14,.49,3.81,.74,5.76ZM2.82,32.09c2.7,4.06,5.11,7.91,8.59,11.53,.44-2.18,.79-3.87,1.16-5.7-1.85-2.89-3.75-5.77-6.19-8.71-1.32,1.06-2.37,1.92-3.56,2.88Zm140.52-.93c1.7,6.27,3.59,12.48,6.47,18.19,1.75,.2,3.05,1.45,5.05,.78-3.93-6.48-7.73-12.72-11.52-18.97ZM13.01,46.54c2.4,2.83,3.97,6.44,7.29,9.18,.16-1.08,.15-1.74,.37-2.3,.91-2.35,.2-4.25-1.32-6.11-1.3-1.59-2.37-3.36-3.6-5.02-.34-.46-.86-.8-1.54-1.41-.44,2.04-.79,3.72-1.21,5.65Zm62.94,153.75c.53-2.13,.31-4.06-.32-5.92-5.35-.62-5.38-.62-8.44,.58-.02,1.32,.3,2.62,1.52,3.21,2.23,1.07,4.44,2.37,7.24,2.13Zm40.1-7.66c4.72,3.07,8.55,2.07,12.46,.21,1.6-.76,2.52-1.95,3.1-3.43,.21-.52-.23-1.3-.42-2.18-2.58,1.45-4.67,2.99-7.02,3.84-2.3,.83-4.85,.96-8.13,1.55ZM35.54,69.74c-2.08-2.76-3.97-5.26-5.98-7.92-1.91,4.53-.87,8.53,2.51,10.71,1.03,.66,2.33,.17,3-1.19,.21-.42,.27-.9,.47-1.6Zm6.95,17.14c.97-1.94,1.64-3.69,.72-5.25-1.19-2-2.86-3.72-4.36-5.53-.15-.18-.61-.09-.92-.13-1.55-.16-2.6,1.09-1.81,2.36,1.8,2.92,3.66,5.82,6.37,8.55Zm40.35,77.08c-1.45-1-2.82-.96-4.34,.09,.1,2.11,.17,4.16,.33,6.2,.03,.42,.42,.81,.74,1.38,1.19-.09,2.4-.17,3.88-.28-.21-2.59-.4-4.92-.6-7.39Zm12.82,92.65c2.46-4.25,1.59-7.45-.64-10.51-1.79,.34-2.76,1.14-2.45,2.93,.43,2.48,1.29,4.78,3.09,7.58ZM45.88,85.28c-1.42,1.79-1.91,3.32-1.32,4.58,1.03,2.22,2.33,4.38,4.53,5.9,1.52-1.95,1.76-3.64,.39-5.46-1.14-1.51-2.21-3.08-3.6-5.02Zm17.66,25.21c-1.5,1.26-2.04,2.58-1.24,3.95,1.17,2,2.29,4.09,4.31,5.71,.86-.62,1.57-1.14,2.53-1.83-1.94-2.71-3.75-5.24-5.6-7.83ZM26.49,63.7c.59-2.27,1.53-4.22,.29-5.85-1.11-1.45-1.73-3.63-3.97-4.2-.98,4.11-.61,7.5,3.68,10.05Zm28.36,40.77c1.89,2.53,2.89,5.18,5.49,6.49,1.31-1.43,1.78-2.56,.78-4.1-1.34-2.07-2.92-3.32-6.27-2.39Zm14.59,55.73c-.23,.21-.46,.42-.69,.64,1.78,2,3.55,4.01,5.36,5.99,.39,.43,.93,.73,1.8,1.39v-5.09c-2.19-.99-4.33-1.96-6.48-2.93Zm-17.36-65.27c-.97,1.93-1.86,3.57-.39,5.11,1.04,1.1,2.43,1.37,3.73,.19-.66-2.79-.7-2.77-3.34-5.3Zm30.74,137.24c-1.24-3.02,.56-6.2-3.14-7.39-.91,5.27-.87,5.39,3.14,7.39Zm-1.26-30.06c.71-2.16,.34-4.16,.03-6.13-.06-.38-.91-.89-1.39-.89-.43,0-1.21,.62-1.23,.98-.07,1.69,.07,3.39,.14,5.1,.93,.36,1.64,.63,2.45,.94Zm49.76,144.7c.69,.85,1.07,1.5,1.62,1.95,.63,.51,1.43,.75,2.13,.06,.19-.18,.35-.72,.25-.82-.53-.52-1.08-1.12-1.74-1.38-.52-.2-1.21,.08-2.26,.19Zm-1.95-5.86c.3,.33,.6,.66,.89,.98,.09-.1,.28-.28,.26-.3-.26-.34-.54-.67-.81-1-.1,.09-.19,.18-.34,.32ZM106.83,16.62l-.03,.23,.33-.09-.3-.14Zm7.8-2.6l.04-.31-.42,.12,.38,.18Z"/><path d="M133.5,263.03c-1.45,.45-1.95,.79-2.33,.69-8.61-2.25-16.62-5.61-22.32-12.85-1.76-2.23-3.21-4.73-4.61-7.21-.35-.62,.01-1.63,.08-3.3,1.08,1.19,1.62,1.7,2.06,2.29,1.24,1.66,2.4,3.37,3.65,5.01,3.45,4.51,7.78,7.95,12.95,10.28,2.46,1.11,4.98,2.11,7.44,3.22,.81,.36,1.53,.91,3.08,1.86Z"/><path d="M136.23,283.7c-2.36,4.7-12.22,13.85-18.8,17.3,.21-.84,.21-1.45,.5-1.86,.45-.64,1.06-1.18,1.66-1.69,5.28-4.56,10.57-9.1,15.87-13.63,.16-.14,.5-.08,.77-.11Z"/><path d="M63.42,265.71c0-.78-.11-1.13,.02-1.33,2.63-4.11,5.28-8.21,7.94-12.3,.07-.11,.29-.12,.43-.18-.1,4.81-3.14,9.92-8.39,13.81Z"/><path d="M125.15,267.49c3.27,3.92,4.26,7.51,4.13,11.35-.98,.75-1.41,.32-1.63-.32-.97-2.85-1.91-5.71-2.8-8.59-.12-.39,.09-.88,.29-2.44Z"/><path d="M85.81,109.7c-.24,.39-.46,.87-.52,.85-.56-.19-1.12-.41-1.61-.73-.15-.1-.21-.61-.09-.78,.14-.19,.59-.37,.78-.28,.52,.24,.97,.62,1.44,.94Z"/><path d="M48.57,111.45c-.25-.51-.61-.89-.55-1.21,.06-.34,.5-.62,.77-.93,.29,.43,.66,.84,.82,1.32,.04,.13-.58,.47-1.04,.82Z"/><path d="M68.03,109.31c.81,.07,1.62,.1,2.41,.25,.14,.03,.33,.52,.28,.75-.05,.22-.44,.57-.59,.53-.77-.23-1.51-.57-2.27-.87,.05-.22,.11-.44,.16-.66Z"/><path d="M75.25,128.73c-.64,0-1.21,.15-1.36-.04-.2-.24-.12-.77-.03-1.14,.03-.11,.67-.23,.77-.12,.25,.29,.36,.71,.62,1.3Z"/><path d="M65.7,128.97c-.45,.62-.65,1.17-.92,1.2-.31,.04-.86-.32-.96-.62-.12-.33,.15-.8,.25-1.21,.47,.18,.94,.37,1.63,.63Z"/><path d="M103.59,109.86c-.24,.11-.64,.35-.69,.29-.21-.23-.31-.56-.45-.86,.24-.04,.55-.19,.72-.09,.2,.11,.29,.43,.42,.66Z"/><path d="M81.25,114.97c-.15-.19-.29-.38-.44-.57l.89-.55c.09,.26,.29,.56,.22,.77-.06,.17-.44,.24-.68,.36Z"/><path d="M79.26,117.07c-.16,.2-.32,.41-.49,.61-.21-.3-.42-.6-.63-.9,.23-.13,.5-.4,.67-.35,.2,.07,.3,.41,.45,.64Z"/><path d="M86.66,130.06c-.3-.26-.48-.43-.67-.59,.24-.26,.45-.58,.74-.75,.1-.06,.41,.25,.63,.39-.23,.31-.46,.63-.7,.95Z"/><path d="M65.37,132.95c-.24,.13-.61,.41-.68,.35-.25-.22-.39-.55-.58-.85,.27-.07,.59-.25,.81-.17,.2,.07,.3,.43,.44,.67Z"/><path d="M69.37,136.17c-.04,1.25-.74,1.12-1.49,.67-.13-.08-.02-.56-.02-.86,.53,.09,1.05,.17,1.58,.26l-.06-.07Z"/><path d="M90.57,141.44c-.37,.14-.73,.32-1.1,.38-.09,.01-.38-.56-.34-.59,.31-.28,.68-.5,1.03-.74,.11,.26,.23,.53,.41,.95Z"/><path d="M76.12,146.17c-.22,.14-.45,.29-.67,.43-.12-.34-.23-.68-.35-1.02,.25-.08,.51-.17,.76-.25,.09,.28,.17,.56,.26,.85Z"/><path d="M80.07,143.39c.19-.17,.4-.47,.52-.43,.21,.06,.36,.32,.51,.52,.01,.02-.22,.3-.29,.29-.24-.07-.46-.22-.75-.37Z"/><path d="M90.44,136.41c-.18,.1-.36,.19-.55,.29-.04-.24-.11-.49-.09-.73,0-.1,.2-.18,.3-.28,.11,.24,.22,.48,.34,.71Z"/><path d="M69.43,136.23c.36-.27,.72-.54,1.1-.79,.1-.06,.26-.02,.39-.02-.07,.22-.09,.59-.21,.62-.43,.1-.89,.09-1.34,.13,0,0,.06,.06,.06,.06Z"/><path d="M95.12,133.87c-.23,.13-.47,.38-.7,.37-.22,0-.44-.26-.66-.41,.23-.13,.47-.38,.7-.37,.22,0,.44,.26,.66,.41Z"/><path d="M75.92,134.25c-.1-.19-.19-.38-.29-.57,.25-.04,.51-.11,.76-.09,.1,0,.19,.21,.28,.32-.25,.11-.5,.23-.75,.34Z"/><path d="M78.88,127.03c-.19,.16-.38,.44-.58,.44-.16,0-.33-.32-.49-.5,.11-.1,.25-.29,.33-.27,.26,.07,.49,.21,.73,.33Z"/><path d="M98.29,118.88c-.12-.19-.23-.38-.35-.57,.27-.06,.54-.16,.81-.16,.09,0,.19,.23,.28,.35-.24,.13-.49,.26-.74,.39Z"/><path d="M54.6,115.94c-.16-.18-.31-.36-.47-.53,.18-.14,.35-.3,.55-.41,.03-.02,.28,.22,.26,.28-.08,.23-.22,.44-.34,.66Z"/><path d="M102.73,112.68c-.26,.09-.51,.21-.77,.25-.07,.01-.17-.22-.26-.34,.26-.1,.52-.22,.78-.27,.06-.01,.16,.23,.25,.35Z"/><path d="M104.31,347.35c-.81,.36-1.59,.9-2.44,1.05-7.36,1.32-14.72,2.73-22.12,3.81-6.63,.97-13.32,1.37-20.03,.98-4.48-.26-8.84-1.15-13.05-2.7-.59-.22-1.15-.53-1.66-.9-.19-.14-.19-.54-.37-1.09,.52-.21,1.09-.65,1.61-.6,1.42,.12,2.87,.29,4.23,.7,5.42,1.65,10.96,1.87,16.56,1.78,11.35-.18,22.55-1.79,33.72-3.59,1.07-.17,2.16-.25,3.24-.37,.1,.31,.2,.62,.3,.93Z"/><path d="M72.01,339.38c1.49-2.39,2.96-4.79,4.49-7.15,.22-.34,.73-.49,1.54-1.01-.66,3.97-2.84,6.48-5.33,8.8-.23-.22-.47-.43-.7-.65Z"/><path d="M72.71,340.02c-.47,.44-.93,.88-1.4,1.32-.16-.14-.31-.28-.47-.43,.39-.51,.78-1.03,1.17-1.54,.23,.22,.47,.43,.7,.65Z"/><path d="M65.19,99.39c5.97-1.28,21.29-.87,25.26,.57,.04,.15,.14,.34,.09,.45-.06,.11-.27,.21-.41,.21-6.98,.05-13.96,.1-20.94,.11-.95,0-1.9-.17-2.83-.34-.25-.05-.46-.38-1.16-1Z"/><path d="M23.29,92.99c-3.7-3.61-7.4-7.22-11.19-10.92,.58-.29,.95-.59,1.07-.52,4.4,2.8,7.8,6.61,11.01,10.6-.3,.28-.59,.56-.89,.84Z"/><path d="M79.94,178.53c-.97,.25-1.95,.51-3.34,.88,.2-1.08,.35-1.91,.49-2.7q2.56,.03,2.85,1.82Z"/><path d="M52.1,175.62q1.81,.3,1.55,1.93c-1.22-.14-.93-1.38-1.47-2.02,0,0-.08,.09-.08,.09Z"/></svg>