<?xml version="1.0" encoding="UTF-8"?><svg id="Layer_1" xmlns="http://www.w3.org/2000/svg" viewBox="0 0 284.89 478.72"><path d="M99.5,199.75c-3.39-2.97-7.23-5.22-11.24-7.26-2.68-1.36-5.08-3.26-7.75-5.01-.12-.01-.49-.16-.74-.05-5.09,2.34-7.64,.06-9.82-3.07-1.34-1.92-2.28-4.12-3.41-6.2-1.91,1.79-2.28,2.76-1.7,5.28,.8,3.48,2.25,6.74,4.59,9.4,3.9,4.44,7.86,8.85,12.16,12.89,9.09,8.54,14.79,18.69,15.86,31.24,.66,7.73,2.62,15.1,6.1,22.03,2.72,5.42,5.44,10.84,8.99,15.82,3.39,4.75,7.62,7.64,13.64,7.43,.46-.02,.92,.16,1.93,.36-1.07,.69-1.72,1.42-2.46,1.54-5,.77-9.29-.89-12.35-4.79-8.6-10.95-14.86-23.09-17.61-36.84-.62-3.12-.8-6.34-1.14-9.52-.27-2.54-.99-4.92-1.99-7.29-1.59,.46-1.31,1.56-1.25,2.37,.66,9.24,1.38,18.48,2.08,27.72,.16,2.06,.32,4.12,.49,6.24-2.94,2.91-6.75,3.7-10.29,4.94-8.81,3.08-18.06,4.05-27.25,5.16-2.82,.34-5.74,.02-8.59-.22-3.34-.28-6.72-.54-9.97-1.29-2.75-.63-5.36-1.93-8.37-3.06-.83,.5-2.11,1.28-4.42,2.68,2.35-4.82,5.72-8.04,5.3-12.6-.22-2.37-.77-4.72-1.23-7.07-.09-.44-.38-.89-.71-1.21-.32-.31-.81-.45-1.33-.72-2.1,1.91-3.51,4.07-3.59,7.02-.04,1.25-.35,2.53-.74,3.74-.54,1.68-1.99,2.09-3.39,.9-1.17-1-2.14-2.23-3.28-3.45-1.61,1.62-2.07,3.6-2.07,5.72,0,1.49,.56,2.77,1.72,3.8,6.45,5.73,13.5,10.21,22.37,11.07,1.11,.11,2.19,.47,3.29,.66,3.42,.6,6.07,2.14,8.34,4.99,6.31,7.95,14.13,14.32,22.41,20.1,1.68,1.17,3.6,2.11,5.54,2.78,6.2,2.14,12.48,4.02,19,4.85,7.21,.92,14.15,2.54,20.28,6.68,3.27,.66,4.9,3.22,6.79,5.61,11.61,14.66,23.33,29.24,34.94,43.9,4.26,5.39,8.31,10.94,12.44,16.43,.58,.77,.99,1.68,1.65,2.35,4.8,4.8,8.18,10.6,11.8,16.26,6.12,9.56,12.2,19.15,18.68,28.46,4.1,5.89,8.74,11.43,13.41,16.89,6.98,8.16,13.45,16.67,18.91,25.92,.87,1.47,2.19,2.81,2.02,4.75l.1-.09c-.77-.74-1.72-1.36-2.28-2.24-7.08-11.09-15.59-21.05-24.08-31.05-4.85-5.72-9.23-11.86-13.53-18.01-4.48-6.42-8.44-13.21-12.95-19.61-10.03-14.24-19.47-28.87-30.82-42.19-11.09-13.02-21.46-26.65-31.91-40.19-2.75-3.57-5.91-6.1-10.04-7.73-4.96-1.96-10.13-2.96-15.34-3.7-6.2-.89-12.18-2.55-18.13-4.4-3.24-1.01-6.21-2.52-8.95-4.5-8.05-5.84-15.63-12.24-21.94-19.96-2-2.45-4.26-3.67-7.24-4.04-1.74-.21-3.45-.65-5.19-.94-5.3-.88-10.1-2.92-14.46-6.06-1.16-.84-2.38-1.6-3.63-2.3-4.51-2.5-6.54-6.77-5.1-11.66,.57-1.93,1.79-3.7,2.85-5.46,.73-1.2,2.07-2.04,2.08-3.95-.65-.41-1.41-.92-2.2-1.4-.55-.33-1.14-.59-1.67-.94-8.95-5.84-10.03-13.65-5.74-22.96,1-2.17,3.37-3.7,5.25-5.67-.51-.29-1.14-.71-1.83-1.03C3.93,214.82-.09,208.33,0,200.8c.04-3.34,1.18-5.92,4.19-7.51,2.53-1.34,5.09-2.61,7.66-3.92,.29-1.12-.8-1.16-1.3-1.66-1.46-1.45-3.28-2.69-4.28-4.41-1.85-3.14-3.27-6.54-4.76-9.88-.72-1.61-.39-3.21,.99-4.36,1.34-1.11,2.77-2.15,4.26-3.05,1.26-.76,2.58-.89,4.1-.23,1.55,.67,3.32,.85,5.19,1.3,.24-.94,.51-1.52,.51-2.1-.02-5.91-.19-11.83-.12-17.74,.05-4.46,.13-8.96,.69-13.38,.69-5.51,3.5-10.22,6.71-14.66,.94-1.3,1.92-2.56,2.76-3.92,1.79-2.91,2.89-6.02,2.83-9.51-.21-11.35-.35-22.7-.55-34.05-.17-9.91-.41-19.82-.58-29.72-.09-5.12-.11-10.23-.17-15.35,0-.64,.15-1.36-.08-1.91-1.57-3.71,.13-6.42,2.66-8.99,3.7-.44,7.48-.89,11.56-1.37-1.46-3.63-3.71-6.33-5.52-9.28C39.39,1.18,43.36,.49,47.34,.18c3.5-.27,7.04-.21,10.55-.02,3.4,.18,6.58,1.36,9.37,3.33,2.74,1.93,5.32,4.1,8.06,6.04,2.7,1.91,4.51,4.51,5.99,7.37,4.06,7.85,5.36,16.18,2.63,24.6-1.6,4.94-3.76,9.87-7.8,13.56-.71,.64-1.43,1.29-2.23,1.8-1.28,.81-2.88,.69-4.01-.25-.48-.4-.9-.91-1.26-1.44-3.12-4.64-6.22-9.29-9.34-13.94-.41-.61-.88-1.17-1.85-2.46,.77,7.92,1.43,14.9,2.13,21.89,1.16,11.61,2.34,23.22,3.51,34.83,.34,3.34,.56,6.7,1.05,10.01,.23,1.53,.73,3.15,1.57,4.42,1.41,2.11,3.17,3.99,4.83,5.92,1.14,1.33,2.35,2.59,3.54,3.87,6.07,6.53,8.3,14.61,9.26,23.17,.84,7.46,1.59,14.94,2.38,22.4,.08,.79,.2,1.59,.19,2.39-.08,7.37,.46,14.68,2.5,21.72,4.15,2.8,8.39,5.61,12.58,8.49,2.13,1.46,3.79,3.38,5.19,5.57,2.58,4.04,5.2,8.07,8.02,11.94,2.35,3.22,4.84,6.38,7.58,9.28,5.48,5.81,11.02,11.59,16.81,17.08,5.76,5.46,10.48,11.56,13.98,18.7,3.23,6.6,7.01,12.9,11.92,18.44,.74,.83,1.36,1.79,1.91,2.76,3.74,6.62,8.85,12.1,14.27,17.35,3.44,3.33,6.67,6.89,10.08,10.26,2.95,2.92,5.98,5.76,9.04,8.56,3.42,3.12,6.93,6.15,10.39,9.23,9.42,8.41,18.81,16.84,28.25,25.23,8.6,7.65,17.26,15.22,25.86,22.88,4.65,4.15,9.25,8.35,13.8,12.62,2.09,1.97,4.01,4.13,5.97,6.23,.49,.52,.84,1.17,.85,2.28-.5-.24-1.08-.38-1.48-.72-1.58-1.35-3.12-2.74-4.64-4.16-15.06-14.1-30.5-27.77-46.27-41.06-.49-.41-.98-.82-1.45-1.25-8.84-8.09-17.68-16.19-26.52-24.28-.35-.32-.69-.68-1.07-.96-7.04-5.33-13.29-11.49-19.18-18.05-2.13-2.37-4.65-4.39-6.84-6.72-2.96-3.13-6.01-6.23-8.6-9.66-4.61-6.11-9.02-12.39-13.29-18.75-2.04-3.04-3.66-6.37-5.3-9.66-3.18-6.36-7.29-11.93-12.5-16.83-6.28-5.92-12.37-12.07-18.14-18.48-4.05-4.49-7.47-9.56-11.08-14.44-1.61-2.18-3.04-4.51-4.46-6.82-1.2-1.95-2.68-3.57-4.62-4.78l.06,.06ZM71.56,33.74c-.22-.14-.45-.27-.67-.41,.25,.1,.51,.21,.76,.31-.03,.35-.06,.69-.09,1.04-1.35-.25-2.69-.51-4.89-.92,1.31,1.06,1.97,1.6,2.64,2.13,1.08,.85,2.17,1.7,3.26,2.55-.26,.17-.51,.33-.77,.5,.26,.14,.52,.28,.78,.42,.57,.76,1.14,1.53,1.7,2.29-1.56-.42-3.12-.83-4.68-1.25-.7-1.71-2.2-2.37-3.81-2.9-.35-1.04-1.08-1.5-2.27-1.22,.78,.38,1.56,.76,2.34,1.14,.66,1.78,2.13,2.48,3.81,2.89,1.15,1.71,2.83,2.54,4.8,2.89,2.13,1.3,3.89,.39,5.58-.65,.24-5.25-.65-6.47-5.63-7.93-.61-1.4-1.84-.85-2.88-.9Zm-7.68-4.97c.51-.04,1.03-.08,1.54-.12-.06-.18-.12-.35-.18-.53-.42,.25-.85,.5-1.27,.75l-.54,.52c.15-.21,.3-.41,.45-.62Zm-15.46-16.14c.83,.83,1.66,1.67,2.72,2.73,.46-.86,1.09-1.5,.96-1.89-.65-1.94-1.37-3.89-2.34-5.7-.57-1.06-1.73-1.3-2.83-.47q-.57,4.28,.99,6.52c.21-.46,.39-.86,.57-1.26,0,0-.08,.07-.08,.07Zm22.45,15.05c-.11,.06-.21,.15-.33,.16-.07,0-.15-.11-.22-.17,.22,.01,.43,.03,.65,.04-.6,.63-1.2,1.26-2.19,2.29,3.39-.08,6.15-.52,8.56-2.24,.39-.28,.56-1.08,.53-1.63-.02-.31-.6-.79-.99-.86-2.34-.43-4.7-.64-7.14,.05,.71,.76,1.31,1.4,1.91,2.04-.26,.1-.52,.2-.79,.31ZM46.8,4.07c2.45-.63,3.88,.83,5.11,2.57,.7,.99,1.25,2.08,2.08,3.49,1.79-2.99,3.59-5.47,7.28-4.51,0,3.44,1.11,6.61,2.04,10.11,2.32-1.31,4.3-2.43,6.59-3.72-2.83-2.75-5.54-4.86-8.75-6.29-2.84-1.84-6.11-2.13-9.33-2.54-1.7-.22-3.44-.05-4.96,.97-2.46-.58-4.53,.12-6.62,1.87,1.25,2.02,2.38,3.83,3.51,5.65,.25-3.02-.81-6.2,3.03-7.58Zm-10.33,87.39c-.13,1.63-.29,3.02-.33,4.42-.09,3.68,.07,7.37-.25,11.03-.26,2.99-.63,6.12-1.76,8.86-1.51,3.66-3.43,7.29-5.86,10.4-3.46,4.43-4.66,9.49-5,14.74-.52,7.98-.23,16.02,1,23.92,1.55,9.98,2.49,19.97,2.76,30.05,.11,3.97,.79,7.93,1.3,11.89,1.11,8.72,2.67,17.4,3.28,26.15,.57,8.15,1.98,16.14,2.87,24.43,4.04,1.83,8.19,2.94,12.54,2.81,6.07-.18,12.16-.39,18.17-1.14,6.12-.76,12.3-1.71,17.99-4.96-.05-.88-.11-1.82-.15-2.76-.16-4.15-.44-8.3-.44-12.46,0-8.31,.06-16.63,.26-24.94,.06-2.64-.92-4.51-2.74-6.32-3.86-3.82-7.59-7.78-11.28-11.77-3.21-3.47-5.19-7.65-6.4-12.19-.75-2.81-.18-5.45,1.83-7.52,1.39-1.43,3.17-2.47,4.74-3.66,1.69,.05,2.63,1.19,3.56,2.28,1.03,1.22,1.96,2.52,2.95,3.77,.82,1.03,.95,2.68,2.85,3.3-.06-1.14-.08-1.92-.15-2.7-1-11.31-1.9-22.62-3.07-33.91-.36-3.46-.98-7.05-2.3-10.23-2.33-5.6-5.13-11.02-9.47-15.46-.89-.91-1.62-1.98-2.39-3-2.89-3.78-4.56-8.03-4.89-12.8-.25-3.51-.56-7.01-.9-10.51-.09-.88-.4-1.74-.64-2.73-3.12,.51-5.93,1.2-8.78,1.37-2.83,.16-5.69-.2-9.32-.37Zm48.63,95.95c-.11-1.6-.05-2.24-.21-2.83-1.07-3.91-1.07-7.9-1.13-11.9-.03-2.23-.17-4.47-.39-6.7-.69-7.16-1.36-14.32-2.21-21.46-.39-3.32-1.23-6.58-1.8-9.88-1.13-6.65-5.34-11.47-9.6-16.26-1.8-2.02-3.61-4.04-5.39-6.07-1.75-2-2.43-4.33-2.64-7-.57-7.33-1.39-14.64-2.12-21.96-1.2-11.93-2.41-23.86-3.61-35.78-.35-3.5-.41-7.06-1.11-10.48-.72-3.53,.57-7.3-1.41-10.64-.14-.23-.1-.66,.01-.93,1.15-2.76-.54-5.16-.55-7.76-5.79-.55-11.2-.61-16.63-.17-2.68,.22-5,.96-6.23,3.38,.1,2.37,.25,4.59,.29,6.81,.18,10.23,.3,20.46,.48,30.7,.29,15.66,.61,31.33,.92,46.99,.09,4.66-1.46,8.77-4.04,12.57-1.53,2.25-3.05,4.5-4.57,6.75-2.95,4.38-4.23,9.29-4.28,14.49-.09,8.47-.17,16.95,.02,25.42,.18,8.15,.95,16.27,2.33,24.32,.32,1.89,.61,3.82,3.1,4.47,.09-.66,.29-1.26,.25-1.84-.57-7.01-.84-14.06-1.85-21-1.39-9.52-2.15-19.06-1.94-28.66,.1-4.67,.99-9.27,2.97-13.47,1.76-3.73,3.97-7.3,6.37-10.67,2.46-3.45,3.26-7.25,3.44-11.28,.19-4.31,.2-8.63,.32-12.94,.11-4.18,.97-5.53,5.13-6.13,5.05-.72,10.17-.99,15.28-1.31,.98-.06,2,.56,2.87,.83,.4,5.31,.84,10.23,1.11,15.17,.3,5.48,2.21,10.26,5.74,14.43,.72,.85,1.42,1.73,2.14,2.59,6.48,7.82,10.76,16.55,11.48,26.85,.46,6.7,1.02,13.39,1.66,20.07,.61,6.34,1.4,12.66,2.1,18.82,1.21,.81,2.12,1.41,3.72,2.47Zm0,26.2c0,2.7,0,4.45,0,6.2-.02,6.24,0,12.47-.09,18.71-.08,5.12-.27,10.22,.94,15.27,.49,2.06-.08,3.11-1.98,3.75-2.11,.71-4.3,1.24-6.47,1.74-8.59,1.96-17.27,3.01-26.09,3.42-5.41,.25-10.48-.53-15.54-2.09-1-.31-2.02-.5-3.16-.78-.51,1.85-.92,3.35-1.32,4.81,1.65,2,3.65,2.89,5.9,3.28,8.2,1.43,16.41,2.71,24.74,.91,2.18-.47,4.41-.79,6.63-1.03,7.21-.78,14.02-3.02,20.75-5.56,.72-.27,1.37-.7,2.07-1.06-.05-1.14-.06-2.1-.14-3.05-.51-5.89-1.14-11.77-1.54-17.67-.45-6.7-.76-13.4-1.01-20.11-.09-2.55-1-4.52-3.67-6.75Zm-72.45,9.66c-2.41,.78-3.25,2.33-3.9,3.96-1.2,3.01-1.98,6.28-1.22,9.37,1.42,5.75,5.55,9.03,11.43,10.69,1.16-1.06,2.37-2.07,3.47-3.19,.55-.56,.95-1.32-.19-2.16-1.16,.51-2.43,1.12-3.74,1.63-.9,.35-1.52,0-1.81-1.34,1.44-1.51,3.49-2.36,5.47-3.32,3.37-1.62,5.5-4.26,6.5-7.84,1.16-4.13-.34-7.51-4.53-9.93-1.53,1.3-2.13,3.03-2.22,5-.05,1.12-.01,2.24-.17,3.34-.29,1.94-1.48,2.8-3.33,2.54-3.04-.43-4.85-2.12-5.44-5.21-.21-1.08-.2-2.2-.31-3.54Zm.14-18.89c-4.43-1.64-4.89-5.73-6.25-9.09-3.21,.98-4.19,3-4.19,5.89,.02,9.82,7.28,15.13,16.48,16.61,.85,.14,1.79-.26,2.79-.42-.13-1.88,.39-3.65-1.09-5.21-1.12,.59-2.05,1.19-3.07,1.59-1.02,.41-2.11,.75-3.19,.84-.41,.04-.99-.63-1.28-1.1-.1-.16,.34-.89,.68-1.06,1.83-.94,3.71-1.78,5.57-2.66,3.09-1.47,4.44-3.95,4.25-7.33-.04-.64,.01-1.28-.02-1.91-.15-3.43-1.48-6.12-4.89-7.7-.16,1.31,.02,2.66-.52,3.59-1.59,2.73-3.46,5.29-5.26,7.96Zm3.84-34.03c-3.03-1.92-5.78-1.38-8.34,.24-.85,.54-1.65,1.61-1.9,2.58-1.14,4.41,1,9.63,4.9,12.08,2.26,1.42,4.66,2.6,7.01,3.9,.15-.42,.38-.72,.35-.99-.65-5.85-1.32-11.7-2.02-17.81ZM78.49,46.52c-1.27-.11-2.54-.03-3.7-.36-1.36-.38-2.61-1.12-3.92-1.67-1.07-.45-1.91-1.55-3.25-1.48,1.34,4.3,2.58,8.31,3.84,12.36,4.03-2.76,5.54-4.65,7.02-8.85ZM25.9,206.94c-1.46,1.64-2.42,2.64-2.29,4.23,.15,1.75,.33,3.5,.5,5.25,.19,1.95,1.44,2.64,3.49,2.74,.04-3.89-.75-7.6-1.7-12.22Zm3.18,29.95c-2.08,1.76-4.38,2.9-3.45,5.33,.71,1.85,1.56,4.23,4.63,4.2,.17-3.21-.34-6.14-1.18-9.53ZM82.67,29.35c-1.01-5.18-2.31-10.23-5.42-14.58-.78-1.09-1.53-2.28-3.73-2.58,4.27,5.52,6.43,11.47,9.15,17.16ZM58.89,8.74c-.39,.22-.84,.33-.88,.52-.67,3.36-.85,6.75-.7,11.09,2.47-4.24,3.73-7.68,1.57-11.61Zm11.27,13.31h5.98c-.07-2.02-1.05-3.37-2.34-4.98-1.13,1.55-2.13,2.91-3.64,4.98Zm-3.45-1.88q3.27-1.81,3.77-4.65c-3.54-.33-3.39,2.4-3.77,4.65Zm9.34,11.52c1.77,1.23,3.09,2.16,4.79,3.34,.27-2.2-.46-3.51-1.35-5.04-1.07,.53-2,.99-3.45,1.7Zm-15.68,5.1c1.47,4.8,2.34,6.2,4.95,8.09-1.41-2.74-2.44-5.44-4.95-8.09Zm3.1-16.38c-.09-.06-.24-.18-.28-.16-.21,.16-.38,.35-.57,.53,.1,.04,.25,.15,.3,.11,.2-.14,.37-.32,.55-.49Zm-7.35-3.88c-.07-.29-.14-.59-.22-.88-.13,.21-.36,.42-.35,.63,0,.22,.23,.44,.36,.66,.07-.14,.14-.27,.21-.41Z"/><path d="M83,283.29c-4.15-.23-7.83-1.82-11.33-3.96,3.96,.87,7.95,1.6,11.5,3.75l-.17,.21Z"/><path d="M99.44,199.69c-1.21,1.09-1.93,2.74-4.2,3.57,.9-2.46,2.41-3.18,4.26-3.51,0,0-.06-.06-.06-.06Z"/><path d="M83.17,283.08c1.84,.38,3.68,.77,5.52,1.15-2.09,.55-4.02,.37-5.69-.94,0,0,.17-.21,.17-.21Z"/><path d="M135.93,304.23c-1.55-.57-1.47-1.88-1.97-3.89,1.89,1.43,2.13,2.6,1.87,3.97l.1-.07Z"/><path d="M135.84,304.31c.76,.39,1.15,.86,.09,2,0-.96,0-1.52,0-2.08,0,0-.1,.07-.1,.07Z"/><path d="M100.9,205.52c-.17,.23-.29,.58-.52,.67-.21,.08-.52-.11-.79-.18,.19-.22,.34-.54,.58-.64,.18-.08,.48,.09,.73,.16Z"/><path d="M237.57,478.06c.22,.11,.44,.23,.67,.34-.15,.11-.29,.22-.44,.33-.04-.25-.09-.5-.13-.75,0,0-.1,.09-.1,.09Z"/><path d="M81.15,192.57c-.11,.05-.22,.1-.32,.16-.04-.17-.08-.33-.12-.5,.12,.02,.26,0,.36,.06,.06,.04,.06,.18,.09,.27Z"/><path d="M5.86,271.47c.06,.12,.18,.25,.18,.37,0,.11-.14,.22-.22,.33-.06-.12-.18-.25-.18-.37,0-.11,.14-.22,.22-.33Z"/><path d="M28.91,163.25c1.73,11.42,3.47,22.85,5.2,34.27-1.37-.76-1.6-1.92-1.8-3.13-1.2-7.36-2.4-14.72-3.66-22.07-.51-3-.55-5.98,.25-9.07Z"/><path d="M43.53,251.1c4.61,1.3,9.06,3.06,14.6,1.36-2.86,1.97-3.54,2.17-6.47,2.06-3.09-.12-5.95-.89-8.13-3.42Z"/><path d="M30.95,128.85c.69,2.88-1.2,4.47-2.19,6.38-1.53-.36-1.56-1.35-1.22-2.24,.63-1.63,1.65-3.02,3.4-4.14Z"/><path d="M37.28,233.16c1.23,2.69,.78,4.86,1.01,6.94-1.78-1.85-1.49-4-1.01-6.94Z"/><path d="M43.6,96.44c.17,.39,.49,.8,.49,1.21,0,.94-.14,2.08-1.37,1.98-.59-.05-1.39-.77-1.62-1.37-.47-1.25,.67-1.51,1.54-1.8,.27-.09,.59-.01,.97-.01Z"/><path d="M42.11,102.57c-.67,.47-1.14,1.07-1.55,1.02-.4-.05-.72-.74-1.08-1.15,.47-.27,.91-.66,1.41-.75,.25-.05,.61,.43,1.21,.88Z"/><path d="M46.6,99.95c-.16-.36-.39-.7-.42-1.06-.01-.12,.64-.46,.69-.41,.26,.29,.44,.65,.65,1-.25,.13-.49,.26-.92,.48Z"/><path d="M26.77,148.52c-.22-.98-.45-1.53-.44-2.09,0-.39,.34-.77,.72-1.56,.23,.95,.46,1.51,.45,2.07,0,.39-.34,.77-.74,1.58Z"/><path d="M52.01,98.42c-.1,.07-.19,.15-.29,.22l-.24-.5c.13-.02,.28-.1,.38-.05,.08,.04,.11,.21,.15,.33Z"/><path d="M51.26,101.34c-.13,.01-.3,.09-.38,.03-.09-.06-.11-.24-.16-.36,.2-.03,.41-.06,.61-.08-.02,.14-.05,.28-.07,.42Z"/><path d="M51.42,19.75c-7.14,1.69-12.94,1.94-17.03,.81,.27-.4,.45-.97,.78-1.07,3.07-.95,12.06-.89,16.26,.26Z"/><path d="M34.64,42.63c1.1,6.95,1.78,13.84,1.3,21.59-.97-4.01-1.77-17.25-1.3-21.59Z"/><path d="M34.21,26.33c4.37-1.77,8.86-1.26,14.07-1.68-3.42,2.44-7.9,2.94-14.07,1.68Z"/><path d="M46.59,34.28c-3.3,1-7.53,1.05-14.45,.09,.69-.5,1.05-.98,1.48-1.03,4.28-.55,8.54-.61,12.75,.53,.1,.03,.15,.27,.22,.41Z"/><path d="M36.2,30.46c2.7-1.89,3.48-2.01,7.81-1.15-2.03,1.73-2.95,1.87-7.81,1.15Z"/><path d="M36.26,80.89c-.1-.6-.21-1.21-.28-1.82-.05-.46-.05-.94-.07-1.44,1.66,.7,.47,2.07,.35,3.25Z"/><path d="M71.48,34.57c1.01,0,2.01,0,3.02,0-1.47,1.29-1.48,1.29-3.02,0Z"/><path d="M74.38,43.3c0-.52,.01-1.04,.02-1.56,.36,.52,1.73,1.06-.02,1.56Z"/><path d="M74.41,39.45c.42,.13,1.1,.16,1.2,.42,.23,.57-.61,.31-1.13-.51,0,0-.07,.09-.07,.09Z"/><path d="M72.47,39.46c0-.35,0-.71,0-1.06,.86-.05,1.66,.02,1.95,1.05,0,0,.07-.09,.07-.09-.67,.03-1.34,.07-2.01,.1Z"/><path d="M48.51,12.57c-.29-.52-.58-1.03-.87-1.55,.22-.07,.43-.14,.65-.21,.05,.61,.1,1.22,.14,1.83,0,0,.08-.07,.08-.07Z"/></svg>