<?xml version="1.0" encoding="UTF-8"?><svg id="Layer_1" xmlns="http://www.w3.org/2000/svg" viewBox="0 0 247.18 463.2"><path d="M70.13,153.16c2.66,1.26,4.34,2.17,6.35,1.8,2.09-.39,3.72,.53,5.31,1.68,8.04,5.83,15.73,12.09,22.98,18.86,3.85,3.6,7.46,7.45,11.02,11.35,3.69,4.05,6.38,8.72,8.49,13.81,2.7,6.53,5.06,13.13,6,20.15,.72,5.39,1.18,10.81,1.83,16.2,.29,2.38,.57,4.78,1.16,7.08,3.39,13.16,6.95,26.27,12.58,38.71,2.44,5.39,5.11,10.65,8.81,15.79,.62-.63,1.07-1.18,1.61-1.61,2.1-1.65,4.74-.76,4.98,1.8,.11,1.2-.27,2.5-.68,3.66-.3,.84-1.03,1.53-1.63,2.39,4.34,6.15,9.08,11.76,13.85,17.35,19.33,22.62,39.98,44.04,60.05,65.98,2.48,2.71,5.11,5.32,7.33,8.24,2.41,3.16,4.47,6.6,6.6,9.97,.47,.74,.56,1.71,.25,2.94-.45-.49-1-.91-1.32-1.47-2.83-4.88-6.57-9.03-10.41-13.12-12.46-13.3-24.85-26.68-37.3-39.98-13.12-14.01-25.81-28.4-37.88-43.33-.3-.37-.59-.75-.75-.96-1.55-.14-2.1,.71-2.11,1.69-.01,2.44-.28,4.76-1.65,6.88-.31,.48-.31,1.23-.28,1.85,.11,2.18-.56,4.06-1.87,5.8-.44,.58-.69,1.4-.75,2.14-.38,4.94-.36,4.95-2.83,8.12-.43,2.43-.76,4.27-1.08,6.12-.16,.93-.28,1.87-.47,2.79-.26,1.24-.33,2.6-.9,3.68-.89,1.68-2.09,3.14-1.81,5.27,.08,.65-.51,1.51-1.01,2.08-.82,.94-.96,1.93-.81,3.1,.1,.78,.18,1.7-.14,2.36-.74,1.55-2.15,2.88-2.51,4.48-.37,1.63,.37,3.49-.98,4.98-.56,.61-.86,1.23-.42,2.12,1.05,2.14,.15,4.02-1.19,5.95,1.05,1.49,2.02,2.94,3.05,4.34,7.65,10.47,14.94,21.16,20.94,32.68,5.33,10.23,10.16,20.67,12.35,32.1,.72,3.76,1.13,7.58,1.58,11.38,.11,.9-.15,1.85-.8,2.85-.2-.71-.43-1.41-.58-2.13-.9-4.38-1.67-8.79-2.69-13.14-1.61-6.88-4.29-13.38-7.33-19.74-7.41-15.5-16.53-29.94-26.87-43.62-.19-.25-.46-.43-.7-.65-1.49,.33-2.99,.66-4.72,1.05-.08,.16-.33,.56-.44,.99-.29,1.16-.84,2.2-2.08,2.36-1.53,.19-2.17-1.07-2.79-2.21-.65-1.21-1.29-2.42-1.98-3.71,.35-.59,.76-1.27,1.23-2.06-2.4-4.1-1.11-8.59-1.12-13.48-3.07-3.98-6.36-8.29-9.71-12.56-11.15-14.22-22.32-28.42-33.49-42.63-1.38-1.76-2.75-3.54-4.22-5.22q-6.09-6.96-9.04-15.16c-1.91-1.05-4-.47-5.99-.12-2.09,.36-4.1,.33-6.18,.1-4.76-.52-9.57-.7-14.32-1.29-13.01-1.63-25.07-6.22-36.65-12.19-1.53-.79-3.05-1.86-4.16-3.15-3.15-3.67-2.15-8.77,2.16-10.91,1.82-.9,3.89-1.49,5.92-1.76,5.7-.76,11.45-1.19,17.15-1.93,4.6-.6,9.17-1.44,13.32-4.49,.17-1.37,.37-2.91,.59-4.7-2.95-.58-4.5-2.57-5.87-4.76-.59-.95-1.16-1.93-1.89-2.77-2.5-2.87-3.76-6.28-4.49-9.93-.79-3.97-.85-8-.11-11.93,1.18-6.26,5.19-10.53,10.71-13.35,3.11-1.59,6.44-2.76,9.72-4.14,2.02-4.21,2.16-8.21-1.82-11.9-6.6,1.47-13.48,.82-20.34,.88-6.23,.06-12.03-1.74-17.36-4.79-3.94-2.25-7.3-5.22-7.96-10.2-.12-.91-.64-1.76-1-2.7,1.59-1.66,3.59-1.5,5.43-1.47,7.51,.12,15.02,.36,22.53,.55,.74,.02,1.47,0,3.3,0-3.5-2.2-6.29-3.26-9.07-4.32-4.81-1.83-9.2-4.41-13.52-7.18-4.13-2.65-6.24-6.76-8.31-10.91-.8-1.6-.14-3.16,1.48-4.06,.83-.46,1.76-.97,2.66-1,4.77-.17,9.53-1.1,14.32-.04,5.61,1.24,11.25,2.31,17.18,3.51,1.39-2.15,1.73-5.25,4.42-7.22,1.31,.11,2.86,.24,4.89,.42-.94-.87-1.54-1.53-2.23-2.06-7.06-5.47-12.63-12.27-16.86-20.06-4.74-8.72-6.74-18.23-7.04-28.12-.38-12.8,2.04-25.17,6.45-37.1,4.77-12.89,9.98-25.61,15.03-38.4,1.53-3.86,3.14-7.69,4.71-11.54,.36-.89,.71-1.78,1.09-2.66C48.09,1.19,49.82-.21,52.62,.03c4.77,.4,9.56,.66,14.32,1.2,6.51,.74,13,1.63,19.49,2.55,10.96,1.55,21.71,3.84,31.72,8.81,4.74,2.36,5.38,2.86,8.54,6.62-.51,5.69-1,11.73-1.59,17.77-.8,8.11-1.6,16.22-2.53,24.32-.54,4.76-1.32,9.49-2,14.24-1.54,10.75-2.94,21.52-4.69,32.24-.98,6.03-3.39,11.62-6.52,16.9-1.79,3.02-3.28,6.21-4.99,9.28-5.45,9.81-13.52,16.01-24.73,17.83-2.82,.46-5.66,.83-9.51,1.4Zm-16.64,109.72c.03,.27,.06,.54,.09,.81,.15-.08,.3-.17,.45-.25-.21-.16-.41-.33-.62-.49-.79-3.99-1.57-7.99-2.46-12.49-.51,.89-.84,1.24-.93,1.65-.99,4.28,.7,7.7,3.48,10.77Zm100.94,40.98c-1.16-1.79-2.02-3.13-2.89-4.46-3.5-5.37-6.41-11.03-8.99-16.9-4.53-10.28-7.62-21.01-10.62-31.78-1.5-5.39-2.65-10.83-3.16-16.44-.58-6.35-1.24-12.76-2.65-18.96-2.59-11.37-7.34-21.74-15.69-30.23-7.18-7.31-14.88-14.03-22.86-20.44-.85-.68-1.92-1.11-2.91-1.6-1.85-.92-3.76-1.75-5.59-2.72-3.4-1.8-6.68-2.87-10.66-3.26-.72,4.18-1.48,8.39-2.18,12.61-.7,4.24-.27,8.21,2.61,11.71,1.42,1.72,2.46,3.74,3.85,5.49,5.38,6.77,11.12,13.2,17.87,18.66,2.61,2.11,5.26,4.2,7.65,6.54,3.6,3.52,7.56,6.32,12.51,7.59,1.07,.27,2.1,.78,3.08,1.3,.54,.28,1.36,.49,1.33,1.74-1.73-.56-3.2-1.09-4.71-1.49-.62-.16-1.33-.03-2.2-.03,6.33,10.93,6.69,11.78,6.47,15.86-.82-1.36-1.45-2.23-1.91-3.18-3.2-6.57-7.69-12.12-13.26-16.82-4.27-3.61-8.57-7.2-12.75-10.92-11.09-9.88-20.56-21.01-26.56-34.78-1.41-3.22-2.9-6.4-4.4-9.58-.38-.8-.94-1.51-2.03-3.23,0,1.89,.08,2.62-.01,3.33-.49,3.9-4.07,5.98-7.71,4.55-2.23-.88-3.66-2.5-4.59-4.63-.65-1.5-1.23-3.02-1.84-4.53,.44,5.49,1.94,10.69,3.32,15.93,1.86,7.02,4.78,13.54,8.62,19.68,1.95,3.12,3.92,6.22,5.83,9.36,6.46,10.59,11.52,21.72,13.28,34.15,.92,6.48,1.84,12.97,3.04,19.41,1.43,7.68,2.67,15.45,7.03,22.22,.34,.52,.45,1.18,.7,1.76,.75,1.74,1.25,3.66,2.32,5.18,2.77,3.9,5.72,7.68,8.74,11.4,2.11,2.6,4.54,4.95,6.67,7.53,3.48,4.21,6.34,8.82,8.3,13.95,.21,.54,.69,1.15-.01,1.71-.28-.14-.64-.21-.81-.44-.49-.63-.95-1.29-1.33-1.98-3.05-5.49-6.79-10.44-11.22-14.88-4.75-4.77-9.15-9.82-12.8-15.5-.32-.49-.88-.83-1.13-1.06-2.83,1.37-5.39,2.6-8.05,3.88,.62,5.05,2.89,9.12,6.15,12.78,2.55,2.86,4.99,5.82,7.35,8.85,6.19,7.94,12.29,15.96,18.48,23.9,8.84,11.35,17.72,22.66,26.59,33.99,.47,.6,1.04,1.11,1.72,1.83,.64-1.46,1.04-2.65,1.66-3.72,.72-1.22,1.64-2.33,2.58-3.65-.34-2.26-.44-4.61,1.48-6.58,.46-.47,.59-1.48,.54-2.21-.15-2.17,0-4.13,1.98-5.56,.42-.3,.65-1.14,.63-1.72-.06-2.67,1.25-4.92,2.12-7.3,.33-.89,.63-1.86,1.22-2.55,.55-.65,1.47-.99,1.87-1.24-.12-2.12-.62-3.96-.2-5.56,.46-1.75,1.78-3.28,2.83-5.08-.71-1.55-.66-3.09,.67-4.68,.85-1.02,2.14-2.12,1.63-3.78-.88-2.86,.6-4.88,2.5-6.77-.74-2.28-1.15-4.47,.48-6.62ZM49.31,6.53c-.59,1.13-1.08,1.91-1.41,2.74-5.79,14.38-11.64,28.74-17.3,43.17-4.59,11.68-7.49,23.74-7.9,36.36-.33,10.26,1.21,20.2,5.85,29.33,7.4,14.58,18.93,24.77,34.41,30.3,1.49,.53,3.11,.94,4.67,.95,4.12,.04,8.24-.07,12.32-.9,9.85-2.01,17.31-7.24,21.98-16.19,2.59-4.95,4.6-10.24,7.52-14.98,3.23-5.24,4.32-10.93,5.14-16.8,.22-1.58,.45-3.17,.67-4.75,1.5-10.92,3.13-21.83,4.48-32.77,1.31-10.63,2.36-21.29,3.45-31.94,.2-1.99,.57-4.05-.08-6.2-1.97,0-3.73,.11-5.46-.02-5.26-.39-10.53-.69-15.75-1.36-10.48-1.33-20.68-4.07-30.87-6.78-7.75-2.06-15.39-4.3-21.7-10.17Zm-8.92,255.33c-1-1.19-2.05-1.26-3.41-.9-3.53,.96-7.11,1.83-10.72,2.37-4.89,.73-9.84,1.06-14.76,1.68-1.89,.24-3.82,.56-5.58,1.23-3.62,1.38-4.06,4.47-1.05,7.03,1.2,1.02,2.64,1.8,4.06,2.51,12.4,6.19,25.36,10.55,39.25,11.65,5.23,.41,10.51,1.27,15.76,.34,2.16-.38,4.23-1.31,6.39-1.66,3.05-.5,5.72-1.81,8.41-3.06-.68-4.74-3.38-7.17-7.78-7.99-2.66-.5-5.33-1.05-7.94-1.75-5.93-1.58-10.96-4.41-13.64-10.32-.11-.25-.45-.4-.68-.6-.69,.21-1.36,.41-2.51,.76,.1-2.1,.14-3.82,.26-5.53,1.06-14.21,4.14-28.11,6.48-42.12,.53-3.14,1.39-6.23,2.13-9.33,.42-1.77-.13-3.04-1.98-4.04-.25,.76-.5,1.3-.61,1.88-1.23,6.59-2.44,13.19-3.65,19.78-.95,5.18-1.94,10.35-2.85,15.54-.72,4.09-1.21,8.22-2.06,12.28-.71,3.41-1.63,6.8-3.53,10.26Zm21.4-33.04c-1.73,1.36-2.87,2.2-3.95,3.11-1.59,1.33-3.15,2.69-4.71,4.05-1.21,1.05-1.41,2.32-1.1,3.89,.93,4.69,1.75,9.41,2.55,14.12,.81,4.77,2.33,9.27,4.86,13.42,.79,1.3,1.76,2.16,3.3,2.48,3.12,.65,6.21,1.46,9.32,2.14,.69,.15,1.44,.09,2.43,.13-.31-1.31-.52-2.22-.74-3.13-.81-3.41-1.79-6.79-2.4-10.24-1.62-9.11-3.02-18.26-4.61-27.37-1.38-7.94-4.74-15.11-9.13-22.67-2.2,7.45-3.22,14.36-3.99,21.73,2.69-1.01,4.57-3.37,8.17-1.67ZM49.75,3.79c2.87,3.05,5.84,4.23,8.75,5.45,8.28,3.44,17.01,5.35,25.66,7.54,11.47,2.9,23.12,4.62,34.96,4.94,.79,.02,1.65,.28,2.36,.06,.67-.21,1.5-.83,1.66-1.43,.15-.55-.39-1.42-.84-1.95-.38-.45-1.1-.61-1.65-.93-9.13-5.23-19.11-7.92-29.37-9.65-7.07-1.19-14.21-1.94-21.32-2.86-3.95-.51-7.91-.98-11.86-1.44-2.5-.29-5.01-.44-8.34,.29Zm-10.2,169.24c-1.39-6.79-2.68-13.11-4.05-19.83-5.45-1.1-11.09-2.14-16.68-3.41-3.2-.72-6.33-.45-9.49,.02-3.64,.54-4.63,2.6-2.81,5.69,1.25,2.12,3.07,3.63,5.05,5.03,7.14,5.03,15.31,7.86,23.31,11.04,1.41,.56,2.91,.92,4.66,1.46Zm-7.73,6.7c-3.04-3.43-6.6-2.13-9.91-2.06-.39,.57-.67,.94-.92,1.35-2.74,4.54-4,5-8.97,3.35-1.87-.62-3.65-1.67-6.11-1.58,1.27,2.02,2.77,3.22,4.41,4.19,3.17,1.89,6.59,3.22,10.21,4.04,5.53,1.25,11.14,.62,16.72,.88,2.73,.13,5.41-.28,8.22-1.22-1.54-3.9-3.04-7.72-4.52-11.48-3.19-.68-3.43-.89-4.46,.33-1.36,1.61-2.92-1.17-4.03,.46-.25,.37-.33,.87-.64,1.73Zm10.74,61.24c.78-4.26,1.43-7.86,2.11-11.44,.65-3.44,1.37-6.87,1.96-10.32,.6-3.52,1.69-7.01,1.38-10.87-4.63,.74-8.14,2.95-11.26,5.93,.32,.72,.63,1.42,.97,2.19-.64,.48-1.2,1.18-1.88,1.32-.82,.17-1.74-.13-2.52-.22-2.25,4.35-2.39,5.33-1.79,12.55,.75-.43,1.35-.85,2.01-1.12,1.7-.69,2.67-.46,3.73,.98,.66,.89,1.24,1.87,1.7,2.87,1.13,2.44,2.17,4.92,3.58,8.14Zm20.08-72.05c1.26-2.62,3.15-12.55,3.12-16.26-1.61-.43-3.25-.87-5.39-1.44,1.34,3.64,1.46,6.98,.52,10.16-.88,2.99,.02,5.21,1.75,7.54Zm-14-23.36c1.96,3.43,4.44,6.03,9.39,5.43-2.83-3.08-6.41-3.73-9.39-5.43Zm91.33,217.34c.26-.13,.58-.2,.76-.39,.69-.77,.82-1.63,.17-2.49-.17-.23-.53-.56-.7-.51-.39,.11-.96,.39-1.01,.68-.12,.72-.05,1.49,.06,2.22,.03,.19,.47,.33,.72,.49ZM57.84,159.14q.88-4.3-1.99-4.23c.54,1.15,1.04,2.2,1.99,4.23Zm91.28,174.67c.51-1.73,.79-2.65,1.23-4.15-2.19,.99-1.83,2.09-1.23,4.15Zm-3.65,12.53c-.22-.07-.44-.15-.66-.22-.21,.57-.43,1.14-.6,1.73,0,.02,.49,.19,.74,.29,.17-.6,.35-1.2,.52-1.8Zm-8.03,29.36c-.17-.24-.3-.55-.53-.7-.13-.09-.43,.09-.66,.15,.12,.26,.19,.63,.39,.73,.19,.09,.52-.11,.79-.18Zm4.87-20.94c.13-.05,.28-.1,.42-.15-.05-.14-.1-.29-.16-.43-.19,.1-.38,.19-.57,.29,.1,.1,.2,.19,.31,.3Zm9.53-30.88c.16-.25,.42-.49,.44-.74,.01-.23-.24-.47-.38-.71-.15,.24-.42,.47-.43,.71,0,.24,.24,.5,.38,.74Z"/><path d="M116.48,339.45c1.55,2.01,2.64,3.52,3.84,4.94,1.33,1.57,2.73,3.08,4.17,4.56,1.25,1.28,2.96,2.17,3.7,4.37-6.4-3.32-10.22-7.75-11.71-13.86Z"/><path d="M111.2,327.91c1.87,1.2,2.11,2.99,2.7,5.46-2.35-1.76-2.55-3.62-2.7-5.46Z"/><path d="M64.04,189.38c-.48,1.03-.96,2.06-1.74,3.74-.6-2.21-.03-3.21,1.74-3.74Z"/><path d="M61.65,186.53c.47,1.14-.13,1.65-1.1,1.95-.56-1.19,.05-1.68,1.1-1.95Z"/><path d="M65.56,194.1c.51,1.17-.08,1.64-1.14,1.85-.61-1.22,.11-1.62,1.14-1.85Z"/><path d="M112.92,99.48c-.24,1-.16,2.28-.71,2.68-1.78,1.28-1.96,3.15-2.52,4.97-2.15,6.98-5.56,13.24-10.86,18.36-6.14,5.94-12.96,10.76-21.02,13.91-7.2,2.82-14.21,2.51-20.88-.81-9.81-4.88-17.8-11.95-22.36-22.16-3.52-7.87-6.57-15.94-9.82-23.93-.12-.29-.19-.61-.28-.92-1.78-5.6-.94-6.82,5.08-6.78,3.35,.02,6.71,.27,10.04,.63,14.13,1.53,28.25,3.1,42.26,5.57,9.77,1.73,19.23,4.63,28.73,7.39,.74,.21,1.41,.65,2.34,1.08Zm-5.74,5.62c-1.44,.18-2.06,.23-2.67,.34-10.34,1.87-20.73,1.39-31.01-.11-14.56-2.13-28.8-5.66-42.39-11.47-.7-.3-1.41-.84-2.36,.18,3.3,8.14,6.01,16.67,10.48,24.42,4.51,7.84,11.22,13.57,19.3,17.36,6.09,2.86,12.49,3.14,19.04,.48,8.34-3.39,15.32-8.54,21.3-15.1,4.03-4.42,6.55-9.71,8.31-16.1ZM27.82,88.53c1.57,.87,2.19,1.29,2.87,1.58,16.08,6.96,32.86,11.1,50.31,12.68,6.86,.62,13.68,.82,20.51-.18,1.81-.26,3.6-.68,5.4-1.02-.84-.98-1.68-1.35-2.56-1.62-10.39-3.13-20.87-5.8-31.67-7.12-11.39-1.4-22.76-2.96-34.16-4.27-3.13-.36-6.34-.05-10.7-.05Z"/><path d="M49.51,277.62c-1.05,.4-1.53,.72-2.02,.71-.29,0-.87-.69-.83-.76,.29-.46,.67-1.08,1.12-1.17,.35-.07,.83,.55,1.73,1.22Z"/><path d="M60.3,238.62c2.23,1.8,2.41,3.6,2.73,5.26,.64,3.29,1.31,6.6,1.64,9.93,.4,4.02,1.35,7.86,2.69,11.64,.29,.81,.28,1.73,.56,3.65-1.15-1.42-1.79-1.95-2.08-2.62-1.09-2.48-2.43-4.93-3-7.54-1.23-5.61-2.08-11.3-2.99-16.98-.14-.85,.22-1.77,.45-3.34Z"/></svg>