<?xml version="1.0" encoding="UTF-8"?><svg id="Layer_1" xmlns="http://www.w3.org/2000/svg" viewBox="0 0 633.53 318.65"><path d="M526.44,232.25c1.12,1.34,2.12,2.82,3.38,4.01,9.5,9.04,19.02,18.06,28.62,26.99,2.8,2.61,5.91,4.9,8.87,7.34,1.34,1.11,2.67,2.24,4.25,3.57-.88,.4-1.4,.63-2.29,1.03,3.52,3.82,7.21,7.31,10.78,10.92,3.6,3.64,7.2,7.27,10.86,10.85,3.66,3.58,7.43,7.03,11.07,10.63,3.57,3.52,7.46,6.73,10.39,11.05-.63-.33-1.34-.56-1.88-1-2.61-2.11-5.22-4.23-7.76-6.43-14.89-12.89-28.82-26.78-42.5-40.92-10.34-10.7-21.1-20.95-31.88-31.2-.22-.21-.55-.3-.89-.49-2.1,.94-3.53,2.47-4.08,4.81-.14,.6-.47,1.27-.93,1.64-.57,.47-1.42,.99-2.04,.87-.61-.11-1.53-.98-1.53-1.52,0-2.26-.99-3.88-2.49-5.44-.42-.44-.57-1.87-.23-2.2,2.25-2.16,1.3-5.1,2.16-7.83-.7-.88-1.46-1.89-2.27-2.86-4.4-5.29-8.86-10.52-13.2-15.85-3.12-3.83-6.09-7.79-9.34-11.96-.33,0-.95,0-1.57,0-9.19-.01-16.12-4.47-20.52-12.05-4.13-7.11-9.39-13.31-13.98-20.06-4.82,.49-9.54,.97-14.35,1.45-.28,.31-.69,.6-.9,1-2.55,4.72-2.52,4.72-.27,9.73,1.83,4.08,3.47,8.26,5.45,12.27,3.42,6.9,8.21,12.66,15.53,15.6,3.06,1.23,6.49,1.6,9.78,2.17,1.88,.33,3.83,.25,5.74,.4,2.14,.17,4.04,.93,5.59,2.46,2.55,2.52,2.32,6.01-.44,8.33-4.96,4.19-10.61,7.09-16.74,9.09-10.33,3.36-20.69,6.64-31.03,9.97-4.98,1.6-10,2-15.12,.64-2.36-.63-4.52-1.64-6.31-3.29-1.93-1.77-1.9-3.65,.16-5.26,2.52-1.97,5.14-3.8,7.73-5.68,2.58-1.88,5.19-3.74,7.76-5.63,4.42-3.26,6.74-7.73,6.83-13.14,.13-7.7-1.58-15.13-3.84-23.01-1.61,1.21-2.81,2.1-4.23,3.17-1.09-1.38-2.04-2.58-3.14-3.97-1.25,.56-2.38,1.09-3.52,1.57-2.41,1.02-3.58,.75-4.8-1.46-1.37-2.51-3.04-4.91-3.49-7.84-.09-.6-.45-1.16-.65-1.67-1.68,.19-3.22,.59-4.72,.48-1.51-.12-2.98-.74-4.68-1.2-.06-7.44,4.05-13.5,7.18-20.14-.96-.69-1.8-1.38-2.71-1.94-1.09-.67-2.35-1.09-3.33-1.88-1.93-1.55-3.91-2.6-6.51-2.23-1.52,.22-3.14-.37-3.55-1.86-.49-1.8-2.52-1.29-3.17-2.73-.23-1.35,.63-2.31,1.52-3.23,5.21-5.4,10.17-11.08,16.25-15.57,.37-.27,.64-.69,1.22-1.33-.39-1.5-.82-3.16-1.23-4.72-1.72-.87-3.33-.39-4.89-.37-8.31,.11-15.66-2.64-22.27-7.53-3.09-2.28-6.1-4.66-9.19-6.94-5.39-3.98-9.38-9.14-12.52-14.96-3.73-6.91-6.89-14.06-8.87-21.69-.56-2.16-1.29-4.29-2-6.41-.18-.54-.61-1.01-1.16-1.89-1.09,6.64-1.9,12.8-3.14,18.88-2.77,13.66-8.21,26.19-16.51,37.43-5.1,6.9-12.24,10.06-20.56,10.8-3.81,.34-7.64,.33-11.8,.5-.96,4.95-1.93,9.92-2.93,15.07,.8,1.1,1.73,2.2,2.47,3.41,.99,1.63,1.98,3.29,2.73,5.04,.85,1.99,.88,4.01-.4,5.95-1.12,1.68-2.11,3.45-3.28,5.4,.93,1.33,2.15,3.01,3.31,4.72,1.62,2.4,2.1,4.98,1.08,7.75-.88,2.4-1.61,4.88-2.77,7.14-.93,1.8-2.36,3.37-3.7,4.93-.93,1.09-2.19,1.89-3.08,3-2.17,2.67-5.23,3.52-8.31,4.42-1.48,.43-2.31-.63-3.59-1.75-.34,1.82-.6,3.17-.89,4.75,1.37,.27,2.43,.51,3.5,.69,3.35,.58,6.47,1.81,9.32,3.63,.73,.46,1.15,1.39,1.71,2.11-.21,.12-.41,.24-.61,.36,.18-.14,.35-.28,.53-.42,3.28-1.39,5.62,.11,7.39,2.67,3.37,4.87,2.76,7.07-2.59,8.99-6.17,2.22-12.47,2.57-18.89,1.39-.78-.14-1.56-.32-2.35-.41-.3-.03-.61,.12-1.07,.22-1.14,1.81-.86,3.9-.67,5.93,.15,1.56,1.14,2.65,2.51,3.29,5.66,2.62,10.2,7.19,16.25,9.15,1.85,.6,3.29,1.87,4.33,3.62,1.93,3.26,.71,6.45-2.91,7.47-7.01,1.97-14.16,2.76-21.35,1.73-12.34-1.76-24.6-4.04-36.26-8.72-3.87-1.55-7.65-3.29-10.8-6.09-1.92-1.71-3.72-3.54-3.72-6.27,.76-1.45,2-1.72,3.28-1.89,8.55-1.14,17.07-2.58,25.71-2.84,3.27-.1,5.75-1.7,8.04-3.8,1.81-1.66,3.23-3.5,3.18-6.17-2.65-1.89-5.72-2.16-8.64-2.9-4.25-1.08-8.49-1.16-12.8-.21-4.05,.9-8.15,1.62-12.24,2.3-6.05,1-12.11,.69-18.17,0-7.14-.82-14.28-1.67-21.44-2.37-1.88-.18-3.84,0-5.72,.3-6.8,1.09-13.45,2.76-19.9,5.2-6.4,2.42-12.82,4.83-19.4,7.31,.12,1,.12,1.78,.32,2.5,1.62,5.81,1.4,11.74,1.01,17.64-.14,2.16-.79,4.46-1.82,6.36-2.6,4.8-6.11,4.98-9.17,.51-1.24-1.81-2.11-3.94-2.76-6.05-.9-2.89-1.39-5.91-2.12-8.85-.34-1.35-.82-2.67-1.21-3.92-2.18-.42-3.71,.63-5.29,1.25-12.04,4.77-23.87,10.01-35.46,15.8-14.75,7.36-30.08,13.37-45.6,18.85-5.7,2.01-11.7,3.19-17.56,4.72-.43,.11-.91,.01-1.95,.01,.65-.69,.92-1.24,1.34-1.38,3.64-1.21,7.36-2.19,10.95-3.52,18.42-6.85,36.72-14.03,54.36-22.76,11.47-5.68,23.18-10.77,35.09-15.45,1.02-.4,1.99-.92,3.11-1.44-.12-1.39-.13-2.66-.35-3.89-1.37-7.63-1.02-15.31-.64-22.97,.35-7.18,.98-14.35,1.55-21.52,.18-2.23,.58-4.43,.8-6.66,.11-1.07,.02-2.15,.02-3.47-14.06,4.69-28.23,7.9-42.29,11.53-14.23,3.68-28.5,7.17-42.69,10.98-19.89,5.34-38.32,9.76-42.95,9.88,.87-.68,1.31-1.24,1.87-1.43,2.57-.87,5.17-1.68,7.77-2.43,25.01-7.26,50.16-13.98,75.47-20.12,11.33-2.75,22.59-5.82,33.86-8.8,2.31-.61,4.59-1.41,6.81-2.3,17.67-7.09,34.9-15.1,51.11-25.15,8.97-5.56,17.86-11.24,26.82-16.8,2.85-1.77,5.81-3.37,8.76-4.96,4.23-2.28,8.76-2.94,13.49-2.14,2.2,.37,4.39,.84,6.56,1.38,4.36,1.09,8.76,1.75,13.25,2.01,2.86,.17,5.77,.42,8.53,1.12,5.88,1.49,11.97,1.91,17.73,4.03,4.16,1.53,7.87,3.49,10.59,7.05,.48,.63,.96,1.27,1.69,2.22,1.94-2.7,2.38-5.25,2.58-7.8-1.01-1.74-2.78-1.85-4.23-2.24-4.4-1.18-8.25-3.42-12.03-5.83-1.2-.77-2.38-1.67-3.31-2.74-5.79-6.62-10.32-13.99-11.17-22.91-.87-9.07-1.16-18.21,.64-27.23,.63-3.13,1.46-6.23,2.42-9.27,1.78-5.64,3.32-11.4,5.68-16.8,3.19-7.31,7.07-14.31,10.61-21.47,.7-1.42,1.85-2.09,3.24-2.61,3.66-1.35,7.47-1.68,11.32-1.64,6.9,.07,13.68,1.22,20.44,2.48,8.79,1.65,17.6,3.22,26.38,4.94,3.25,.64,6.74,1,8.82,4.28,2.29-.27,4.28-1.05,6.2-2.28,1.87-1.19,3.9-2.22,5.98-3.01,9.86-3.73,19.75-7.4,29.66-11,6.5-2.36,13.32-3.33,20.12-4.33,2.06-.3,4.12-.56,6.18-.84,2.84-.39,4.92,.67,6.44,3.12,1.52,2.44,3.18,4.79,4.84,7.13,13.19,18.61,18.97,39.28,17.02,62.01-.67,7.86-2.75,15.4-6.47,22.44-3.34,6.32-7.62,11.8-13.61,15.85-.63,.42-1.17,.97-1.69,1.41,.34,1.34,1.14,1.36,1.87,.93,2.48-1.44,4.78-3.26,7.39-4.41,6.39-2.82,13.26-3.73,20.13-3.42,3.75,.17,7.34-.1,10.9-.89,3.97-.87,7.93-.9,11.93-.81,3.52,.08,6.47,1.42,8.99,3.92,4.69,4.65,8.67,9.84,11.93,15.56,3.02,5.3,6.52,10.25,10.33,14.99,1,1.24,2.09,2.42,3.24,3.52,7.52,7.18,15.06,14.32,22.6,21.48,1.97,1.87,3.96,3.7,5.98,5.59,1.34-.23,2.56-.57,3.8-.62,2.66-.11,3.49,1.09,2.85,3.9-.07,.3-.08,.62-.17,1.4,3.12,2.76,6.42,5.76,9.8,8.66,13.26,11.34,27.5,21.42,41.27,32.1,8.11,6.29,16.51,12.03,25.76,16.54,3.87,1.89,7.47,4.32,11.16,6.56,1.03,.63,1.93,1.47,3.41,2.63-2.6,.22-3.98-1.03-5.51-1.71-1.6-.71-3.11-1.64-4.68-2.44-1.53-.78-3.09-1.5-5.08-1.75,1.11,1.36,2.21,2.73,3.34,4.13-.91,.88-1.48,.03-1.96-.37-16.18-13.6-33.98-25.06-50.55-38.12-8.91-7.02-17.54-14.41-26.31-21.62-.71-.58-1.48-1.07-2.19-1.58-1.49,1.25-1.42,2.58-1.02,4.07,.56,2.05-.3,3.77-1.62,5.25-.35,.4-1.17,.69-1.66,.57-.49-.11-1.1-.75-1.21-1.25-.51-2.39-.82-4.8,1.56-6.49-.28-1.08-.94-2.2-.75-3.14,.47-2.28-.56-3.67-2.18-4.88-7.6-5.67-13.79-12.86-20.72-19.25-1.06-.98-2-2.1-3.12-2.98-7.84-6.12-13.41-14.1-18.35-22.56-3.08-5.27-6.72-10.1-10.8-14.64-2.77-3.07-6.05-4.46-10.17-4.41-4.03,.05-7.96,.6-11.87,1.42-2.68,.56-5.33,.79-8.09,.48-5.15-.57-10.15,.85-15.22,1.42-1.81,.2-1.75,2.13-2.82,3.01-.86-.88-1.71-1.75-2.88-.46l.11-.08c-2.94,.65-4.99,2.69-7.38,4.56,.94,4.38,1.7,8.73,3.59,13.05,2.55-1.16,4.42-2.61,5.1-5,5.32-.66,10.18,.94,15.01,2.3,1.36-3.17-.2-6.2,1.58-9.3,.55,.91,1,1.35,1.09,1.85,.47,2.67,.82,5.36,1.27,8.04,.48,2.81,.78,5.7,2.86,7.82,3.34,.65,6.14-1.88,9.84-1.19-.63,.79-.9,1.39-1.36,1.67-2.91,1.72-5.96,3-9.4,3.29-6.91,.59-13.7,.05-20.44-1.57-5.58-1.34-11.15-2.88-16.98-2.56-.89,.05-1.78,.17-3.82,.38,1.64,.82,2.27,1.15,2.91,1.46,1.29,.62,2.7,1.07,3.84,1.89,2.68,1.92,2.89,5.14,.51,7.41-1.14,1.09-2.51,1.93-4.03,3.07,4.4,1.98,8.79,3.26,13.31,4.03,4.56,.77,9.17,1.26,13.75,1.96,1.88,.29,3.74,.78,5.59,1.27,6.95,1.87,13.96,3.43,21.22,3.32,2.04-.03,4.07-.25,6.83-.43-.81,.95-1.07,1.57-1.51,1.73-3.65,1.32-7.45,1.66-11.3,1.63-.75,0-1.51-.09-2.3-.14,.04,.56-.05,.98,.11,1.15,3.59,3.64,7.14,7.31,10.84,10.84,3.28,3.13,7.02,5.53,11.6,6.38,.61,.11,1.19,.37,2.41,.76-1.05,.59-1.62,1.19-2.17,1.17-3.55-.13-6.91-1.07-9.87-3-.93,.98-.28,1.67,.06,2.32,4.74,8.88,12.32,13.04,22.22,13.29,1.23,.03,2.47,0,4.43,0-1.1,1.16-1.69,1.77-2.27,2.37,.1,.3,.12,.66,.31,.88,6.56,7.84,13.13,15.67,19.72,23.48,1.96,2.32,3.93,4.63,6.02,6.83,1.07,1.12,2.41,1.98,3.63,2.96l-.11-.11ZM246.58,164.1c-.5-.14-1-.29-1.5-.43-.02,.15-.04,.3-.05,.45,.55-.03,1.1-.06,1.65-.09,.19,.99,1.02,1.04,1.78,1.23,2.91,.75,5.83,1.48,8.72,2.28,3.81,1.06,7.6,2.2,11.41,3.25,.48,.13,1.07-.12,2.46-.3-2.6-1.98-4.53-3.51-6.54-4.92-.46-.32-1.22-.38-1.82-.33-5.43,.48-10.74-.71-16.12-1.13Zm48.71,4.01l.06,.07c.6-1.23,.58-2.34-.37-3.47-3.4-4.08-7.35-7.54-11.62-10.66-6.62-4.83-14.47-6.68-22.14-8.78-5.84-1.59-11.87-2.49-17.82-3.66-2.51-.49-5.07-.73-7.55-1.34-1.78-.44-3.74-.82-4.73-2.63,.66-2.71,2.5-3.31,4.78-3.18,6.85,.39,13.76-.64,20.57,.89,1.08,.24,2.24,.07,3.35,.2,2.21,.25,4.46,.39,6.62,.91,8.73,2.09,9.34,2.59,14.12,10.12,.68,1.07,1.24,2.34,2.19,3.11,2.71,2.22,5.57,4.27,8.44,6.29,.63,.44,1.54,.47,1.91-.63-3.33-4.79-6.32-9.68-3.68-15.74-2.39-3.47-4.8-6.61-8.24-8.83-1.07-.68-2-1.59-2.91-2.49-1.63-1.6-3.58-2.55-5.68-3.43-7.31-3.09-15.12-4.19-22.81-5.3-7.74-1.12-15.52-1.79-23.15-3.65-5.17-1.26-10.15-.45-14.73,2.46-2.02,1.28-4.18,2.36-6.21,3.63-8.67,5.42-17.29,10.95-26,16.31-11.17,6.89-22.66,13.17-35.06,17.63-1.18,.43-2.26,1.17-3.36,1.8-1.94,1.1-3.77,2.48-5.83,3.26-2.43,.93-3.55,2.59-3.85,4.96-.43,3.49-.95,6.98-1.05,10.49-.21,7.03-.17,14.07-.21,21.11-.03,6.27,.99,12.42,2.2,18.54,.24,1.21,.75,2.37,1.21,3.79,1.09-.39,2.01-.63,2.84-1.04,6.3-3.12,12.88-5.55,19.43-8.07,7.16-2.75,14.39-5.36,21.97-6.71,3.44-.62,6.99-1.33,10.44-1.11,7.33,.45,14.63,1.45,21.93,2.29,5.9,.68,11.79,1.1,17.68,.05,4.09-.73,8.19-1.42,12.25-2.3,3.81-.82,7.6-.99,11.42-.26,4.24,.81,8.39,1.88,12.45,3.45,4.61,1.78,9.38,3.16,14.11,4.62,1.16,.36,2.44,.32,3.76,.47-1.14-7.15-.86-7.67,6.16-10.79-1.81-.6-3.23-1.18-4.69-1.53-2.95-.7-6.06-.91-8.87-1.95-6.25-2.33-12.94-3.22-19.03-6.11-2.71-1.29-5.79-1.78-8.64-2.82-4.52-1.65-9.07-3.07-13.92-3.32-.34-.02-.66-.43-1.42-.95,4.29-1.95,8.18-1.67,11.87,.08,2.36,1.12,4.82,1.65,7.28,2.3,1.54,.41,3.11,.72,4.64,1.18,2.28,.67,4.57,2.11,6.78,1.97,2.23-.15,4.34-1.88,6.53-2.83,1.39-.61,2.32-1.58,3.07-2.89,2.64-4.63,1.92-7.47-3.41-8.99l.08,.1c-.51-.36-.96-.89-1.53-1.06-5.96-1.74-11.96-3.38-17.92-5.14-5.77-1.71-11.51-3.54-17.39-5.36,.83-2.48,2.17-3.47,4.44-3.22,3.81,.41,7.62,.77,11.43,1.14,5.39,.52,10.72,1.81,16.2,.97,.84-.13,1.94,.21,2.66,.72,3.78,2.65,7.5,5.38,11.18,8.16,1.43,1.08,2.84,1.92,4.73,2.02,1.57,.08,3.14,.53,4.65,.99,.5,.15,1.11,.83,1.15,1.3,.03,.39-.66,1.13-1.12,1.22-1.38,.26-2.81,.28-4.31,.4-1.1,2.85-1.75,5.54-.22,8.33,2.48,.86,4.41-.3,6.32-1.46,5.27-3.2,6.73-8.64,8.11-14.09,.25-.99-.74-1.26-1.5-1.51Zm-17.05-151.61c-.69,.73-1.12,1.03-1.33,1.43-2.34,4.52-4.55,9.11-7.37,13.38-.6,.91-.87,2.05-1.22,3.11-1.98,5.9-3.89,11.83-5.92,17.72-3.12,9.02-4.19,18.3-4.03,27.82,.16,9.85,2.27,18.96,8.55,26.86,2.03,2.55,4.28,4.67,7.07,6.34,6.1,3.66,12.93,5.43,19.59,7.6,3.03,.98,6.24,1.38,9.48,.89,1.89-.29,3.8-.48,5.7-.74,8.01-1.07,14.4-4.69,19.09-11.45,7.48-10.81,12.39-22.66,15-35.49,.83-4.07,1.41-8.19,1.96-12.3,.91-6.81,1.86-13.62,1.28-20.52-.38-4.45-.78-8.89-1.25-13.32-.06-.55-.6-1.05-.79-1.35-3.52,.66-6.76,1.46-10.06,1.82-3.48,.38-7.04,.72-10.51,.42-14.42-1.26-28.31-4.74-41.55-10.68-1.14-.51-2.31-.96-3.68-1.53Zm69.74,8.05c0,1.65-.12,2.93,.02,4.18,.61,5.23,1.28,10.45,1.97,15.67,2.17,16.43,7.88,31.54,17.16,45.27,7.93,11.74,18.83,19.28,32.59,22.83,3.2,.83,6.25,.9,9.44,.29,7.19-1.37,13.06-4.98,17.93-10.33,4.94-5.43,8.14-11.83,10.1-18.83,2.57-9.17,3.27-18.48,2.22-27.99-1.63-14.74-6.38-28.28-14.61-40.61-2.21-3.31-4.42-6.63-6.67-9.92-.24-.36-.72-.55-1.32-1-3.41,4.58-8.03,7.26-13.35,8.84-.61,.18-1.19,.46-1.8,.64-7.81,2.28-15.6,4.66-23.45,6.79-9.12,2.47-18.38,4.15-27.89,3.98-.62-.01-1.24,.1-2.34,.19Zm135.23,191.58c-.57-2.32-1.78-3.49-3.66-3.81-1.88-.31-3.8-.43-5.7-.59-6.61-.55-13.07-1.66-18.32-6.1-5.06-4.28-9.24-9.27-11.62-15.59-1.01-2.69-2.32-5.26-3.39-7.93-1.55-3.85-3-7.73-4.49-11.59-1.44-3.72-2.8-7.48-4.35-11.16-.94-2.23-1.77-2.44-4.47-1.62,2.48,7.08,4.96,14.15,7.45,21.23,2.94,8.34,4.83,16.91,5.1,25.75,.23,7.52-2.53,13.7-8.85,18.12-4.19,2.93-8.3,5.97-12.4,9.02-.69,.52-1.2,1.29-1.96,2.13,4.45,2.74,8.93,3.46,13.64,2.67,2.51-.42,4.98-1.14,7.42-1.9,8.68-2.72,17.36-5.48,26.01-8.31,7.01-2.3,13.67-5.32,19.62-10.3Zm-257.41,8.89l-.28,1.08c1.48,1.17,2.84,2.55,4.46,3.47,2.49,1.41,5.11,2.59,7.75,3.72,8.13,3.47,16.78,5,25.36,6.83,6.91,1.48,13.88,2.01,20.93,1.83,3.73-.09,7.17-1.02,10.33-2.99-.25-2.73-2.27-3.46-4.1-4.39-2.55-1.3-5.13-2.55-7.62-3.96-2.36-1.33-4.52-3.03-6.95-4.21-4.17-2.03-5.71-5.32-5.37-9.74,.12-1.55,.23-3.09,.35-4.75-1.92-.6-3.56-1.11-5.35-1.68-.69,1.35-1.19,2.51-1.86,3.57-3.04,4.85-7.04,8.17-13.09,8.43-3.18,.14-6.37,.4-9.54,.78-5.02,.59-10.02,1.33-15.03,2ZM281.28,14.25c1.77,.93,2.8,1.58,3.9,2.03,8.86,3.67,18.05,6.18,27.47,7.98,7.43,1.41,14.85,1.78,22.33,.84,1.88-.23,3.72-.79,5.55-1.32,.68-.2,1.52-.53,1.31-1.81-1.63-.81-3.43-1.28-5.31-1.6-4.71-.79-9.42-1.61-14.11-2.48-8.92-1.66-17.75-3.83-26.82-4.61-4.53-.39-9.06-.57-14.31,.97ZM413.09,3.58c-8.89,.89-16.78,1.95-24.31,4.6-9.92,3.49-19.73,7.28-29.58,10.96-1,.37-1.94,.91-3.18,1.5,.65,.27,.9,.47,1.14,.45,1.11-.08,2.22-.21,3.33-.33,9.7-1.11,19.05-3.82,28.41-6.44,5.06-1.42,10.07-3.06,15.02-4.82,3.11-1.11,6.27-2.32,9.17-5.94Zm11.69,157.06c-2.57,2.97-5,5.68-7.3,8.49-.56,.69-.96,1.67-1.04,2.55-.19,2.12,.46,4.11,1.6,5.89,2.06,3.21,5.99,3.05,7.58-.4,.99-2.16,1.64-4.47,2.41-6.73,.1-.29,.12-.65,.04-.93-.84-3.03-1.61-6.1-3.3-8.87Zm22.6-30.76c-1.88-.09-3.33-.04-4.73-.26-1.41-.22-2.76-.79-4.16-1.07-4.58-.92-7.19,.62-9.16,5.45,6.68,2.02,13.37,3.21,20.47,1.66-.88-2.1-1.61-3.84-2.42-5.78Zm-171.53,16.26c-1.54-3.59-3.72-5.09-6.74-5.79-4.02-.93-7.97-2.11-12.18-1.9-1.41,.07-2.85-.25-4.25-.5-3.69-.66-7.37-.51-11.08-.05,5.55,1.41,11.08,2.84,16.7,3.61,5.84,.8,11.17,3.41,17.56,4.62Zm138.09,7.67c0,2.71,.18,4.76-.05,6.76-.27,2.44-1.55,4.49-3.25,6.26-.84,.87-1.62,1.79-1.47,3.23,5.87-1.57,11.38-7.43,13.3-14.04-2.79-.93-5.43-2.44-8.54-2.21ZM139.87,221.06c-.86,.25-1.46,.34-1.99,.6-1.12,.53-2.2,1.15-3.42,1.8,.91,5.01,1.63,9.86,3.86,14.31,.31,.63,1.03,1.05,1.74,1.74,1.37-1.92,1.39-3.79,1.44-5.66,.1-4.27-.42-8.45-1.63-12.78ZM413.24,115.06c1.37,5.89,3.39,11.32,4.95,17.08,1.59,.1,2.95,.18,4.45,.27-1.18-4.1-2.28-7.87-3.35-11.65-.56-1.98-1.05-3.98-1.66-5.94-.12-.38-.65-.63-1.01-.96-1.06,.38-2.07,.74-3.38,1.21ZM138.31,246.27q2.07-1.68,2.89-3.88c-2.5,.19-3.92-1.39-4.86-3.29-.98-1.98-1.68-4.12-2.31-6.25-.63-2.13-.98-4.35-1.53-6.51-.2-.77-.61-1.49-1.76-1.24-.13,.38-.49,.85-.41,1.22,1.14,4.96,2.23,9.93,3.59,14.83,.6,2.14,1.91,4.02,4.38,5.11Zm316.35-83.04c.01-.32,.02-.65,.03-.97-3.75-1.12-7.52-2.24-11.4-2.79-2.01-.28-3.76,.61-4.53,2.76-.32,.9-.97,1.76-1.02,2.66-.05,1,.41,2.02,.73,3.38q2.48-3.76,6.21-4.08c3.33-.3,6.65-.63,9.98-.95Zm-42.95-38.58c-2.61,2.31-4.92,4.24-7.08,6.31-.98,.94-1.23,2.19-.26,3.38,3.36-.96,6.67-1.91,9.99-2.86,.13-2.55-.83-4.46-2.65-6.83Zm-124.27,8.63c1.09,.93,1.9,1.66,2.75,2.32,.2,.15,.58,.07,1.11,.11,.67-3.36,1.41-6.73,2.01-10.13,.32-1.85-.14-2.12-3.21-2.12-.88,3.23-1.77,6.52-2.67,9.82Zm-158.08,88.24c.46-.15,.64-.16,.76-.25,.25-.18,.69-.44,.66-.61-.95-5.93-1.94-11.85-3.09-18.76-.2,7.27-.31,13.52,1.66,19.62Zm146.63-37.72c-2.1,2.74-5.46,4.86-4.3,9.04,.88,.14,1.62,.26,2.62,.42,.6-3.37,1.14-6.42,1.68-9.47Zm245.34,48.74c-2.95,1.94-1.61,4.58-1.57,7.06h3.34c0-1.33-.28-2.51,.06-3.46,.71-2.02-.33-2.86-1.82-3.59Zm-243.59-57.27c-1.47-1.13-2.76-2.12-4.05-3.11-.09,1.04,.29,1.61,.76,2.1,1.24,1.27,2.11,2.69,2.01,4.55,0,.16,.09,.33,.15,.52,.35-1.26,.68-2.45,1.13-4.06Zm150.05,4.65c2.47,1.22,2.94,1.31,3.39,.83,.81-.88,.32-1.77,0-2.62-.22-.58-.54-1.14-.9-1.64-.12-.16-.52-.11-.96-.18-.46,1.1-.94,2.23-1.52,3.61Zm-28.36-35.97c.23-1.72,.69-3.08-.18-4.39-2.74,1.62-2.73,2.38,.18,4.39Zm36.35,16.65c.32-.24,.52-.32,.54-.42,.1-.53,.29-1.11,.15-1.59-.07-.24-.76-.3-1.17-.45-.08,.51-.23,1.02-.21,1.53,0,.24,.33,.47,.69,.94Zm-168.37,30.56c.24-.13,.49-.26,.73-.39-.2-.16-.43-.49-.59-.46-.34,.07-.64,.32-.95,.5,.27,.12,.53,.23,.8,.35Z"/><path d="M526.54,232.36c-.07-1.41-.07-2.83-.23-4.22-.32-2.83-.35-2.83,2.47-5.19-.51-.73-1.03-1.47-1.59-2.26-.27-1.74,.95-2.86,1.92-4.1-1.81-1.06-1.57-2.62-.86-4.1,.61-1.26,1.5-2.38,2.38-3.75-.23-.61-.44-1.37-.79-2.05-.6-1.15-.48-2.31,.43-3.05,1.7-1.39,1.81-3.17,1.75-5.1-.02-.79,0-1.59,.15-2.36,.22-1.04,1.5-1.84,2.55-1.74,1.01,.1,1.91,1.29,1.62,2.5-.25,1.03-.82,2-1.37,2.93-.39,.67-.98,1.22-1.41,1.74,.55,2.81,.51,2.8-.56,6-.29,.86-.61,2.02-.26,2.71,1.44,2.82,.26,4.88-1.6,6.81,.36,1.41,.71,2.75,1.08,4.21-1.28,1.82-2.16,3.63-1.84,6.12,.34,2.62-1.38,4.25-3.97,4.8,0,0,.1,.1,.1,.1Z"/><path d="M471.85,118.3c.4,.44,.95,.82,1.17,1.34,3.29,7.76,6.47,15.57,8.48,23.79,.17,.71,.2,1.46-.02,2.29-2.03-2.32-3.39-5-4.33-7.78-1.93-5.72-3.55-11.55-5.23-17.35-.21-.72,0-1.57,.01-2.36,0,0-.09,.07-.09,.07Z"/><path d="M340.36,12.73c-6.59-2.63-13.17-8.17-15.1-12.21,.27-.06,.66-.27,.8-.17,4.24,3.3,8.47,6.63,12.66,9.99,.44,.36,.68,.97,1.63,2.39Z"/><path d="M343.9,.55c2.42,3.77,2.69,7.96,2.28,12.9-2.47-1.93-1.71-4.32-2.17-6.28-.49-2.1-.81-4.23-1.2-6.35,.36-.09,.72-.17,1.09-.26Z"/><path d="M354.34,12.7c-.14-4.36,1.28-8.16,4.12-12.7,.12,1.74,.34,2.38,.17,2.88-1.16,3.37-2.05,6.86-4.29,9.82Z"/><path d="M534.84,193.02c-1.06-1.6-1.28-2.97-.58-4.26,.31-.57,1.1-1.05,1.77-1.22,.71-.18,1.47,1.11,1.35,2.08-.14,1.17-.2,1.24-2.54,3.4Z"/><path d="M467.26,140.28c1.59,.47,2.65,1.46,3.21,3.57-2.05-.73-2.59-2.18-3.21-3.57Z"/><path d="M445.85,145.07c-.16,1.01-.29,1.81-.42,2.61-.83-.95-1.13-1.82,.42-2.61Z"/><path d="M440.18,144.65v2.66q-1.26-.95,0-2.66Z"/><path d="M442.32,145.07c-.11,.9-.21,1.79-.32,2.69-.2,0-.39-.02-.59-.03-.06-.87-.12-1.73-.18-2.6l1.09-.06Z"/><path d="M429.65,112.49c.9,.06,.85,.63,.66,1.25-.03,.09-.24,.12-.37,.18-.13-.37-.29-.74-.38-1.12-.03-.11,.13-.26,.2-.39,0,0-.11,.08-.11,.08Z"/><path d="M471.93,118.23c-.19-.16-.4-.3-.57-.48-.03-.04,.07-.2,.11-.31,.13,.29,.25,.57,.38,.86,0,0,.09-.07,.09-.07Z"/><path d="M221.7,143.33c.2,3.13-1.52,5.44-1.44,8.1-1.29-.23-1.35-1.09-1.32-1.85,.11-2.51,.46-3.24,2.75-6.24Z"/><path d="M222.48,197.65c-2.9-3.24-3.01-3.52-2.69-6.8,2.01,3.08,2.29,3.78,2.69,6.8Z"/><path d="M277.01,131.08c-.4,.97-.76,1.81-1.15,2.75-.52-.29-.92-.7-1.31-.69-.82,.03-1.32-.25-1.08-1.02,.15-.48,.72-1.04,1.2-1.16,.66-.17,1.41,.05,2.35,.12Z"/><path d="M290.51,170.07c1.67-.5,2.82-2.31,4.84-1.89,0,0-.05-.06-.05-.06q-1.99,2.16-5.46,3.59c.32-.73,.53-1.23,.75-1.72l-.08,.09Z"/><path d="M267.56,151.74c-.45,1.14-.91,2.28-1.41,3.53-1.28-1.41-.72-2.83,.13-4.01,.63-.88,.99-.05,1.18,.59,0,0,.1-.11,.1-.11Z"/><path d="M268.46,155.62c-1.59-1-.92-2.51-.9-3.88,0,0-.1,.11-.1,.11,.52-.27,1.03-.55,1.76-.93,.05,.68,.08,1.26,.12,1.84l.08-.05c-.34,1.01-.69,2.02-1.03,3.02l.06-.1Z"/><path d="M268.32,174.59c-.36,1.64-.73,3.29-1.14,5.15q-.86-2.58,1.22-5.04s-.08-.1-.08-.1Z"/><path d="M219.46,124.97c-1.5-.64-2.17-1.58-1.35-3.57,.57,1.5,.96,2.53,1.35,3.57Z"/><path d="M272.17,126.68c.09,.73,.24,1.45,.24,2.18,0,.57-.17,1.14-.37,2.28-1.13-1.89-.79-3.16,.13-4.46Z"/><path d="M269.34,152.75c1.12,1.39,1.31,2.33,.41,3.38-.63,.73-.98-.03-1.29-.51,0,0-.06,.1-.06,.1,.34-1.01,.69-2.01,1.03-3.02,0,0-.08,.05-.08,.05Z"/><path d="M219.22,172.88c.08-.78,.16-1.56,.24-2.34,.23,0,.46,.01,.69,.02,.04,.8,.08,1.61,.11,2.41-.35-.03-.7-.06-1.04-.1Z"/><path d="M257.83,195.39c.96,1.47,.22,2.07-1.01,3.16,.43-1.34,.67-2.1,1.01-3.16Z"/><path d="M270.83,201.46c.13,.26,.36,.51,.38,.77,.02,.25-.18,.52-.28,.78-.19-.28-.49-.54-.54-.85-.03-.2,.28-.47,.44-.7Z"/><path d="M254.58,195.44c.12,.26,.34,.53,.32,.77-.02,.24-.29,.47-.45,.7-.12-.26-.34-.52-.32-.76,.02-.25,.29-.47,.45-.7Z"/><path d="M269.83,180.37c-.19-1.55-.25-1.97-.3-2.39,.23-.01,.47-.03,.7-.04-.07,.43-.14,.87-.4,2.43Z"/><path d="M248.74,126.28c.09,.26,.2,.51,.24,.78,.01,.08-.2,.19-.31,.28-.09-.26-.2-.51-.24-.78-.01-.07,.2-.18,.32-.27Z"/><path d="M290.59,169.98c-.38-.11-.76-.21-1.14-.32,.71-.79,.9-.22,1.06,.41,0,0,.08-.09,.08-.09Z"/><path d="M330.69,93.04c-.68,5.57-3.45,9.95-7.29,13.72-2.39,2.34-4.93,4.54-7.42,6.78-.47,.42-1,.82-1.56,1.11-5.77,3.01-11.98,4.21-18.44,4.32-10.72-2.19-20.46-6.19-27.63-14.93-.6-.74-1.24-1.49-1.64-2.34-1.55-3.32-3.2-6.62-4.45-10.06-.8-2.21-1.17-4.63-1.34-6.98-.15-2.06,.73-2.8,2.73-3.22,3.15-.65,6.27-.7,9.49-.29,11.4,1.46,22.79,2.91,34.04,5.29,6.08,1.29,12.18,2.52,18.25,3.88,1.97,.44,4.16,.66,5.25,2.73Zm-48.44,17.87c.08-.25,.3-.6,.2-.74-.13-.19-.49-.22-.75-.32-.07,.2-.25,.51-.17,.59,.18,.21,.47,.31,.72,.46Zm5.11-13.8c-.03-.11-.05-.23-.08-.34-.09,.03-.25,.05-.25,.08,0,.11,.04,.23,.07,.34,.09-.03,.17-.06,.26-.08Zm25.95,13.98c.13,.03,.27,.1,.39,.09,.06,0,.09-.18,.14-.28-.13-.03-.27-.1-.39-.08-.06,0-.09,.18-.14,.28Zm-17.13-17.15c.11-.06,.22-.11,.33-.17-.09-.09-.21-.26-.25-.24-.15,.07-.28,.2-.41,.3,.11,.04,.22,.07,.33,.11Z"/><path d="M404.82,67.35c.79-.05,1.58-.1,2.39-.15,.3-.8,.56-1.52,.9-2.41,5.9-2.14,12.12-3.53,18.32-4.98,1.35-.32,2.89-.2,4.26,.1,1.79,.39,2.82,1.41,3.18,3.58,1.07,6.55,1.04,12.99-.38,19.47-.56,2.56-1.7,4.78-3,6.98-3.11,5.29-6.84,10.07-11.93,13.58-8.09,5.59-16.56,6.12-25.3,1.52-6.11-3.22-11.71-7.24-16.9-11.73-4.38-3.79-7.88-8.39-9.07-14.32-.09-.46-.12-.94-.14-1.42,0-.15,.1-.3,.33-.93,11.34-6.48,23.9-10.04,37.56-11.33-.06,.93-.1,1.52-.14,2.12-.5,.07-1,.13-1.49,.2,.06,.15,.12,.29,.17,.44,.41-.24,.83-.48,1.24-.72Z"/><path d="M424.28,232.19c.43-.36,.64-.67,.86-.68,7.36-.38,14.29-3.05,21.54-4.05,.09-.01,.2,.2,.55,.58-2.35,2.06-5.31,2.69-8.11,3.51-4.3,1.25-8.69,2.14-13.21,1.57-.54-.07-1.02-.57-1.63-.93Z"/><path d="M237.21,225.39c4.72,3.98,10.06,6.17,15.66,7.46,5.56,1.28,11.27,1.87,17.4,2.84-.82,.55-1.33,1.17-1.9,1.24-10.14,1.12-19.69-.84-28.55-5.87-1.32-.75-2.32-2.09-3.38-3.24-.26-.28-.22-.91-.17-1.36,.03-.25,.38-.45,.94-1.06Z"/><path d="M259.28,223.95c1.15-.82,1.71-1.55,2.24-1.53,2.78,.13,5.53,.5,7.67,3q-3.37,.52-9.91-1.48Z"/></svg>