<?xml version="1.0" standalone="no"?>
<!DOCTYPE svg PUBLIC "-//W3C//DTD SVG 20010904//EN"
 "http://www.w3.org/TR/2001/REC-SVG-20010904/DTD/svg10.dtd">
<svg version="1.0" xmlns="http://www.w3.org/2000/svg"
 width="280.000000pt" height="222.000000pt" viewBox="0 0 280.000000 222.000000"
 preserveAspectRatio="xMidYMid meet">

<g transform="translate(0.000000,222.000000) scale(0.100000,-0.100000)"
fill="#000000" stroke="none">
<path d="M1359 1879 c-214 -22 -440 -129 -548 -257 -47 -57 -91 -149 -120
-255 -16 -56 -21 -102 -21 -200 0 -148 9 -197 61 -333 59 -153 105 -213 240
-317 62 -49 132 -97 154 -107 51 -24 242 -50 361 -50 97 0 206 17 289 45 103
35 243 151 327 270 104 147 128 274 101 532 -21 197 -86 320 -244 467 -73 68
-177 126 -309 175 -48 17 -184 43 -207 40 -4 -1 -42 -5 -84 -10z m165 -34
c115 -20 162 -39 285 -116 110 -68 218 -170 265 -251 30 -51 81 -211 97 -306
7 -39 9 -110 6 -172 -5 -98 -9 -114 -53 -215 -44 -104 -52 -115 -143 -205
-166 -165 -253 -196 -547 -194 -201 1 -263 12 -333 54 -50 31 -33 33 39 3 56
-22 83 -26 210 -30 123 -4 159 -2 240 16 98 22 238 81 266 113 30 33 10 28
-78 -17 -95 -50 -170 -70 -311 -85 -107 -11 -234 0 -307 27 -85 31 -185 98
-261 175 -86 86 -123 159 -159 310 -52 226 -45 357 28 527 46 105 106 176 200
237 68 44 217 100 307 115 39 6 88 15 110 19 22 4 43 8 46 9 4 1 45 -6 93 -14z"/>
<path d="M1350 1783 c-131 -20 -253 -84 -350 -182 -71 -71 -150 -195 -150
-232 0 -8 15 13 33 47 100 186 277 320 454 345 74 11 192 7 241 -7 12 -3 22
-2 22 3 0 23 -162 40 -250 26z"/>
<path d="M1353 1665 c-155 -28 -330 -147 -407 -278 -103 -174 -100 -421 5
-590 74 -117 166 -204 266 -249 64 -28 203 -42 283 -27 72 13 180 62 252 114
56 41 160 163 187 220 31 66 63 224 56 272 -8 56 -58 195 -89 248 -43 73 -154
183 -230 227 -66 39 -185 79 -231 77 -11 0 -52 -7 -92 -14z m188 -31 c139 -41
296 -171 356 -294 52 -107 73 -183 73 -259 0 -249 -225 -500 -476 -533 -43 -5
-110 -7 -149 -4 -156 13 -314 133 -394 299 -23 46 -41 90 -41 98 0 8 9 -5 19
-27 33 -72 111 -182 159 -225 88 -78 151 -110 247 -123 66 -10 48 8 -23 23
-81 17 -141 53 -220 133 -78 79 -120 144 -158 244 -41 109 -27 239 39 377 44
94 89 143 185 205 144 92 268 120 383 86z m-573 -254 c-5 -17 -14 -33 -19 -36
-8 -5 4 37 17 57 11 19 12 8 2 -21z m-57 -181 c-5 -13 -10 -19 -10 -12 -1 15
10 45 15 40 3 -2 0 -15 -5 -28z"/>
<path d="M1333 1570 c-129 -19 -266 -117 -304 -219 -38 -103 -37 -441 3 -441
6 0 8 9 4 23 -26 88 -14 338 20 434 30 84 176 176 295 188 l64 6 -53 -23 c-58
-25 -172 -124 -233 -200 -56 -72 -48 -81 10 -11 69 81 172 170 228 195 74 32
183 24 268 -21 67 -35 65 -34 65 -23 0 15 -119 72 -150 72 -44 0 -90 12 -84
21 6 10 -58 10 -133 -1z"/>
<path d="M1620 1452 c19 -14 54 -46 78 -71 23 -24 42 -40 42 -36 0 22 -49 81
-89 106 -56 36 -78 37 -31 1z"/>
<path d="M1750 1454 c0 -3 13 -23 29 -43 37 -46 69 -111 88 -175 25 -83 0
-268 -42 -321 -12 -15 -11 -11 2 15 15 29 18 58 17 160 -1 135 -18 200 -73
284 -31 47 -40 32 -13 -21 61 -119 80 -288 45 -387 -22 -59 -66 -97 -217 -187
-120 -70 -121 -90 -2 -35 71 32 96 35 61 6 -9 -7 -14 -15 -11 -17 2 -2 26 12
53 31 26 20 68 50 92 68 85 63 146 246 123 372 -14 73 -59 170 -102 219 -29
34 -50 46 -50 31z"/>
<path d="M1376 1415 c-43 -23 -154 -116 -205 -172 -67 -74 -85 -122 -77 -207
3 -39 9 -84 12 -101 6 -29 6 -29 -9 -10 -20 26 -32 14 -16 -17 26 -49 74 -100
136 -145 62 -44 137 -70 149 -52 3 5 -2 9 -11 9 -28 0 -110 47 -161 93 -56 51
-69 81 -84 201 -10 79 -4 107 38 169 26 38 189 184 235 210 56 31 50 51 -7 22z"/>
<path d="M1500 1416 c-45 -12 -133 -55 -116 -56 5 0 43 12 84 26 40 14 78 24
83 22 17 -6 -66 -83 -176 -163 -105 -76 -222 -175 -209 -175 4 0 37 24 73 53
76 61 217 155 279 186 44 23 56 37 22 28 -28 -7 -25 5 10 36 33 30 39 57 13
56 -10 0 -38 -6 -63 -13z"/>
<path d="M1165 1272 c-12 -9 -27 -26 -35 -37 -8 -11 3 -4 23 14 33 32 42 41
35 41 -2 0 -12 -8 -23 -18z"/>
<path d="M1420 1215 c-35 -20 -71 -43 -80 -52 -9 -10 -1 -8 23 7 21 12 62 35
90 51 29 16 48 29 42 29 -5 0 -39 -16 -75 -35z"/>
<path d="M1545 1176 c-137 -65 -406 -238 -392 -252 2 -3 46 22 98 54 96 60
329 187 329 179 0 -2 -60 -56 -132 -120 -150 -130 -204 -184 -196 -193 4 -3
57 21 120 54 62 33 131 66 153 72 59 19 130 54 149 73 9 9 25 21 34 26 29 16
7 21 -23 5 -17 -9 -68 -31 -114 -50 -46 -19 -110 -48 -143 -65 -33 -17 -61
-29 -63 -27 -2 2 38 39 88 83 141 124 197 177 197 186 0 17 -35 8 -105 -25z"/>
<path d="M1715 980 c-19 -22 -156 -93 -308 -161 -55 -24 -94 -45 -89 -47 5 -1
51 15 102 38 52 22 96 40 99 39 3 0 -37 -22 -89 -49 -52 -27 -88 -49 -79 -49
8 -1 73 28 145 63 98 48 145 79 194 124 36 34 60 61 54 62 -6 0 -19 -9 -29
-20z"/>
<path d="M1430 690 c0 -5 4 -10 9 -10 6 0 13 5 16 10 3 6 -1 10 -9 10 -9 0
-16 -4 -16 -10z"/>
<path d="M2173 1751 c-12 -11 -28 -42 -38 -70 -34 -103 26 -264 113 -303 23
-10 42 -21 42 -24 0 -2 18 -86 39 -187 53 -245 86 -326 141 -340 22 -6 34 1
49 30 10 20 4 40 -45 150 -68 153 -124 308 -124 344 0 15 9 38 21 52 11 15 25
53 31 84 8 48 7 68 -7 117 -35 121 -161 204 -222 147z m89 -28 c51 -57 78
-101 92 -154 8 -30 15 -44 15 -32 1 31 -36 128 -55 144 -8 7 -20 22 -25 33 -5
12 8 1 30 -24 23 -25 48 -65 56 -89 16 -47 20 -105 8 -98 -5 3 -9 -10 -10 -29
-1 -18 -9 -44 -17 -56 -22 -30 -20 -93 4 -182 22 -79 77 -222 116 -298 13 -26
24 -54 24 -62 0 -27 -22 -29 -44 -5 -23 24 -66 120 -66 146 0 38 -78 343 -92
361 -6 6 -18 12 -27 12 -46 0 -111 114 -119 206 -6 74 1 107 28 134 27 27 52
25 82 -7z"/>
<path d="M446 1363 c4 -16 22 -70 41 -121 18 -51 33 -102 33 -112 0 -11 5 -20
11 -20 12 0 4 47 -17 99 -16 39 -18 59 -5 46 6 -6 24 -48 41 -95 33 -90 35
-147 5 -186 -21 -28 -19 -46 24 -152 21 -53 51 -135 66 -182 27 -82 77 -185
136 -280 17 -28 29 -63 31 -90 3 -41 1 -45 -20 -48 -38 -6 -68 32 -87 106 -51
199 -98 361 -114 392 -10 19 -24 53 -31 75 -27 85 -58 132 -102 157 -37 20
-46 32 -70 93 -28 71 -39 126 -14 69 14 -32 33 -50 43 -41 2 3 -5 26 -16 51
-11 26 -30 81 -42 124 -24 86 -38 112 -50 90 -10 -19 36 -229 68 -311 22 -57
33 -72 63 -87 28 -14 43 -32 63 -77 45 -102 67 -165 97 -283 16 -63 38 -141
49 -172 11 -32 23 -78 26 -103 9 -54 36 -92 81 -111 37 -16 77 -6 88 21 9 25
-4 95 -27 140 -11 22 -44 82 -74 134 -30 51 -65 128 -79 170 -14 42 -43 112
-63 156 -52 111 -56 130 -33 163 28 40 30 53 22 108 -8 50 -87 237 -118 280
-23 31 -34 30 -26 -3z"/>
<path d="M410 1344 c0 -36 69 -244 81 -244 15 0 10 20 -30 143 -42 127 -51
146 -51 101z"/>
<path d="M376 1313 c8 -58 52 -203 67 -221 28 -35 22 15 -16 135 -43 136 -64
170 -51 86z"/>
</g>
</svg>
