<?xml version="1.0" standalone="no"?>
<!DOCTYPE svg PUBLIC "-//W3C//DTD SVG 20010904//EN"
 "http://www.w3.org/TR/2001/REC-SVG-20010904/DTD/svg10.dtd">
<svg version="1.0" xmlns="http://www.w3.org/2000/svg"
 width="944.000000pt" height="1104.000000pt" viewBox="0 0 944.000000 1104.000000"
 preserveAspectRatio="xMidYMid meet">

<g transform="translate(0.000000,1104.000000) scale(0.100000,-0.100000)"
fill="#000000" stroke="none">
<path d="M4705 10397 c-11 -7 -54 -26 -95 -41 -41 -16 -187 -73 -323 -128
-311 -124 -512 -197 -669 -243 -230 -68 -255 -76 -274 -89 -30 -22 -3 -42 78
-55 77 -13 202 -60 243 -93 14 -11 37 -42 51 -70 l25 -50 44 6 c52 8 70 -6 86
-68 11 -43 11 -43 64 -49 71 -7 113 -31 131 -73 16 -38 28 -41 70 -19 50 26
100 19 180 -25 l73 -41 -42 -122 -42 -122 -55 1 c-30 0 -215 6 -410 12 -558
18 -823 15 -1196 -14 l-90 -7 -70 99 c-39 55 -130 187 -203 294 -236 350 -267
390 -299 390 -11 0 -43 -18 -71 -40 -44 -35 -51 -45 -51 -76 0 -19 7 -49 16
-67 25 -48 155 -240 406 -599 l18 -27 -57 -11 c-95 -19 -275 -71 -315 -91 -51
-26 -72 -59 -63 -101 4 -18 32 -78 63 -133 144 -259 304 -444 632 -730 74 -64
165 -144 201 -176 62 -54 156 -176 144 -187 -2 -3 -15 3 -27 12 -143 103 -238
125 -336 79 -48 -23 -72 -66 -72 -131 0 -59 38 -138 197 -412 220 -379 322
-572 305 -578 -34 -11 -96 -69 -122 -114 -25 -45 -30 -63 -30 -124 0 -44 8
-94 20 -131 l20 -61 -34 -51 c-80 -118 -83 -196 -21 -536 43 -233 64 -538 40
-565 -56 -65 -71 -168 -37 -255 54 -137 142 -243 374 -452 128 -116 344 -283
366 -283 11 0 13 -25 9 -122 -2 -68 -7 -148 -11 -178 -3 -30 -9 -80 -12 -110
-12 -105 -67 -214 -158 -308 -77 -80 -130 -109 -276 -148 -294 -78 -482 -148
-533 -200 -51 -51 -28 -114 59 -157 49 -25 178 -56 324 -78 107 -16 204 -22
465 -26 406 -7 658 10 956 62 125 22 326 116 342 160 10 24 8 64 -3 85 -24 45
-145 96 -355 151 -199 52 -299 100 -385 188 -58 59 -69 77 -92 146 -15 44 -31
107 -37 140 -13 73 -25 215 -19 215 2 0 47 -28 101 -62 53 -35 139 -88 192
-118 53 -30 119 -77 148 -105 51 -49 252 -270 396 -433 137 -157 374 -488 774
-1082 279 -413 334 -492 517 -736 74 -100 208 -280 298 -400 183 -247 261
-338 279 -326 25 16 -45 126 -320 504 -310 424 -532 739 -740 1050 -459 684
-606 881 -887 1193 -241 267 -322 342 -445 414 -60 35 -158 95 -216 133 -89
58 -108 74 -113 100 -7 37 -8 803 -1 810 3 3 25 -1 48 -9 23 -8 76 -17 117
-20 72 -5 77 -4 109 23 32 27 33 30 28 85 -4 44 -18 82 -58 159 -61 116 -109
170 -190 210 -48 25 -57 34 -62 63 -3 18 -2 48 1 65 l7 32 45 -24 c65 -35 146
-56 209 -56 132 1 204 86 154 183 -51 100 -270 345 -369 413 l-54 37 0 69 c0
37 3 68 8 68 4 0 39 -7 77 -15 89 -19 161 -19 214 0 38 13 42 13 59 -4 9 -10
60 -44 112 -75 52 -30 100 -59 107 -63 9 -6 9 -28 -2 -93 -23 -139 -27 -179
-20 -212 10 -44 19 -23 45 107 12 61 26 126 31 146 l9 36 67 -23 c127 -44 139
-26 24 35 l-79 43 -1 75 c-2 123 -38 242 -142 470 -89 195 -104 271 -96 493 8
222 39 331 118 407 74 72 127 62 154 -29 8 -28 22 -117 30 -197 28 -261 47
-348 110 -485 15 -32 25 -59 23 -59 -51 -25 -78 -42 -78 -49 0 -18 29 -19 60
-3 25 13 35 14 44 5 8 -9 2 -19 -27 -43 -20 -18 -37 -35 -37 -39 0 -14 45 -9
67 7 22 15 23 13 107 -157 47 -95 112 -224 145 -287 157 -300 278 -719 302
-1041 5 -69 14 -188 19 -265 13 -168 23 -193 163 -403 209 -311 671 -859 958
-1137 330 -318 740 -679 1124 -990 298 -240 569 -475 831 -720 199 -185 280
-257 325 -284 45 -27 56 -24 39 11 -20 38 -392 409 -570 567 -172 153 -212
187 -701 593 -163 135 -343 287 -400 338 -588 521 -899 837 -1230 1255 -249
314 -362 469 -430 590 l-33 59 -7 191 c-7 204 -18 300 -50 465 -68 344 -143
554 -324 905 -62 121 -132 263 -155 315 -23 52 -60 133 -82 180 -74 157 -105
289 -123 535 -11 136 -40 230 -82 268 -31 27 -85 32 -133 13 l-41 -16 7 22
c21 66 81 196 116 250 26 40 136 158 302 323 263 261 400 418 518 596 112 168
131 227 81 252 -69 34 -469 93 -805 118 -106 8 -168 17 -168 24 0 6 17 62 38
125 45 134 56 144 142 135 65 -7 91 -22 126 -75 31 -46 44 -49 87 -16 29 22
54 30 83 27 6 0 29 -26 49 -56 21 -30 43 -55 48 -55 6 0 25 12 44 26 18 14 59
37 90 51 52 24 62 25 157 19 98 -6 103 -5 136 19 43 32 75 32 185 0 96 -28
117 -24 98 17 -10 22 -142 175 -257 298 -83 89 -183 212 -336 415 -252 333
-279 365 -309 365 -15 0 -35 -6 -46 -13z m93 -187 c13 -45 97 -274 210 -570
49 -129 92 -245 96 -256 6 -19 -4 -26 -72 -61 l-79 -40 -36 55 c-26 40 -38 72
-42 111 -30 279 -61 527 -85 677 -11 66 -20 124 -20 129 0 18 18 -11 28 -45z
m-194 -17 c-166 -287 -433 -681 -473 -697 -7 -4 -30 9 -52 28 -28 26 -54 38
-98 48 -44 8 -61 17 -61 28 0 8 -8 26 -17 40 -16 23 -16 24 8 39 167 110 617
459 688 535 35 38 37 32 5 -21z m-394 -99 c-199 -106 -486 -251 -519 -262 -29
-10 -42 -8 -105 17 -39 16 -77 31 -85 33 -7 2 60 26 150 53 148 43 447 142
589 194 89 33 82 24 -30 -35z m154 5 c-10 -12 -38 -36 -60 -53 -23 -17 -117
-90 -210 -161 -214 -165 -220 -169 -274 -187 l-45 -14 -26 52 -27 52 32 13
c114 45 548 262 591 296 37 29 44 29 19 2z m639 -179 c45 -78 211 -336 285
-440 56 -80 67 -128 27 -122 -11 2 -50 6 -87 9 l-66 5 -22 67 c-12 36 -46 127
-75 201 -29 74 -67 178 -85 230 -18 52 -46 124 -61 159 -58 129 -28 90 84
-109z m-343 -146 c-17 -131 -33 -250 -35 -264 -2 -14 -4 -34 -4 -46 -1 -19 -7
-21 -71 -20 -39 1 -70 5 -70 11 0 15 63 216 102 330 63 177 102 271 106 249 1
-11 -11 -128 -28 -260z m-85 190 c-13 -38 -56 -175 -95 -304 -39 -129 -73
-237 -75 -239 -2 -2 -26 11 -52 28 -26 18 -67 37 -90 44 -43 11 -52 20 -32 33
20 12 183 238 273 377 49 76 90 136 92 134 2 -1 -7 -34 -21 -73z m199 -100
c46 -279 68 -468 57 -472 -6 -2 -32 -14 -58 -27 -25 -13 -50 -22 -55 -19 -16
10 -48 83 -48 110 0 15 11 108 25 208 14 100 30 220 36 269 7 48 13 86 15 84
2 -2 15 -71 28 -153z m399 -86 c30 -40 116 -138 190 -218 l135 -145 -51 -5
c-29 -3 -55 -4 -59 -3 -3 2 -23 33 -43 69 -20 36 -61 102 -92 147 -30 45 -63
98 -74 117 -11 19 -30 52 -44 73 -41 60 -22 43 38 -35z m-3203 23 c0 -15 -28
-33 -40 -26 -8 5 -8 11 1 21 13 15 39 19 39 5z m74 -73 c44 -59 46 -65 46
-130 0 -37 -4 -68 -9 -68 -17 0 -141 176 -141 199 0 13 40 61 51 61 4 0 28
-28 53 -62z m235 -332 l72 -109 -7 -65 -7 -64 -33 39 c-18 21 -67 88 -108 148
l-75 111 11 66 11 67 32 -42 c17 -23 64 -91 104 -151z m191 -276 l53 -80 -17
-45 c-10 -25 -21 -47 -25 -50 -5 -2 -25 20 -46 50 -31 45 -38 66 -42 119 -6
66 0 101 15 92 5 -3 33 -42 62 -86z m1668 -69 c73 -5 135 -11 137 -13 2 -2
-11 -54 -30 -115 l-35 -110 -72 -7 c-241 -22 -665 -16 -1143 15 -267 17 -243
9 -324 119 -58 80 -67 96 -53 102 58 25 1168 32 1520 9z m357 -26 c245 -17
718 -82 693 -96 -61 -34 -894 -131 -906 -105 -5 8 35 144 48 168 6 10 10 25
10 33 0 12 8 15 33 11 17 -3 73 -8 122 -11z m-2100 -84 c30 -39 55 -72 55 -75
0 -14 -183 6 -410 46 -56 9 -61 12 -40 20 51 19 217 60 275 67 33 5 61 9 62
10 1 0 27 -30 58 -68z m233 -41 l35 -45 -48 -3 c-59 -4 -91 3 -98 21 -3 8 8
35 25 62 27 44 31 47 41 30 6 -11 26 -40 45 -65z m2622 -60 c-6 -11 -32 -51
-58 -88 -115 -166 -253 -324 -494 -566 -146 -147 -277 -288 -302 -325 -48 -71
-57 -90 -148 -316 -155 -385 -334 -585 -553 -616 -38 -5 -71 -11 -73 -14 -3
-2 -17 6 -33 18 -15 12 -70 47 -121 77 -177 104 -272 224 -416 524 -107 221
-145 270 -343 445 -208 185 -506 482 -577 577 -59 79 -178 282 -169 290 3 3
31 0 64 -6 108 -20 267 -40 368 -47 97 -6 101 -7 132 -40 17 -18 81 -106 142
-196 60 -89 131 -193 157 -230 25 -37 44 -70 42 -72 -2 -3 -68 1 -147 7 -123
10 -144 10 -157 -3 -13 -14 -11 -21 21 -62 20 -26 39 -47 43 -47 17 -1 207
-183 282 -270 89 -104 148 -197 242 -384 128 -256 204 -344 368 -427 58 -29
74 -33 145 -33 215 1 356 142 494 493 118 298 199 437 338 582 55 58 73 84 73
104 l0 28 -235 -6 c-174 -5 -235 -4 -235 4 0 16 30 118 96 325 l54 171 88 7
c48 4 123 9 167 12 124 8 446 51 585 78 163 32 174 32 160 6z m-2564 -70 c39
0 42 -2 66 -52 18 -35 23 -57 17 -67 -5 -9 -14 -29 -19 -45 -6 -17 -14 -25
-19 -20 -26 28 -131 177 -131 186 0 6 10 8 23 4 12 -3 40 -6 63 -6z m374 -25
c241 -19 801 -29 971 -18 69 4 132 7 141 5 13 -2 7 -29 -33 -155 -27 -84 -62
-197 -79 -253 l-30 -101 -122 -6 c-143 -8 -476 -7 -634 2 l-111 6 -167 248
c-91 137 -171 257 -176 268 -13 24 -18 24 240 4z m-157 -242 c31 -50 33 -60
10 -85 -29 -33 -57 -22 -103 38 l-42 56 17 46 c9 26 19 53 21 61 5 14 48 -38
97 -116z m124 -177 c52 -61 42 -86 -32 -86 -23 0 -41 8 -55 22 -35 38 -34 60
2 100 29 33 34 35 42 20 5 -9 24 -35 43 -56z m-211 -127 c55 -6 106 -14 111
-17 6 -4 62 -81 125 -172 176 -256 168 -247 188 -210 9 17 2 32 -41 97 l-52
77 11 54 c11 53 18 70 25 61 2 -2 36 -53 76 -113 l72 -110 -29 -23 c-34 -26
-48 -63 -25 -63 25 0 103 60 103 80 0 22 -47 107 -116 210 -28 41 -54 81 -59
89 -7 12 20 13 186 8 107 -4 290 -7 407 -7 198 0 213 -1 208 -17 -2 -10 -26
-88 -52 -173 -47 -156 -57 -211 -39 -220 16 -9 53 80 122 295 l38 120 110 6
c242 14 315 17 314 11 0 -4 -31 -34 -67 -66 -37 -32 -87 -84 -110 -115 -49
-62 -158 -279 -222 -440 -51 -129 -69 -166 -132 -266 -81 -130 -184 -195 -306
-195 -82 0 -178 48 -260 131 -79 80 -111 128 -200 302 -128 248 -243 401 -431
575 -56 51 -101 97 -101 101 0 5 10 7 23 5 12 -2 67 -8 123 -15z m315 -36 c7
-7 5 -29 -7 -70 l-17 -60 -41 61 c-23 33 -45 66 -49 72 -8 14 99 12 114 -3z
m-369 -507 c87 -51 228 -203 316 -341 211 -327 311 -470 403 -571 27 -30 49
-55 49 -57 0 -1 -54 -3 -121 -4 -116 -2 -281 -17 -325 -29 -19 -5 -32 14 -120
173 -53 98 -166 300 -251 448 -164 288 -182 329 -167 373 19 55 130 59 216 8z
m1373 -688 c1 -207 2 -216 29 -298 16 -47 51 -130 79 -185 55 -110 122 -299
132 -373 4 -26 9 -55 12 -64 7 -27 -5 -22 -96 37 -46 30 -89 56 -95 58 -7 3
-2 14 10 28 62 69 56 106 -34 192 -184 177 -266 243 -342 273 l-43 17 6 66 c3
36 11 89 17 116 10 47 15 52 76 90 76 46 152 119 209 199 22 30 40 56 40 56 0
0 0 -96 0 -212z m-664 -43 c40 -19 76 -40 81 -47 4 -7 8 -35 7 -63 l0 -50 -55
60 c-65 71 -118 135 -111 135 3 0 38 -16 78 -35z m229 -55 l45 0 -3 -106 -3
-106 -31 6 c-17 3 -45 6 -63 6 l-33 0 -7 104 c-8 118 -4 134 28 111 12 -8 42
-15 67 -15z m-88 -265 c157 -18 187 -27 250 -68 46 -31 59 -47 38 -47 -5 0
-19 -9 -30 -20 -15 -15 -20 -33 -20 -79 0 -51 4 -63 33 -99 39 -49 99 -99 147
-121 l35 -16 -62 -3 c-46 -2 -91 5 -170 27 -165 46 -223 54 -341 49 -124 -7
-187 -27 -196 -63 l-6 -23 -112 46 c-87 36 -126 47 -168 47 -30 0 -61 -2 -69
-5 -10 -4 -19 14 -32 65 -30 113 -23 163 29 218 53 56 106 72 312 92 184 17
208 17 362 0z m413 -216 c168 -126 180 -145 120 -180 -29 -16 -32 -16 -80 2
-67 25 -150 105 -164 157 -15 55 -8 70 39 81 3 0 41 -26 85 -60z m-1000 -219
c4 -6 10 -8 15 -5 4 2 57 -16 116 -41 149 -63 218 -89 364 -136 187 -60 183
-58 167 -77 -18 -20 -47 -76 -47 -91 0 -21 16 -8 50 40 19 27 41 50 48 50 22
0 114 -65 167 -120 40 -40 47 -53 36 -60 -17 -10 -41 -82 -41 -125 0 -56 20
-103 66 -154 25 -28 40 -51 34 -51 -17 0 -156 66 -189 89 -76 54 -230 121
-311 137 -105 19 -325 75 -419 105 -55 18 -74 20 -83 11 -9 -9 -8 -15 8 -28
18 -14 121 -66 155 -77 10 -3 28 -43 47 -102 34 -107 33 -115 -22 -153 -18
-12 -82 -73 -143 -135 l-111 -113 -6 44 c-3 25 -6 79 -6 121 0 42 -14 155 -30
251 -17 96 -37 213 -45 260 -27 154 -18 220 41 297 33 43 44 42 38 -4 l-5 -38
21 24 c12 14 24 37 27 52 5 24 15 33 45 38 4 0 10 -4 13 -9z m535 -56 l0 -56
-37 7 c-34 6 -161 52 -172 62 -20 16 69 40 162 42 l47 1 0 -56z m170 -46 c0
-38 -4 -68 -8 -68 -5 0 -29 7 -55 16 l-47 16 0 68 0 67 55 -16 55 -16 0 -67z
m360 -500 c39 -53 70 -106 70 -118 0 -24 -42 -44 -74 -34 -51 15 -125 110
-140 179 -7 34 8 95 26 107 15 9 21 2 118 -134z m-790 35 c14 -2 45 -11 69
-19 24 -8 77 -20 117 -26 l72 -11 4 -71 c2 -39 3 -72 2 -74 0 -1 -32 12 -70
30 -54 26 -82 33 -129 33 -33 0 -67 -4 -76 -8 -14 -7 -19 1 -29 45 -7 29 -19
68 -26 87 l-14 33 28 -7 c15 -4 38 -9 52 -12z m383 -113 l47 -24 0 -73 c0 -40
-2 -73 -5 -73 -3 0 -28 11 -55 25 l-50 25 0 76 c0 42 3 74 8 72 4 -2 28 -14
55 -28z m-13 -220 c210 -101 275 -142 253 -157 -39 -27 -57 -163 -28 -213 26
-46 33 -47 -175 30 -122 46 -253 89 -269 90 -7 0 -44 -31 -82 -69 -49 -49 -95
-83 -157 -115 -104 -54 -147 -85 -118 -86 31 0 138 30 186 52 65 31 146 93
167 128 9 17 20 29 23 27 3 -2 24 -12 48 -22 l42 -18 0 -394 0 -393 -77 57
c-132 98 -323 265 -433 380 -122 127 -178 219 -187 308 -5 52 -3 59 30 108 20
29 108 123 195 210 l159 158 7 -42 c8 -49 22 -79 38 -79 12 0 3 92 -13 121
-11 21 0 30 51 39 54 10 117 -13 340 -120z m351 -325 c36 -74 38 -81 22 -92
-27 -20 -39 -16 -73 25 -46 56 -58 104 -36 150 17 35 18 36 33 17 8 -11 33
-56 54 -100z m-326 -80 l40 -16 -1 -267 c-1 -357 11 -777 25 -882 25 -183 54
-260 135 -362 95 -119 200 -171 526 -258 96 -26 203 -71 215 -90 27 -43 -227
-128 -483 -161 -307 -39 -749 -49 -1017 -24 -200 19 -256 28 -375 60 -95 26
-140 47 -140 65 0 19 57 45 206 94 82 27 158 52 169 57 11 4 70 20 130 35 61
14 128 35 150 47 100 50 218 173 275 285 66 134 83 329 78 960 -3 525 -9 486
67 457z"/>
<path d="M2170 8653 c23 -27 65 -76 93 -111 28 -35 53 -59 55 -53 11 34 -131
211 -170 211 -16 0 -12 -8 22 -47z"/>
<path d="M4831 8494 c-26 -33 -30 -74 -5 -53 23 19 45 67 35 74 -5 3 -19 -7
-30 -21z"/>
<path d="M3395 8326 c-5 -3 -31 -7 -57 -11 -71 -9 -58 -25 20 -25 37 0 119 -5
182 -10 107 -8 289 -15 335 -11 19 2 19 2 2 15 -27 21 -445 57 -482 42z"/>
<path d="M2884 8096 c-8 -22 -2 -27 16 -16 12 7 12 12 3 21 -10 10 -14 9 -19
-5z"/>
<path d="M3805 8050 c-4 -6 -3 -16 3 -22 6 -6 12 -6 17 2 4 6 3 16 -3 22 -6 6
-12 6 -17 -2z"/>
<path d="M3400 8034 c0 -9 5 -14 12 -12 18 6 21 28 4 28 -9 0 -16 -7 -16 -16z"/>
<path d="M4180 7994 c0 -8 5 -12 10 -9 6 3 10 10 10 16 0 5 -4 9 -10 9 -5 0
-10 -7 -10 -16z"/>
<path d="M3500 7660 c0 -5 5 -10 10 -10 6 0 10 5 10 10 0 6 -4 10 -10 10 -5 0
-10 -4 -10 -10z"/>
<path d="M3340 7650 c0 -5 5 -10 10 -10 6 0 10 5 10 10 0 6 -4 10 -10 10 -5 0
-10 -4 -10 -10z"/>
<path d="M3385 7520 c-11 -17 5 -32 21 -19 7 6 11 15 8 20 -7 12 -21 11 -29
-1z"/>
<path d="M3936 7501 c-4 -5 -2 -12 3 -15 5 -4 12 -2 15 3 4 5 2 12 -3 15 -5 4
-12 2 -15 -3z"/>
<path d="M3700 7360 c0 -5 5 -10 10 -10 6 0 10 5 10 10 0 6 -4 10 -10 10 -5 0
-10 -4 -10 -10z"/>
<path d="M3830 7340 c0 -5 5 -10 10 -10 6 0 10 5 10 10 0 6 -4 10 -10 10 -5 0
-10 -4 -10 -10z"/>
<path d="M3550 7275 c0 -8 7 -15 15 -15 8 0 15 7 15 15 0 8 -7 15 -15 15 -8 0
-15 -7 -15 -15z"/>
<path d="M2992 6133 c-16 -31 -22 -72 -12 -78 9 -6 31 30 44 73 9 27 -18 31
-32 5z"/>
<path d="M3331 5353 c-14 -34 -5 -83 15 -83 15 0 19 60 5 94 -6 17 -9 16 -20
-11z"/>
<path d="M3392 4833 c-36 -53 -82 -140 -82 -157 0 -30 20 -16 56 39 28 45 64
123 64 141 0 13 -22 0 -38 -23z"/>
<path d="M3472 3199 c-51 -50 -92 -93 -92 -95 0 -2 11 -4 24 -4 16 0 46 24
100 80 68 72 92 110 68 110 -5 0 -50 -41 -100 -91z"/>
<path d="M4191 3019 c-21 -8 -23 -12 -10 -24 11 -11 33 -12 117 -5 56 5 108
13 115 17 31 19 -176 30 -222 12z"/>
<path d="M2930 2991 c0 -15 23 -20 176 -36 240 -27 564 -23 564 6 0 5 -65 9
-152 9 -84 0 -227 7 -318 15 -190 17 -270 19 -270 6z"/>
<path d="M4187 5289 c-3 -12 -2 -46 3 -76 23 -142 94 -273 208 -388 98 -99
420 -274 377 -206 -3 6 -70 53 -148 105 -78 52 -166 118 -195 147 -100 100
-184 250 -213 382 -13 60 -23 71 -32 36z"/>
<path d="M4842 4011 c-73 -75 -153 -152 -177 -171 -44 -36 -74 -80 -54 -80 23
0 129 83 199 156 90 94 182 218 168 228 -2 1 -63 -59 -136 -133z"/>
</g>
</svg>
