<?xml version="1.0" standalone="no"?>
<!DOCTYPE svg PUBLIC "-//W3C//DTD SVG 20010904//EN"
 "http://www.w3.org/TR/2001/REC-SVG-20010904/DTD/svg10.dtd">
<svg version="1.0" xmlns="http://www.w3.org/2000/svg"
 width="812.000000pt" height="888.000000pt" viewBox="0 0 812.000000 888.000000"
 preserveAspectRatio="xMidYMid meet">

<g transform="translate(0.000000,888.000000) scale(0.100000,-0.100000)"
fill="#000000" stroke="none">
<path d="M4423 8072 c-54 -29 -217 -180 -323 -299 -133 -149 -160 -170 -331
-254 -125 -63 -153 -81 -215 -143 -56 -57 -76 -85 -98 -141 -36 -91 -55 -200
-57 -335 -2 -155 -10 -240 -22 -240 -6 0 -21 10 -34 22 -13 12 -58 45 -101 73
l-77 50 -1 117 c-2 156 -8 192 -40 217 -37 29 -114 50 -209 57 -77 6 -81 6
-107 -20 -18 -19 -39 -67 -68 -159 -23 -73 -45 -138 -49 -145 -3 -7 -52 -28
-108 -47 -305 -102 -562 -310 -768 -620 -185 -278 -283 -558 -301 -857 l-7
-112 -72 -141 c-123 -241 -194 -428 -225 -595 -87 -464 -31 -982 160 -1485 75
-198 147 -327 275 -500 171 -228 384 -392 745 -575 69 -34 141 -75 160 -90
205 -159 546 -345 900 -493 516 -214 908 -315 1460 -374 237 -25 953 -26 1118
0 138 21 236 41 356 72 50 13 102 27 116 30 183 47 422 152 545 240 71 50 163
142 188 187 32 60 18 143 -29 168 -38 21 -145 5 -309 -44 -407 -123 -725 -166
-1220 -166 -403 0 -698 49 -985 162 -41 16 -79 33 -84 38 -5 5 33 54 88 113
94 101 120 132 216 267 61 86 210 232 270 264 104 57 198 54 375 -13 63 -24
126 -41 149 -41 94 1 159 59 423 380 83 102 182 222 220 266 170 203 302 381
339 459 76 158 15 253 -134 210 -125 -36 -286 -135 -429 -262 -40 -36 -77 -62
-82 -58 -6 3 -13 27 -16 53 -4 26 -18 83 -32 127 -105 331 -305 541 -610 640
l-80 26 -6 82 c-7 97 -39 223 -113 446 -30 90 -52 166 -49 170 4 3 78 -31 166
-77 339 -177 402 -157 819 253 215 212 273 265 289 265 8 0 9 -14 5 -42 -11
-78 -35 -190 -44 -207 -14 -27 -189 -118 -273 -142 -87 -25 -113 -48 -101 -93
16 -66 221 -187 345 -205 129 -18 297 18 398 85 77 50 65 90 -43 145 -77 40
-90 49 -152 109 -87 85 -86 72 -28 416 l6 31 71 -1 c87 0 137 21 218 93 96 86
134 189 105 284 -31 103 -102 156 -218 165 -45 3 -69 9 -72 19 -3 7 0 15 7 17
161 43 249 90 359 195 90 85 142 158 203 286 87 181 134 421 120 612 l-7 98
-46 45 c-93 90 -322 181 -501 199 -204 21 -451 -35 -467 -107 -3 -15 -17 -63
-30 -107 -60 -203 -82 -497 -50 -652 46 -216 105 -331 239 -470 85 -88 98
-106 93 -127 -4 -17 -17 -28 -43 -36 -103 -33 -224 -104 -388 -225 -38 -28
-117 -85 -175 -126 -58 -40 -127 -91 -155 -111 -63 -48 -126 -73 -160 -64 -33
8 -107 77 -182 169 -71 86 -207 208 -330 295 -81 57 -113 92 -84 92 5 0 42 22
82 49 79 51 175 139 227 207 33 43 93 158 107 204 22 75 55 123 154 225 59 61
125 133 147 160 63 76 143 203 156 247 10 34 9 42 -9 66 -11 15 -37 33 -59 40
-47 17 -215 20 -409 8 l-140 -8 -57 48 c-31 27 -133 114 -225 194 -92 80 -205
174 -251 209 -46 34 -87 73 -92 84 -5 12 -21 74 -34 137 -44 200 -88 308 -133
329 -30 14 -31 14 -70 -7z m69 -152 c11 -30 35 -119 54 -198 19 -78 41 -153
49 -166 9 -13 64 -61 123 -107 88 -69 302 -253 456 -392 65 -59 79 -62 221
-58 255 9 393 7 407 -7 27 -27 -78 -176 -263 -368 -119 -123 -128 -136 -159
-215 -17 -46 -48 -114 -67 -151 -75 -144 -307 -328 -414 -328 -14 0 -44 10
-180 61 -15 6 -47 9 -70 7 -36 -2 -45 -7 -47 -25 -4 -27 26 -44 118 -67 126
-32 215 -84 420 -245 98 -77 191 -168 317 -308 40 -44 88 -88 106 -97 80 -38
173 -13 297 80 370 276 600 424 659 424 27 0 26 -5 -4 -73 -32 -74 -55 -164
-55 -223 l-1 -49 -135 -125 c-75 -69 -208 -197 -297 -285 -179 -178 -259 -243
-343 -282 -90 -41 -136 -32 -324 66 -222 114 -292 154 -301 171 -5 8 -47 98
-94 200 -102 219 -138 281 -176 304 -26 15 -28 15 -37 0 -13 -24 -5 -46 83
-229 146 -301 259 -584 319 -793 43 -149 75 -297 67 -309 -3 -5 -67 -9 -141
-9 -139 0 -250 -16 -390 -54 -73 -20 -180 -80 -180 -100 0 -17 91 -11 169 10
372 103 671 69 917 -106 191 -135 344 -419 348 -644 l1 -76 -53 -71 c-44 -60
-82 -128 -82 -148 0 -3 9 -5 21 -5 31 0 102 54 156 118 180 215 413 392 581
443 37 11 45 10 59 -4 15 -15 14 -22 -20 -89 -20 -40 -78 -127 -129 -193 -151
-194 -631 -766 -681 -813 -40 -36 -53 -42 -92 -42 -27 0 -75 12 -122 31 -112
45 -169 59 -245 59 -50 0 -68 4 -68 13 0 15 103 94 205 157 194 120 216 141
217 210 1 71 -42 113 -140 136 -66 16 -148 8 -252 -27 -80 -26 -117 -44 -250
-124 -179 -108 -264 -180 -439 -375 -123 -136 -126 -138 -118 -69 48 389 29
662 -63 924 -38 107 -67 166 -128 260 -194 301 -480 511 -764 561 -137 24
-387 24 -455 1 -35 -12 -54 -25 -59 -39 -9 -30 22 -51 61 -43 17 3 85 8 151
12 141 6 301 -9 389 -39 208 -69 401 -218 560 -433 114 -154 172 -288 222
-512 23 -107 26 -138 25 -318 -1 -194 -9 -282 -47 -495 -8 -47 -22 -102 -30
-123 -18 -46 -19 -57 -2 -57 34 0 113 72 234 212 227 264 324 352 517 466 205
121 360 166 453 132 82 -31 60 -75 -82 -159 -141 -84 -243 -161 -333 -251 -72
-71 -281 -326 -344 -419 -84 -124 -263 -307 -336 -343 -40 -20 -63 -23 -152
-23 -99 0 -120 4 -350 68 -395 108 -568 137 -823 137 -200 0 -413 25 -517 59
-229 77 -566 275 -737 431 -63 58 -166 185 -244 302 -135 200 -261 522 -328
838 -67 317 -72 735 -11 1010 45 202 160 463 329 749 157 264 272 409 436 551
91 79 113 95 121 87 3 -3 -22 -105 -55 -228 -33 -123 -74 -293 -91 -378 -17
-84 -33 -157 -36 -162 -2 -5 -14 -49 -24 -98 -49 -225 -67 -490 -36 -549 52
-100 277 -218 475 -247 223 -34 349 -5 467 107 50 47 54 55 69 127 9 42 27
121 40 176 28 114 98 430 115 520 62 333 74 456 74 771 l1 292 75 4 c183 12
280 114 235 249 -26 76 -17 519 12 625 45 161 111 233 299 325 154 75 240 137
325 236 144 168 292 306 323 301 13 -2 25 -19 38 -58z m2413 -684 c141 -41
298 -126 274 -150 -3 -3 -34 -13 -70 -23 -118 -33 -340 -22 -479 24 -98 33
-220 107 -220 135 0 8 83 34 135 42 17 2 84 3 150 1 90 -3 142 -10 210 -29z
m-445 -168 c62 -38 200 -84 299 -98 109 -16 307 -8 393 16 43 11 71 15 77 9
10 -12 -4 -241 -18 -277 -9 -25 -11 -25 -103 -20 -78 4 -111 0 -199 -22 -89
-22 -129 -26 -247 -26 -123 0 -151 -3 -228 -27 -49 -14 -102 -27 -119 -27
l-30 -1 -3 85 c-4 117 37 372 70 433 9 18 11 18 36 1 15 -10 47 -30 72 -46z
m-3454 -297 c150 -50 300 -147 368 -240 43 -58 57 -120 35 -148 -25 -30 -97
-55 -160 -54 -51 0 -75 7 -163 49 -256 124 -440 118 -624 -20 -68 -51 -155
-157 -192 -234 -21 -46 -39 -67 -69 -85 -65 -40 -286 -234 -360 -319 -38 -43
-102 -126 -142 -184 -40 -58 -77 -103 -82 -99 -19 11 23 213 70 338 68 183
214 426 340 570 193 221 440 375 687 430 94 20 222 18 292 -4z m-201 -871 c82
-26 139 -55 215 -108 76 -54 81 -67 69 -187 -12 -124 -74 -491 -89 -530 l-11
-28 -47 45 c-103 100 -236 170 -387 203 -84 19 -222 17 -352 -6 -35 -6 -67 -8
-71 -5 -9 9 21 148 70 331 74 277 77 284 101 290 65 16 167 23 292 20 110 -2
155 -8 210 -25z m3969 -128 c68 -40 85 -138 38 -213 -64 -101 -205 -172 -250
-127 -23 23 -13 105 23 199 19 50 35 103 35 118 0 43 18 54 75 46 28 -3 63
-14 79 -23z m-296 -937 c34 -35 87 -79 117 -97 30 -18 55 -38 55 -44 0 -31
-170 -69 -269 -61 -94 8 -261 85 -261 120 0 7 33 24 73 39 40 15 102 45 137
67 36 22 70 40 75 41 6 0 39 -29 73 -65z m-3193 -3046 c168 -11 366 -48 586
-109 364 -102 426 -110 576 -81 l73 14 67 -31 c315 -143 730 -212 1197 -199
454 13 750 55 1070 152 260 79 306 86 306 46 0 -23 -56 -100 -100 -138 -131
-112 -352 -213 -625 -286 -342 -92 -493 -110 -925 -111 -429 -1 -739 26 -1085
95 -294 59 -526 130 -905 279 -251 98 -740 350 -740 380 0 11 268 5 505 -11z"/>
<path d="M4117 7443 c-13 -12 -7 -48 14 -82 11 -18 29 -57 40 -86 20 -54 37
-69 64 -59 24 10 27 42 9 97 -17 54 -46 103 -72 125 -17 13 -45 16 -55 5z"/>
<path d="M4225 7125 c-14 -13 -25 -33 -25 -45 0 -49 -112 -48 -181 1 -57 40
-91 0 -47 -56 28 -36 79 -57 158 -64 l64 -6 21 -60 c43 -126 145 -232 195
-205 31 17 24 38 -32 99 -53 58 -87 120 -88 158 0 16 13 31 40 48 53 33 60 65
25 107 -45 54 -91 63 -130 23z"/>
<path d="M4572 6988 c-16 -16 -15 -47 1 -53 112 -39 136 -52 180 -97 31 -32
53 -48 63 -44 9 3 18 6 20 6 12 0 1 59 -15 86 -49 80 -207 144 -249 102z"/>
<path d="M3703 6623 c-21 -8 -15 -50 12 -82 61 -72 229 -120 254 -72 14 24 -8
43 -74 65 -28 9 -78 34 -110 56 -63 41 -63 41 -82 33z"/>
</g>
</svg>
