<?xml version="1.0" standalone="no"?>
<!DOCTYPE svg PUBLIC "-//W3C//DTD SVG 20010904//EN"
 "http://www.w3.org/TR/2001/REC-SVG-20010904/DTD/svg10.dtd">
<svg version="1.0" xmlns="http://www.w3.org/2000/svg"
 width="1996.000000pt" height="800.000000pt" viewBox="0 0 1996.000000 800.000000"
 preserveAspectRatio="xMidYMid meet">

<g transform="translate(0.000000,800.000000) scale(0.100000,-0.100000)"
fill="#000000" stroke="none">
<path d="M10527 7401 c-24 -12 -36 -28 -48 -66 -14 -42 -22 -52 -50 -61 -80
-27 -93 -117 -21 -148 63 -28 67 -32 73 -72 10 -58 39 -123 60 -134 30 -17 75
-11 95 11 13 15 21 41 24 88 l5 66 67 -3 c61 -3 69 -1 93 22 31 31 34 83 5
114 -22 23 -38 29 -115 40 l-50 7 -5 52 c-3 29 -13 60 -23 71 -24 27 -72 32
-110 13z"/>
<path d="M7512 6732 c-22 -15 -33 -74 -30 -167 1 -53 -2 -90 -7 -90 -6 0 -29
11 -53 23 -36 19 -55 22 -120 20 l-77 -3 -3 -30 c-4 -44 32 -93 104 -140 l62
-41 -27 -34 c-25 -32 -162 -263 -210 -355 -12 -22 -21 -52 -21 -67 0 -24 4
-28 29 -28 26 0 44 18 140 133 116 140 195 227 205 227 3 0 6 -17 6 -37 2
-117 36 -173 106 -173 59 0 84 32 84 106 0 30 3 54 6 54 4 0 21 -13 39 -29 39
-34 132 -71 179 -71 45 0 76 34 76 86 0 61 -62 115 -228 199 -51 26 -92 50
-92 55 0 4 16 27 36 51 70 84 83 141 39 184 -27 28 -58 31 -95 10 -36 -20 -37
-20 -44 28 -4 23 -14 52 -24 64 -19 24 -60 37 -80 25z"/>
<path d="M14883 6315 c-61 -26 -67 -47 -60 -218 3 -84 10 -169 16 -190 5 -20
6 -39 2 -41 -4 -3 -58 42 -120 100 -122 113 -154 134 -199 134 -23 0 -32 -6
-42 -30 -22 -53 -8 -77 133 -233 37 -41 67 -77 67 -80 0 -3 -56 -7 -124 -8
-115 -4 -126 -6 -150 -28 -19 -18 -26 -35 -26 -61 0 -73 63 -106 227 -117 46
-3 86 -10 89 -15 3 -5 -21 -37 -54 -71 -97 -100 -185 -221 -197 -270 -13 -50
28 -87 77 -68 14 5 95 80 181 167 85 86 159 154 164 151 6 -4 13 -45 17 -92
10 -123 30 -182 69 -205 80 -49 197 5 197 90 0 32 15 24 67 -36 52 -62 111
-104 143 -104 39 0 78 28 90 66 20 60 -5 106 -130 236 -60 62 -110 114 -110
114 0 1 65 -1 144 -3 136 -6 144 -5 164 15 28 28 37 66 26 110 -16 61 -43 73
-208 85 -80 6 -146 14 -146 17 0 10 116 101 220 173 52 36 105 76 118 90 46
49 22 130 -42 142 -41 8 -109 -24 -188 -88 -115 -93 -200 -157 -209 -157 -5 0
-9 21 -9 48 0 79 -38 313 -56 339 -15 24 -70 53 -96 53 -7 -1 -27 -7 -45 -15z"/>
<path d="M2617 6020 c-33 -26 -47 -75 -47 -162 0 -82 -13 -87 -61 -26 -66 83
-164 122 -202 80 -37 -41 -15 -82 124 -233 49 -53 86 -99 83 -101 -3 -3 -44
-3 -92 0 -74 4 -90 8 -108 28 -69 73 -189 15 -189 -91 0 -76 56 -113 188 -122
42 -3 77 -10 77 -14 0 -5 -28 -39 -62 -75 -82 -87 -118 -141 -118 -181 0 -34
27 -68 63 -79 36 -11 108 38 191 133 45 50 87 91 94 92 8 1 12 -16 12 -51 1
-29 5 -115 9 -191 8 -124 11 -141 32 -163 30 -32 78 -40 117 -20 48 25 58 72
44 204 -19 183 -24 272 -16 271 5 0 53 -50 107 -110 105 -116 143 -139 192
-117 62 28 47 107 -38 207 -59 69 -60 81 -4 81 63 0 110 27 120 70 11 50 -5
88 -46 105 -19 8 -84 18 -146 22 l-111 8 75 85 c137 153 190 277 138 317 -37
29 -125 -17 -218 -113 -40 -41 -75 -74 -78 -74 -4 0 -7 27 -7 61 0 147 -52
214 -123 159z"/>
<path d="M12097 5812 c-14 -15 -17 -41 -17 -140 0 -67 -3 -122 -7 -122 -5 0
-54 23 -109 52 -91 47 -104 51 -128 40 -19 -9 -26 -19 -26 -41 0 -32 33 -65
143 -143 37 -27 67 -54 67 -62 0 -7 -35 -46 -77 -87 -176 -166 -165 -207 27
-100 58 33 106 58 108 56 1 -1 5 -40 9 -86 3 -46 12 -99 20 -116 13 -29 20
-33 52 -33 60 0 79 29 87 132 l7 87 86 -44 c86 -43 100 -48 134 -46 21 1 57
57 57 88 0 34 -55 89 -129 130 -36 20 -68 38 -70 39 -9 7 25 35 107 90 100 67
188 150 198 188 3 14 3 37 0 51 -6 22 -12 25 -49 25 -59 0 -123 -34 -236 -125
-52 -41 -97 -75 -101 -75 -4 0 -10 34 -13 76 -8 85 -35 157 -65 173 -30 16
-57 13 -75 -7z"/>
<path d="M17774 5762 c-23 -15 -34 -53 -34 -116 0 -36 -4 -68 -10 -71 -5 -3
-43 10 -84 31 -123 60 -199 56 -182 -12 7 -28 19 -41 111 -122 l59 -52 -90
-93 c-126 -130 -141 -147 -158 -189 -14 -34 -14 -38 3 -59 16 -20 21 -21 51
-11 41 15 124 69 212 139 37 29 69 53 71 53 3 0 7 -40 9 -90 3 -100 17 -124
74 -136 48 -9 81 26 96 101 7 33 13 62 14 64 2 2 29 -19 61 -46 112 -96 157
-111 208 -71 25 20 27 25 23 77 -5 52 -8 58 -58 103 -30 26 -89 74 -132 105
-83 62 -93 82 -53 109 37 24 85 103 85 138 0 18 -7 42 -16 55 -14 19 -23 22
-58 19 -22 -3 -49 -8 -58 -12 -15 -7 -18 -3 -18 21 0 48 -25 73 -73 73 -23 0
-47 -4 -53 -8z"/>
<path d="M9575 5495 c-262 -34 -520 -138 -721 -291 -283 -215 -440 -451 -626
-944 -103 -272 -127 -512 -88 -875 45 -414 232 -812 510 -1083 213 -209 413
-313 744 -384 90 -19 132 -22 376 -22 335 -1 493 17 745 86 125 34 235 86 386
182 176 113 229 156 364 291 109 108 141 147 192 236 127 216 216 442 258 649
30 146 36 197 33 271 -3 67 -5 74 -25 77 -16 2 -26 16 -38 57 -21 65 -45 90
-78 81 -40 -10 -121 -96 -167 -176 -99 -173 -222 -286 -415 -380 -132 -64
-205 -88 -331 -105 -92 -13 -121 -13 -247 0 -224 24 -347 60 -512 153 -106 59
-156 100 -303 244 -172 169 -224 250 -268 420 -47 182 -41 390 17 569 95 293
247 431 643 584 148 57 217 96 279 157 60 60 63 104 7 133 -40 21 -213 62
-310 74 -110 14 -299 12 -425 -4z m583 -132 c40 -9 24 -20 -60 -38 -134 -29
-345 -93 -423 -129 -224 -103 -388 -285 -475 -526 -112 -310 -90 -658 70
-1080 56 -147 67 -171 126 -260 99 -150 304 -320 489 -406 143 -66 348 -114
484 -114 243 0 600 136 792 302 97 83 179 185 246 303 122 217 182 305 206
305 28 0 -22 -412 -77 -625 -62 -242 -238 -519 -426 -670 -189 -153 -390 -219
-817 -269 -457 -54 -902 33 -1182 231 -98 69 -280 256 -340 348 -29 44 -70
116 -91 160 -72 149 -149 445 -169 648 -18 179 -31 655 -20 740 39 306 258
641 546 836 186 125 464 220 732 251 75 9 345 4 389 -7z"/>
<path d="M4162 4794 c-20 -14 -22 -23 -22 -119 l0 -103 -111 1 c-105 2 -112 1
-130 -22 -25 -30 -25 -85 0 -110 20 -20 28 -22 161 -44 l75 -12 5 -82 c6 -96
15 -110 81 -119 39 -5 49 -3 76 20 26 22 32 36 38 86 l7 60 34 0 c46 0 78 16
98 51 27 46 14 87 -38 110 -22 10 -53 19 -68 19 -34 0 -44 19 -51 97 -6 77
-37 143 -76 166 -36 21 -50 21 -79 1z"/>
<path d="M19425 4061 c-34 -14 -48 -39 -60 -104 -11 -61 -11 -62 -45 -65 -47
-4 -76 -19 -89 -49 -26 -58 -2 -109 57 -118 75 -12 78 -16 86 -94 8 -90 39
-174 70 -190 36 -20 83 -5 102 32 13 24 15 48 9 119 l-6 88 109 -7 c103 -6
110 -5 131 16 25 25 28 77 6 108 -14 20 -74 39 -195 60 l-45 9 -5 82 c-4 54
-11 87 -21 97 -19 19 -77 28 -104 16z"/>
<path d="M12786 4008 c-12 -16 -16 -47 -16 -115 l0 -93 -72 0 c-80 0 -117 -13
-134 -49 -27 -54 20 -90 144 -111 l72 -12 0 -84 c0 -98 16 -134 59 -134 59 0
89 44 100 145 7 65 -1 59 99 85 126 33 104 125 -36 150 l-71 13 -6 56 c-8 73
-21 114 -46 145 -26 33 -72 35 -93 4z"/>
<path d="M6590 3972 c-19 -20 -31 -46 -39 -88 -7 -32 -14 -64 -16 -71 -2 -7
-32 4 -82 33 -128 73 -185 83 -191 33 -3 -22 10 -38 69 -90 141 -125 159 -142
159 -150 0 -5 -30 -9 -67 -10 -89 0 -134 -16 -151 -53 -28 -57 14 -96 104 -96
49 0 54 -8 23 -36 -33 -29 -79 -100 -79 -121 0 -23 18 -43 40 -43 17 0 108 58
159 102 18 16 37 26 40 21 4 -4 15 -39 25 -78 36 -141 93 -205 169 -191 41 8
74 43 82 90 4 17 -2 73 -13 124 -10 50 -15 92 -10 92 5 0 27 -9 49 -21 56 -28
73 -22 79 25 5 38 8 40 51 52 64 16 69 20 69 60 0 30 -5 37 -33 49 -18 7 -68
18 -111 24 -44 6 -82 13 -84 16 -3 3 12 20 33 39 54 50 75 85 75 128 0 27 -6
41 -22 52 -33 23 -60 20 -106 -14 -23 -16 -44 -30 -47 -30 -3 0 -5 25 -5 56 0
66 -10 89 -50 109 -46 24 -87 19 -120 -13z"/>
<path d="M14734 3853 c-14 -15 -16 -31 -11 -113 6 -85 24 -185 42 -232 12 -31
-12 -20 -86 36 -148 113 -230 133 -237 58 -5 -45 39 -111 127 -192 l70 -64
-100 -94 c-105 -100 -123 -130 -94 -162 33 -37 54 -30 244 84 52 31 102 56
111 56 12 0 24 -24 44 -84 28 -86 43 -108 84 -121 34 -10 72 18 72 55 0 38 10
43 56 24 22 -9 63 -17 92 -18 45 -1 57 3 73 23 49 61 9 119 -128 185 -50 25
-94 49 -97 54 -3 5 18 22 47 37 121 65 207 150 207 207 0 15 -11 40 -24 55
-20 23 -32 28 -68 28 -42 0 -69 -13 -219 -108 -33 -21 -29 -28 -52 78 -41 186
-98 263 -153 208z"/>
<path d="M704 3459 c-28 -14 -42 -42 -52 -99 -7 -43 -9 -45 -47 -51 -59 -8
-83 -25 -96 -69 -19 -64 7 -91 113 -114 22 -5 28 -13 33 -44 23 -141 45 -194
89 -213 27 -13 61 -7 91 15 17 13 19 24 17 111 l-3 97 88 -7 c88 -7 139 2 155
28 4 7 8 31 8 54 0 52 -17 63 -135 88 -44 9 -87 19 -96 21 -13 4 -18 21 -21
79 -2 52 -8 80 -20 91 -20 20 -95 28 -124 13z"/>
<path d="M16868 3390 c-36 -28 -49 -93 -47 -232 1 -65 -1 -122 -5 -125 -3 -3
-29 14 -58 39 -29 25 -90 71 -136 102 -98 67 -146 75 -181 30 -12 -15 -21 -33
-21 -41 0 -35 38 -89 111 -161 44 -42 79 -79 79 -82 0 -13 -147 -89 -192 -101
-37 -9 -48 -16 -48 -31 0 -18 5 -19 48 -13 30 4 73 1 117 -9 39 -9 80 -17 92
-19 12 -2 25 -5 27 -8 2 -2 -26 -40 -64 -83 -71 -82 -97 -137 -86 -180 6 -23
12 -26 47 -26 51 0 66 8 165 92 45 37 84 68 88 68 3 0 6 -60 6 -132 0 -114 3
-138 20 -165 25 -42 85 -62 130 -43 53 22 64 49 68 181 3 66 8 119 11 119 4 0
43 -37 87 -81 93 -95 167 -149 207 -149 18 0 39 11 59 30 27 27 30 36 25 71
-7 56 -45 106 -154 206 -51 47 -93 90 -93 95 0 6 32 7 85 3 105 -9 182 0 215
25 20 15 24 27 24 60 -2 76 -60 109 -191 110 -34 0 -64 4 -67 9 -3 4 17 23 45
41 101 65 142 168 83 206 -14 10 -45 17 -69 17 -48 0 -92 -23 -193 -103 -35
-28 -67 -50 -73 -50 -5 0 -9 51 -9 118 0 64 -5 134 -10 154 -20 70 -91 99
-142 58z"/>
<path d="M4510 2905 c-10 -12 -11 -46 -6 -140 5 -93 4 -125 -5 -125 -6 0 -45
31 -85 69 -77 74 -122 93 -163 72 -29 -16 -44 -48 -36 -78 3 -14 31 -52 63
-85 45 -48 53 -61 42 -68 -8 -6 -21 -10 -28 -10 -26 0 -143 -42 -157 -57 -8
-8 -15 -23 -15 -32 0 -35 28 -45 128 -47 54 0 96 -5 95 -10 -1 -5 -30 -61 -64
-124 -66 -123 -78 -173 -44 -178 14 -2 47 21 100 69 l80 73 8 -35 c32 -122 39
-141 75 -178 46 -48 85 -61 112 -36 34 31 34 67 0 162 -17 48 -34 99 -37 111
l-6 24 33 -17 c28 -14 40 -15 71 -6 36 11 40 10 86 -25 59 -45 119 -73 156
-74 37 0 77 40 77 78 0 41 -26 70 -119 132 -44 29 -78 57 -75 61 2 4 30 11 62
14 127 15 162 37 162 101 0 46 -47 84 -103 84 -39 0 -140 -20 -179 -35 -29
-12 -21 12 32 93 60 91 66 138 24 171 -38 30 -77 27 -117 -9 -44 -39 -57 -38
-57 3 0 20 -8 41 -18 50 -23 21 -75 22 -92 2z"/>
<path d="M12431 2096 c-13 -15 -36 -163 -47 -291 -4 -47 -11 -85 -16 -85 -5 0
-30 11 -56 24 -54 27 -189 72 -244 82 -35 6 -38 4 -37 -17 0 -18 23 -42 91
-94 50 -38 110 -82 134 -98 24 -15 44 -30 44 -33 0 -4 -53 -59 -118 -123 -124
-121 -155 -168 -131 -197 9 -11 23 -14 45 -11 37 6 178 91 246 148 26 21 49
36 51 32 3 -5 8 -35 12 -68 14 -121 63 -178 124 -144 34 19 47 68 34 130 -5
27 -6 49 -1 49 5 0 36 -22 71 -49 85 -66 160 -111 186 -111 56 0 81 46 58 103
-17 38 -96 113 -195 182 -41 28 -72 57 -72 67 0 9 21 31 48 49 66 45 210 159
243 191 81 82 70 168 -21 168 -55 0 -113 -38 -251 -162 -47 -43 -90 -78 -96
-78 -6 0 -13 63 -17 157 -4 86 -12 165 -17 175 -11 21 -52 24 -68 4z"/>
<path d="M14796 1447 c-13 -10 -20 -39 -29 -135 -6 -67 -14 -122 -18 -122 -4
0 -31 11 -61 25 -57 27 -117 32 -136 13 -17 -17 -14 -60 6 -83 9 -11 53 -51
97 -89 44 -38 81 -72 83 -76 1 -4 -21 -33 -50 -65 -119 -130 -248 -310 -248
-344 0 -6 9 -15 20 -21 17 -9 28 -7 55 10 19 12 41 30 48 39 17 25 223 241
230 241 2 0 9 -26 16 -57 6 -32 24 -86 41 -120 23 -49 34 -63 52 -64 96 -5
116 36 83 164 -8 32 -15 60 -15 62 0 15 31 -1 90 -44 89 -65 132 -80 167 -61
39 22 49 62 26 107 -14 29 -46 56 -133 114 -63 43 -116 81 -118 87 -1 5 40 44
92 86 111 90 146 129 146 161 0 44 -59 66 -109 40 -17 -8 -71 -51 -119 -95
-74 -67 -112 -93 -112 -76 0 2 -6 39 -14 82 -8 44 -18 106 -22 139 -10 91 -27
112 -68 82z"/>
<path d="M16827 1220 c-13 -11 -28 -32 -32 -47 -9 -37 -23 -53 -47 -53 -10 0
-30 -11 -43 -25 -47 -46 -23 -117 46 -140 39 -14 45 -23 59 -98 14 -70 50
-117 90 -117 48 0 71 28 84 105 l11 70 45 1 c94 2 126 25 122 89 -4 43 -27 63
-91 75 -94 19 -91 17 -91 66 0 34 -6 51 -25 69 -31 32 -91 34 -128 5z"/>
<path d="M7055 1158 c-22 -20 -27 -35 -35 -113 -5 -49 -10 -114 -10 -142 0
-29 -4 -53 -8 -53 -4 0 -34 28 -67 61 -94 97 -186 125 -201 63 -13 -52 3 -102
55 -173 68 -91 67 -101 -8 -101 -73 0 -212 -26 -260 -48 -27 -13 -37 -24 -39
-45 -3 -24 2 -30 34 -43 21 -9 87 -25 146 -37 59 -12 108 -25 108 -29 0 -4
-29 -52 -65 -108 -81 -124 -89 -144 -69 -165 18 -18 38 -19 67 -4 32 17 177
140 233 199 27 27 54 50 60 50 7 0 14 -29 18 -67 12 -120 68 -207 128 -201 32
3 47 20 63 73 5 16 19 6 88 -68 75 -80 85 -87 120 -87 29 0 46 7 68 29 59 59
34 129 -102 282 -33 37 -56 70 -52 72 4 3 48 5 96 6 110 1 142 16 158 71 9 30
9 46 1 65 -21 47 -50 56 -201 62 -105 5 -141 9 -141 19 0 7 4 15 9 19 5 3 28
33 50 66 52 77 57 135 15 168 -32 25 -71 27 -102 5 -24 -17 -32 -9 -30 31 5
75 -3 107 -31 136 -35 35 -61 37 -96 7z"/>
<path d="M3423 945 c-23 -16 -28 -30 -52 -155 l-17 -85 -76 -5 c-95 -6 -118
-23 -118 -87 0 -63 29 -89 108 -98 l62 -7 0 -43 c0 -36 5 -48 31 -69 61 -52
130 -21 152 69 l12 50 70 12 c83 14 152 37 177 60 26 23 23 77 -4 104 -21 20
-30 21 -120 16 l-97 -6 5 107 c6 100 5 108 -15 130 -26 26 -85 30 -118 7z"/>
<path d="M10086 778 c-9 -12 -16 -39 -16 -59 0 -61 -6 -67 -55 -61 -37 4 -47
1 -69 -21 -33 -33 -35 -88 -5 -116 12 -11 45 -24 73 -28 51 -8 51 -8 54 -48 5
-57 34 -85 89 -85 35 0 49 6 68 26 14 15 25 35 25 46 0 12 12 24 35 34 52 21
71 56 57 102 -9 30 -21 42 -55 59 -42 20 -45 24 -51 73 -9 68 -40 100 -95 100
-30 0 -44 -6 -55 -22z"/>
</g>
</svg>
