<?xml version="1.0" standalone="no"?>
<!DOCTYPE svg PUBLIC "-//W3C//DTD SVG 20010904//EN"
 "http://www.w3.org/TR/2001/REC-SVG-20010904/DTD/svg10.dtd">
<svg version="1.0" xmlns="http://www.w3.org/2000/svg"
 width="1330.000000pt" height="986.000000pt" viewBox="0 0 1330.000000 986.000000"
 preserveAspectRatio="xMidYMid meet">

<g transform="translate(0.000000,986.000000) scale(0.100000,-0.100000)"
fill="#000000" stroke="none">
<path d="M4523 9551 c-33 -4 -60 -14 -76 -29 -24 -23 -47 -29 -47 -12 0 6 -16
10 -36 10 -34 0 -94 -29 -161 -76 -21 -15 -23 -15 -34 10 -15 31 -40 33 -84 6
-36 -22 -70 -83 -86 -155 -18 -80 -14 -235 6 -289 21 -56 14 -71 -11 -24 -14
26 -20 68 -25 196 -5 152 -7 164 -29 187 -13 14 -34 25 -47 25 -29 0 -67 -39
-79 -82 -10 -33 -34 -51 -34 -24 0 27 -15 18 -71 -43 -134 -145 -185 -304
-141 -436 22 -65 18 -120 -12 -168 -54 -86 -68 -282 -28 -372 13 -27 40 -72
61 -100 21 -28 47 -78 56 -111 10 -32 24 -80 32 -105 47 -155 334 -500 466
-560 17 -7 27 -22 31 -43 3 -18 21 -63 40 -101 60 -124 179 -215 386 -294 84
-33 119 -38 151 -20 16 8 26 5 49 -15 54 -45 249 -157 309 -177 69 -24 95 -48
95 -92 1 -27 6 -34 34 -43 18 -5 30 -12 28 -15 -19 -18 -80 -314 -106 -514
-15 -113 -10 -106 -117 -150 -103 -43 -309 -166 -408 -245 -33 -26 -84 -73
-113 -104 -54 -57 -72 -67 -72 -42 0 13 -24 76 -68 176 -59 136 -315 635 -344
671 -19 24 -45 66 -56 92 -15 33 -47 72 -104 125 -46 42 -158 151 -250 242
-386 382 -433 422 -658 562 -361 224 -451 281 -610 388 -182 122 -356 213
-475 249 -38 12 -95 29 -125 39 -101 31 -433 20 -525 -18 -196 -81 -262 -137
-313 -267 -18 -45 -32 -88 -32 -95 0 -11 -16 -13 -68 -10 -87 5 -138 -19 -239
-113 -176 -162 -283 -356 -319 -580 -22 -133 -14 -553 16 -810 20 -168 88
-480 135 -620 66 -194 174 -423 310 -655 18 -30 65 -118 105 -195 41 -77 98
-178 128 -225 98 -152 259 -333 328 -368 22 -11 46 -27 53 -36 11 -12 5 -17
-39 -33 -56 -19 -69 -35 -50 -58 16 -19 51 -19 98 0 50 21 67 15 136 -51 l59
-57 -84 -32 c-105 -39 -247 -114 -310 -162 -161 -122 -208 -283 -128 -434 28
-53 38 -64 59 -64 24 0 25 2 23 55 -1 30 -3 72 -5 92 -2 30 3 44 27 68 51 54
96 70 218 80 168 14 269 30 295 46 22 14 22 14 16 -13 -4 -15 -10 -32 -14 -38
-4 -5 -13 -38 -20 -72 l-13 -63 -37 6 c-33 6 -40 3 -56 -20 -21 -33 -11 -46
43 -55 34 -6 38 -9 37 -36 -1 -17 -9 -154 -19 -305 -18 -287 -14 -674 6 -695
16 -16 47 30 58 88 19 93 42 318 51 477 7 133 12 168 38 247 17 51 43 110 57
132 14 22 25 43 25 46 0 3 8 14 17 24 14 14 43 21 123 29 58 6 112 13 121 17
13 5 8 -24 -28 -147 -64 -221 -84 -325 -90 -478 -4 -114 -2 -150 16 -229 35
-158 131 -327 213 -375 59 -34 122 -48 145 -30 17 12 16 14 -13 24 -34 12
-107 91 -147 160 -88 153 -123 350 -96 547 15 111 30 166 119 443 43 135 90
281 104 325 l24 80 62 -2 c200 -6 428 -112 620 -289 133 -124 165 -207 144
-381 -6 -59 -6 -63 13 -63 17 0 73 65 73 84 0 3 18 33 40 67 22 33 54 98 72
143 29 74 32 90 31 183 -2 160 -60 319 -160 441 -38 47 -32 52 23 21 122 -68
218 -142 315 -241 111 -112 139 -126 139 -69 0 80 -135 243 -277 337 -170 112
-453 216 -630 233 l-63 6 157 120 c198 151 449 323 484 330 19 4 46 -3 91 -26
116 -59 272 -105 452 -134 114 -19 432 -21 438 -3 2 6 50 -28 107 -77 56 -48
98 -91 94 -95 -4 -4 -26 -13 -48 -20 -22 -7 -116 -48 -210 -92 -212 -99 -197
-91 -209 -111 -13 -20 18 -57 47 -57 11 0 89 34 174 75 84 41 192 88 240 105
l87 31 42 -42 43 -42 -75 -51 c-149 -100 -294 -231 -310 -279 -6 -20 21 -57
41 -57 7 0 36 26 66 59 64 70 127 120 257 207 83 55 98 62 112 50 8 -8 41 -28
72 -46 48 -26 63 -42 94 -97 109 -196 253 -368 610 -730 l229 -232 -90 50
c-126 71 -216 111 -322 148 l-91 31 -227 0 c-238 0 -304 -9 -386 -50 -73 -38
-129 -129 -157 -258 -8 -32 -26 -60 -74 -110 -103 -109 -141 -212 -131 -357 7
-115 41 -192 119 -274 l62 -67 0 -90 c-1 -83 2 -96 31 -155 18 -35 42 -74 54
-86 36 -39 159 -118 245 -156 80 -36 128 -51 337 -102 55 -13 125 -30 155 -38
30 -8 107 -27 170 -42 122 -28 274 -72 300 -86 19 -11 222 -101 325 -145 50
-21 88 -44 100 -62 39 -53 153 -178 231 -252 254 -242 420 -336 699 -395 17
-4 30 -7 30 -7 0 -2 105 -20 140 -24 28 -3 66 -10 85 -16 19 -6 141 -12 270
-15 129 -2 244 -8 255 -12 11 -4 61 -18 110 -31 50 -12 131 -33 180 -46 188
-50 474 -56 592 -13 108 41 215 126 312 249 104 132 122 174 124 278 2 73 -2
94 -21 132 l-23 45 58 53 c105 96 336 276 413 321 327 193 415 235 490 234
149 0 444 -43 487 -71 23 -14 31 -55 17 -87 -26 -60 -14 -92 30 -81 45 11 71
114 47 179 -15 39 -76 94 -134 120 -73 33 -92 37 -322 67 -288 37 -298 39
-408 82 -90 36 -147 86 -173 154 -21 55 -17 59 68 88 81 27 183 95 231 154 66
82 117 247 117 377 0 133 -30 207 -112 275 -29 24 -62 53 -73 63 -11 10 -77
63 -148 117 -70 54 -176 138 -235 186 -181 147 -747 727 -867 889 -147 197
-152 279 -26 490 72 122 118 175 224 260 113 91 251 156 398 189 106 24 136
26 341 26 292 0 560 -37 813 -112 22 -6 45 -12 52 -14 28 -5 240 -81 368 -131
182 -71 476 -215 631 -310 82 -50 156 -86 223 -109 140 -47 330 -84 434 -84
77 0 88 2 116 26 61 51 27 104 -66 104 -156 0 -450 75 -563 144 -125 76 -470
252 -640 326 -205 90 -549 198 -760 238 -312 59 -289 57 -600 57 l-295 -1
-116 -31 c-374 -100 -668 -362 -768 -687 -11 -37 -21 -84 -21 -103 0 -30 -3
-34 -17 -27 -10 5 -56 9 -103 9 -47 1 -95 4 -108 9 -13 4 -28 3 -36 -3 -14
-12 -95 39 -236 149 -137 107 -570 398 -735 495 -55 32 -116 68 -135 80 -19
12 -87 52 -150 88 -228 131 -451 273 -457 293 -2 5 12 18 30 30 119 75 168
111 172 125 8 23 -4 47 -26 54 -21 7 -22 6 -163 -87 -48 -32 -88 -58 -91 -58
-2 0 -26 31 -54 69 -27 38 -77 98 -110 134 -34 35 -61 67 -61 71 0 3 53 6 118
6 64 0 131 4 148 9 17 5 53 31 80 58 66 66 242 182 385 254 109 54 133 62 311
99 332 69 429 91 908 210 85 21 193 50 240 63 131 38 274 68 675 141 44 8 179
40 300 71 121 31 285 71 364 89 119 27 146 37 152 53 5 13 2 29 -7 42 -13 18
-25 21 -80 21 -65 0 -293 -40 -374 -65 -53 -17 -288 -71 -415 -95 -169 -33
-222 -43 -242 -45 -12 -2 -36 -6 -55 -9 -53 -10 -776 -187 -848 -207 -36 -10
-159 -39 -274 -64 l-209 -46 -24 23 c-44 41 -102 139 -123 205 -66 216 23 564
223 865 90 136 169 223 328 363 121 108 135 114 174 85 6 -4 44 -22 85 -39
105 -44 175 -43 225 1 44 38 74 96 108 208 33 106 50 237 45 338 -4 90 -20
119 -137 244 -39 42 -71 78 -71 82 0 14 139 -22 262 -68 270 -101 660 -312
833 -451 22 -18 49 -35 59 -39 10 -3 17 -9 14 -12 -3 -2 -115 -6 -249 -8 -165
-2 -281 -8 -359 -20 -69 -10 -158 -16 -223 -14 -92 2 -110 0 -118 -14 -6 -11
-3 -23 10 -39 19 -24 20 -24 193 -19 310 8 801 4 898 -8 197 -23 254 -32 363
-57 104 -23 253 -68 372 -112 31 -11 64 -16 85 -13 30 4 35 9 38 36 4 37 -3
43 -93 79 -214 85 -413 136 -610 157 -101 10 -113 14 -145 42 -56 50 -281 220
-325 246 -61 36 -164 94 -225 127 -299 164 -533 254 -750 287 -19 3 -61 2 -93
-3 l-58 -8 -57 45 c-85 66 -129 82 -229 82 -104 0 -188 -23 -323 -88 -266
-129 -440 -257 -728 -537 -118 -114 -436 -459 -462 -501 -8 -13 -19 -23 -25
-21 -5 2 -30 41 -54 88 -24 46 -68 127 -98 179 l-55 95 16 51 c34 107 12 185
-87 313 -23 29 -69 92 -102 139 -73 106 -130 152 -186 152 -26 0 -39 4 -39 14
0 17 -46 66 -128 136 -36 31 -61 59 -58 67 11 28 -16 64 -76 102 -96 60 -118
80 -118 105 0 29 -19 45 -100 89 -86 46 -162 70 -211 65 -37 -3 -50 4 -29 17
16 10 11 41 -10 60 -15 14 -36 18 -92 17 -112 -1 -135 4 -142 34 -6 23 -42 46
-69 43 -7 -1 -35 -5 -64 -8z m151 -133 c-4 -7 -13 -20 -20 -28 -22 -27 -61
-114 -68 -153 -4 -22 -11 -35 -17 -31 -25 15 23 150 73 204 21 22 43 28 32 8z
m-341 -255 c9 -15 -2 -17 -22 -4 -16 11 -21 111 -6 156 8 26 10 18 15 -55 3
-47 9 -91 13 -97z m-529 -83 c14 -146 33 -210 78 -264 33 -38 36 -45 15 -32
-30 20 -71 72 -80 101 -12 38 -37 257 -31 267 9 15 11 8 18 -72z m1126 25 c0
-3 -9 -9 -20 -13 -17 -6 -9 -14 52 -47 116 -62 181 -112 335 -262 24 -23 65
-57 91 -74 164 -111 375 -330 454 -473 30 -54 34 -67 22 -74 -13 -7 -13 -14 1
-51 17 -49 52 -117 74 -144 8 -9 11 -20 7 -24 -3 -4 7 -12 24 -19 16 -7 30
-18 30 -25 0 -7 -7 -8 -17 -4 -61 25 -75 27 -86 16 -9 -9 -5 -24 16 -62 16
-27 30 -64 32 -82 1 -18 17 -53 34 -79 38 -57 40 -72 7 -56 -59 26 -73 -21
-28 -93 16 -24 31 -55 35 -67 5 -20 2 -23 -13 -19 -11 3 -24 -1 -30 -9 -9 -10
-6 -21 14 -47 31 -40 36 -83 9 -72 -33 14 -81 17 -88 5 -7 -11 30 -76 68 -117
29 -33 6 -28 -38 7 -44 35 -47 36 -69 11 -13 -14 -14 -24 -6 -45 12 -34 13
-126 1 -126 -5 0 -18 16 -30 36 -17 29 -26 35 -48 32 -21 -2 -29 -10 -37 -35
l-9 -32 -19 25 c-25 31 -62 29 -66 -3 -2 -15 -10 -23 -23 -23 -15 0 -20 -6
-17 -23 1 -13 -6 -31 -18 -43 -22 -22 -41 -19 -72 13 -16 15 -22 16 -41 4 -9
-6 -12 -23 -10 -55 3 -37 1 -46 -11 -44 -8 2 -15 13 -16 25 -3 53 -33 72 -54
33 -11 -20 -11 -20 -43 3 -59 44 -124 77 -151 77 -25 0 -27 -3 -22 -25 8 -33
1 -32 -45 10 -90 81 -154 47 -94 -50 42 -69 28 -68 -53 3 -43 38 -93 77 -110
87 -17 11 -36 32 -41 47 -7 20 -17 28 -35 28 -13 0 -27 -6 -30 -12 -3 -8 -65
48 -154 139 -142 144 -207 227 -286 368 -69 120 -115 181 -152 198 -33 16 -39
17 -52 3 -9 -8 -21 -41 -28 -73 l-12 -58 -3 55 c-1 30 -3 60 -4 65 0 6 -5 33
-9 60 -4 28 -27 91 -51 140 -59 125 -78 185 -70 232 11 63 36 125 77 188 28
42 37 66 33 82 -3 13 -2 23 2 23 5 0 24 34 43 75 30 64 39 74 61 75 35 0 75
33 84 67 12 51 34 75 61 69 19 -5 36 2 72 31 26 21 56 43 67 49 11 6 22 19 23
29 9 42 114 105 175 105 18 0 64 7 102 16 137 30 205 40 205 29z m2972 -307
c101 -71 174 -141 344 -331 29 -33 32 -54 24 -157 -13 -156 -36 -255 -85 -354
-19 -40 -21 -41 -66 -39 -47 3 -161 41 -217 74 -43 25 -52 24 -96 -6 -20 -13
-36 -21 -36 -16 0 9 15 20 115 87 120 80 135 102 95 139 -18 17 -22 16 -97
-25 -43 -23 -110 -66 -149 -96 -78 -59 -249 -229 -315 -312 -28 -36 -47 -51
-58 -48 -9 3 -90 13 -181 22 -259 26 -586 9 -668 -35 -33 -17 -132 -14 -154 6
-22 20 -23 56 -1 74 9 8 67 70 128 139 189 212 371 389 545 531 90 73 146 113
290 209 57 38 191 107 275 142 82 34 97 37 172 35 76 -2 85 -4 135 -39z
m-2203 -92 c8 -6 34 -42 59 -81 24 -38 63 -92 86 -120 50 -59 97 -129 114
-168 13 -31 16 -87 5 -87 -5 0 -32 35 -62 78 -53 75 -133 177 -155 197 -28 25
-106 123 -106 132 0 6 -7 16 -15 23 -46 38 27 64 74 26z m-1969 -86 c0 -5 -2
-10 -4 -10 -3 0 -8 5 -11 10 -3 6 -1 10 4 10 6 0 11 -4 11 -10z m155 -99 c-14
-12 -85 -22 -85 -11 0 12 20 18 60 19 20 1 30 -3 25 -8z m-194 -138 c47 -9 52
-25 11 -34 -42 -8 -70 6 -85 43 -18 43 -11 55 14 24 12 -15 36 -28 60 -33z
m-1817 -528 c60 -20 141 -53 180 -72 78 -39 189 -113 181 -121 -2 -3 -16 3
-31 13 -168 110 -472 207 -595 189 -100 -14 -208 -60 -296 -125 -55 -41 -69
-46 -75 -27 -4 11 -45 -26 -98 -89 -20 -23 -25 -42 -27 -86 -1 -54 0 -57 23
-57 13 0 47 9 76 20 29 11 105 34 168 50 180 47 343 38 485 -26 22 -10 42 -18
45 -19 3 -1 18 -7 33 -13 16 -7 30 -12 32 -12 3 0 53 -24 113 -53 96 -47 150
-84 312 -213 155 -123 532 -496 601 -596 108 -154 172 -277 210 -403 105 -346
33 -783 -171 -1040 -17 -21 -58 -63 -92 -92 -141 -122 -296 -192 -472 -214
-109 -14 -340 -6 -446 15 -255 50 -487 175 -689 370 -187 182 -288 338 -449
691 -69 154 -146 393 -210 658 -26 107 -7 285 42 392 28 62 125 214 149 234
10 7 17 24 17 37 0 31 -37 47 -109 46 -60 -2 -125 -33 -161 -79 -20 -27 -20
-27 -9 -3 38 82 152 134 243 111 67 -17 73 -15 107 31 l30 43 -30 27 c-29 26
-38 28 -124 29 -86 1 -89 2 -42 10 28 5 103 7 168 5 118 -4 119 -4 113 18 -15
52 -18 164 -7 199 17 52 31 46 31 -12 0 -73 8 -88 29 -53 37 66 66 93 102 94
35 1 62 14 113 56 38 31 118 71 186 93 88 29 208 20 344 -26z m-133 -126 c10
-5 27 -9 38 -9 11 0 23 -5 26 -10 4 -7 -21 -8 -74 -5 -80 5 -151 -2 -288 -29
-40 -7 -73 -12 -73 -10 0 6 103 57 145 71 43 14 195 9 226 -8z m5571 -95 c5
-4 5 -10 0 -17 -38 -48 -149 -288 -176 -380 -45 -157 -86 -399 -86 -509 1
-142 45 -275 121 -362 21 -24 39 -47 39 -50 0 -3 -11 -6 -24 -6 -34 0 -139
-25 -211 -51 -33 -11 -73 -20 -90 -19 -152 6 -357 6 -435 -1 -214 -19 -505
-96 -626 -166 l-42 -24 -25 83 c-14 46 -33 112 -42 148 -32 124 -118 366 -141
391 -21 24 -17 29 24 29 38 0 140 23 177 39 156 70 198 99 292 201 51 56 137
196 158 256 24 72 34 168 32 307 l-2 129 65 -70 c36 -38 83 -83 105 -99 41
-30 126 -73 145 -73 22 0 -20 -53 -239 -301 -265 -300 -438 -456 -577 -519
-46 -21 -69 -44 -59 -59 25 -42 279 93 455 243 111 94 573 627 612 706 43 87
19 149 -62 166 -34 7 -34 7 -10 15 27 9 606 3 622 -7z m-625 -109 c2 -11 -9
-33 -23 -49 l-25 -29 -40 39 c-21 21 -39 41 -39 45 0 7 74 17 110 15 8 -1 16
-10 17 -21z m-2164 -318 c139 -144 168 -177 153 -177 -20 0 -158 58 -206 87
-94 56 -144 105 -174 173 -35 78 -30 92 26 84 40 -5 55 -18 201 -167z m-1838
-27 c150 -119 305 -265 305 -288 0 -20 -19 -6 -107 78 -44 41 -115 104 -158
140 -96 79 -228 205 -200 191 11 -5 83 -60 160 -121z m-2175 18 c0 -2 -10 -46
-23 -98 -19 -83 -22 -121 -21 -300 1 -178 4 -225 28 -355 28 -153 101 -419
138 -503 30 -69 107 -296 102 -301 -9 -10 -25 19 -74 139 -65 160 -97 261
-153 490 -66 272 -68 289 -74 480 -4 137 -2 194 11 261 21 110 44 189 56 189
6 0 10 -1 10 -2z m2527 -154 c-3 -3 -12 -4 -19 -1 -8 3 -5 6 6 6 11 1 17 -2
13 -5z m69 -32 c61 -45 431 -417 514 -517 41 -49 127 -148 190 -218 151 -168
190 -216 190 -233 0 -28 -21 -13 -64 46 -24 33 -72 91 -107 127 -35 37 -76 84
-91 103 -27 37 -37 48 -200 225 -119 129 -271 279 -383 379 -83 74 -104 96
-105 109 0 14 17 7 56 -21z m2373 -384 c49 -103 100 -242 128 -347 43 -165 73
-291 73 -309 0 -32 54 -69 133 -93 39 -12 90 -34 112 -49 45 -31 269 -255 339
-340 l46 -55 -90 -84 c-86 -80 -197 -204 -246 -276 -32 -48 -40 -97 -19 -118
33 -33 85 -10 85 37 0 26 36 83 84 136 18 19 44 49 57 67 13 17 62 63 108 103
l83 72 27 -25 c14 -14 101 -74 193 -134 189 -122 208 -134 518 -326 247 -153
537 -345 754 -499 77 -55 146 -102 153 -105 22 -9 15 -18 -44 -56 -130 -83
-233 -214 -233 -294 0 -65 28 -108 133 -205 73 -68 108 -109 154 -185 33 -54
63 -107 67 -118 15 -42 248 -459 399 -715 184 -310 313 -502 393 -586 90 -92
216 -191 279 -219 132 -59 280 -69 367 -26 23 11 45 17 49 13 3 -4 15 -29 24
-56 35 -91 135 -179 255 -221 l35 -12 -33 -19 c-253 -142 -416 -256 -681 -476
l-63 -53 -117 115 c-65 63 -164 148 -222 188 -104 74 -356 217 -458 261 -52
22 -130 58 -339 157 -51 24 -95 44 -98 44 -7 0 -448 214 -939 454 -417 204
-596 295 -612 310 -14 13 -43 200 -43 275 0 33 8 67 21 94 59 118 149 150 308
111 98 -24 366 -158 541 -269 310 -198 539 -289 528 -211 -2 15 -29 35 -93 69
-115 62 -218 122 -275 162 -212 146 -532 308 -667 339 -100 22 -217 21 -270
-4 -61 -27 -135 -101 -169 -167 -24 -49 -29 -69 -29 -133 1 -41 6 -100 12
-130 6 -30 8 -59 3 -63 -9 -10 -227 198 -338 323 -41 47 -179 195 -306 330
-255 270 -303 325 -397 450 -97 129 -104 141 -88 151 8 4 39 23 69 43 220 138
235 145 500 196 181 35 248 64 330 142 71 68 100 106 144 194 32 64 36 83 46
205 6 74 14 148 16 164 7 41 33 57 262 160 74 34 96 56 87 84 -12 39 -42 35
-163 -20 -64 -29 -126 -52 -136 -51 -27 2 -52 -14 -100 -61 -23 -23 -56 -55
-74 -70 -39 -35 -40 -50 -6 -84 26 -25 26 -26 16 -122 -12 -130 -55 -225 -141
-309 -76 -75 -138 -101 -331 -137 -240 -45 -247 -48 -474 -210 -61 -44 -113
-47 -183 -9 -26 14 -51 29 -56 33 -7 7 157 91 180 91 16 0 43 28 43 45 0 21
-29 45 -54 45 -22 0 -172 -70 -228 -107 -27 -17 -28 -17 -58 12 -16 16 -30 31
-30 34 0 14 206 81 249 81 54 0 80 50 43 84 -16 13 -27 15 -68 6 -63 -12 -160
-42 -229 -71 -53 -22 -54 -22 -83 -3 -47 30 -120 101 -124 121 -2 9 -13 23
-26 29 -34 17 -71 72 -89 133 -19 67 -11 180 18 229 34 59 19 87 -29 52 l-29
-21 -44 24 c-24 14 -75 41 -114 61 -82 44 -139 85 -256 183 -151 126 -245 239
-277 332 -17 49 5 55 183 48 202 -9 420 -55 602 -128 28 -11 34 -11 52 6 24
20 27 55 9 74 -20 19 182 212 295 282 160 99 202 121 267 138 121 32 166 71
175 150 19 190 30 262 60 398 28 125 63 254 90 331 10 28 29 6 74 -90z m-1939
-175 c165 -156 482 -479 530 -539 22 -29 40 -57 40 -64 0 -6 -162 150 -360
349 -198 198 -360 365 -360 371 0 19 32 -5 150 -117z m3180 -307 c0 -2 -29
-22 -64 -44 -86 -55 -179 -134 -218 -185 l-31 -42 -116 0 c-96 0 -124 -4 -161
-21 l-45 -20 -63 53 c-35 30 -79 61 -98 70 -19 9 -34 20 -34 24 0 9 198 79
274 96 33 8 102 23 151 35 50 11 126 24 170 28 94 8 235 12 235 6z m-2824
-258 c60 -66 80 -93 59 -78 -34 24 -86 74 -96 93 -16 28 5 20 37 -15z m-3216
-433 c101 -197 170 -310 263 -425 33 -41 67 -84 76 -95 8 -11 -8 3 -38 30 -66
63 -179 213 -228 302 -20 37 -44 79 -53 93 -37 54 -141 305 -117 280 3 -3 46
-86 97 -185z m3174 149 c40 -15 8 -24 -86 -24 -99 0 -176 -14 -198 -36 -5 -5
-16 -27 -24 -49 l-15 -40 0 56 c-1 59 13 79 64 92 29 7 241 8 259 1z m-478
-304 c48 -159 155 -349 208 -370 13 -6 -35 -9 -126 -9 -197 -1 -238 -21 -238
-115 0 -60 12 -95 47 -135 l34 -41 -47 -27 c-106 -63 -207 -132 -353 -242
-200 -151 -244 -182 -250 -176 -2 3 -6 24 -7 48 -1 23 -14 69 -30 102 -48 102
-272 311 -439 410 -12 7 19 11 109 12 288 3 442 46 646 181 128 85 228 198
300 341 31 62 90 230 91 260 1 14 7 -14 15 -64 7 -49 25 -128 40 -175z m-2346
25 c47 -54 120 -105 150 -105 11 0 20 -4 20 -9 0 -5 16 -25 36 -44 60 -58 35
-59 -61 -2 -91 53 -129 88 -178 160 -50 74 -31 74 33 0z m185 -513 c28 -10
125 -57 215 -104 552 -286 666 -362 766 -512 32 -48 39 -54 47 -40 5 9 7 45 4
80 -14 150 -115 258 -392 422 -85 51 -110 70 -102 78 3 3 54 -20 114 -52 324
-173 454 -341 413 -535 -11 -51 -16 -59 -36 -59 -17 0 -28 11 -46 46 -43 87
-167 190 -380 317 -204 121 -513 291 -588 324 -25 11 -51 27 -59 36 -17 21
-17 21 44 -1z m2999 -47 c31 -14 63 -25 70 -25 10 0 15 -28 19 -112 2 -62 8
-121 12 -131 7 -17 0 -18 -131 -14 -77 3 -146 6 -154 7 -8 1 -51 6 -95 11
-131 16 -309 70 -422 128 -57 29 -151 101 -165 126 -4 7 37 -3 95 -23 96 -34
111 -36 255 -40 105 -3 157 -1 165 7 6 6 27 11 47 11 38 0 156 36 206 63 37
21 32 21 98 -8z m-2733 -408 c30 -21 113 -72 184 -115 173 -103 244 -151 255
-173 21 -38 -12 -29 -100 28 -222 142 -340 222 -408 276 -88 70 -222 201 -222
217 0 6 53 -36 118 -92 65 -57 143 -120 173 -141z m6994 -201 c9 -24 33 -68
53 -99 97 -145 673 -754 778 -822 28 -18 60 -44 71 -59 12 -14 25 -26 31 -26
6 0 33 -19 62 -42 62 -52 91 -74 200 -155 79 -60 119 -93 246 -208 49 -44 57
-58 70 -110 7 -33 14 -89 14 -124 l0 -63 -47 7 c-63 9 -135 42 -230 106 -130
87 -203 115 -231 87 -31 -31 -15 -50 128 -154 151 -109 206 -143 268 -164 45
-17 62 -28 62 -41 0 -26 -57 -87 -117 -126 l-53 -33 -38 25 c-23 15 -57 55
-83 96 -69 111 -91 133 -122 125 -27 -6 -33 -28 -27 -91 3 -34 46 -121 89
-179 37 -50 39 -56 24 -64 -35 -18 -164 -62 -181 -61 -12 0 -45 57 -106 182
-99 200 -167 307 -195 307 -47 0 -31 -69 59 -265 36 -79 79 -203 72 -210 -9
-9 -102 46 -173 103 -74 59 -190 177 -221 224 -9 14 -24 32 -32 41 -16 16 -71
108 -189 317 -38 69 -95 166 -125 215 -70 114 -113 188 -173 297 -26 48 -55
97 -63 110 -8 13 -43 77 -78 143 -134 250 -165 294 -289 406 l-82 75 17 35
c24 50 118 152 174 188 57 36 128 48 309 50 l111 1 17 -44z m-5915 -12 c0 -15
-6 -24 -16 -24 -11 0 -14 5 -10 16 3 9 6 22 6 30 0 9 5 12 10 9 6 -3 10 -17
10 -31z m478 -311 c7 -22 -12 -14 -53 23 l-40 36 44 -24 c25 -13 46 -29 49
-35z m-994 -22 c7 -11 -16 -30 -93 -76 -85 -51 -122 -85 -163 -148 -28 -44
-33 -49 -36 -29 -4 25 48 125 82 158 35 34 78 60 136 82 64 24 67 25 74 13z
m735 -46 c100 -35 297 -171 386 -266 66 -70 97 -122 102 -170 6 -45 -11 -53
-22 -11 -9 39 -92 160 -139 205 -57 54 -110 88 -268 174 -76 41 -138 77 -138
79 0 9 40 3 79 -11z m-1079 -14 c0 -15 -111 -78 -184 -106 -36 -14 -101 -32
-143 -40 -43 -9 -88 -18 -100 -20 -13 -3 -23 -1 -23 4 0 5 17 12 37 16 20 4
53 15 73 25 19 9 73 30 120 45 47 15 110 40 140 56 57 30 80 36 80 20z m113
-314 c-10 -26 -21 -47 -25 -47 -11 0 -11 2 12 56 26 60 36 52 13 -9z m311 21
c-4 -13 -10 -38 -15 -56 -10 -44 -11 -45 -45 -28 -16 8 -49 17 -74 21 l-45 8
36 12 c20 7 54 24 75 38 51 34 78 35 68 5z m3231 -496 c33 -8 81 -26 107 -39
26 -13 69 -32 96 -42 65 -26 274 -147 444 -257 194 -126 234 -149 397 -237
198 -105 837 -420 1086 -535 211 -97 476 -220 540 -252 33 -16 162 -78 287
-139 125 -60 258 -130 295 -154 163 -105 408 -334 461 -431 26 -48 30 -153 8
-207 -32 -76 -174 -232 -242 -267 -98 -49 -159 -62 -290 -62 -70 0 -143 4
-163 10 -20 5 -76 19 -125 31 -106 25 -238 75 -356 134 -47 23 -96 46 -110 50
-14 4 -72 28 -130 52 -203 86 -365 155 -395 169 -65 29 -344 142 -405 164 -36
13 -69 27 -74 32 -6 4 -16 8 -24 8 -7 0 -32 8 -55 19 -23 10 -103 42 -177 71
-74 28 -168 67 -208 86 -41 19 -76 34 -78 34 -2 0 -32 13 -66 29 -305 141
-380 168 -588 215 -124 28 -276 64 -300 71 -8 2 -67 17 -130 33 -262 67 -355
107 -441 188 -79 76 -89 101 -89 223 l0 100 -73 85 c-82 96 -97 134 -97 249 0
85 12 110 113 234 44 56 71 99 82 134 8 29 15 57 15 61 0 27 46 109 68 124 57
37 108 43 337 37 152 -3 238 -10 280 -21z m1157 -2022 c13 -5 68 -26 123 -46
55 -20 118 -44 140 -54 22 -10 103 -43 180 -73 77 -31 241 -99 365 -152 124
-54 253 -109 288 -123 76 -32 64 -43 -33 -30 -38 5 -122 15 -185 24 -127 16
-303 55 -392 86 -110 39 -298 162 -435 285 -39 36 -80 71 -90 79 -16 12 -17
13 -1 14 9 0 27 -4 40 -10z"/>
<path d="M5160 8673 c-8 -3 -61 -27 -117 -54 -89 -43 -102 -53 -108 -79 -6
-26 -8 -28 -21 -15 -24 23 -48 18 -67 -14 -22 -38 -22 -66 3 -106 43 -69 94
-44 84 41 -6 47 -6 48 10 27 10 -13 23 -23 29 -23 7 0 39 18 72 40 78 53 113
68 193 81 70 11 96 24 88 45 -3 7 -1 16 5 20 6 4 4 13 -7 25 -14 15 -30 19
-83 18 -36 0 -73 -3 -81 -6z"/>
<path d="M5249 8468 c-49 -12 -129 -76 -156 -123 -24 -43 -29 -94 -13 -126 15
-27 73 -25 112 3 73 51 184 153 205 187 38 61 33 69 -44 68 -38 0 -84 -4 -104
-9z"/>
<path d="M4549 8207 c-43 -33 -129 -192 -149 -276 -13 -54 -10 -208 5 -243 4
-10 18 -18 30 -18 28 0 43 37 47 115 4 82 64 232 124 311 30 39 30 65 2 91
-34 30 -42 32 -59 20z"/>
<path d="M5253 8015 c-33 -25 33 -75 100 -75 8 0 25 -8 38 -19 l23 -18 -32
-48 c-18 -27 -32 -58 -32 -69 0 -22 16 -54 23 -46 2 3 29 35 60 73 34 40 57
77 57 91 0 32 -36 76 -79 93 -53 23 -138 32 -158 18z"/>
<path d="M4751 7953 c-35 -7 -96 -48 -118 -80 -46 -66 -72 -200 -42 -218 21
-14 68 18 145 99 79 81 123 158 110 191 -5 15 -42 18 -95 8z"/>
<path d="M5682 7824 c-12 -8 -41 -43 -64 -77 -47 -70 -186 -233 -244 -288 -54
-51 -144 -115 -198 -141 -49 -23 -52 -28 -36 -59 9 -16 22 -19 79 -19 94 0
164 15 237 51 153 74 263 269 267 475 2 72 -6 83 -41 58z m-52 -191 c-17 -57
-32 -87 -75 -152 -35 -52 -59 -75 -114 -109 -38 -24 -87 -45 -108 -48 l-38 -6
31 29 c18 15 67 59 110 96 44 37 104 101 134 142 30 41 58 74 62 75 4 0 3 -12
-2 -27z"/>
<path d="M5248 7700 c-15 -4 -41 -18 -58 -30 -23 -17 -40 -21 -65 -17 -27 4
-34 2 -38 -15 -3 -11 -2 -31 3 -44 8 -20 16 -24 55 -24 37 0 51 6 84 35 21 20
55 38 77 43 26 5 40 14 42 26 7 33 -38 45 -100 26z"/>
<path d="M2125 7181 c-124 -20 -177 -56 -339 -229 -57 -62 -57 -81 4 -136 39
-35 42 -36 68 -22 16 8 36 29 47 48 23 42 168 175 219 201 53 28 147 46 238
47 42 0 79 4 82 8 8 14 -23 51 -57 69 -36 18 -181 26 -262 14z"/>
<path d="M2488 6946 c-15 -8 -66 -15 -120 -18 -88 -3 -98 -5 -163 -43 -81 -47
-115 -94 -142 -197 -26 -100 -15 -105 94 -48 48 25 118 66 157 92 101 67 236
187 236 209 0 23 -24 24 -62 5z m-330 -229 c3 -23 0 -27 -22 -27 -30 0 -30 0
-14 35 14 31 32 28 36 -8z"/>
<path d="M1264 6645 c-3 -8 -22 -17 -42 -20 -56 -9 -77 -21 -151 -79 -76 -61
-113 -102 -140 -155 -57 -110 -58 -285 -3 -369 24 -37 41 -8 54 93 20 163 54
207 248 325 127 76 143 92 134 134 -12 60 -85 111 -100 71z"/>
<path d="M1387 6300 c-95 -15 -136 -29 -172 -61 -44 -39 -82 -118 -96 -199 -6
-36 -23 -86 -38 -112 -21 -38 -23 -50 -13 -60 10 -10 26 1 80 58 37 39 87 85
112 101 48 33 97 82 149 151 l33 42 -29 0 c-15 0 -34 4 -41 9 -8 5 19 12 70
19 45 7 87 17 92 22 27 27 -54 44 -147 30z"/>
<path d="M2180 6168 c-26 -18 -36 -32 -38 -57 -5 -50 14 -62 43 -28 16 18 34
27 54 27 16 0 37 7 46 16 15 16 15 18 -2 35 -31 30 -65 33 -103 7z"/>
<path d="M2720 6071 c0 -23 -100 -61 -200 -76 -121 -18 -170 -40 -256 -116
-36 -31 -79 -63 -97 -70 -17 -7 -53 -27 -78 -46 -48 -34 -97 -115 -148 -245
-13 -31 -36 -68 -52 -83 -25 -21 -28 -29 -18 -41 18 -22 45 -17 81 14 27 23
55 33 153 51 193 38 303 93 444 226 55 51 121 145 158 226 12 25 33 60 48 77
14 17 27 44 28 59 2 25 -2 28 -30 31 -18 2 -33 -1 -33 -7z m-255 -247 c-11 -8
-48 -38 -83 -67 -35 -29 -80 -61 -100 -72 -20 -11 -50 -29 -65 -39 -15 -10
-30 -16 -33 -14 -3 3 10 15 28 27 45 29 112 77 187 134 35 26 68 47 75 47 6 0
2 -7 -9 -16z"/>
<path d="M1920 5988 c-25 -27 -25 -39 -2 -68 25 -30 58 -19 80 27 16 33 16 36
-3 49 -27 20 -51 17 -75 -8z"/>
<path d="M5732 5580 c-66 -44 -133 -121 -163 -185 -13 -29 -19 -64 -19 -124 0
-71 4 -92 27 -138 31 -65 67 -94 88 -72 7 8 15 30 16 49 2 26 16 49 52 87 68
74 80 109 89 243 3 63 8 129 10 145 5 45 -27 43 -100 -5z m22 -165 c0 -27 -3
-63 -7 -78 l-8 -28 -37 31 c-20 16 -43 30 -50 30 -12 0 -12 4 1 23 32 49 63
77 82 75 17 -3 20 -10 19 -53z m-74 -174 c0 -15 -30 -33 -45 -27 -9 3 -15 18
-15 41 l0 36 30 -21 c17 -12 30 -25 30 -29z"/>
<path d="M4936 4955 c-117 -41 -181 -80 -238 -144 -65 -73 -96 -161 -56 -161
6 0 33 23 59 52 l48 51 68 -19 c95 -27 232 -24 338 6 44 12 105 23 135 24 54
1 55 1 58 33 5 46 -52 104 -142 147 -106 52 -150 54 -270 11z m189 -82 c19 -9
34 -21 32 -26 -3 -10 -76 -42 -82 -36 -2 2 -6 21 -10 42 -8 43 3 47 60 20z
m-161 -35 c9 -17 16 -35 16 -40 0 -14 -44 -9 -68 8 -26 18 -28 39 -4 53 28 17
40 13 56 -21z"/>
<path d="M5740 4794 c-36 -26 -78 -58 -93 -73 -32 -29 -97 -122 -97 -138 0
-21 29 -33 106 -43 87 -12 130 -28 159 -60 31 -34 51 -41 79 -28 30 13 32 31
11 72 -10 20 -15 59 -15 130 0 82 -4 110 -20 144 -27 55 -47 54 -130 -4z m70
-128 l0 -65 -32 11 c-18 6 -45 12 -60 15 -16 3 -28 9 -28 13 0 13 91 90 106
90 10 0 14 -17 14 -64z"/>
<path d="M7528 4238 c-70 -75 -110 -228 -74 -283 33 -51 62 -29 86 67 10 42
30 102 43 133 26 63 25 90 -5 106 -15 8 -24 4 -50 -23z"/>
<path d="M5310 2761 c-23 -44 3 -121 64 -190 33 -37 114 -71 172 -71 60 0 74
12 74 61 0 32 -7 43 -60 90 -78 69 -176 129 -211 129 -18 0 -32 -7 -39 -19z"/>
<path d="M4815 2685 c-3 -8 -7 -21 -9 -29 -7 -21 48 -99 106 -151 80 -72 164
-116 229 -122 52 -5 57 -4 77 22 27 34 28 65 3 113 -26 50 -54 75 -136 117
-113 59 -259 86 -270 50z"/>
<path d="M4736 2364 c-50 -50 26 -183 136 -240 94 -48 228 -41 249 13 27 72
-4 126 -82 142 -29 6 -93 32 -144 56 -98 48 -134 55 -159 29z"/>
<path d="M5780 2346 c-30 -13 -116 -34 -190 -46 -150 -24 -180 -37 -227 -98
-64 -84 -62 -163 7 -307 21 -44 58 -123 82 -175 48 -103 75 -130 131 -130 49
0 79 36 85 103 l4 53 58 17 c108 31 167 108 156 201 -6 43 -3 58 19 96 65 116
95 182 95 211 0 39 -27 86 -54 93 -44 12 -113 4 -166 -18z"/>
<path d="M4830 1913 c-48 -19 -54 -91 -12 -133 39 -38 88 -52 215 -57 119 -6
149 4 161 52 9 35 -20 92 -56 111 -17 9 -80 19 -156 24 -143 11 -132 10 -152
3z"/>
<path d="M10322 7777 c-85 -32 -50 -97 52 -97 50 0 304 -56 404 -89 115 -38
373 -163 473 -229 41 -27 114 -75 163 -107 266 -173 595 -460 767 -670 78 -94
216 -295 286 -415 52 -90 155 -298 168 -340 4 -14 11 -29 15 -35 11 -14 105
-295 126 -375 24 -96 35 -381 18 -495 -29 -195 -123 -391 -263 -550 -76 -86
-91 -127 -50 -140 30 -10 117 36 175 92 85 82 182 242 219 363 10 30 23 73 30
95 7 22 21 95 30 161 15 103 16 142 7 261 -11 142 -16 167 -59 333 -24 94 -31
114 -94 280 -43 114 -172 375 -239 480 -90 144 -241 350 -318 434 -253 277
-622 574 -952 767 -124 72 -339 174 -436 207 -188 64 -447 98 -522 69z"/>
<path d="M9085 7269 c-160 -18 -240 -53 -595 -258 -231 -133 -436 -236 -558
-281 -126 -46 -125 -86 1 -84 111 2 284 73 542 225 227 133 378 213 472 249
56 22 106 40 111 40 5 0 23 7 38 15 16 8 38 15 49 15 11 0 33 11 50 24 30 24
30 24 11 45 -11 12 -26 20 -35 20 -9 -1 -47 -5 -86 -10z"/>
<path d="M10596 4558 c-15 -24 -48 -103 -71 -173 -22 -65 -82 -324 -95 -405
-6 -41 -16 -94 -21 -117 -5 -23 -9 -123 -9 -221 0 -221 14 -304 79 -487 17
-47 70 -146 120 -225 63 -100 79 -136 97 -210 13 -53 13 -56 -16 -107 -46 -82
-38 -123 27 -123 48 0 77 17 106 63 48 73 35 194 -34 329 -21 43 -56 106 -77
140 -130 212 -166 346 -166 613 0 187 28 383 89 630 69 278 71 315 15 315 -20
0 -34 -8 -44 -22z"/>
</g>
</svg>
