<?xml version="1.0" standalone="no"?>
<!DOCTYPE svg PUBLIC "-//W3C//DTD SVG 20010904//EN"
 "http://www.w3.org/TR/2001/REC-SVG-20010904/DTD/svg10.dtd">
<svg version="1.0" xmlns="http://www.w3.org/2000/svg"
 width="1024.000000pt" height="1024.000000pt" viewBox="0 0 1024.000000 1024.000000"
 preserveAspectRatio="xMidYMid meet">

<g transform="translate(0.000000,1024.000000) scale(0.100000,-0.100000)"
fill="#000000" stroke="none">
<path d="M4345 9565 c-16 -2 -113 -9 -215 -15 -190 -12 -342 -32 -385 -52 -29
-13 -52 -60 -93 -189 -30 -92 -89 -305 -97 -352 -3 -12 -9 -44 -15 -72 -59
-295 -94 -758 -71 -955 36 -312 101 -489 252 -690 143 -190 330 -312 597 -391
37 -11 45 -19 67 -64 59 -125 70 -195 79 -471 l6 -181 -37 -7 c-21 -3 -58 -6
-83 -6 -51 0 -41 -12 -153 198 -42 80 -46 93 -28 87 34 -10 99 16 139 57 50
51 108 208 85 231 -44 43 -275 -93 -303 -179 -20 -59 -5 -115 70 -265 38 -78
70 -143 70 -145 0 -2 -11 -4 -23 -4 -31 0 -129 -33 -161 -54 -39 -25 -56 -68
-63 -156 l-6 -80 -48 -31 c-98 -62 -133 -126 -133 -239 0 -95 41 -166 172
-302 l55 -56 -17 -41 c-24 -60 -20 -111 15 -197 25 -65 31 -94 34 -183 3 -110
17 -164 57 -230 31 -51 102 -142 127 -165 11 -11 21 -22 21 -26 0 -13 -114
-57 -220 -85 -204 -53 -264 -74 -302 -105 -63 -52 -59 -130 9 -178 121 -84
383 -124 806 -121 l268 1 62 -49 c34 -26 80 -60 102 -74 48 -30 192 -92 255
-110 25 -7 50 -14 55 -15 87 -25 222 -67 235 -74 23 -12 88 -90 171 -205 575
-792 709 -1004 1026 -1623 308 -604 355 -690 454 -838 55 -83 75 -104 95 -104
31 0 5 71 -72 190 -45 70 -158 279 -256 475 -302 601 -395 772 -581 1065 -114
179 -341 510 -445 648 -32 42 -73 100 -92 127 -57 84 -199 273 -210 280 -19
12 -10 25 18 25 84 0 253 134 316 251 l30 54 -95 -89 c-106 -100 -187 -157
-259 -181 -48 -16 -50 -16 -142 14 -51 16 -151 49 -223 72 -71 23 -148 50
-170 61 -63 32 -175 102 -175 110 0 5 21 8 48 8 54 0 237 30 331 55 96 25 148
52 172 92 40 64 10 131 -75 173 -34 16 -211 73 -266 85 -62 14 -229 67 -266
85 -89 43 -153 147 -154 248 l0 42 63 0 c53 0 67 4 85 23 34 36 38 79 12 150
-25 69 -63 141 -93 174 l-19 22 33 -2 c83 -3 101 3 134 37 37 40 47 89 29 141
-26 76 -197 261 -312 337 -34 22 -61 43 -58 45 2 2 25 -5 52 -15 124 -49 244
-47 311 4 l32 24 12 -22 c42 -79 119 -154 119 -117 0 12 -64 142 -85 173 -8
11 -15 32 -15 47 0 42 -175 268 -270 348 l-50 42 4 172 c7 258 24 310 120 375
60 40 91 43 82 7 -9 -34 11 -150 34 -202 10 -24 30 -54 44 -68 14 -14 41 -59
60 -99 18 -40 53 -99 76 -131 44 -60 254 -273 630 -640 l225 -220 101 -170
c198 -333 234 -413 244 -541 l6 -81 57 -64 c31 -35 129 -161 218 -279 314
-417 577 -733 1063 -1279 76 -86 243 -273 370 -416 395 -443 538 -615 745
-897 62 -84 100 -128 113 -128 28 0 22 26 -28 114 -116 201 -302 431 -814
1005 -129 144 -253 284 -275 310 -22 26 -137 156 -255 290 -247 280 -537 627
-683 816 -55 72 -142 182 -192 245 -50 63 -104 133 -121 155 -16 22 -53 70
-83 108 -51 64 -54 71 -61 145 -12 115 -47 196 -203 462 -144 247 -169 278
-389 490 -689 661 -720 701 -748 995 -6 61 -16 129 -22 153 -16 63 -38 64
-154 6 -53 -26 -102 -54 -110 -61 -12 -12 -14 -12 -14 5 0 22 30 111 55 163
15 31 24 38 58 43 120 19 331 129 449 232 158 139 306 400 338 595 5 35 12 75
15 89 18 88 27 276 22 435 -14 411 -91 791 -245 1213 -11 30 -28 62 -38 73
-44 43 -336 76 -739 83 -148 2 -283 3 -300 1z m545 -65 c194 -11 381 -31 375
-40 -2 -3 -82 -13 -177 -21 -254 -21 -890 -19 -1068 4 -74 9 -141 17 -147 17
-20 0 -15 16 5 16 9 1 96 6 192 13 263 17 261 17 470 19 107 1 265 -3 350 -8z
m-1015 -91 c219 -31 336 -40 570 -46 277 -6 606 8 772 33 151 22 131 39 195
-158 61 -186 62 -192 108 -409 86 -415 104 -884 44 -1146 -33 -144 -109 -308
-192 -417 -210 -273 -502 -394 -884 -366 -88 6 -145 16 -203 36 -44 14 -86 27
-92 27 -7 0 -13 4 -13 9 0 4 -5 8 -11 8 -6 0 -39 14 -73 31 -171 86 -335 257
-428 444 -129 260 -163 534 -123 971 33 361 75 567 185 919 28 87 26 85 53 79
12 -3 54 -10 92 -15z m843 -2594 c2 -2 -8 -39 -22 -83 -35 -113 -58 -299 -60
-494 -1 -123 -4 -164 -12 -157 -7 5 -31 15 -55 22 l-44 13 -2 144 c-3 269 -10
373 -33 441 -12 34 -28 72 -36 83 -27 39 -19 41 123 38 76 -2 139 -5 141 -7z
m249 -252 c6 -60 14 -117 18 -127 6 -13 5 -17 -2 -13 -20 12 -59 217 -46 240
13 22 21 -4 30 -100z m-660 -7 c-26 -56 -52 -80 -100 -91 -27 -7 -57 7 -57 26
0 29 171 152 178 129 2 -5 -8 -34 -21 -64z m313 -547 c67 -32 194 -131 145
-113 -11 4 -36 9 -55 11 -29 4 -40 -1 -61 -24 -48 -51 -61 -121 -33 -176 23
-43 32 -50 105 -88 102 -52 53 -45 -112 17 -182 66 -213 75 -276 72 -35 -1
-81 10 -171 43 l-124 44 6 72 c3 39 11 82 17 96 13 29 61 52 139 66 30 6 64
13 75 15 11 3 76 4 145 3 121 -2 127 -3 200 -38z m158 -166 c61 -35 77 -48
123 -106 45 -57 47 -69 17 -97 -19 -18 -31 -21 -66 -16 -62 8 -123 38 -165 80
-49 48 -48 92 1 149 20 23 35 22 90 -10z m-542 -197 c249 -99 324 -134 404
-187 60 -41 74 -59 45 -59 -27 0 -64 -50 -70 -94 -9 -58 9 -117 51 -167 19
-23 33 -43 31 -45 -2 -3 -64 27 -138 65 -95 49 -167 78 -249 101 -63 17 -152
42 -196 56 -86 25 -124 30 -124 15 0 -13 56 -58 81 -66 16 -5 18 -10 9 -18
-16 -16 -160 133 -194 202 -28 53 -34 119 -16 166 11 30 34 24 24 -7 -4 -14
-3 -18 6 -13 6 4 10 21 9 39 -2 17 0 37 5 44 9 16 76 51 97 52 9 0 110 -38
225 -84z m582 -373 c83 -89 97 -114 81 -146 -17 -31 -28 -37 -72 -37 -65 0
-116 40 -161 128 -19 36 -14 93 11 117 32 33 64 18 141 -62z m-530 -84 c69
-16 137 -43 260 -104 160 -78 232 -126 169 -110 -81 21 -128 -123 -70 -212 15
-22 15 -26 3 -21 -107 40 -478 129 -486 116 -3 -5 1 -20 10 -33 18 -27 95 -58
203 -82 l75 -16 -6 -64 c-11 -124 -54 -231 -113 -283 -15 -14 -25 -21 -21 -16
4 4 -2 18 -13 30 -49 51 -114 146 -142 206 -27 55 -32 81 -38 175 -5 82 -14
130 -33 184 -14 40 -26 84 -26 99 0 45 19 98 45 126 30 32 59 33 183 5z m463
-296 c32 -36 53 -70 67 -110 9 -27 8 -36 -4 -48 -45 -45 -144 32 -144 113 0
72 37 93 81 45z m-110 -284 c16 -182 112 -296 294 -352 28 -8 95 -27 150 -42
236 -64 335 -107 335 -145 0 -31 -69 -66 -171 -85 -13 -3 -46 -9 -74 -15 -213
-42 -765 -66 -972 -41 -232 28 -371 64 -418 107 -52 48 -17 78 139 120 55 14
110 28 122 30 13 2 35 9 49 14 14 5 25 6 25 3 0 -4 5 -2 12 5 7 7 20 12 29 12
34 0 184 84 227 127 24 24 54 68 67 97 24 55 57 194 54 230 -1 12 -1 24 0 28
1 3 29 -1 64 -11 l62 -18 6 -64z"/>
<path d="M4385 8010 c-303 -12 -524 -26 -704 -46 l-54 -6 6 -76 c3 -43 10 -90
16 -107 6 -16 20 -61 32 -100 56 -179 127 -292 276 -436 84 -82 113 -102 203
-147 133 -65 203 -88 315 -103 85 -11 265 -8 330 6 200 42 366 161 517 370 91
127 160 326 173 503 l7 91 -38 10 c-141 37 -212 43 -544 46 -184 2 -425 0
-535 -5z m55 -525 c0 -8 -4 -15 -10 -15 -5 0 -10 7 -10 15 0 8 5 15 10 15 6 0
10 -7 10 -15z"/>
<path d="M4424 5975 c-19 -46 -31 -115 -17 -100 14 15 47 124 40 132 -4 3 -14
-11 -23 -32z"/>
<path d="M3936 5602 c-17 -63 -21 -102 -8 -102 10 0 42 103 42 135 0 44 -17
27 -34 -33z"/>
<path d="M4429 5443 c-6 -16 -15 -41 -20 -56 -7 -25 -6 -27 7 -16 15 12 44 72
44 90 0 20 -21 7 -31 -18z"/>
<path d="M4483 5428 c-21 -26 -34 -58 -24 -58 6 0 18 14 26 31 17 32 15 49 -2
27z"/>
<path d="M4118 5127 c-5 -10 -8 -40 -7 -65 l1 -47 9 40 c12 48 9 101 -3 72z"/>
<path d="M4156 5094 c-3 -9 -6 -32 -5 -52 l1 -37 18 39 c17 37 17 66 0 66 -4
0 -11 -7 -14 -16z"/>
<path d="M4107 4084 c-9 -10 35 -28 121 -51 121 -32 484 -22 645 18 46 12 51
34 5 25 -18 -3 -144 -9 -279 -12 -224 -6 -375 1 -464 22 -11 3 -24 2 -28 -2z"/>
<path d="M5118 5313 c-7 -33 -13 -118 -13 -198 0 -118 4 -152 23 -215 48 -154
147 -282 294 -380 81 -55 182 -97 209 -88 6 2 -36 35 -93 72 -111 75 -235 187
-276 251 -94 147 -140 334 -127 518 4 53 4 97 2 97 -3 0 -12 -26 -19 -57z"/>
</g>
</svg>
